<?xml version="1.0" standalone="no"?><svg xmlns="http://www.w3.org/2000/svg" class="icon"  id="Em300SldN00Cn-Ltn-Online" viewBox="0 0 1024 1024"><path d="M502.479238 928.384c103.235048 0 352.377905-288.426667 352.377905-483.047619S697.088 92.952381 502.473143 92.952381c-194.608762 0-352.377905 157.769143-352.377905 352.384 0 194.620952 249.142857 483.047619 352.384 483.047619z" fill="#8AB5D1" ></path><path d="M508.190476 85.333333a361.904762 361.904762 0 0 1 361.904762 361.904762c0 84.303238-45.561905 185.788952-106.172952 274.93181l-13.714286 19.584a892.379429 892.379429 0 0 1-73.368381 89.368381l-15.122286 15.658666c-57.984 58.282667-115.431619 96.572952-153.526857 96.572953s-95.542857-38.28419-153.526857-96.572953l-15.11619-15.622095a892.379429 892.379429 0 0 1-73.374477-89.404952l-13.714285-19.584C191.847619 633.027048 146.285714 531.541333 146.285714 447.238095A361.904762 361.904762 0 0 1 508.190476 85.333333z m0 38.095238c-178.834286 0-323.809524 144.975238-323.809524 323.809524 0 70.174476 41.526857 163.736381 96.609524 248.003048l12.952381 19.273143c72.265143 104.874667 162.816 190.744381 214.247619 190.744381 51.431619 0 141.982476-85.869714 214.284191-190.744381l12.915809-19.273143c55.046095-84.272762 96.609524-177.828571 96.609524-248.003048 0-178.834286-144.975238-323.809524-323.809524-323.809524z" fill="#FFFFFF" ></path><path d="M699.026286 323.047619l1.901714 1.895619L725.333333 349.348571v227.328l-1.974857 1.883429-24.289524 23.082667-1.877333 1.785904H327.119238l-1.907809-1.93219-22.820572-23.161905a6.357333 6.357333 0 0 1-3.230476-3.273143l-0.487619-0.505904V350.445714l1.846857-1.859047 23.527619-23.631238 1.895619-1.90781h373.083429zM623.969524 557.269333H397.202286a43.751619 43.751619 0 0 0-30.311619 12.153905l-20.937143 21.254095h329.252571l-20.851809-21.180952-1.340953-1.237333a43.836952 43.836952 0 0 0-27.160381-10.947048l-1.889523-0.042667zM329.642667 337.517714l-15.640381 15.707429 24.899047 25.618286a61.45219 61.45219 0 0 1 17.414096 42.831238v82.529523c0 15.975619-6.241524 31.341714-17.414096 42.831239l-24.496762 25.197714 15.853715 16.091428 27.471238-27.891809a56.868571 56.868571 0 0 1 39.472762-15.908572h226.767238a56.868571 56.868571 0 0 1 39.466666 15.908572l0.121905 0.115809 29.056 29.513143 17.834667-16.950857-26.819048-27.587047a56.259048 56.259048 0 0 1-15.945143-39.216762v-86.735238c0-14.634667 5.717333-28.696381 15.945143-39.222858l26.886096-27.666285-15.012572-15.000381-27.928381 28.361143a56.868571 56.868571 0 0 1-39.472762 15.908571H397.202286a56.868571 56.868571 0 0 1-39.472762-15.908571l-0.121905-0.121905-27.964952-28.40381z m-18.041905 31.652572v187.53219L329.569524 538.209524a48.810667 48.810667 0 0 0 13.775238-32.012191l0.042667-2.005333V421.668571a48.804571 48.804571 0 0 0-13.817905-34.011428l-17.974857-18.486857z m400.798476 0l-19.431619 19.992381a43.617524 43.617524 0 0 0-12.348952 30.409143v86.735238c0 11.349333 4.431238 22.247619 12.348952 30.396952l19.431619 19.992381V369.170286z m-93.232762 26.428952c17.627429 0 31.890286 14.201905 31.890286 31.695238v64.091429c0 17.493333-14.262857 31.695238-31.890286 31.695238H406.576762c-17.627429 0-31.890286-14.201905-31.890286-31.695238V427.300571c0-17.493333 14.262857-31.695238 31.890286-31.695238h212.589714z m0 12.745143H406.576762a18.95619 18.95619 0 0 0-18.962286 18.95619v64.085334a18.95619 18.95619 0 0 0 18.956191 18.95619h212.595809a18.95619 18.95619 0 0 0 18.956191-18.95619V427.300571a18.95619 18.95619 0 0 0-18.956191-18.95619z m60.178286-72.551619H345.953524l20.851809 21.174857 1.353143 1.243429a43.843048 43.843048 0 0 0 27.154286 10.953142l1.889524 0.042667h230.899809a43.751619 43.751619 0 0 0 30.311619-12.153905l20.931048-21.26019z" fill="#FFFFFF" ></path><path d="M333.519238 448.26819v-39.070476c0-2.718476-1.962667-5.193143-4.675048-5.467428a5.211429 5.211429 0 0 0-5.76 5.168762v39.18019a2.840381 2.840381 0 0 1-1.011809 2.157714 5.138286 5.138286 0 0 0-1.810286 3.913143v17.962667c0 1.566476 0.700952 2.962286 1.810286 3.907048 0.633905 0.548571 1.01181 1.328762 1.011809 2.157714v39.966476c0 2.718476 1.968762 5.199238 4.681143 5.467429a5.211429 5.211429 0 0 0 5.753905-5.168762v-40.448c0-0.804571 0.347429-1.554286 0.938667-2.096762a5.12 5.12 0 0 0 1.670095-3.785143v-17.962667a5.12 5.12 0 0 0-1.670095-3.791238 2.840381 2.840381 0 0 1-0.938667-2.090667z m369.054476 0v-39.070476c0-2.718476-1.962667-5.193143-4.681143-5.467428a5.211429 5.211429 0 0 0-5.753904 5.168762v39.18019a2.840381 2.840381 0 0 1-1.017905 2.157714 5.138286 5.138286 0 0 0-1.810286 3.913143v17.962667c0 1.566476 0.707048 2.962286 1.810286 3.907048 0.64 0.548571 1.017905 1.328762 1.017905 2.157714v39.966476c0 2.718476 1.962667 5.199238 4.675047 5.467429a5.211429 5.211429 0 0 0 5.76-5.168762v-40.448c0-0.804571 0.341333-1.554286 0.932572-2.096762a5.12 5.12 0 0 0 1.670095-3.785143v-17.962667a5.12 5.12 0 0 0-1.670095-3.791238 2.840381 2.840381 0 0 1-0.932572-2.090667z" fill="#FFFFFF" ></path></svg>