<?xml version="1.0" standalone="no"?><svg xmlns="http://www.w3.org/2000/svg" class="icon"  id="Em300SldN00Cn-Pir" viewBox="0 0 1024 1024"><path d="M365.628952 792.380952m18.285715 0l463.238095 0q18.285714 0 18.285714 18.285715l0 0q0 18.285714-18.285714 18.285714l-463.238095 0q-18.285714 0-18.285715-18.285714l0 0q0-18.285714 18.285715-18.285715Z" fill="#FA737C" ></path><path d="M696.271238 172.848762l3.608381 1.840762 42.88 21.906286 3.535238 1.810285 106.215619 326.875429-1.962666 3.626666-24.05181 44.513524-1.865143 3.44381-530.913524 172.501333-3.632762-1.889524-43.580952-22.662095a9.6 9.6 0 0 1-6.144-3.206095l-0.944762-0.49981L134.704762 398.854095l1.785905-3.535238 22.710857-44.934095 1.834666-3.632762L696.271238 172.848762zM173.104762 365.83619l-15.09181 29.866667 47.683048 25.234286a93.019429 93.019429 0 0 1 44.988952 53.467428l38.558477 118.668191a93.025524 93.025524 0 0 1-4.967619 69.705143l-23.375239 47.652571 30.262858 15.750095 26.386285-52.912761a85.668571 85.668571 0 0 1 49.188572-41.270858l325.327238-105.703619a85.668571 85.668571 0 0 1 64.060952 4.473905l0.219429 0.109714 55.478857 28.891429 17.664-32.682667-51.364572-27.172571a85.162667 85.162667 0 0 1-41.191619-48.956953l-40.527238-124.720761A85.174857 85.174857 0 0 1 700.952381 262.424381l25.654857-52.309333-28.55619-14.585905-26.819048 53.802667a85.674667 85.674667 0 0 1-49.188571 41.270857L290.785524 398.238476a85.674667 85.674667 0 0 1-64.060953-4.48l-0.219428-0.109714L173.104762 365.83619z m442.489905-51.443809c25.295238-8.216381 52.388571 5.558857 60.562285 30.707809l29.93981 92.16c8.173714 25.148952-5.650286 52.217905-30.939429 60.440381L370.16381 596.796952c-25.289143 8.222476-52.388571-5.558857-60.562286-30.707809l-29.93981-92.153905c-8.167619-25.148952 5.656381-52.224 30.945524-60.440381L615.594667 314.392381z" fill="#FA737C" ></path><path d="M230.41219 523.27619l-18.255238-56.179809c-1.273905-3.907048-5.241905-6.552381-9.264762-5.674667a7.862857 7.862857 0 0 0-5.845333 10.118096l18.304 56.33219a4.303238 4.303238 0 0 1-0.444952 3.577905c-1.145905 1.877333-1.505524 4.205714-0.768 6.460952l8.393143 25.831619c0.731429 2.255238 2.395429 3.931429 4.419047 4.778667 1.170286 0.487619 2.072381 1.432381 2.468572 2.633143l18.669714 57.465904c1.26781 3.907048 5.241905 6.552381 9.264762 5.674667a7.862857 7.862857 0 0 0 5.845333-10.118095l-18.901333-58.160762a4.297143 4.297143 0 0 1 0.365714-3.44381 7.740952 7.740952 0 0 0 0.62781-6.223238l-8.393143-25.831619a7.740952 7.740952 0 0 0-4.169143-4.668952 4.297143 4.297143 0 0 1-2.316191-2.572191z m529.450667-172.025904l-18.255238-56.185905c-1.273905-3.900952-5.241905-6.552381-9.264762-5.668571a7.862857 7.862857 0 0 0-5.845333 10.112l18.304 56.33219a4.303238 4.303238 0 0 1-0.451048 3.577905c-1.13981 1.877333-1.499429 4.205714-0.761905 6.460952l8.393143 25.837714c0.731429 2.255238 2.389333 3.931429 4.419048 4.772572 1.170286 0.487619 2.072381 1.438476 2.462476 2.633143l18.67581 57.465904c1.26781 3.913143 5.241905 6.558476 9.264762 5.680762a7.862857 7.862857 0 0 0 5.839238-10.118095l-18.895238-58.160762a4.297143 4.297143 0 0 1 0.365714-3.443809c1.030095-1.828571 1.328762-4.065524 0.627809-6.229334l-8.393143-25.831619a7.753143 7.753143 0 0 0-4.169142-4.662857 4.297143 4.297143 0 0 1-2.316191-2.57219z" fill="#FFFFFF" ></path></svg>