<?xml version="1.0" standalone="no"?><svg xmlns="http://www.w3.org/2000/svg" class="icon"  id="Em300SldN00Cn" viewBox="0 0 1024 1024"><path d="M886.430476 231.619048l3.766857 3.797333 44.775619 45.086476 3.693715 3.718095v454.662096l-3.925334 3.760762-48.225523 46.165333-3.730286 3.571809H147.925333l-3.779047-3.864381-45.312-46.317714a12.678095 12.678095 0 0 1-6.418286-6.552381l-0.981333-1.017905V286.415238l3.675428-3.718095 46.70781-47.256381 3.779047-3.815619H886.430476zM152.929524 260.565333l-31.049143 31.414857 49.438476 51.230477A123.367619 123.367619 0 0 1 205.897143 428.860952v165.059048a123.367619 123.367619 0 0 1-34.572191 85.662476l-48.646095 50.401524 31.481905 32.182857 54.552381-55.783619a112.487619 112.487619 0 0 1 78.378667-31.817143h450.291809c29.263238 0 57.374476 11.416381 78.378667 31.817143l0.231619 0.231619 57.709714 59.026286 35.407238-33.901714-53.254095-55.180191a112.944762 112.944762 0 0 1-31.658667-78.433524v-173.470476c0-29.257143 11.349333-57.386667 31.658667-78.433524l53.38819-55.326476-29.811809-30.012952-55.460572 56.722285a112.493714 112.493714 0 0 1-78.372571 31.817143H287.085714c-29.263238 0-57.374476-11.416381-78.378666-31.817143l-0.231619-0.231619-55.545905-56.813714z m574.902857 116.156953c35.011048 0 63.329524 28.416 63.329524 63.396571v128.176762c0 34.986667-28.318476 63.390476-63.329524 63.390476H305.712762c-35.004952 0-63.329524-28.40381-63.329524-63.390476V440.118857c0-34.986667 28.324571-63.390476 63.329524-63.390476h422.137905z" fill="#58AFE7" ></path><path d="M160.64 482.06019v-78.140952c0-5.436952-3.900952-10.392381-9.295238-10.928762a10.374095 10.374095 0 0 0-11.428572 10.337524v78.354286c0 1.670095-0.749714 3.230476-2.011428 4.315428a10.300952 10.300952 0 0 0-3.596191 7.820191v35.931428c0 3.139048 1.401905 5.924571 3.596191 7.814096 1.261714 1.097143 2.011429 2.657524 2.011428 4.321523v79.932953c0 5.436952 3.900952 10.392381 9.295239 10.928762a10.374095 10.374095 0 0 0 11.428571-10.337524V541.500952c0-1.603048 0.682667-3.102476 1.852952-4.181333 2.041905-1.889524 3.321905-4.571429 3.321905-7.576381v-35.931428c0-3.004952-1.28-5.686857-3.321905-7.576381a5.692952 5.692952 0 0 1-1.852952-4.181334z m732.830476 0v-78.140952c0-5.436952-3.900952-10.392381-9.295238-10.928762a10.374095 10.374095 0 0 0-11.428571 10.337524v78.354286c0 1.670095-0.749714 3.230476-2.011429 4.315428a10.300952 10.300952 0 0 0-3.59619 7.820191v35.931428c0 3.139048 1.401905 5.924571 3.59619 7.814096 1.261714 1.097143 2.011429 2.657524 2.011429 4.321523v79.932953c0 5.436952 3.900952 10.392381 9.295238 10.928762a10.374095 10.374095 0 0 0 11.428571-10.337524V541.500952c0-1.603048 0.682667-3.102476 1.852953-4.181333 2.03581-1.889524 3.321905-4.571429 3.321904-7.576381v-35.931428c0-3.004952-1.28-5.686857-3.321904-7.576381a5.692952 5.692952 0 0 1-1.852953-4.181334z" fill="#FFFFFF" ></path></svg>