<?xml version="1.0" standalone="no"?><svg xmlns="http://www.w3.org/2000/svg" class="icon"  id="UC3X14" viewBox="0 0 1024 1024"><path d="M886.430476 231.619048l3.766857 3.797333 44.775619 45.086476 3.693715 3.718095v454.662096l-3.925334 3.760762-48.225523 46.165333-3.730286 3.571809H147.925333l-3.779047-3.864381-45.312-46.317714a12.678095 12.678095 0 0 1-6.418286-6.552381l-0.981333-1.017905V286.415238l3.675428-3.718095 46.70781-47.256381 3.779047-3.815619H886.430476z m-149.046857 468.443428H287.09181a86.546286 86.546286 0 0 0-60.190477 24.313905l-41.581714 42.50819H839.131429l-41.411048-42.361904-2.663619-2.474667a86.716952 86.716952 0 0 0-53.924572-21.90019l-3.748571-0.085334zM152.935619 260.571429l-31.049143 31.414857 49.438476 51.230476A123.367619 123.367619 0 0 1 205.897143 428.860952v165.059048a123.367619 123.367619 0 0 1-34.572191 85.662476l-48.646095 50.401524 31.481905 32.182857 54.552381-55.783619a112.487619 112.487619 0 0 1 78.378667-31.817143h450.291809c29.263238 0 57.374476 11.416381 78.378667 31.817143l0.231619 0.231619 57.709714 59.026286 35.407238-33.901714-53.254095-55.180191a112.944762 112.944762 0 0 1-31.658667-78.433524v-173.470476c0-29.257143 11.349333-57.386667 31.658667-78.433524l53.38819-55.326476-29.811809-30.012952-55.460572 56.722285a112.493714 112.493714 0 0 1-78.372571 31.817143H287.085714c-29.263238 0-57.374476-11.416381-78.378666-31.817143l-0.231619-0.231619-55.545905-56.813714z m-35.833905 63.299047v375.058286l35.687619-36.967619a97.962667 97.962667 0 0 0 27.355429-64.030476l0.079238-3.998477V428.860952c0-25.392762-9.84381-49.798095-27.434667-68.022857l-35.687619-36.979809z m795.879619 0l-38.582857 39.996953a87.570286 87.570286 0 0 0-24.527238 60.8v173.470476c0 22.704762 8.801524 44.513524 24.521143 60.8l38.582857 39.984762V323.870476z m-185.136762 52.857905c35.004952 0 63.329524 28.416 63.329524 63.396571v128.176762c0 34.986667-28.324571 63.390476-63.329524 63.390476H305.706667c-35.004952 0-63.329524-28.40381-63.329524-63.390476V440.118857c0-34.986667 28.324571-63.390476 63.329524-63.390476h422.137904z m0 25.490286H305.706667c-20.766476 0-37.656381 16.944762-37.656381 37.912381v128.170666c0 20.967619 16.889905 37.906286 37.656381 37.906286h422.137904c20.766476 0 37.656381-16.944762 37.656381-37.912381V440.124952c0-20.967619-16.88381-37.906286-37.656381-37.906285z m119.503239-145.103238H185.319619l41.411048 42.349714 2.688 2.492952a86.716952 86.716952 0 0 0 53.924571 21.906286l3.748572 0.079238h458.50819a86.552381 86.552381 0 0 0 60.184381-24.313905l41.563429-42.514285z" fill="#58AFE7" ></path><path d="M160.64 482.06019v-78.140952c0-5.436952-3.900952-10.392381-9.295238-10.928762a10.374095 10.374095 0 0 0-11.428572 10.337524v78.354286c0 1.670095-0.749714 3.230476-2.011428 4.315428a10.300952 10.300952 0 0 0-3.596191 7.820191v35.931428c0 3.139048 1.401905 5.924571 3.596191 7.814096 1.261714 1.097143 2.011429 2.657524 2.011428 4.321523v79.932953c0 5.436952 3.900952 10.392381 9.295239 10.928762a10.374095 10.374095 0 0 0 11.428571-10.337524V541.500952c0-1.603048 0.682667-3.102476 1.852952-4.181333 2.041905-1.889524 3.321905-4.571429 3.321905-7.576381v-35.931428c0-3.004952-1.28-5.686857-3.321905-7.576381a5.692952 5.692952 0 0 1-1.852952-4.181334z m732.830476 0v-78.140952c0-5.436952-3.900952-10.392381-9.295238-10.928762a10.374095 10.374095 0 0 0-11.428571 10.337524v78.354286c0 1.670095-0.749714 3.230476-2.011429 4.315428a10.300952 10.300952 0 0 0-3.59619 7.820191v35.931428c0 3.139048 1.401905 5.924571 3.59619 7.814096 1.261714 1.097143 2.011429 2.657524 2.011429 4.321523v79.932953c0 5.436952 3.900952 10.392381 9.295238 10.928762a10.374095 10.374095 0 0 0 11.428571-10.337524V541.500952c0-1.603048 0.682667-3.102476 1.852953-4.181333 2.03581-1.889524 3.321905-4.571429 3.321904-7.576381v-35.931428c0-3.004952-1.28-5.686857-3.321904-7.576381a5.692952 5.692952 0 0 1-1.852953-4.181334z" fill="#B6E2FF" ></path></svg>