<?xml version="1.0" standalone="no"?><svg xmlns="http://www.w3.org/2000/svg" class="icon"  id="Xz-AT101" viewBox="0 0 1024 1024"><path d="M927.616 806.613333l-4.138667 4.053334H102.656l-4.181333-4.053334-51.754667-50.346666L42.666667 752.298667V274.858667l1.066666-1.109334a13.781333 13.781333 0 0 1 7.125334-6.954666L101.12 217.429333 105.258667 213.333333h814.165333l4.138667 3.84 53.418666 49.152 4.352 4.010667v484.266667l-4.096 4.010666-49.621333 48z m-851.2-60.245333l34.389333 33.450667 61.525334-60.501334 0.256-0.256a127.317333 127.317333 0 0 1 86.826666-33.877333h508.032c32.426667 0 63.573333 12.16 86.826667 33.877333l61.44 60.416 33.024-31.957333-59.136-58.922667a117.930667 117.930667 0 0 1-35.072-83.541333V420.266667c0-31.146667 12.544-61.141333 35.072-83.541334l59.008-58.794666-39.253333-36.096-63.914667 62.848-0.256 0.256a127.317333 127.317333 0 0 1-86.869333 33.877333H259.456c-32.426667 0-63.573333-12.16-86.869333-33.877333L112.213333 245.504l-34.901333 34.304 53.930667 53.674667c24.576 24.490667 38.272 57.216 38.272 91.264v175.786666c0 34.048-13.738667 66.773333-38.314667 91.264l-54.741333 54.570667z m741.504-157.781333c0 37.248-31.402667 67.498667-70.186667 67.498666H280.149333c-38.826667 0-70.186667-30.250667-70.186666-67.498666v-136.533334c0-37.290667 31.36-67.541333 70.144-67.541333h467.669333c38.826667 0 70.186667 30.250667 70.186667 67.498667v136.533333z m-699.221333 27.733333v-74.794667c0-0.768 0.170667-1.493333 0.554666-2.218666a5.546667 5.546667 0 0 1 1.493334-1.792 9.301333 9.301333 0 0 0 3.669333-7.253334v-34.432a9.301333 9.301333 0 0 0-3.669333-7.253333 5.12 5.12 0 0 1-2.048-4.010667V407.082667a8.832 8.832 0 0 0-0.981334-4.053334 10.112 10.112 0 0 0-2.773333-3.328 13.141333 13.141333 0 0 0-8.874667-2.517333 10.922667 10.922667 0 0 0-10.24 10.453333v76.586667c0 1.578667-0.853333 3.072-2.261333 4.138667a9.386667 9.386667 0 0 0-3.968 7.466666v34.432c0 1.408 0.341333 2.816 1.024 4.096s1.706667 2.474667 2.986667 3.413334c1.365333 1.024 2.176 2.517333 2.176 4.096v75.050666c0 1.408 0.341333 2.773333 0.981333 4.053334 0.682667 1.28 1.621333 2.389333 2.816 3.328a13.098667 13.098667 0 0 0 8.874667 2.517333 10.922667 10.922667 0 0 0 10.24-10.453333z m809.984 0v-74.794667c0-0.768 0.170667-1.493333 0.554666-2.218666a5.546667 5.546667 0 0 1 1.493334-1.792 9.301333 9.301333 0 0 0 3.669333-7.253334v-34.432a9.301333 9.301333 0 0 0-3.669333-7.253333 5.12 5.12 0 0 1-2.048-4.010667V407.082667a8.789333 8.789333 0 0 0-0.981334-4.053334 10.112 10.112 0 0 0-2.816-3.328 13.141333 13.141333 0 0 0-8.874666-2.517333 10.922667 10.922667 0 0 0-10.24 10.453333v76.586667c0 1.578667-0.853333 3.072-2.218667 4.138667a9.386667 9.386667 0 0 0-3.968 7.466666v34.432c0 1.408 0.341333 2.816 1.024 4.096s1.706667 2.474667 2.944 3.413334c1.408 1.024 2.218667 2.517333 2.218667 4.096v75.050666c0 1.408 0.341333 2.773333 0.981333 4.053334s1.621333 2.389333 2.816 3.328a13.141333 13.141333 0 0 0 8.874667 2.517333 10.922667 10.922667 0 0 0 10.24-10.453333z"  ></path></svg>