<?xml version="1.0" standalone="no"?><svg xmlns="http://www.w3.org/2000/svg" class="icon"  id="Xz-AM" viewBox="0 0 1024 1024"><path d="M256 128a42.666667 42.666667 0 0 0-42.666667 42.666667H85.333333a42.666667 42.666667 0 0 0-42.666666 42.666666v554.666667a42.666667 42.666667 0 0 0 42.666666 42.666667h128a42.666667 42.666667 0 0 0 42.666667 42.666666h170.666667a42.666667 42.666667 0 0 0 42.666666-42.666666h469.333334a42.666667 42.666667 0 0 0 42.666666-42.666667V213.333333a42.666667 42.666667 0 0 0-42.666666-42.666666H469.333333a42.666667 42.666667 0 0 0-42.666666-42.666667H256z m554.666667 426.666667a85.333333 85.333333 0 1 1 0-170.666667 85.333333 85.333333 0 0 1 0 170.666667z m42.666666 85.333333a42.666667 42.666667 0 1 1-85.333333 0 42.666667 42.666667 0 0 1 85.333333 0z m-384-384h426.666667v42.666667H469.333333V256z m426.666667 469.333333v42.666667H469.333333v-42.666667h426.666667zM128 256h85.333333v42.666667H128V256z m85.333333 469.333333v42.666667H128v-42.666667h85.333333z"  ></path></svg>