<?xml version="1.0" standalone="no"?><svg xmlns="http://www.w3.org/2000/svg" class="icon"  id="Xz-AM-New" viewBox="0 0 1024 1024"><path d="M85.333333 85.333333a42.666667 42.666667 0 0 1 42.666667-42.666666h768a42.666667 42.666667 0 0 1 42.666667 42.666666v853.333334a42.666667 42.666667 0 0 1-42.666667 42.666666H128a42.666667 42.666667 0 0 1-42.666667-42.666666V85.333333z m85.333334 64v597.333334a21.333333 21.333333 0 0 0 21.333333 21.333333h640a21.333333 21.333333 0 0 0 21.333333-21.333333v-597.333334a21.333333 21.333333 0 0 0-21.333333-21.333333h-640a21.333333 21.333333 0 0 0-21.333333 21.333333zM448 810.666667a21.333333 21.333333 0 0 0-21.333333 21.333333v85.333333a21.333333 21.333333 0 0 0 21.333333 21.333334h85.333333a21.333333 21.333333 0 0 0 21.333334-21.333334v-85.333333a21.333333 21.333333 0 0 0-21.333334-21.333333h-85.333333z m320 21.333333v85.333333a21.333333 21.333333 0 0 0 21.333333 21.333334h42.666667a21.333333 21.333333 0 0 0 21.333333-21.333334v-85.333333a21.333333 21.333333 0 0 0-21.333333-21.333333h-42.666667a21.333333 21.333333 0 0 0-21.333333 21.333333zM533.333333 213.333333h213.333334a21.333333 21.333333 0 0 1 21.333333 21.333334v170.666666a21.333333 21.333333 0 0 1-21.333333 21.333334h-213.333334a21.333333 21.333333 0 0 1-21.333333-21.333334v-170.666666a21.333333 21.333333 0 0 1 21.333333-21.333334z m-21.333333 277.333334a21.333333 21.333333 0 0 1 21.333333-21.333334h213.333334a21.333333 21.333333 0 0 1 21.333333 21.333334v170.666666a21.333333 21.333333 0 0 1-21.333333 21.333334h-213.333334a21.333333 21.333333 0 0 1-21.333333-21.333334v-170.666666zM277.333333 213.333333h170.666667a21.333333 21.333333 0 0 1 21.333333 21.333334v426.666666a21.333333 21.333333 0 0 1-21.333333 21.333334h-170.666667a21.333333 21.333333 0 0 1-21.333333-21.333334v-426.666666a21.333333 21.333333 0 0 1 21.333333-21.333334z"  ></path></svg>