<?xml version="1.0" standalone="no"?><svg xmlns="http://www.w3.org/2000/svg" class="icon"  id="Xz-CT10X" viewBox="0 0 1024 1024"><path d="M576 42.666667h-128A106.666667 106.666667 0 0 0 341.333333 149.333333V213.333333H213.333333a85.333333 85.333333 0 0 0-85.333333 85.333334v554.666666a85.333333 85.333333 0 0 0 85.333333 85.333334h341.333334v21.333333a21.333333 21.333333 0 0 0 21.333333 21.333333h85.333333a21.333333 21.333333 0 0 0 21.333334-21.333333V938.666667h128a85.333333 85.333333 0 0 0 85.333333-85.333334V298.666667a85.333333 85.333333 0 0 0-85.333333-85.333334h-128V149.333333A106.666667 106.666667 0 0 0 576 42.666667z m21.333333 170.666666h-170.666666V149.333333a21.333333 21.333333 0 0 1 21.333333-21.333333h128a21.333333 21.333333 0 0 1 21.333333 21.333333V213.333333z m-170.666666 149.333334V298.666667h170.666666v64a21.333333 21.333333 0 0 1-21.333333 21.333333h-128a21.333333 21.333333 0 0 1-21.333333-21.333333z"  ></path></svg>