<?xml version="1.0" standalone="no"?><svg xmlns="http://www.w3.org/2000/svg" class="icon"  id="Xz-DS3604" viewBox="0 0 1024 1024"><path d="M890.88 85.333333c26.410667 0 47.786667 21.418667 47.786667 47.872v757.589334A47.786667 47.786667 0 0 1 890.88 938.666667h-132.821333a27.093333 27.093333 0 0 1-19.498667-8.32l-15.658667-16.213334a27.136 27.136 0 0 0-19.498666-8.277333H320.597333a26.922667 26.922667 0 0 0-19.498666 8.277333l-15.658667 16.213334a27.093333 27.093333 0 0 1-19.498667 8.32H133.12A47.786667 47.786667 0 0 1 85.333333 890.794667V133.205333C85.333333 106.752 106.709333 85.333333 133.12 85.333333h757.76zM170.666667 277.333333v469.333334a21.333333 21.333333 0 0 0 21.333333 21.333333h298.666667a21.333333 21.333333 0 0 0 21.333333-21.333333v-469.333334a21.333333 21.333333 0 0 0-21.333333-21.333333h-298.666667a21.333333 21.333333 0 0 0-21.333333 21.333333z m405.333333-21.333333a21.333333 21.333333 0 0 0-21.333333 21.333333v213.333334a21.333333 21.333333 0 0 0 21.333333 21.333333h256a21.333333 21.333333 0 0 0 21.333333-21.333333v-213.333334a21.333333 21.333333 0 0 0-21.333333-21.333333h-256z m-21.333333 320v170.666667a21.333333 21.333333 0 0 0 21.333333 21.333333h256a21.333333 21.333333 0 0 0 21.333333-21.333333v-170.666667a21.333333 21.333333 0 0 0-21.333333-21.333333h-256a21.333333 21.333333 0 0 0-21.333333 21.333333zM234.666667 298.666667h213.333333a21.333333 21.333333 0 0 1 21.333333 21.333333v384a21.333333 21.333333 0 0 1-21.333333 21.333333h-213.333333a21.333333 21.333333 0 0 1-21.333334-21.333333v-384a21.333333 21.333333 0 0 1 21.333334-21.333333z m362.666666 12.8a12.8 12.8 0 0 1 12.8-12.8h187.733334a12.8 12.8 0 0 1 12.8 12.8v145.066666a12.8 12.8 0 0 1-12.8 12.8h-187.733334a12.8 12.8 0 0 1-12.8-12.8V311.466667z m12.8 285.866666h187.733334a12.8 12.8 0 0 1 12.8 12.8v102.4a12.8 12.8 0 0 1-12.8 12.8h-187.733334a12.8 12.8 0 0 1-12.8-12.8v-102.4a12.8 12.8 0 0 1 12.8-12.8z"  ></path></svg>