<?xml version="1.0" standalone="no"?><svg xmlns="http://www.w3.org/2000/svg" class="icon"  id="Xz-EM500-PAR" viewBox="0 0 1024 1024"><path d="M213.333333 128a85.333333 85.333333 0 0 1 85.333334-85.333333h426.666666a85.333333 85.333333 0 0 1 85.333334 85.333333v384h-85.333334a85.333333 85.333333 0 0 0-85.333333 85.333333v170.666667a85.333333 85.333333 0 0 0 85.333333 85.333333h73.898667A85.333333 85.333333 0 0 1 725.333333 896h-170.666666v85.333333h-85.333334v-85.333333H298.666667a85.333333 85.333333 0 0 1-73.898667-42.666667H298.666667a85.333333 85.333333 0 0 0 85.333333-85.333333v-170.666667a85.333333 85.333333 0 0 0-85.333333-85.333333H213.333333V128z m597.333334 426.666667a42.666667 42.666667 0 0 1 42.666666 42.666666v170.666667a42.666667 42.666667 0 0 1-42.666666 42.666667h-85.333334a42.666667 42.666667 0 0 1-42.666666-42.666667v-170.666667a42.666667 42.666667 0 0 1 42.666666-42.666666h85.333334zM170.666667 597.333333v170.666667a42.666667 42.666667 0 0 0 42.666666 42.666667h85.333334a42.666667 42.666667 0 0 0 42.666666-42.666667v-170.666667a42.666667 42.666667 0 0 0-42.666666-42.666666H213.333333a42.666667 42.666667 0 0 0-42.666666 42.666666z m170.666666-298.666666a170.666667 170.666667 0 1 0 341.333334 0 170.666667 170.666667 0 0 0-341.333334 0z m206.037334 41.6V222.336c13.610667 20.608 28.586667 45.44 37.973333 68.864l-37.973333 49.066667z m-52.992-68.266667c8.96-17.237333 18.346667-33.877333 29.098666-49.92v83.2l-29.056-33.28z m100.437333 60.373333c0.512 31.573333-18.901333 59.264-47.488 66.858667v-19.2l46.421333-59.776c0.512 3.925333 1.066667 7.893333 1.066667 12.117333z m-71.338667 82.688c0.810667 7.04 6.570667 12.117333 13.141334 11.562667 46.634667-2.56 82.816-44.586667 82.048-95.36 0-51.626667-47.445333-119.082667-73.685334-156.032A11.221333 11.221333 0 0 0 535.296 170.666667a13.184 13.184 0 0 0-9.685333 5.632 608.682667 608.682667 0 0 0-55.893334 90.88 16.170667 16.170667 0 0 0-1.28 5.888 13.141333 13.141333 0 0 0 3.157334 9.898666l51.882666 59.264v72.789334zM432 244.053333c2.133333 2.261333 5.248 3.669333 8.405333 3.669334a10.154667 10.154667 0 0 0 8.106667-3.669334 13.568 13.568 0 0 0 0.256-18.048l-23.850667-25.685333a11.008 11.008 0 0 0-15.445333 0 13.610667 13.610667 0 0 0-1.28 18.048l23.808 25.685333z m47.445333 115.114667a11.093333 11.093333 0 0 0 16.512 0 13.568 13.568 0 0 0 0.298667-18.048L425.130667 264.362667a11.008 11.008 0 0 0-15.445334 0 13.610667 13.610667 0 0 0-1.28 18.090666l70.997334 76.714667z m0 63.786667c2.133333 2.261333 5.248 3.669333 8.405334 3.669333a10.154667 10.154667 0 0 0 8.106666-3.669333 13.568 13.568 0 0 0 0.256-18.048l-71.04-76.8a11.008 11.008 0 0 0-15.445333 0 13.610667 13.610667 0 0 0-1.28 18.090666l70.997333 76.757334z"  ></path></svg>