<?xml version="1.0" standalone="no"?><svg xmlns="http://www.w3.org/2000/svg" class="icon"  id="Xz-EM300-SW" viewBox="0 0 1024 1024"><path d="M256 128a42.666667 42.666667 0 0 1 42.666667-42.666667h597.333333a42.666667 42.666667 0 0 1 42.666667 42.666667v768a42.666667 42.666667 0 0 1-42.666667 42.666667H298.666667a42.666667 42.666667 0 0 1-42.666667-42.666667V128z m341.333333 426.666667a42.666667 42.666667 0 1 1 0-85.333334 42.666667 42.666667 0 0 1 0 85.333334z m0 85.333333a128 128 0 1 0 0-256 128 128 0 0 0 0 256zM85.333333 145.066667c0-9.386667 7.68-17.066667 17.066667-17.066667h93.866667c9.386667 0 17.066667 7.68 17.066666 17.066667v733.866666a17.066667 17.066667 0 0 1-17.066666 17.066667H102.4a17.066667 17.066667 0 0 1-17.066667-17.066667V145.066667z"  ></path></svg>