<?xml version="1.0" standalone="no"?><svg xmlns="http://www.w3.org/2000/svg" class="icon"  id="Xz-EM500-PT100" viewBox="0 0 1024 1024"><path d="M315.733333 85.333333a17.066667 17.066667 0 0 0-17.066666 17.066667v349.866667c0 9.386667 7.68 17.066667 17.066666 17.066666H341.333333v42.666667h-25.6a17.066667 17.066667 0 0 0-17.066666 17.066667v93.866666c0 9.386667 7.68 17.066667 17.066666 17.066667H341.333333v42.666667h-25.6a17.066667 17.066667 0 0 0-17.066666 17.066666v179.2c0 9.386667 7.68 17.066667 17.066666 17.066667h46.592c8.106667 15.061333 18.901333 29.44 32.981334 42.24 41.429333 37.674667 103.594667 54.528 186.752 42.666667 43.093333-6.144 78.336-20.565333 106.24-42.752 27.861333-22.186667 45.909333-50.218667 57.514666-79.786667 22.186667-56.533333 22.186667-123.221333 22.186667-174.634667V682.666667c0-40.490667 5.248-102.613333 28.16-153.002667 11.264-24.746667 25.941333-44.842667 44.629333-58.752 9.6-7.125333 20.906667-13.141333 34.432-17.194667 22.570667-6.741333 42.112-24.832 42.112-48.384 0-23.552-19.242667-43.178667-42.453333-39.082666-32.725333 5.802667-61.013333 18.346667-84.992 36.181333-33.322667 24.746667-55.978667 57.984-71.381333 91.904C688.085333 561.237333 682.666667 637.866667 682.666667 682.666667c0 55.082667-0.896 105.344-16.298667 144.512-7.253333 18.432-17.28 33.109333-31.232 44.202666-13.994667 11.093333-34.304 20.650667-65.152 25.045334-31.189333 4.48-55.210667 3.456-73.685333-0.469334A17.066667 17.066667 0 0 0 512 878.933333v-179.2a17.066667 17.066667 0 0 0-17.066667-17.066666H469.333333v-42.666667h25.6a17.066667 17.066667 0 0 0 17.066667-17.066667v-93.866666a17.066667 17.066667 0 0 0-17.066667-17.066667H469.333333v-42.666667h25.6a17.066667 17.066667 0 0 0 17.066667-17.066666V102.4a17.066667 17.066667 0 0 0-17.066667-17.066667H315.733333z"  ></path></svg>