<?xml version="1.0" standalone="no"?><svg xmlns="http://www.w3.org/2000/svg" class="icon"  id="Xz-EM310-TILT" viewBox="0 0 1024 1024"><path d="M902.314667 285.44c0-63.402667-50.901333-114.773333-113.792-114.773333H235.477333l-7.168 0.256a114.346667 114.346667 0 0 0-106.666666 114.474666v104.405334l-37.418667 19.968c-25.6 13.696-41.557333 40.533333-41.557333 69.717333v63.146667l0.298666 6.613333c1.152 13.184 5.546667 25.898667 12.714667 36.906667 7.253333 11.008 17.024 20.010667 28.544 26.112l37.461333 20.010666v106.24c0.085333 15.189333 3.114667 30.208 8.874667 44.202667 5.802667 13.994667 14.208 26.666667 24.746667 37.333333 10.581333 10.666667 23.125333 19.072 36.864 24.746667 13.738667 5.76 28.458667 8.618667 43.306666 8.533333h553.045334l7.168-0.256a114.304 114.304 0 0 0 106.538666-114.56v-106.24l37.546667-20.010666c25.6-13.653333 41.557333-40.490667 41.557333-69.674667v-63.146667l-0.298666-6.698666a79.104 79.104 0 0 0-41.216-63.061334l-37.504-19.968V285.44zM810.666667 341.333333a85.333333 85.333333 0 0 1-64 82.645334v221.184h49.493333a8.533333 8.533333 0 0 1 6.016 14.592L732.288 729.6a8.533333 8.533333 0 0 1-12.074667 0l-69.930666-69.888a8.533333 8.533333 0 0 1 6.058666-14.592H704V423.978667A85.461333 85.461333 0 0 1 642.688 362.666667H303.829333v58.922666a8.533333 8.533333 0 0 1-14.549333 6.058667l-75.093333-75.093333a8.533333 8.533333 0 0 1 0-12.074667l75.093333-75.093333a8.533333 8.533333 0 0 1 14.549333 6.058666V320h338.858667A85.333333 85.333333 0 0 1 810.666667 341.333333z"  ></path></svg>