<?xml version="1.0" standalone="no"?><svg xmlns="http://www.w3.org/2000/svg" class="icon"  id="Xz-EM500-LGT" viewBox="0 0 1024 1024"><path d="M213.333333 42.666667a42.666667 42.666667 0 0 0-42.666666 42.666666v597.333334a42.666667 42.666667 0 0 0 42.666666 42.666666h170.666667v128h42.666667v128h170.666666v-128h42.666667v-128h170.666667a42.666667 42.666667 0 0 0 42.666666-42.666666V85.333333a42.666667 42.666667 0 0 0-42.666666-42.666666H213.333333z m42.666667 128a42.666667 42.666667 0 1 1 0-85.333334 42.666667 42.666667 0 0 1 0 85.333334z m42.666667 469.333333a42.666667 42.666667 0 1 1-85.333334 0 42.666667 42.666667 0 0 1 85.333334 0zM768 170.666667a42.666667 42.666667 0 1 1 0-85.333334 42.666667 42.666667 0 0 1 0 85.333334z m42.666667 469.333333a42.666667 42.666667 0 1 1-85.333334 0 42.666667 42.666667 0 0 1 85.333334 0z m-298.666667-128a128 128 0 1 1 0-256 128 128 0 0 1 0 256z"  ></path></svg>