<?xml version="1.0" standalone="no"?><svg xmlns="http://www.w3.org/2000/svg" class="icon"  id="Xz-EM300-MLD" viewBox="0 0 1024 1024"><path d="M487.424 40.96a16.384 16.384 0 0 0-16.384 16.384V122.88H184.32a81.92 81.92 0 0 0-81.92 81.92v532.48a81.92 81.92 0 0 0 81.92 81.92h655.36a81.92 81.92 0 0 0 81.92-81.92V204.8a81.92 81.92 0 0 0-81.92-81.92h-286.72V57.344a16.384 16.384 0 0 0-16.384-16.384h-49.152zM184.32 225.28a20.48 20.48 0 0 1 40.96 0v491.52a20.48 20.48 0 0 1-40.96 0v-491.52zM327.68 204.8a20.48 20.48 0 0 1 20.48 20.48v491.52a20.48 20.48 0 0 1-40.96 0v-491.52a20.48 20.48 0 0 1 20.48-20.48z m102.4 20.48a20.48 20.48 0 0 1 40.96 0v491.52a20.48 20.48 0 0 1-40.96 0v-491.52z m143.36-20.48a20.48 20.48 0 0 1 20.48 20.48v491.52a20.48 20.48 0 0 1-40.96 0v-491.52a20.48 20.48 0 0 1 20.48-20.48z m102.4 20.48a20.48 20.48 0 0 1 40.96 0v491.52a20.48 20.48 0 0 1-40.96 0v-491.52z m143.36-20.48a20.48 20.48 0 0 1 20.48 20.48v491.52a20.48 20.48 0 0 1-40.96 0v-491.52a20.48 20.48 0 0 1 20.48-20.48z m-57.67168 697.9584c27.48416 28.42624 72.17152 28.42624 99.77856 0a34.6112 34.6112 0 0 1 49.9712 0 37.10976 37.10976 0 0 1 0 51.44576 138.24 138.24 0 0 1-199.68 0 69.05856 69.05856 0 0 0-99.77856 0 138.24 138.24 0 0 1-199.63904 0 69.05856 69.05856 0 0 0-99.77856 0 138.24 138.24 0 0 1-199.63904 0 37.10976 37.10976 0 0 1 0-51.44576 34.36544 34.36544 0 0 1 43.4176-5.28384c31.70304 20.15232 70.57408 26.0096 103.09632 7.168l3.19488-1.88416a138.24 138.24 0 0 1 199.63904 0c27.48416 28.42624 72.17152 28.42624 99.77856 0a138.24 138.24 0 0 1 199.63904 0z"  ></path></svg>