<?xml version="1.0" standalone="no"?><svg xmlns="http://www.w3.org/2000/svg" class="icon"  id="Xz-EM300-CL" viewBox="0 0 1024 1024"><path d="M632.234667 85.333333a116.352 116.352 0 0 1 116.394666 116.352l-0.085333 60.672 0.554667 2.346667a30.592 30.592 0 0 0 8.490666 13.696l2.901334 2.218667 3.669333 2.176a115.882667 115.882667 0 0 1 61.653333 93.866666l0.384 8.106667v61.226667a115.2 115.2 0 0 1-62.08 101.973333 30.72 30.72 0 0 0-15.104 18.346667l-0.512 2.389333 0.128 59.648a116.394667 116.394667 0 0 1-109.568 116.181333l-6.826666 0.213334h-193.92v38.784a38.698667 38.698667 0 0 1-15.36 30.848c12.544 20.437333 36.309333 34.133333 63.573333 34.133333H554.666667v-26.197333a38.784 38.784 0 0 1 38.826666-38.826667h263.68a38.784 38.784 0 0 1 38.826667 38.826667v77.568a38.784 38.784 0 0 1-38.826667 38.826666L593.493333 938.666667a38.741333 38.741333 0 0 1-35.114666-22.186667h-71.850667c-66.474667 0-122.581333-40.96-140.586667-97.109333a38.698667 38.698667 0 0 1-24.021333-35.84v-38.826667a116.352 116.352 0 0 1-116.352-116.394667l0.042667-59.818666-0.512-2.218667a30.549333 30.549333 0 0 0-8.448-13.952l-2.944-2.218667-3.669334-2.176a115.882667 115.882667 0 0 1-61.653333-93.781333L128 445.994667V384.768c0-42.794667 23.893333-82.048 62.08-101.973333a30.506667 30.506667 0 0 0 15.104-18.602667l0.426667-2.048V201.685333a116.352 116.352 0 0 1 109.482666-116.138666L321.92 85.333333h310.314667z"  ></path></svg>