<?xml version="1.0" standalone="no"?><svg xmlns="http://www.w3.org/2000/svg" class="icon"  id="Xz-EM310-UDL" viewBox="0 0 1024 1024"><path d="M170.666667 170.666667a42.666667 42.666667 0 0 0-42.666667 42.666666v144.256l-57.856 22.058667A42.666667 42.666667 0 0 0 42.666667 419.498667v185.002666a42.666667 42.666667 0 0 0 27.477333 39.850667L128 666.453333V810.666667a42.666667 42.666667 0 0 0 42.666667 42.666666h682.666666a42.666667 42.666667 0 0 0 42.666667-42.666666v-144.256l57.856-22.058667a42.666667 42.666667 0 0 0 27.477333-39.850667V419.498667a42.666667 42.666667 0 0 0-27.477333-39.850667L896 357.546667V213.333333a42.666667 42.666667 0 0 0-42.666667-42.666666H170.666667z m0 341.333333a42.666667 42.666667 0 1 1-85.333334 0 42.666667 42.666667 0 0 1 85.333334 0z m725.333333 42.666667a42.666667 42.666667 0 1 1 0-85.333334 42.666667 42.666667 0 0 1 0 85.333334z m-469.333333-42.666667a85.333333 85.333333 0 1 1-170.666667 0 85.333333 85.333333 0 0 1 170.666667 0z m213.333333 85.333333a85.333333 85.333333 0 1 1 0-170.666666 85.333333 85.333333 0 0 1 0 170.666666z"  ></path></svg>