<?xml version="1.0" standalone="no"?><svg xmlns="http://www.w3.org/2000/svg" class="icon"  id="Xz-EM300-SLD" viewBox="0 0 1024 1024"><path d="M554.666667 42.666667h-85.333334v85.333333h-42.666666v85.333333h-41.813334a42.666667 42.666667 0 0 0-34.944 18.218667L260.266667 417.877333a42.666667 42.666667 0 0 0-4.224 18.517334V725.333333a42.666667 42.666667 0 0 0 42.666666 42.666667h42.666667v64a21.333333 21.333333 0 0 0 21.333333 21.333333h42.666667a21.333333 21.333333 0 0 0 21.333333-21.333333V768h170.666667v64a21.333333 21.333333 0 0 0 21.333333 21.333333h42.666667a21.333333 21.333333 0 0 0 21.333333-21.333333V768h42.666667a42.666667 42.666667 0 0 0 42.666667-42.666667v-287.146666a42.666667 42.666667 0 0 0-5.802667-21.504L652.8 229.376A42.666667 42.666667 0 0 0 619.52 213.333333H597.333333V128h-42.666666V42.666667z m217.258666 855.04c28.629333 29.610667 75.178667 29.610667 103.936 0a36.053333 36.053333 0 0 1 52.053334 0 38.656 38.656 0 0 1 0 53.589333 144 144 0 0 1-208 0 71.936 71.936 0 0 0-103.936 0 144 144 0 0 1-207.957334 0 71.936 71.936 0 0 0-103.936 0 144 144 0 0 1-207.957333 0 38.656 38.656 0 0 1 0-53.589333 35.797333 35.797333 0 0 1 45.226667-5.504c33.024 20.992 73.514667 27.093333 107.392 7.466666l3.328-1.962666a144 144 0 0 1 207.957333 0c28.629333 29.610667 75.178667 29.610667 103.936 0a144 144 0 0 1 207.957333 0zM512 469.333333a42.666667 42.666667 0 1 1 0-85.333333 42.666667 42.666667 0 0 1 0 85.333333z"  ></path></svg>