<?xml version="1.0" standalone="no"?><svg xmlns="http://www.w3.org/2000/svg" class="icon"  id="Xz-EM500-UDL" viewBox="0 0 1024 1024"><path d="M213.333333 128a85.333333 85.333333 0 0 1 85.333334-85.333333h426.666666a85.333333 85.333333 0 0 1 85.333334 85.333333v298.666667h-85.333334a85.333333 85.333333 0 0 0-85.333333 85.333333v170.666667a85.333333 85.333333 0 0 0 85.333333 85.333333h73.898667A85.333333 85.333333 0 0 1 725.333333 810.666667h-85.333333l69.888 139.776a21.333333 21.333333 0 0 1-19.072 30.890666H333.184a21.333333 21.333333 0 0 1-19.072-30.890666L384 810.666667H298.666667a85.333333 85.333333 0 0 1-73.898667-42.666667H298.666667a85.333333 85.333333 0 0 0 85.333333-85.333333v-170.666667a85.333333 85.333333 0 0 0-85.333333-85.333333H213.333333V128z m597.333334 341.333333a42.666667 42.666667 0 0 1 42.666666 42.666667v170.666667a42.666667 42.666667 0 0 1-42.666666 42.666666h-85.333334a42.666667 42.666667 0 0 1-42.666666-42.666666v-170.666667a42.666667 42.666667 0 0 1 42.666666-42.666667h85.333334zM170.666667 512v170.666667a42.666667 42.666667 0 0 0 42.666666 42.666666h85.333334a42.666667 42.666667 0 0 0 42.666666-42.666666v-170.666667a42.666667 42.666667 0 0 0-42.666666-42.666667H213.333333a42.666667 42.666667 0 0 0-42.666666 42.666667z m512-213.333333a170.666667 170.666667 0 1 0-341.333334 0 170.666667 170.666667 0 0 0 341.333334 0z m-170.666667 128a128 128 0 1 1 0-256 128 128 0 0 1 0 256z"  ></path></svg>