<?xml version="1.0" standalone="no"?><svg xmlns="http://www.w3.org/2000/svg" class="icon"  id="Xz-EM500-SMT" viewBox="0 0 1024 1024"><path d="M298.666667 85.333333a42.666667 42.666667 0 0 0-42.666667 42.666667v725.333333a42.666667 42.666667 0 0 0 42.666667 42.666667h20.992c8.106667 15.061333 18.901333 29.44 32.981333 42.24 41.429333 37.674667 103.594667 54.528 186.752 42.666667 43.093333-6.144 78.336-20.565333 106.24-42.752 27.861333-22.186667 45.909333-50.218667 57.514667-79.786667 22.186667-56.533333 22.186667-123.221333 22.186666-174.634667V682.666667c0-40.490667 5.248-102.613333 28.16-153.002667 11.264-24.746667 25.941333-44.842667 44.629334-58.752a110.08 110.08 0 0 1 34.432-17.194667c22.570667-6.784 42.112-24.832 42.112-48.384 0-23.552-19.242667-43.178667-42.453334-39.082666-32.725333 5.802667-61.013333 18.346667-84.992 36.181333-33.322667 24.746667-55.978667 57.984-71.381333 91.904C645.418667 561.237333 640 637.781333 640 682.666667c0 55.082667-0.896 105.344-16.298667 144.512-7.253333 18.432-17.28 33.109333-31.232 44.202666-13.994667 11.093333-34.304 20.650667-65.152 25.045334-31.061333 4.437333-81.706667 3.456-100.394666-0.426667A42.666667 42.666667 0 0 0 469.333333 853.333333v-85.333333h85.333334a42.666667 42.666667 0 1 0 0-85.333333h-85.333334v-85.333334h85.333334a42.666667 42.666667 0 1 0 0-85.333333h-85.333334v-85.333333h85.333334a42.666667 42.666667 0 1 0 0-85.333334h-85.333334V256h85.333334a42.666667 42.666667 0 1 0 0-85.333333h-85.333334V128a42.666667 42.666667 0 0 0-42.666666-42.666667H298.666667z"  ></path></svg>