<?xml version="1.0" standalone="no"?><svg xmlns="http://www.w3.org/2000/svg" class="icon"  id="Xz-EM400-MUD" viewBox="0 0 1024 1024"><path d="M170.666667 170.666667a42.666667 42.666667 0 0 0-42.666667 42.666666v144.256l-57.856 22.058667A42.666667 42.666667 0 0 0 42.666667 419.498667v185.002666a42.666667 42.666667 0 0 0 27.477333 39.850667L128 666.453333V810.666667a42.666667 42.666667 0 0 0 42.666667 42.666666h682.666666a42.666667 42.666667 0 0 0 42.666667-42.666666v-144.256l57.856-22.058667a42.666667 42.666667 0 0 0 27.477333-39.850667V419.498667a42.666667 42.666667 0 0 0-27.477333-39.850667L896 357.546667V213.333333a42.666667 42.666667 0 0 0-42.666667-42.666666H170.666667z m0 341.333333a42.666667 42.666667 0 1 1-85.333334 0 42.666667 42.666667 0 0 1 85.333334 0z m725.333333 42.666667a42.666667 42.666667 0 1 1 0-85.333334 42.666667 42.666667 0 0 1 0 85.333334z m-136.533333-341.333334A51.2 51.2 0 0 1 810.666667 264.533333v494.933334a51.2 51.2 0 0 1-51.2 51.2h-324.266667A51.2 51.2 0 0 1 384 759.466667V264.533333A51.2 51.2 0 0 1 435.2 213.333333h324.266667zM426.666667 264.533333v494.933334c0 4.693333 3.84 8.533333 8.533333 8.533333h324.266667a8.533333 8.533333 0 0 0 8.533333-8.533333V264.533333a8.533333 8.533333 0 0 0-8.533333-8.533333h-324.266667a8.533333 8.533333 0 0 0-8.533333 8.533333zM682.666667 384a85.333333 85.333333 0 1 1-170.666667 0 85.333333 85.333333 0 0 1 170.666667 0z m-85.333334 341.333333a85.333333 85.333333 0 1 1 0-170.666666 85.333333 85.333333 0 0 1 0 170.666666z"  ></path></svg>