<?xml version="1.0" standalone="no"?><svg xmlns="http://www.w3.org/2000/svg" class="icon"  id="Xz-Gateway" viewBox="0 0 1024 1024"><path d="M128.128 285.738667c0.853333 11.093333 6.144 21.333333 14.677333 28.586666a42.453333 42.453333 0 0 0 59.477334-4.693333 402.346667 402.346667 0 0 1 137.941333-103.722667 405.077333 405.077333 0 0 1 169.002667-36.693333 404.992 404.992 0 0 1 168.405333 36.394667 402.261333 402.261333 0 0 1 137.6 102.997333 42.282667 42.282667 0 0 0 45.269333 12.458667 42.368 42.368 0 0 0 24.490667-20.992 41.728 41.728 0 0 0-5.717333-46.250667 486.656 486.656 0 0 0-166.4-124.458667A489.984 489.984 0 0 0 509.184 85.333333a489.984 489.984 0 0 0-204.373333 44.416 486.656 486.656 0 0 0-166.741334 125.44 41.728 41.728 0 0 0-9.984 30.549334z m147.2 105.514666a41.984 41.984 0 0 0 24.618667 20.906667 42.538667 42.538667 0 0 0 45.226666-12.672 215.893333 215.893333 0 0 1 164.053334-75.093333c63.744 0 122.88 27.434667 163.712 74.496a42.282667 42.282667 0 0 0 45.226666 12.458666 42.325333 42.325333 0 0 0 24.533334-20.949333 41.728 41.728 0 0 0-5.717334-46.293333 299.52 299.52 0 0 0-102.442666-76.544 301.568 301.568 0 0 0-125.312-27.050667 301.568 301.568 0 0 0-125.738667 27.306667 299.52 299.52 0 0 0-102.613333 77.141333 41.856 41.856 0 0 0-5.546667 46.293333zM469.333333 426.666667a42.666667 42.666667 0 0 1 85.333334 0v256h341.333333a42.666667 42.666667 0 0 1 42.666667 42.666666v170.666667a42.666667 42.666667 0 0 1-42.666667 42.666667H128a42.666667 42.666667 0 0 1-42.666667-42.666667v-170.666667a42.666667 42.666667 0 0 1 42.666667-42.666666h341.333333v-256zM213.333333 853.333333a42.666667 42.666667 0 1 0 0-85.333333 42.666667 42.666667 0 0 0 0 85.333333z m170.666667-42.666666a42.666667 42.666667 0 1 0-85.333333 0 42.666667 42.666667 0 0 0 85.333333 0z m85.333333 42.666666a42.666667 42.666667 0 1 0 0-85.333333 42.666667 42.666667 0 0 0 0 85.333333z"  ></path></svg>