<?xml version="1.0" standalone="no"?><svg xmlns="http://www.w3.org/2000/svg" class="icon"  id="Xz-gs" viewBox="0 0 1024 1024"><path d="M128 128a42.666667 42.666667 0 0 1 42.666667-42.666667h682.666666a42.666667 42.666667 0 0 1 42.666667 42.666667v810.666667a42.666667 42.666667 0 0 1-42.666667 42.666666H170.666667a42.666667 42.666667 0 0 1-42.666667-42.666666V128z m170.666667 725.333333a42.666667 42.666667 0 0 0 42.666666 42.666667h341.333334a42.666667 42.666667 0 1 0 0-85.333333H341.333333a42.666667 42.666667 0 0 0-42.666666 42.666666z m256-597.333333a42.666667 42.666667 0 1 0-85.333334 0v213.333333a42.666667 42.666667 0 1 0 85.333334 0V256zM384 256a42.666667 42.666667 0 0 0-42.666667 42.666667v128a42.666667 42.666667 0 1 0 85.333334 0V298.666667a42.666667 42.666667 0 0 0-42.666667-42.666667z m298.666667 42.666667a42.666667 42.666667 0 1 0-85.333334 0v128a42.666667 42.666667 0 1 0 85.333334 0V298.666667zM256 298.666667a42.666667 42.666667 0 0 0-42.666667 42.666666v42.666667a42.666667 42.666667 0 0 0 85.333334 0V341.333333a42.666667 42.666667 0 0 0-42.666667-42.666666z m554.666667 42.666666a42.666667 42.666667 0 1 0-85.333334 0v42.666667a42.666667 42.666667 0 1 0 85.333334 0V341.333333zM298.666667 682.666667a42.666667 42.666667 0 1 0-85.333334 0 42.666667 42.666667 0 0 0 85.333334 0z m128 42.666666a42.666667 42.666667 0 1 0 0-85.333333 42.666667 42.666667 0 0 0 0 85.333333z m213.333333-42.666666a42.666667 42.666667 0 1 0-85.333333 0 42.666667 42.666667 0 0 0 85.333333 0z m128 42.666666a42.666667 42.666667 0 1 0 0-85.333333 42.666667 42.666667 0 0 0 0 85.333333z"  ></path></svg>