<?xml version="1.0" standalone="no"?><svg xmlns="http://www.w3.org/2000/svg" class="icon"  id="Xz-shape" viewBox="0 0 1024 1024"><path d="M279.272727 46.545455a46.545455 46.545455 0 0 1 93.090909 0v139.636363h279.272728V139.636364a46.545455 46.545455 0 1 1 93.090909 0v46.545454h93.090909a46.545455 46.545455 0 0 1 46.545454 46.545455v744.727272a46.545455 46.545455 0 0 1-46.545454 46.545455H186.181818a46.545455 46.545455 0 0 1-46.545454-46.545455V232.727273a46.545455 46.545455 0 0 1 46.545454-46.545455h93.090909V46.545455zM232.727273 302.545455a23.272727 23.272727 0 0 1 46.545454 0v605.090909a23.272727 23.272727 0 0 1-46.545454 0v-605.090909zM349.090909 279.272727a23.272727 23.272727 0 0 0-23.272727 23.272728v605.090909a23.272727 23.272727 0 0 0 46.545454 0v-605.090909a23.272727 23.272727 0 0 0-23.272727-23.272728z m69.818182 23.272728a23.272727 23.272727 0 0 1 46.545454 0v605.090909a23.272727 23.272727 0 0 1-46.545454 0v-605.090909z" fill="#272E3B" ></path></svg>