<?xml version="1.0" standalone="no"?><svg xmlns="http://www.w3.org/2000/svg" class="icon"  id="Xz-TS101" viewBox="0 0 1024 1024"><path d="M862.122667 264.405333l8.064 15.104c59.136 110.592 12.672 250.837333-98.730667 298.368l-117.674667 50.261334a420.48 420.48 0 0 1-98.944 27.221333l-10.410666 308.48a18.688 18.688 0 0 1-5.162667 12.373333 16.512 16.512 0 0 1-11.818667 5.12 16.512 16.512 0 0 1-11.818666-5.077333 18.688 18.688 0 0 1-5.205334-12.373333l-11.306666-304.64c-122.581333-0.597333-231.936-63.402667-289.450667-178.688l-10.368-20.778667c-63.914667-128.213333-17.194667-286.848 104.192-354.176l27.306667-15.146667c192.213333-106.666667 429.952-28.842667 531.328 173.952z m-208.896 25.429334c0-60.373333-59.733333-107.349333-131.84-107.349334S389.546667 229.461333 389.546667 289.834667c0 60.416 59.733333 107.392 131.84 107.392s131.84-46.976 131.84-107.392z m-232.362667 0C420.864 246.912 462.08 213.333333 521.386667 213.333333c59.221333 0 101.589333 33.621333 101.589333 76.501334 0 42.922667-42.368 76.714667-101.589333 76.714666-59.264 0-100.522667-33.792-100.522667-76.714666z"  ></path></svg>