<?xml version="1.0" standalone="no"?><svg xmlns="http://www.w3.org/2000/svg" class="icon"  id="Xz-TS302" viewBox="0 0 1024 1024"><path d="M725.333333 82.858667a128 128 0 0 1 128 128l-0.042666 109.397333 0.597333 2.56a33.706667 33.706667 0 0 0 9.301333 15.104l3.2 2.432 4.053334 2.389333a127.488 127.488 0 0 1 67.84 103.210667l0.384 8.96v67.328a126.72 126.72 0 0 1-68.266667 112.170667c-8.106667 4.266667-14.08 11.605333-16.64 20.224l-0.512 2.389333 0.085333 65.834667a128 128 0 0 1-120.490666 127.786666l-7.509334 0.213334v42.666666a42.666667 42.666667 0 0 1-42.666666 42.666667h-85.333334a42.666667 42.666667 0 0 1-42.666666-42.666667v-42.666666h-85.333334v42.666666a42.666667 42.666667 0 0 1-42.666666 42.666667H341.333333a42.666667 42.666667 0 0 1-42.666666-42.666667v-42.666666a128 128 0 0 1-128-128.042667l0.042666-65.792-0.554666-2.474667a33.621333 33.621333 0 0 0-9.301334-15.36l-3.242666-2.432-4.053334-2.389333a127.530667 127.530667 0 0 1-67.84-103.168L85.333333 522.24v-67.328c0-47.104 26.325333-90.24 68.266667-112.213333a33.536 33.536 0 0 0 16.64-20.48L170.666667 320V210.858667a128 128 0 0 1 120.490666-127.786667L298.666667 82.858667h426.666666zM298.666667 341.333333v170.666667a42.666667 42.666667 0 0 0 42.666666 42.666667h341.333334a42.666667 42.666667 0 0 0 42.666666-42.666667V341.333333a42.666667 42.666667 0 0 0-42.666666-42.666666H341.333333a42.666667 42.666667 0 0 0-42.666666 42.666666z m59.733333 0h307.2c9.386667 0 17.066667 7.68 17.066667 17.066667v136.533333a17.066667 17.066667 0 0 1-17.066667 17.066667H358.4a17.066667 17.066667 0 0 1-17.066667-17.066667V358.4c0-9.386667 7.68-17.066667 17.066667-17.066667z"  ></path></svg>