<?xml version="1.0" standalone="no"?><svg xmlns="http://www.w3.org/2000/svg" class="icon"  id="Xz-UC11XX" viewBox="0 0 1024 1024"><path d="M682.666667 42.666667a42.666667 42.666667 0 0 0-42.666667 42.666666v85.333334H170.666667a42.666667 42.666667 0 0 0-42.666667 42.666666v682.666667a42.666667 42.666667 0 0 0 42.666667 42.666667h682.666666a42.666667 42.666667 0 0 0 42.666667-42.666667V213.333333a42.666667 42.666667 0 0 0-42.666667-42.666666h-128V85.333333a42.666667 42.666667 0 0 0-42.666666-42.666666zM256 256a42.666667 42.666667 0 0 1 42.666667 42.666667v85.333333a42.666667 42.666667 0 0 1-85.333334 0V298.666667a42.666667 42.666667 0 0 1 42.666667-42.666667z m-42.666667 256a42.666667 42.666667 0 1 1 85.333334 0v5.717333a42.666667 42.666667 0 0 1 0 73.898667V597.333333a42.666667 42.666667 0 1 1-85.333334 0v-5.717333a42.666667 42.666667 0 0 1 0-73.898667V512z m42.666667 170.666667a42.666667 42.666667 0 0 1 42.666667 42.666666v85.333334a42.666667 42.666667 0 1 1-85.333334 0v-85.333334a42.666667 42.666667 0 0 1 42.666667-42.666666z m469.333333 42.666666a42.666667 42.666667 0 1 1 85.333334 0v85.333334a42.666667 42.666667 0 1 1-85.333334 0v-85.333334z m42.666667-256a42.666667 42.666667 0 0 1 42.666667 42.666667v5.717333a42.666667 42.666667 0 0 1 0 73.898667V597.333333a42.666667 42.666667 0 1 1-85.333334 0v-5.717333a42.666667 42.666667 0 0 1 0-73.898667V512a42.666667 42.666667 0 0 1 42.666667-42.666667z m-42.666667-170.666666a42.666667 42.666667 0 1 1 85.333334 0v85.333333a42.666667 42.666667 0 1 1-85.333334 0V298.666667z"  ></path></svg>