<?xml version="1.0" standalone="no"?><svg xmlns="http://www.w3.org/2000/svg" class="icon"  id="Xz-UC512AI" viewBox="0 0 1024 1024"><path d="M704 42.666667a21.333333 21.333333 0 0 0-21.333333 21.333333V128H384V64a21.333333 21.333333 0 0 0-21.333333-21.333333h-85.333334a21.333333 21.333333 0 0 0-21.333333 21.333333V128H170.666667a85.333333 85.333333 0 0 0-85.333334 85.333333v597.333334a85.333333 85.333333 0 0 0 85.333334 85.333333h85.333333v64a21.333333 21.333333 0 0 0 21.333333 21.333333h85.333334a21.333333 21.333333 0 0 0 21.333333-21.333333V896h256v64a21.333333 21.333333 0 0 0 21.333333 21.333333h85.333334a21.333333 21.333333 0 0 0 21.333333-21.333333V896h85.333333a85.333333 85.333333 0 0 0 85.333334-85.333333V213.333333a85.333333 85.333333 0 0 0-85.333334-85.333333h-85.333333V64a21.333333 21.333333 0 0 0-21.333333-21.333333h-42.666667zM207.146667 746.837333A42.666667 42.666667 0 0 1 244.181333 725.333333h535.637334a42.666667 42.666667 0 0 1 37.034666 21.504l29.184 51.072a8.533333 8.533333 0 0 1-7.424 12.757334H185.386667a8.533333 8.533333 0 0 1-7.424-12.8l29.184-51.029334z"  ></path></svg>