<?xml version="1.0" standalone="no"?><svg xmlns="http://www.w3.org/2000/svg" class="icon"  id="Xz-UC300" viewBox="0 0 1024 1024"><path d="M298.666667 85.333333a42.666667 42.666667 0 0 1 85.333333 0v85.333334h256V128a42.666667 42.666667 0 1 1 85.333333 0v42.666667h85.333334a42.666667 42.666667 0 0 1 42.666666 42.666666v682.666667a42.666667 42.666667 0 0 1-42.666666 42.666667H213.333333a42.666667 42.666667 0 0 1-42.666666-42.666667V213.333333a42.666667 42.666667 0 0 1 42.666666-42.666666h85.333334V85.333333zM256 277.333333v554.666667a21.333333 21.333333 0 0 0 42.666667 0v-554.666667a21.333333 21.333333 0 0 0-42.666667 0zM362.666667 256a21.333333 21.333333 0 0 0-21.333334 21.333333v554.666667a21.333333 21.333333 0 0 0 42.666667 0v-554.666667a21.333333 21.333333 0 0 0-21.333333-21.333333z m64 21.333333v554.666667a21.333333 21.333333 0 0 0 42.666666 0v-554.666667a21.333333 21.333333 0 0 0-42.666666 0z"  ></path></svg>