<?xml version="1.0" standalone="no"?><svg xmlns="http://www.w3.org/2000/svg" class="icon"  id="Xz-UC100" viewBox="0 0 1024 1024"><path d="M42.666667 213.333333a42.666667 42.666667 0 0 1 42.666666-42.666666h853.333334a42.666667 42.666667 0 0 1 42.666666 42.666666v597.333334a42.666667 42.666667 0 0 1-42.666666 42.666666H85.333333a42.666667 42.666667 0 0 1-42.666666-42.666666V213.333333z m832.725333 42.666667H141.824a8.533333 8.533333 0 0 0-7.68 12.373333l34.133333 68.266667a8.533333 8.533333 0 0 0 7.68 4.693333h631.168a8.533333 8.533333 0 0 0 6.058667-2.517333l68.266667-68.266667A8.533333 8.533333 0 0 0 875.392 256z m6.826667 512a8.533333 8.533333 0 0 0 7.594666-12.373333l-34.133333-68.266667a8.533333 8.533333 0 0 0-7.637333-4.693333H216.874667a8.533333 8.533333 0 0 0-6.058667 2.517333l-68.266667 68.266667a8.533333 8.533333 0 0 0 6.058667 14.549333h733.568z"  ></path></svg>