<?xml version="1.0" standalone="no"?><svg xmlns="http://www.w3.org/2000/svg" class="icon"  id="Xz-UC51X" viewBox="0 0 1024 1024"><path d="M213.333333 85.333333a42.666667 42.666667 0 0 1 42.666667-42.666666h85.333333a42.666667 42.666667 0 0 1 42.666667 42.666666v42.666667h341.333333V64a21.333333 21.333333 0 0 1 21.333334-21.333333h42.666666a21.333333 21.333333 0 0 1 21.333334 21.333333V128h85.333333a42.666667 42.666667 0 0 1 42.666667 42.666667v682.666666a42.666667 42.666667 0 0 1-42.666667 42.666667h-128v42.666667a42.666667 42.666667 0 0 1-42.666667 42.666666h-85.333333a42.666667 42.666667 0 0 1-42.666667-42.666666v-42.666667h-170.666666v42.666667a42.666667 42.666667 0 0 1-42.666667 42.666666H298.666667a42.666667 42.666667 0 0 1-42.666667-42.666666v-42.666667H128a42.666667 42.666667 0 0 1-42.666667-42.666667V170.666667a42.666667 42.666667 0 0 1 42.666667-42.666667h85.333333V85.333333z m512 768h50.816a21.333333 21.333333 0 0 0 19.072-30.890666l-21.333333-42.666667a21.333333 21.333333 0 0 0-19.072-11.776H269.184a21.333333 21.333333 0 0 0-19.072 11.776l-21.333333 42.666667a21.333333 21.333333 0 0 0 19.072 30.890666H725.333333zM469.333333 213.333333H170.666667v42.666667h298.666666V213.333333zM170.666667 298.666667v42.666666h298.666666V298.666667H170.666667z m298.666666 85.333333H170.666667v42.666667h298.666666V384z m-298.666666 85.333333v42.666667h298.666666v-42.666667H170.666667z m298.666666 85.333334H170.666667v42.666666h298.666666v-42.666666z m-298.666666 85.333333v42.666667h298.666666v-42.666667H170.666667zM853.333333 213.333333h-298.666666v42.666667h298.666666V213.333333z m-298.666666 85.333334v42.666666h298.666666V298.666667h-298.666666z m298.666666 85.333333h-298.666666v42.666667h298.666666V384z m-298.666666 85.333333v42.666667h298.666666v-42.666667h-298.666666z m298.666666 85.333334h-298.666666v42.666666h298.666666v-42.666666z m-298.666666 85.333333v42.666667h298.666666v-42.666667h-298.666666z"  ></path></svg>