<?xml version="1.0" standalone="no"?><svg xmlns="http://www.w3.org/2000/svg" class="icon"  id="Xz-VS350" viewBox="0 0 1024 1024"><path d="M85.333333 85.333333a42.666667 42.666667 0 0 0-42.666666 42.666667v725.333333a42.666667 42.666667 0 0 0 42.666666 42.666667h853.333334a42.666667 42.666667 0 0 0 42.666666-42.666667V128a42.666667 42.666667 0 0 0-42.666666-42.666667H85.333333z m128 170.666667v469.333333a85.333333 85.333333 0 0 1-85.333333 85.333334V170.666667a85.333333 85.333333 0 0 1 85.333333 85.333333z m682.666667 554.666667a85.333333 85.333333 0 0 1-85.333333-85.333334V256a85.333333 85.333333 0 0 1 85.333333-85.333333v640zM576 170.666667A106.666667 106.666667 0 0 1 682.666667 277.333333v426.666667a106.666667 106.666667 0 0 1-106.666667 106.666667h-170.666667A106.666667 106.666667 0 0 1 298.666667 704v-426.666667A106.666667 106.666667 0 0 1 405.333333 170.666667h170.666667zM384 277.333333v426.666667a21.333333 21.333333 0 0 0 21.333333 21.333333h170.666667a21.333333 21.333333 0 0 0 21.333333-21.333333v-426.666667a21.333333 21.333333 0 0 0-21.333333-21.333333h-170.666667a21.333333 21.333333 0 0 0-21.333333 21.333333z m170.666667 128a64 64 0 1 1-128 0 64 64 0 0 1 128 0zM490.666667 640a64 64 0 1 1 0-128 64 64 0 0 1 0 128z"  ></path></svg>