<?xml version="1.0" standalone="no"?><svg xmlns="http://www.w3.org/2000/svg" class="icon"  id="Xz-VS340" viewBox="0 0 1024 1024"><path d="M809.642667 85.333333a128 128 0 0 1 126.890666 111.701334l43.776 341.034666c0.768 6.101333 1.109333 12.16 1.024 18.133334L981.162667 853.333333a85.333333 85.333333 0 0 1-85.333334 85.333334H128a85.333333 85.333333 0 0 1-85.333333-85.333334l0.426666-298.666666c0-5.973333 0.426667-11.733333 1.152-17.365334L90.197333 196.266667A128 128 0 0 1 217.002667 85.333333h592.64z m0 85.333334H216.96a42.666667 42.666667 0 0 0-42.24 36.992L128.768 548.693333a42.666667 42.666667 0 0 0 42.282667 48.341334h101.802666l15.701334-141.141334A224.725333 224.725333 0 0 1 511.914667 256c114.773333 0 211.413333 85.76 225.109333 199.68l16.981333 141.354667H853.333333a42.666667 42.666667 0 0 0 42.325334-48.085334l-43.776-341.034666a42.666667 42.666667 0 0 0-42.24-37.248z m-297.728 170.666666a139.349333 139.349333 0 0 0-138.538667 123.989334l-14.634667 131.712h309.333334l-15.786667-131.157334a141.44 141.44 0 0 0-132.48-124.330666L511.914667 341.333333z m0 42.666667a85.333333 85.333333 0 1 1 0 170.666667 85.333333 85.333333 0 0 1 0-170.666667z"  ></path></svg>