<?xml version="1.0" standalone="no"?><svg xmlns="http://www.w3.org/2000/svg" class="icon"  id="Xz-VS132" viewBox="0 0 1024 1024"><path d="M887.466667 85.333333c24.917333 0 48.768 9.813333 66.389333 27.306667 17.578667 17.493333 27.477333 41.173333 27.477333 65.877333v326.144c0 24.746667-9.898667 48.426667-27.477333 65.92-17.621333 17.493333-41.514667 27.306667-66.389333 27.306667H136.533333c-24.874667 0-48.768-9.813333-66.389333-27.306667A92.842667 92.842667 0 0 1 42.666667 504.661333V178.517333c0-24.746667 9.898667-48.426667 27.477333-65.877333C87.765333 95.146667 111.658667 85.333333 136.533333 85.333333h750.933334z m-375.637334 104.832c-40.490667 0-79.274667 15.957333-107.861333 44.373334a150.869333 150.869333 0 0 0-44.672 107.093333c0 40.106667 16.042667 78.634667 44.672 107.050667 28.586667 28.373333 67.413333 44.373333 107.861333 44.373333s79.232-15.957333 107.818667-44.373333a150.869333 150.869333 0 0 0 44.714667-107.093334c0-40.149333-16.085333-78.677333-44.672-107.093333a153.088 153.088 0 0 0-107.861334-44.330667z m0 23.296a129.877333 129.877333 0 0 1 91.264 37.546667 128.128 128.128 0 0 1 37.802667 90.581333 127.36 127.36 0 0 1-37.802667 90.624 129.152 129.152 0 0 1-91.306666 37.546667 129.536 129.536 0 0 1-91.221334-37.546667 127.658667 127.658667 0 0 1-37.802666-90.624c0-33.962667 13.610667-66.56 37.802666-90.581333a129.536 129.536 0 0 1 91.264-37.546667z m0 23.296c-28.032 0-54.869333 11.050667-74.666666 30.72a104.448 104.448 0 0 0 0 148.266667 105.984 105.984 0 0 0 149.333333 0 104.448 104.448 0 0 0 0-148.266667 105.984 105.984 0 0 0-74.666667-30.72z m366.421334 515.626667a41.813333 41.813333 0 0 1 4.693333 59.050667 486.698667 486.698667 0 0 1-166.741333 125.482666A489.941333 489.941333 0 0 1 511.829333 981.333333a490.026667 490.026667 0 0 1-203.605333-44.032 486.698667 486.698667 0 0 1-166.4-124.458666 41.898667 41.898667 0 0 1-5.76-46.250667 41.984 41.984 0 0 1 24.490667-20.992 42.538667 42.538667 0 0 1 45.226666 12.458667A402.261333 402.261333 0 0 0 343.466667 861.013333a404.949333 404.949333 0 0 0 168.405333 36.394667 404.992 404.992 0 0 0 169.002667-36.693333 402.304 402.304 0 0 0 137.941333-103.722667 42.325333 42.325333 0 0 1 59.477333-4.693333z m-142.762667-89.856a41.984 41.984 0 0 1 12.8 44.885333 41.856 41.856 0 0 1-8.106667 14.293334 299.434667 299.434667 0 0 1-102.613333 77.184 301.525333 301.525333 0 0 1-125.738667 27.306666 301.568 301.568 0 0 1-125.312-27.093333 299.52 299.52 0 0 1-102.4-76.544 41.898667 41.898667 0 0 1-5.76-46.293333 41.984 41.984 0 0 1 24.490667-20.949334 42.496 42.496 0 0 1 45.226667 12.416 215.936 215.936 0 0 0 163.754666 74.581334c63.914667 0 123.306667-27.776 164.053334-75.093334a42.24 42.24 0 0 1 45.226666-12.714666c5.290667 1.706667 10.154667 4.437333 14.378667 8.021333z"  ></path></svg>