<?xml version="1.0" standalone="no"?><svg xmlns="http://www.w3.org/2000/svg" class="icon"  id="Xz-VS121" viewBox="0 0 1024 1024"><path d="M85.333333 170.666667c0-7.68 1.024-15.061333 2.901334-22.101334L341.333333 401.664v208.170667l-255.189333 255.189333A86.144 86.144 0 0 1 85.333333 853.333333V170.666667z m85.333334 768c-11.093333 0-21.76-2.133333-31.488-5.973334L389.205333 682.666667h233.130667l253.098667 253.098666A85.589333 85.589333 0 0 1 853.333333 938.666667H170.666667z m768-85.333334c0 7.68-1.024 15.061333-2.901334 22.101334L682.666667 622.336V389.12l250.026666-250.026667c3.84 9.813333 5.973333 20.394667 5.973334 31.530667v682.666667zM609.834667 341.333333l255.189333-255.189333A86.144 86.144 0 0 0 853.333333 85.333333H170.666667c-7.68 0-15.061333 1.024-22.101334 2.901334L401.664 341.333333h208.170667zM512 597.333333a85.333333 85.333333 0 1 0 0-170.666666 85.333333 85.333333 0 0 0 0 170.666666z"  ></path></svg>