<?xml version="1.0" standalone="no"?><svg xmlns="http://www.w3.org/2000/svg" class="icon"  id="Xz-VS330" viewBox="0 0 1024 1024"><path d="M213.333333 916.736V768a42.666667 42.666667 0 0 1 42.666667-42.666667h512a42.666667 42.666667 0 0 1 42.666667 42.666667v148.736c104.234667-86.101333 170.666667-216.32 170.666666-362.069333 0-259.2-210.133333-469.333333-469.333333-469.333334S42.666667 295.466667 42.666667 554.666667c0 145.749333 66.432 275.968 170.666666 362.069333zM256 426.666667a42.666667 42.666667 0 0 1 42.666667-42.666667h426.666666a42.666667 42.666667 0 1 1 0 85.333333H298.666667a42.666667 42.666667 0 0 1-42.666667-42.666666z m0 362.666666a21.333333 21.333333 0 0 1 21.333333-21.333333h170.666667a21.333333 21.333333 0 0 1 21.333333 21.333333v128a21.333333 21.333333 0 0 1-21.333333 21.333334h-170.666667a21.333333 21.333333 0 0 1-21.333333-21.333334v-128z m320-21.333333a21.333333 21.333333 0 0 0-21.333333 21.333333v128a21.333333 21.333333 0 0 0 21.333333 21.333334h170.666667a21.333333 21.333333 0 0 0 21.333333-21.333334v-128a21.333333 21.333333 0 0 0-21.333333-21.333333h-170.666667z"  ></path></svg>