<?xml version="1.0" standalone="no"?><svg xmlns="http://www.w3.org/2000/svg" class="icon"  id="Xz-WT101" viewBox="0 0 1024 1024"><path d="M256 85.333333a85.333333 85.333333 0 0 0-85.333333 85.333334v512a85.333333 85.333333 0 0 0 85.333333 85.333333h85.333333v85.333333H298.666667a42.666667 42.666667 0 1 0 0 85.333334h426.666666a42.666667 42.666667 0 1 0 0-85.333334h-42.666666v-85.333333h85.333333a85.333333 85.333333 0 0 0 85.333333-85.333333V170.666667a85.333333 85.333333 0 0 0-85.333333-85.333334H256z m341.333333 682.666667v85.333333h-170.666666v-85.333333h170.666666zM554.666667 170.666667v85.333333a42.666667 42.666667 0 1 1-85.333334 0V170.666667h85.333334z m85.333333 0h85.333333v85.333333a42.666667 42.666667 0 1 1-85.333333 0V170.666667zM384 170.666667v85.333333a42.666667 42.666667 0 0 1-85.333333 0V170.666667h85.333333z m170.666667 469.333333a42.666667 42.666667 0 1 1-85.333334 0 42.666667 42.666667 0 0 1 85.333334 0z"  ></path></svg>