<?xml version="1.0" standalone="no"?><svg xmlns="http://www.w3.org/2000/svg" class="icon"  id="Xz-WS136" viewBox="0 0 1024 1024"><path d="M85.333333 170.666667a85.333333 85.333333 0 0 1 85.333334-85.333334h682.666666a85.333333 85.333333 0 0 1 85.333334 85.333334v682.666666a85.333333 85.333333 0 0 1-85.333334 85.333334H170.666667a85.333333 85.333333 0 0 1-85.333334-85.333334V170.666667z m85.333334 42.666666v128h213.333333V170.666667H213.333333a42.666667 42.666667 0 0 0-42.666666 42.666666z m640-42.666666h-170.666667v170.666666h213.333333V213.333333a42.666667 42.666667 0 0 0-42.666666-42.666666zM170.666667 426.666667v170.666666h213.333333v-170.666666H170.666667z m682.666666 0h-213.333333v170.666666h213.333333v-170.666666zM170.666667 682.666667v128a42.666667 42.666667 0 0 0 42.666666 42.666666h170.666667v-170.666666H170.666667z m682.666666 0h-213.333333v170.666666h170.666667a42.666667 42.666667 0 0 0 42.666666-42.666666v-128z"  ></path></svg>