<?xml version="1.0" standalone="no"?><svg xmlns="http://www.w3.org/2000/svg" class="icon"  id="Xz-WS101" viewBox="0 0 1024 1024"><path d="M938.666667 235.776V170.666667a85.333333 85.333333 0 0 0-85.333334-85.333334h-52.608L938.666667 235.776zM713.941333 85.333333h-76.757333L938.666667 414.208V330.496L713.941333 85.333333zM170.666667 85.333333h379.733333l388.266667 423.594667V853.333333a85.333333 85.333333 0 0 1-85.333334 85.333334H170.666667a85.333333 85.333333 0 0 1-85.333334-85.333334V170.666667a85.333333 85.333333 0 0 1 85.333334-85.333334z m341.333333 554.666667a128 128 0 1 0 0-256 128 128 0 0 0 0 256z"  ></path></svg>