<?xml version="1.0" standalone="no"?><svg xmlns="http://www.w3.org/2000/svg" class="icon"  id="Xz-WS52X" viewBox="0 0 1024 1024"><path d="M85.333333 298.666667l426.666667-256 426.666667 256v426.666666l-426.666667 256-426.666667-256V298.666667z m384 128v42.666666a42.666667 42.666667 0 1 0 85.333334 0v-42.666666a42.666667 42.666667 0 1 0-85.333334 0z m-77.056 93.610666a42.666667 42.666667 0 0 0 0 60.330667l39.552 39.552a42.666667 42.666667 0 1 0 60.373334-60.330667l-39.552-39.552a42.666667 42.666667 0 0 0-60.373334 0z m184.32 5.162667l-34.432 34.389333a42.666667 42.666667 0 0 0 60.330667 60.373334l34.389333-34.389334a42.666667 42.666667 0 0 0-60.330666-60.373333zM725.333333 512a213.333333 213.333333 0 1 1-426.666666 0 213.333333 213.333333 0 0 1 426.666666 0z m85.333334 0a298.666667 298.666667 0 1 0-597.333334 0 298.666667 298.666667 0 0 0 597.333334 0z"  ></path></svg>