<?xml version="1.0" standalone="no"?><svg xmlns="http://www.w3.org/2000/svg" class="icon"  id="Xz-WS203" viewBox="0 0 1024 1024"><path d="M894.122667 117.248A128 128 0 0 0 809.642667 85.333333H216.96a128 128 0 0 0-126.805333 110.933334l-45.952 341.034666A135.466667 135.466667 0 0 0 43.093333 554.666667L42.666667 853.333333a85.333333 85.333333 0 0 0 85.333333 85.333334h767.829333a85.333333 85.333333 0 0 0 85.333334-85.333334L981.333333 556.202667a130.304 130.304 0 0 0-1.024-18.133334L936.533333 197.034667a128 128 0 0 0-42.410666-79.786667zM217.002667 170.666667h592.64a42.666667 42.666667 0 0 1 42.24 37.248l43.776 341.034666a42.794667 42.794667 0 0 1-24.746667 44.288 42.666667 42.666667 0 0 1-17.578667 3.797334h-99.328l-16.981333-141.354667A226.730667 226.730667 0 0 0 511.914667 256a224.64 224.64 0 0 0-223.36 199.893333l-15.701334 141.141334H171.050667a42.666667 42.666667 0 0 1-42.282667-48.341334l45.994667-341.034666A42.666667 42.666667 0 0 1 217.002667 170.666667zM418.986667 376.874667A139.349333 139.349333 0 0 1 511.914667 341.333333l7.893333 0.213334a141.397333 141.397333 0 0 1 132.48 124.330666l15.786667 131.157334h-309.333334l14.634667-131.712A139.392 139.392 0 0 1 418.986667 376.874667z m125.568 13.653333a85.333333 85.333333 0 1 0-65.28 157.610667 85.333333 85.333333 0 0 0 65.28-157.653334zM213.333333 725.333333h597.333334a42.666667 42.666667 0 1 1 0 85.333334H213.333333a42.666667 42.666667 0 1 1 0-85.333334z"  ></path></svg>