<?xml version="1.0" standalone="no"?><svg xmlns="http://www.w3.org/2000/svg" class="icon"  id="Xz-WS51X" viewBox="0 0 1024 1024"><path d="M128 128a85.333333 85.333333 0 0 1 85.333333-85.333333h597.333334a85.333333 85.333333 0 0 1 85.333333 85.333333v768a85.333333 85.333333 0 0 1-85.333333 85.333333H213.333333a85.333333 85.333333 0 0 1-85.333333-85.333333V128z m512 128a128 128 0 1 0-256 0 128 128 0 0 0 256 0z m-128 256a42.666667 42.666667 0 0 0-42.666667 42.666667v85.333333a42.666667 42.666667 0 1 0 85.333334 0v-85.333333a42.666667 42.666667 0 0 0-42.666667-42.666667z m-183.168 261.162667l60.330667 60.373333a42.666667 42.666667 0 0 0 60.373333-60.373333L389.12 712.832a42.666667 42.666667 0 0 0-60.330667 60.330667z m376.661333-60.330667a42.666667 42.666667 0 0 0-60.330666 0l-60.330667 60.330667a42.666667 42.666667 0 0 0 60.330667 60.373333l60.330666-60.373333a42.666667 42.666667 0 0 0 0-60.330667z"  ></path></svg>