<?xml version="1.0" standalone="no"?><svg xmlns="http://www.w3.org/2000/svg" class="icon"  id="Xz-ws202-1" viewBox="0 0 1024 1024"><path d="M85.333333 170.666667a85.333333 85.333333 0 0 1 85.333334-85.333334h682.666666a85.333333 85.333333 0 0 1 85.333334 85.333334v682.666666a85.333333 85.333333 0 0 1-85.333334 85.333334H170.666667a85.333333 85.333333 0 0 1-85.333334-85.333334V170.666667z m469.333334 42.666666a42.666667 42.666667 0 1 0-85.333334 0 42.666667 42.666667 0 0 0 85.333334 0z m-42.666667 554.666667a170.666667 170.666667 0 1 0 0-341.333333 170.666667 170.666667 0 0 0 0 341.333333z"  ></path></svg>