<?xml version="1.0" standalone="no"?><svg xmlns="http://www.w3.org/2000/svg" class="icon"  id="Xz-WS558" viewBox="0 0 1024 1024"><path d="M128 128a85.333333 85.333333 0 0 0-85.333333 85.333333v597.333334a85.333333 85.333333 0 0 0 85.333333 85.333333h768a85.333333 85.333333 0 0 0 85.333333-85.333333V213.333333a85.333333 85.333333 0 0 0-85.333333-85.333333H128z m85.333333 85.333333v85.333334H128V213.333333h85.333333zM128 725.333333h85.333333v85.333334H128v-85.333334z m256 0v85.333334H298.666667v-85.333334h85.333333z m85.333333 0h85.333334v85.333334h-85.333334v-85.333334z m256 0v85.333334h-85.333333v-85.333334h85.333333z m85.333334 0h85.333333v85.333334h-85.333333v-85.333334z m85.333333-512v85.333334h-85.333333V213.333333h85.333333zM298.666667 213.333333h426.666666v85.333334H298.666667V213.333333z m597.333333 128v341.333334H128V341.333333h768z"  ></path></svg>