<?xml version="1.0" standalone="no"?><svg xmlns="http://www.w3.org/2000/svg" class="icon"  id="Xz-WS301" viewBox="0 0 1024 1024"><path d="M170.666667 128a42.666667 42.666667 0 0 1 42.666666-42.666667h341.333334a42.666667 42.666667 0 0 1 42.666666 42.666667v768a42.666667 42.666667 0 0 1-42.666666 42.666667H213.333333a42.666667 42.666667 0 0 1-42.666666-42.666667V128z m213.333333 426.666667a42.666667 42.666667 0 1 0 0-85.333334 42.666667 42.666667 0 0 0 0 85.333334z m0 85.333333a128 128 0 1 0 0-256 128 128 0 0 0 0 256z m355.882667-497.194667a41.813333 41.813333 0 0 1 59.093333-4.693333 486.656 486.656 0 0 1 125.44 166.741333 489.941333 489.941333 0 0 1 44.458667 204.373334 490.026667 490.026667 0 0 1-44.032 203.605333 486.698667 486.698667 0 0 1-124.458667 166.4 41.813333 41.813333 0 0 1-67.242667-18.730667 42.496 42.496 0 0 1 12.458667-45.226666 402.261333 402.261333 0 0 0 102.997333-137.642667 404.949333 404.949333 0 0 0 36.394667-168.405333 405.034667 405.034667 0 0 0-36.693333-169.002667 402.261333 402.261333 0 0 0-103.722667-137.941333 42.325333 42.325333 0 0 1-4.693333-59.477334z m-89.813334 142.762667a41.984 41.984 0 0 1 44.885334-12.8 41.813333 41.813333 0 0 1 14.293333 8.106667 299.434667 299.434667 0 0 1 77.141333 102.613333c18.048 39.424 27.349333 82.346667 27.306667 125.738667a301.568 301.568 0 0 1-27.050667 125.312 299.52 299.52 0 0 1-76.544 102.4 41.813333 41.813333 0 0 1-67.242666-18.773334 42.538667 42.538667 0 0 1 12.416-45.226666 215.936 215.936 0 0 0 74.581333-163.712c0-63.914667-27.776-123.306667-75.093333-164.053334a42.24 42.24 0 0 1-12.714667-45.226666 42.325333 42.325333 0 0 1 8.021333-14.378667zM42.666667 145.066667c0-9.386667 7.68-17.066667 17.066666-17.066667h51.2c9.386667 0 17.066667 7.68 17.066667 17.066667v733.866666a17.066667 17.066667 0 0 1-17.066667 17.066667H59.733333a17.066667 17.066667 0 0 1-17.066666-17.066667V145.066667z"  ></path></svg>