<?xml version="1.0" standalone="no"?><svg xmlns="http://www.w3.org/2000/svg" class="icon"  id="Xz-WTS305" viewBox="0 0 1024 1024"><path d="M535.381333 85.333333c224.810667 1.450667 403.2 21.930667 403.2 47.146667 0 10.752-32.085333 20.608-86.357333 28.458667v178.858666c54.272 7.978667 86.442667 17.834667 86.442667 28.501334 0 23.296-152.576 42.538667-353.109334 46.421333l-0.085333 43.349333h242.090667a21.333333 21.333333 0 0 1 21.333333 21.333334v33.749333a21.333333 21.333333 0 0 1-21.333333 21.333333l-242.090667-0.085333v44.885333h242.090667a21.333333 21.333333 0 0 1 21.333333 21.333334v33.749333a21.333333 21.333333 0 0 1-21.333333 21.333333l-242.090667-0.085333v45.013333h242.090667a21.333333 21.333333 0 0 1 21.333333 21.333334v33.664a21.333333 21.333333 0 0 1-21.333333 21.333333h-242.090667v134.314667c168.618667 3.029333 297.472 16.384 307.626667 32.597333l0.682666 2.090667c0 19.498667-170.965333 35.370667-381.781333 35.370666-210.816 0-381.696-15.872-381.696-35.413333 0-16.554667 123.562667-30.464 290.133333-34.304V776.96H196.522667a21.333333 21.333333 0 0 1-21.333334-21.333333v-33.706667a21.333333 21.333333 0 0 1 21.333334-21.333333h223.914666v-44.970667H196.522667a21.333333 21.333333 0 0 1-21.333334-21.333333v-33.578667a21.333333 21.333333 0 0 1 21.333334-21.333333l223.914666-0.085334v-44.885333H196.522667a21.333333 21.333333 0 0 1-21.333334-21.333333v-33.664a21.333333 21.333333 0 0 1 21.333334-21.333334h223.914666V414.336C228.778667 409.685333 85.333333 390.869333 85.333333 368.256c0-11.008 34.389333-21.205333 91.946667-29.269333V161.749333C119.722667 153.685333 85.333333 143.573333 85.333333 132.48c0-25.088 178.474667-45.696 403.2-47.061333h46.848V85.333333z m246.058667 83.669334c-67.029333 6.101333-151.168 9.856-243.114667 10.581333v141.568c91.946667 0.64 176.085333 4.48 243.114667 10.581333V169.002667z m-533.333333 0.554666v161.621334a2962.218667 2962.218667 0 0 1 219.434666-9.813334V179.370667a2964.906667 2964.906667 0 0 1-219.477333-9.856h0.085333z"  ></path></svg>