<?xml version="1.0" standalone="no"?><svg xmlns="http://www.w3.org/2000/svg" class="icon"  id="Xz-WS86" viewBox="0 0 1024 1024"><path d="M85.333333 170.666667a85.333333 85.333333 0 0 1 85.333334-85.333334h682.666666a85.333333 85.333333 0 0 1 85.333334 85.333334v682.666666a85.333333 85.333333 0 0 1-85.333334 85.333334H170.666667a85.333333 85.333333 0 0 1-85.333334-85.333334V170.666667z m426.666667 14.208a42.666667 42.666667 0 0 0-42.666667 42.666666V512a42.666667 42.666667 0 1 0 85.333334 0V227.541333a42.666667 42.666667 0 0 0-42.666667-42.666666z m-309.333333 326.186666c0 171.136 138.24 310.272 309.333333 310.272s309.333333-139.136 309.333333-310.272a309.845333 309.845333 0 0 0-138.837333-258.901333 40.96 40.96 0 0 0-56.106667 10.538667 39.466667 39.466667 0 0 0 10.794667 55.552 230.826667 230.826667 0 0 1 103.125333 192.853333c-0.042667 127.573333-102.528 230.528-228.309333 230.528s-228.266667-102.954667-228.266667-230.570667a230.826667 230.826667 0 0 1 103.125334-192.853333 39.466667 39.466667 0 0 0 10.752-55.466667 40.96 40.96 0 0 0-56.149334-10.581333 309.845333 309.845333 0 0 0-138.794666 258.901333z"  ></path></svg>