<?xml version="1.0" standalone="no"?><svg xmlns="http://www.w3.org/2000/svg" class="icon"  id="Xz-WT201" viewBox="0 0 1024 1024"><path d="M128 128a42.666667 42.666667 0 0 0-42.666667 42.666667v682.666666a42.666667 42.666667 0 0 0 42.666667 42.666667h768a42.666667 42.666667 0 0 0 42.666667-42.666667V170.666667a42.666667 42.666667 0 0 0-42.666667-42.666667H128z m640 85.333333h42.666667a42.666667 42.666667 0 1 1 0 85.333334h-42.666667a42.666667 42.666667 0 1 1 0-85.333334z m-42.666667 213.333334a42.666667 42.666667 0 0 1 42.666667-42.666667h42.666667a42.666667 42.666667 0 1 1 0 85.333333h-42.666667a42.666667 42.666667 0 0 1-42.666667-42.666666z m42.666667 128h42.666667a42.666667 42.666667 0 1 1 0 85.333333h-42.666667a42.666667 42.666667 0 1 1 0-85.333333z m-42.666667 213.333333a42.666667 42.666667 0 0 1 42.666667-42.666667h42.666667a42.666667 42.666667 0 1 1 0 85.333334h-42.666667a42.666667 42.666667 0 0 1-42.666667-42.666667zM533.333333 213.333333A106.666667 106.666667 0 0 1 640 320v384a106.666667 106.666667 0 0 1-106.666667 106.666667h-256A106.666667 106.666667 0 0 1 170.666667 704v-384A106.666667 106.666667 0 0 1 277.333333 213.333333h256zM256 320v384a21.333333 21.333333 0 0 0 21.333333 21.333333h256a21.333333 21.333333 0 0 0 21.333334-21.333333v-384a21.333333 21.333333 0 0 0-21.333334-21.333333h-256a21.333333 21.333333 0 0 0-21.333333 21.333333z"  ></path></svg>