<?xml version="1.0" standalone="no"?><svg xmlns="http://www.w3.org/2000/svg" class="icon"  id="Xz-WS302" viewBox="0 0 1024 1024"><path d="M341.333333 85.333333H298.666667v320a21.333333 21.333333 0 0 1-42.666667 0V85.333333H213.333333v234.666667a21.333333 21.333333 0 0 1-42.666666 0V85.333333h-37.546667A47.786667 47.786667 0 0 0 85.333333 133.205333v757.589334C85.333333 917.248 106.709333 938.666667 133.12 938.666667h132.821333a27.008 27.008 0 0 0 19.498667-8.32l15.658667-16.213334a27.093333 27.093333 0 0 1 19.498666-8.277333h382.805334a27.050667 27.050667 0 0 1 19.498666 8.277333l15.658667 16.213334a27.178667 27.178667 0 0 0 19.498667 8.32h132.821333A47.786667 47.786667 0 0 0 938.666667 890.794667V133.205333C938.666667 106.752 917.248 85.333333 890.88 85.333333H384v234.666667a21.333333 21.333333 0 0 1-42.666667 0V85.333333z m469.333334 448a21.333333 21.333333 0 0 1 42.666666 0v256a21.333333 21.333333 0 0 1-42.666666 0v-256z"  ></path></svg>