<?xml version="1.0" standalone="no"?><svg xmlns="http://www.w3.org/2000/svg" class="icon"  id="Xz-WS303" viewBox="0 0 1024 1024"><path d="M513.706667 42.666667c63.616 0 127.232 5.802667 190.848 17.450666l8.661333 1.621334a312.874667 312.874667 0 0 1 248.448 248.149333A1073.92 1073.92 0 0 1 981.333333 513.28c0 63.872-5.845333 127.701333-17.536 191.573333l-1.621333 8.704A312.874667 312.874667 0 0 1 725.333333 959.573333V853.333333a42.666667 42.666667 0 1 0-85.333333 0v120.234667a1059.541333 1059.541333 0 0 1-256 0V853.333333a42.666667 42.666667 0 1 0-85.333333 0v106.197334a312.917333 312.917333 0 0 1-236.288-245.546667A1075.882667 1075.882667 0 0 1 42.666667 510.165333c0-63.530667 5.802667-127.018667 17.408-190.549333l1.621333-8.661333A312.874667 312.874667 0 0 1 309.76 62.421333 1074.048 1074.048 0 0 1 513.706667 42.666667zM512 597.333333a170.666667 170.666667 0 1 0 0-341.333333 170.666667 170.666667 0 0 0 0 341.333333z m0 85.333334a256 256 0 1 0 0-512 256 256 0 0 0 0 512z m-85.333333-298.666667h170.666666a42.666667 42.666667 0 1 1 0 85.333333h-170.666666a42.666667 42.666667 0 1 1 0-85.333333z"  ></path></svg>