<?xml version="1.0" standalone="no"?><svg xmlns="http://www.w3.org/2000/svg" class="icon"  id="Xz-Columnchart" viewBox="0 0 1024 1024"><path d="M725.333333 85.333333a42.666667 42.666667 0 0 0-42.666666 42.666667v725.333333h-64V384a42.666667 42.666667 0 0 0-42.666667-42.666667h-128a42.666667 42.666667 0 0 0-42.666667 42.666667v469.333333H341.333333v-256a42.666667 42.666667 0 0 0-42.666666-42.666666H170.666667a42.666667 42.666667 0 0 0-42.666667 42.666666v256H85.333333a42.666667 42.666667 0 1 0 0 85.333334h853.333334a42.666667 42.666667 0 1 0 0-85.333334h-42.666667V128a42.666667 42.666667 0 0 0-42.666667-42.666667h-128z m85.333334 768h-42.666667V170.666667h42.666667v682.666666z m-320-426.666666h42.666666v426.666666h-42.666666V426.666667zM256 853.333333H213.333333v-213.333333h42.666667v213.333333z"  ></path></svg>