<?xml version="1.0" standalone="no"?><svg xmlns="http://www.w3.org/2000/svg" class="icon"  id="Xz-clock" viewBox="0 0 1024 1024"><path d="M511.573333 85.333333C747.52 85.333333 938.666667 276.48 938.666667 512s-191.146667 426.666667-427.093334 426.666667C276.053333 938.666667 85.333333 747.52 85.333333 512S276.053333 85.333333 511.573333 85.333333zM512 170.666667c-188.586667 0-341.333333 152.746667-341.333333 341.333333s152.746667 341.333333 341.333333 341.333333 341.333333-152.746667 341.333333-341.333333-152.746667-341.333333-341.333333-341.333333z m-21.333333 106.666666a42.666667 42.666667 0 0 1 42.368 37.674667l0.298666 4.992v186.965333l147.072 73.557334a42.666667 42.666667 0 0 1 21.077334 52.650666l-2.005334 4.565334a42.666667 42.666667 0 0 1-52.650666 21.077333l-4.565334-2.005333-165.973333-82.944a51.2 51.2 0 0 1-27.946667-40.064l-0.341333-5.76V320a42.666667 42.666667 0 0 1 42.666667-42.666667z"  ></path></svg>