<?xml version="1.0" standalone="no"?><svg xmlns="http://www.w3.org/2000/svg" class="icon"  id="Xz-calendar" viewBox="0 0 1024 1024"><path d="M682.666667 128a42.666667 42.666667 0 0 1 42.666666 42.666667h42.666667a128 128 0 0 1 128 128v469.333333a128 128 0 0 1-128 128H256a128 128 0 0 1-128-128V298.666667a128 128 0 0 1 128-128h42.666667a42.666667 42.666667 0 0 1 85.333333 0h256a42.666667 42.666667 0 0 1 42.666667-42.666667z m128 341.333333H213.333333v298.666667a42.666667 42.666667 0 0 0 37.674667 42.368L256 810.666667h512a42.666667 42.666667 0 0 0 42.368-37.674667L810.666667 768v-298.666667zM256 256a42.666667 42.666667 0 0 0-42.368 37.674667L213.333333 298.666667v85.333333h597.333334V298.666667a42.666667 42.666667 0 0 0-37.674667-42.368L768 256h-42.666667a42.666667 42.666667 0 1 1-85.333333 0H384a42.666667 42.666667 0 0 1-85.333333 0H256z"  ></path></svg>