<?xml version="1.0" standalone="no"?><svg xmlns="http://www.w3.org/2000/svg" class="icon"  id="Xz-check" viewBox="0 0 1024 1024"><path d="M512 85.333333c235.52 0 426.666667 191.146667 426.666667 426.666667s-191.146667 426.666667-426.666667 426.666667S85.333333 747.52 85.333333 512 276.48 85.333333 512 85.333333z m0 85.333334c-188.373333 0-341.333333 152.96-341.333333 341.333333s152.96 341.333333 341.333333 341.333333 341.333333-152.96 341.333333-341.333333-152.96-341.333333-341.333333-341.333333z m243.498667 161.834666a42.666667 42.666667 0 0 1 3.541333 56.32l-3.541333 4.010667-283.562667 283.605333a64 64 0 0 1-85.674667 4.394667l-4.864-4.394667-112.896-112.938666a42.666667 42.666667 0 0 1 56.32-63.872l4.010667 3.541333L426.666667 600.96l268.501333-268.458667a42.666667 42.666667 0 0 1 60.330667 0z"  ></path></svg>