<?xml version="1.0" standalone="no"?><svg xmlns="http://www.w3.org/2000/svg" class="icon"  id="Xz-close-circle" viewBox="0 0 1024 1024"><path d="M512 85.333333c235.52 0 426.666667 191.146667 426.666667 426.666667s-191.146667 426.666667-426.666667 426.666667S85.333333 747.52 85.333333 512 276.48 85.333333 512 85.333333z m0 85.333334c-188.373333 0-341.333333 152.96-341.333333 341.333333s152.96 341.333333 341.333333 341.333333 341.333333-152.96 341.333333-341.333333-152.96-341.333333-341.333333-341.333333zM353.834667 353.834667a42.666667 42.666667 0 0 1 56.32-3.541334l4.010666 3.541334L512 451.626667l97.834667-97.792 4.010666-3.541334a42.666667 42.666667 0 0 1 59.861334 59.861334l-3.541334 4.010666L572.373333 512l97.792 97.834667 3.541334 4.010666a42.666667 42.666667 0 0 1-59.861334 59.861334l-4.010666-3.541334L512 572.373333l-97.834667 97.792-4.010666 3.541334a42.666667 42.666667 0 0 1-59.861334-59.861334l3.541334-4.010666L451.626667 512 353.834667 414.165333l-3.541334-4.010666a42.666667 42.666667 0 0 1 3.541334-56.32z"  ></path></svg>