<?xml version="1.0" standalone="no"?><svg xmlns="http://www.w3.org/2000/svg" class="icon"  id="Xz-double-arrow-left" viewBox="0 0 1024 1024"><path d="M499.2 677.546667c16.64 16.64 16.64 43.52 0 60.16a42.368 42.368 0 0 1-59.733333 0.426666l-195.84-195.84a42.496 42.496 0 0 1 0-60.16l195.84-195.84a42.496 42.496 0 1 1 60.16 60.16L334.08 512l165.12 165.546667z m281.173333 0c16.64 16.64 16.64 43.52 0 60.16a42.368 42.368 0 0 1-59.733333 0.426666l-195.84-195.84a42.496 42.496 0 0 1 0-60.16l195.84-195.84a42.496 42.496 0 1 1 60.16 60.16L615.253333 512l165.12 165.546667z"  ></path></svg>