<?xml version="1.0" standalone="no"?><svg xmlns="http://www.w3.org/2000/svg" class="icon"  id="Xz-device" viewBox="0 0 1024 1024"><path d="M828.16 128C889.173333 128 938.666667 173.866667 938.666667 230.4v136.533333c0 56.533333-49.493333 102.4-110.506667 102.4H195.84C134.826667 469.333333 85.333333 423.466667 85.333333 366.933333V230.4C85.333333 173.866667 134.826667 128 195.84 128h632.32zM170.666667 256v85.333333a42.666667 42.666667 0 0 0 42.666666 42.666667h597.333334a42.666667 42.666667 0 0 0 42.666666-42.666667V256a42.666667 42.666667 0 0 0-42.666666-42.666667H213.333333a42.666667 42.666667 0 0 0-42.666666 42.666667z m657.493333 298.666667c61.013333 0 110.506667 45.866667 110.506667 102.4v136.533333c0 56.533333-49.493333 102.4-110.506667 102.4H195.84C134.826667 896 85.333333 850.133333 85.333333 793.6v-136.533333C85.333333 600.533333 134.826667 554.666667 195.84 554.666667h632.32zM170.666667 682.666667v85.333333a42.666667 42.666667 0 0 0 42.666666 42.666667h597.333334a42.666667 42.666667 0 0 0 42.666666-42.666667v-85.333333a42.666667 42.666667 0 0 0-42.666666-42.666667H213.333333a42.666667 42.666667 0 0 0-42.666666 42.666667zM300.714667 256C323.157333 256 341.333333 275.114667 341.333333 298.666667s-18.176 42.666667-40.618666 42.666666h-4.096C274.176 341.333333 256 322.218667 256 298.666667s18.176-42.666667 40.618667-42.666667h4.096zM341.333333 725.333333c0 23.552-18.176 42.666667-40.618666 42.666667h-4.096C274.176 768 256 748.885333 256 725.333333s18.176-42.666667 40.618667-42.666666h4.096c22.442667 0 40.618667 19.114667 40.618666 42.666666z"  ></path></svg>