<?xml version="1.0" standalone="no"?><svg xmlns="http://www.w3.org/2000/svg" class="icon"  id="Xz-double-arrow-up" viewBox="0 0 1024 1024"><path d="M346.026667 499.2a42.496 42.496 0 1 1-60.16-60.16l195.84-195.413333a42.496 42.496 0 0 1 60.16 0l195.84 195.84a42.496 42.496 0 1 1-60.16 60.16L512 334.08 346.026667 499.2z m0 281.173333a42.496 42.496 0 1 1-60.16-60.16l195.84-195.413333a42.496 42.496 0 0 1 60.16 0l195.84 195.84a42.496 42.496 0 1 1-60.16 60.16L512 615.253333l-165.973333 165.12z"  ></path></svg>