<?xml version="1.0" standalone="no"?><svg xmlns="http://www.w3.org/2000/svg" class="icon"  id="Xz-delete" viewBox="0 0 1024 1024"><path d="M618.666667 128a64 64 0 0 1 63.701333 57.856L682.666667 192V256h170.666666a42.666667 42.666667 0 1 1 0 85.333333h-42.666666v426.666667a128 128 0 0 1-128 128H341.333333a128 128 0 0 1-128-128V341.333333H170.666667a42.666667 42.666667 0 0 1 0-85.333333h170.666666V192a64 64 0 0 1 57.856-63.701333L405.333333 128h213.333334zM725.333333 341.333333H298.666667v426.666667a42.666667 42.666667 0 0 0 37.674666 42.368L341.333333 810.666667h341.333334a42.666667 42.666667 0 0 0 42.368-37.674667L725.333333 768V341.333333z m-256 128v213.333334a42.666667 42.666667 0 1 1-85.333333 0v-213.333334a42.666667 42.666667 0 1 1 85.333333 0z m170.666667 0v213.333334a42.666667 42.666667 0 1 1-85.333333 0v-213.333334a42.666667 42.666667 0 1 1 85.333333 0z m-42.666667-256h-170.666666v42.666667h170.666666V213.333333z"  ></path></svg>