<?xml version="1.0" standalone="no"?><svg xmlns="http://www.w3.org/2000/svg" class="icon"  id="Xz-double-arrow-down" viewBox="0 0 1024 1024"><path d="M677.546667 243.626667a42.496 42.496 0 0 1 60.16 0c16.64 16.64 16.64 43.52 0 59.733333L541.866667 499.2a42.496 42.496 0 0 1-60.16 0L285.866667 303.36A42.496 42.496 0 1 1 346.026667 243.2L512 408.746667l165.546667-165.12z m0 281.173333a42.496 42.496 0 0 1 60.16 0c16.64 16.64 16.64 43.52 0.426666 59.733333l-195.84 195.84a42.496 42.496 0 0 1-60.16 0L286.293333 584.533333a42.496 42.496 0 1 1 60.16-60.16L512 689.92l165.546667-165.12z"  ></path></svg>