<?xml version="1.0" standalone="no"?><svg xmlns="http://www.w3.org/2000/svg" class="icon"  id="Xz-download" viewBox="0 0 1024 1024"><path d="M809.514667 400.213333a298.666667 298.666667 0 0 0-594.816-2.133333 256 256 0 1 0 153.898666 488.234667 42.666667 42.666667 0 1 0-23.253333-82.090667 170.666667 170.666667 0 0 1-86.314667-330.24 42.453333 42.453333 0 0 0 20.864-11.946667A42.624 42.624 0 0 0 298.666667 426.666667a213.333333 213.333333 0 0 1 426.666666 0c0 3.925333 0.512 7.68 1.493334 11.306666a42.666667 42.666667 0 0 0 32.469333 35.968 170.752 170.752 0 1 1-86.314667 330.282667 42.666667 42.666667 0 1 0-23.296 82.090667A256 256 0 0 0 809.514667 400.213333z m-175.402667 209.493334a42.666667 42.666667 0 1 1 60.074667 60.586666l-152.149334 150.954667a42.666667 42.666667 0 0 1-60.245333-0.170667l-147.968-148.437333a42.666667 42.666667 0 1 1 60.458667-60.202667L469.333333 687.744V426.666667a42.666667 42.666667 0 1 1 85.333334 0v261.802666l79.445333-78.762666z"  ></path></svg>