<?xml version="1.0" standalone="no"?><svg xmlns="http://www.w3.org/2000/svg" class="icon"  id="Xz-double-arrow-right" viewBox="0 0 1024 1024"><path d="M524.373333 346.453333a42.496 42.496 0 0 1 0-60.16c16.64-16.64 43.946667-16.64 60.16-0.426666l195.84 195.84c16.64 16.64 16.64 43.52 0 60.16l-195.84 195.84a42.496 42.496 0 1 1-60.16-60.16L689.92 512l-165.546667-165.546667z m-281.173333 0a42.496 42.496 0 0 1 0-60.16c16.64-16.64 43.946667-16.64 60.586667 0l195.413333 195.413334c16.64 16.64 16.64 43.52 0 60.16l-195.84 195.84a42.496 42.496 0 1 1-60.16-60.16L408.746667 512 243.2 346.453333z"  ></path></svg>