<?xml version="1.0" standalone="no"?><svg xmlns="http://www.w3.org/2000/svg" class="icon"  id="Xz-date" viewBox="0 0 1024 1024"><path d="M128 85.333333a85.333333 85.333333 0 0 0-85.333333 85.333334v640a85.333333 85.333333 0 0 0 85.333333 85.333333h768a85.333333 85.333333 0 0 0 85.333333-85.333333V170.666667a85.333333 85.333333 0 0 0-85.333333-85.333334H128z m0 128a42.666667 42.666667 0 0 1 42.666667-42.666666h682.666666a42.666667 42.666667 0 0 1 42.666667 42.666666v554.666667a42.666667 42.666667 0 0 1-42.666667 42.666667H170.666667a42.666667 42.666667 0 0 1-42.666667-42.666667V213.333333z m597.333333 320a42.666667 42.666667 0 1 0-85.333333 0V682.666667a42.666667 42.666667 0 1 0 85.333333 0v-149.333334zM512 298.666667a42.666667 42.666667 0 0 1 42.666667 42.666666v341.333334a42.666667 42.666667 0 1 1-85.333334 0V341.333333a42.666667 42.666667 0 0 1 42.666667-42.666666z m-128 128a42.666667 42.666667 0 0 0-85.333333 0v256a42.666667 42.666667 0 1 0 85.333333 0v-256z"  ></path></svg>