<?xml version="1.0" standalone="no"?><svg xmlns="http://www.w3.org/2000/svg" class="icon"  id="Xz-dashboard" viewBox="0 0 1024 1024"><path d="M512 85.333333C276.48 85.333333 85.333333 276.48 85.333333 512s191.146667 426.666667 426.666667 426.666667 426.666667-191.146667 426.666667-426.666667S747.52 85.333333 512 85.333333z m-42.666667 87.978667v86.570667c0 21.418667 19.114667 38.784 42.666667 38.784s42.666667-17.365333 42.666667-38.826667V173.354667A342.186667 342.186667 0 0 1 850.688 469.333333h-89.813333c-19.626667 0-35.541333 19.114667-35.541334 42.666667s15.914667 42.666667 35.541334 42.666667h89.813333A342.186667 342.186667 0 0 1 554.666667 850.688v-86.570667c0-21.418667-19.114667-38.784-42.666667-38.784s-42.666667 17.365333-42.666667 38.826667v86.528A342.186667 342.186667 0 0 1 173.312 554.666667h86.570667c21.418667 0 38.784-19.114667 38.784-42.666667s-17.365333-42.666667-38.826667-42.666667H173.354667A342.144 342.144 0 0 1 469.333333 173.312z"  ></path></svg>