<?xml version="1.0" standalone="no"?><svg xmlns="http://www.w3.org/2000/svg" class="icon"  id="Xz-export" viewBox="0 0 1024 1024"><path d="M853.333333 682.666667a42.666667 42.666667 0 0 1 42.368 37.674666L896 725.333333v42.666667a128 128 0 0 1-128 128H256a128 128 0 0 1-128-128v-42.666667l0.298667-4.992a42.666667 42.666667 0 0 1 84.736 0L213.333333 725.333333v42.666667a42.666667 42.666667 0 0 0 37.674667 42.368L256 810.666667h512a42.666667 42.666667 0 0 0 42.368-37.674667L810.666667 768v-42.666667l0.298666-4.992A42.666667 42.666667 0 0 1 853.333333 682.666667zM538.154667 136.96l4.010666 3.541333 170.666667 170.666667a42.666667 42.666667 0 0 1-56.32 63.872l-4.010667-3.541333L554.666667 273.706667V640a42.666667 42.666667 0 0 1-85.034667 4.992L469.333333 640V273.706667L371.498667 371.498667a42.666667 42.666667 0 0 1-56.32 3.541333l-4.010667-3.541333a42.666667 42.666667 0 0 1-3.541333-56.32l3.541333-4.010667 170.666667-170.666667a42.666667 42.666667 0 0 1 56.32-3.541333z"  ></path></svg>