<?xml version="1.0" standalone="no"?><svg xmlns="http://www.w3.org/2000/svg" class="icon"  id="Xz-edit" viewBox="0 0 1024 1024"><path d="M853.333333 806.528a42.666667 42.666667 0 1 1 0 85.333333H170.666667a42.666667 42.666667 0 0 1 0-85.333333h682.666666zM722.090667 142.421333l4.778666 4.309334 81.194667 81.194666a64 64 0 0 1 2.389333 85.76l-4.522666 4.736-403.370667 385.066667a64 64 0 0 1-38.058667 17.408l-6.144 0.298667H234.666667a21.333333 21.333333 0 0 1-20.992-17.493334L213.333333 699.861333v-121.941333a64 64 0 0 1 15.36-41.557333l4.437334-4.736 404.309333-385.92a64 64 0 0 1 84.650667-3.285334z m-40.832 79.36L298.666667 587.008v48.853333h51.114666l381.44-364.117333-49.962666-49.92z"  ></path></svg>