<?xml version="1.0" standalone="no"?><svg xmlns="http://www.w3.org/2000/svg" class="icon"  id="Xz-fullscreen" viewBox="0 0 1024 1024"><path d="M938.666667 170.666667a42.666667 42.666667 0 0 0-42.666667-42.666667h-192a42.666667 42.666667 0 0 0-42.666667 42.666667l0.298667 4.992A42.666667 42.666667 0 0 0 704 213.333333H853.333333v149.333334a42.666667 42.666667 0 1 0 85.333334 0V170.666667z m0 533.333333a42.666667 42.666667 0 0 0-42.666667-42.666667l-4.992 0.298667A42.666667 42.666667 0 0 0 853.333333 704V853.333333h-149.333333a42.666667 42.666667 0 1 0 0 85.333334H896a42.666667 42.666667 0 0 0 42.666667-42.666667v-192z m-810.666667-42.666667a42.666667 42.666667 0 0 1 42.666667 42.666667V853.333333h149.333333a42.666667 42.666667 0 0 1 42.368 37.674667L362.666667 896a42.666667 42.666667 0 0 1-42.666667 42.666667H128a42.666667 42.666667 0 0 1-42.666667-42.666667v-192a42.666667 42.666667 0 0 1 42.666667-42.666667zM362.666667 170.666667a42.666667 42.666667 0 0 0-42.666667-42.666667H128a42.666667 42.666667 0 0 0-42.666667 42.666667v192a42.666667 42.666667 0 0 0 42.666667 42.666666l4.992-0.298666A42.666667 42.666667 0 0 0 170.666667 362.666667V213.333333h149.333333a42.666667 42.666667 0 0 0 42.666667-42.666666z"  ></path></svg>