<?xml version="1.0" standalone="no"?><svg xmlns="http://www.w3.org/2000/svg" class="icon"  id="Xz-help" viewBox="0 0 1024 1024"><path d="M512 768a42.666667 42.666667 0 1 0 0-85.333333 42.666667 42.666667 0 0 0 0 85.333333z m0-682.666667C276.48 85.333333 85.333333 276.48 85.333333 512s191.146667 426.666667 426.666667 426.666667 426.666667-191.146667 426.666667-426.666667S747.52 85.333333 512 85.333333z m0 768c-188.16 0-341.333333-153.173333-341.333333-341.333333s153.173333-341.333333 341.333333-341.333333 341.333333 153.173333 341.333333 341.333333-153.173333 341.333333-341.333333 341.333333z m0-597.333333a170.666667 170.666667 0 0 0-163.882667 122.88l-2.133333 7.936a32.341333 32.341333 0 0 0 31.488 39.850667h14.421333a42.666667 42.666667 0 0 0 40.704-29.952c1.194667-3.754667 2.474667-6.954667 3.84-9.6A85.589333 85.589333 0 0 1 512 341.333333c46.933333 0 85.333333 38.4 85.333333 85.333334 0 30.976-16.896 49.322667-38.4 66.730666l-24.704 19.2c-23.253333 18.346667-46.634667 40.021333-57.941333 76.8l-2.773333 10.453334a32.853333 32.853333 0 0 0 32.085333 40.149333h13.525333a42.666667 42.666667 0 0 0 41.088-31.146667c1.024-3.712 2.133333-6.826667 3.370667-9.386666 8.106667-17.152 21.034667-31.274667 35.413333-44.629334l31.829334-28.330666C658.346667 501.461333 682.666667 473.173333 682.666667 426.666667c0-94.293333-76.373333-170.666667-170.666667-170.666667z"  ></path></svg>