<?xml version="1.0" standalone="no"?><svg xmlns="http://www.w3.org/2000/svg" class="icon"  id="Xz-info" viewBox="0 0 1024 1024"><path d="M512 938.666667c235.52 0 426.666667-191.146667 426.666667-426.666667S747.52 85.333333 512 85.333333 85.333333 276.48 85.333333 512s191.146667 426.666667 426.666667 426.666667z m0-85.333334c-188.373333 0-341.333333-152.96-341.333333-341.333333s152.96-341.333333 341.333333-341.333333 341.333333 152.96 341.333333 341.333333-152.96 341.333333-341.333333 341.333333z m42.666667-469.333333V298.666667h-85.333334v85.333333h85.333334z m-42.666667 341.333333a42.666667 42.666667 0 0 0 42.666667-42.666666v-170.666667a42.666667 42.666667 0 1 0-85.333334 0v170.666667a42.666667 42.666667 0 0 0 42.666667 42.666666z"  ></path></svg>