<?xml version="1.0" standalone="no"?><svg xmlns="http://www.w3.org/2000/svg" class="icon"  id="Xz-indent-decrease" viewBox="0 0 1024 1024"><path d="M170.666667 213.333333a42.666667 42.666667 0 0 1 0-85.333333h682.666666a42.666667 42.666667 0 1 1 0 85.333333H170.666667z m176.896 432.896l-161.792-119.125333a21.333333 21.333333 0 0 1 0-30.208l161.792-119.125333A21.333333 21.333333 0 0 1 384 392.832v238.336a21.333333 21.333333 0 0 1-36.437333 15.061333zM170.666667 896a42.666667 42.666667 0 1 1 0-85.333333h682.666666a42.666667 42.666667 0 1 1 0 85.333333H170.666667z m379.264-213.333333h265.472c20.949333 0 37.930667-19.114667 37.930666-42.666667s-16.981333-42.666667-37.930666-42.666667H549.973333c-20.949333 0-37.930667 19.114667-37.930666 42.666667s16.981333 42.666667 37.930666 42.666667z m265.472-256H549.973333C528.981333 426.666667 512 407.552 512 384s16.981333-42.666667 37.930667-42.666667h265.472c20.949333 0 37.930667 19.114667 37.930666 42.666667s-16.981333 42.666667-37.930666 42.666667z"  ></path></svg>