<?xml version="1.0" standalone="no"?><svg xmlns="http://www.w3.org/2000/svg" class="icon"  id="Xz-indent-increase" viewBox="0 0 1024 1024"><path d="M170.666667 810.666667a42.666667 42.666667 0 0 0-4.992 85.034666L170.666667 896h682.666666a42.666667 42.666667 0 0 0 4.992-85.034667L853.333333 810.666667H170.666667z m37.930666-213.333334C187.648 597.333333 170.666667 616.448 170.666667 640c0 21.888 14.634667 39.893333 33.493333 42.368L208.64 682.666667h265.472c20.949333 0 37.930667-19.114667 37.930667-42.666667 0-21.888-14.634667-39.893333-33.493334-42.368L474.026667 597.333333H208.64zM661.333333 371.498667a21.333333 21.333333 0 0 0-20.992 17.493333l-0.341333 3.84v238.336a21.333333 21.333333 0 0 0 33.450667 17.536l2.986666-2.474667 161.792-119.125333a21.333333 21.333333 0 0 0 2.474667-27.221333l-2.474667-2.986667-161.792-119.125333a21.333333 21.333333 0 0 0-15.104-6.272zM208.597333 341.333333C187.648 341.333333 170.666667 360.448 170.666667 384c0 21.888 14.634667 39.936 33.493333 42.368L208.64 426.666667h265.472c20.949333 0 37.930667-19.114667 37.930667-42.666667 0-21.888-14.634667-39.936-33.493334-42.368L474.026667 341.333333H208.64zM170.666667 128a42.666667 42.666667 0 0 0-4.992 85.034667L170.666667 213.333333h682.666666a42.666667 42.666667 0 0 0 4.992-85.034666L853.333333 128H170.666667z"  ></path></svg>