<?xml version="1.0" standalone="no"?><svg xmlns="http://www.w3.org/2000/svg" class="icon"  id="Xz-linechart" viewBox="0 0 1024 1024"><path d="M839.125333 138.666667C895.274667 138.666667 938.666667 187.477333 938.666667 245.333333v552.021334A99.114667 99.114667 0 0 1 839.125333 896H289.152a42.666667 42.666667 0 1 1 0-85.333333h549.973333c7.978667 0 14.208-6.101333 14.208-13.354667V480H170.666667v88.021333a42.666667 42.666667 0 1 1-85.333334 0V399.957333c0-1.92 0.128-3.84 0.384-5.717333V245.333333c0-57.856 43.392-106.666667 99.541334-106.666666h653.866666z m0 85.333333H185.002667c-6.656 0-14.208 8.533333-14.208 21.333333v149.333334h682.496L853.333333 245.333333c0-11.392-5.973333-19.370667-11.946666-21.034666l-2.261334-0.298667z m-161.792 294.528a42.666667 42.666667 0 0 0-57.386666-1.536l-123.434667 106.154667-96.768-91.264a42.666667 42.666667 0 0 0-59.306667 0.810666l-230.912 229.632a42.666667 42.666667 0 0 0-0.170666 60.330667l4.010666 3.541333a42.666667 42.666667 0 0 0 56.32-3.413333l201.6-200.490667 94.72 89.301334 4.138667 3.456a42.666667 42.666667 0 0 0 52.906667-2.133334l123.136-105.984 57.002666 54.741334a42.666667 42.666667 0 1 0 59.093334-61.568l-84.949334-81.578667z"  ></path></svg>