<?xml version="1.0" standalone="no"?><svg xmlns="http://www.w3.org/2000/svg" class="icon"  id="Xz-map" viewBox="0 0 1024 1024"><path d="M804.266667 377.728A292.352 292.352 0 0 0 512 85.333333a292.352 292.352 0 0 0-292.266667 292.394667c0 97.834667 51.669333 192.554667 136.448 282.197333a884.48 884.48 0 0 0 132.053334 113.962667 42.666667 42.666667 0 0 0 47.530666 0c8.746667-5.845333 23.338667-16.426667 41.898667-31.274667a884.48 884.48 0 0 0 90.154667-82.688c84.778667-89.642667 136.448-184.362667 136.448-282.197333z m-499.2 0A207.018667 207.018667 0 0 1 512 170.666667a207.018667 207.018667 0 0 1 206.933333 207.061333c0 71.424-41.898667 148.266667-113.152 223.573333a799.957333 799.957333 0 0 1-81.408 74.666667l-6.058666 4.778667-5.632 4.394666-0.682667 0.512-0.682667-0.512a800.085333 800.085333 0 0 1-93.098666-83.797333c-71.253333-75.349333-113.152-152.192-113.152-223.573333z m437.674666 304.042667a42.666667 42.666667 0 0 1 53.333334-28.245334C884.181333 680.618667 938.666667 720.213333 938.666667 777.813333 938.666667 880.213333 748.629333 938.666667 512 938.666667S85.333333 880.213333 85.333333 777.813333c0-57.557333 54.485333-97.194667 142.592-124.288a42.666667 42.666667 0 1 1 25.088 81.536c-54.997333 16.938667-82.346667 36.821333-82.346666 42.794667C170.666667 805.973333 324.48 853.333333 512 853.333333s341.333333-47.36 341.333333-75.52c0-5.930667-27.349333-25.813333-82.346666-42.752a42.666667 42.666667 0 0 1-28.245334-53.333333zM512 242.858667c76.8 0 138.666667 63.445333 138.666667 141.141333 0 77.696-61.866667 141.141333-138.666667 141.141333S373.333333 461.653333 373.333333 384c0-77.696 61.866667-141.141333 138.666667-141.141333z m0 85.333333c-29.226667 0-53.333333 24.746667-53.333333 55.808 0 31.061333 24.106667 55.808 53.333333 55.808s53.333333-24.746667 53.333333-55.808c0-31.061333-24.106667-55.808-53.333333-55.808z"  ></path></svg>