<?xml version="1.0" standalone="no"?><svg xmlns="http://www.w3.org/2000/svg" class="icon"  id="Xz-offline" viewBox="0 0 1024 1024"><path d="M200.832 140.501333a42.666667 42.666667 0 0 0-60.330667 60.330667l682.666667 682.666667a42.666667 42.666667 0 0 0 60.330667-60.330667l-682.666667-682.666667z m208.64 59.434667c196.352-30.592 404.053333 27.264 558.549333 173.653333a42.666667 42.666667 0 1 1-58.709333 61.952A577.109333 577.109333 0 0 0 422.570667 284.245333a42.666667 42.666667 0 0 1-13.141334-84.309333z m157.013333 228.053333a42.666667 42.666667 0 0 1 51.2-31.872 463.018667 463.018667 0 0 1 223.146667 124.117334 42.666667 42.666667 0 1 1-60.330667 60.330666 377.728 377.728 0 0 0-182.186666-101.333333 42.666667 42.666667 0 0 1-31.872-51.2z m-239.36 89.258667a42.666667 42.666667 0 0 0-41.6-74.496c-36.693333 20.48-71.253333 46.336-102.4 77.44a42.666667 42.666667 0 1 0 60.373334 60.373333 379.989333 379.989333 0 0 1 83.626666-63.317333z m-111.530666-196.693333a42.666667 42.666667 0 0 1-16.469334 58.026666 380.032 380.032 0 0 0-83.626666 63.317334 42.666667 42.666667 0 0 1-60.330667-60.330667c31.146667-31.146667 65.621333-57.002667 102.4-77.482667a42.666667 42.666667 0 0 1 58.026667 16.469334z m243.669333 347.861333a42.666667 42.666667 0 1 0-22.528-82.304 282.88 282.88 0 0 0-125.568 73.088 42.666667 42.666667 0 1 0 60.330667 60.330667 197.589333 197.589333 0 0 1 87.765333-51.114667zM512 853.333333a53.333333 53.333333 0 1 0 0-106.666666 53.333333 53.333333 0 0 0 0 106.666666z"  ></path></svg>