<?xml version="1.0" standalone="no"?><svg xmlns="http://www.w3.org/2000/svg" class="icon"  id="Xz-offscreen" viewBox="0 0 1024 1024"><path d="M725.333333 170.112a42.666667 42.666667 0 1 0-85.333333 0V384a42.666667 42.666667 0 0 0 42.666667 42.666667h212.906666a42.666667 42.666667 0 0 0 42.666667-42.666667l-0.256-4.992A42.666667 42.666667 0 0 0 895.573333 341.333333H725.333333V170.112z m-341.333333 0.512a42.666667 42.666667 0 0 0-42.666667-42.666667l-4.992 0.298667A42.666667 42.666667 0 0 0 298.666667 170.624V341.333333H128a42.666667 42.666667 0 1 0 0 85.333334h213.333333a42.666667 42.666667 0 0 0 42.666667-42.666667V170.624zM341.333333 640a42.666667 42.666667 0 0 1 42.666667 42.666667v213.930666a42.666667 42.666667 0 1 1-85.333333 0V725.333333H128.170667a42.666667 42.666667 0 0 1-42.368-37.674666L85.504 682.666667a42.666667 42.666667 0 0 1 42.666667-42.666667H341.333333z m597.333334 42.666667a42.666667 42.666667 0 0 0-42.666667-42.666667h-213.333333a42.666667 42.666667 0 0 0-42.666667 42.666667v213.461333a42.666667 42.666667 0 0 0 42.666667 42.666667l4.992-0.256a42.666667 42.666667 0 0 0 37.674666-42.410667V725.333333h170.666667a42.666667 42.666667 0 0 0 42.666667-42.666666z"  ></path></svg>