<?xml version="1.0" standalone="no"?><svg xmlns="http://www.w3.org/2000/svg" class="icon"  id="Xz-personal-information" viewBox="0 0 1024 1024"><path d="M512 597.333333c146.133333 0 353.621333 81.962667 362.368 176.64l0.298667 6.229334V810.666667a42.666667 42.666667 0 0 1-37.674667 42.368L832 853.333333h-640a42.666667 42.666667 0 0 1-42.368-37.674666L149.333333 810.666667v-30.464c0-95.232 204.373333-179.2 353.066667-182.741334L512 597.333333z m0 85.333334c-61.269333 0-139.690667 18.261333-201.301333 46.933333a340.608 340.608 0 0 0-53.76 30.848L246.997333 768h533.461334l-0.426667-0.426667c-34.304-32-155.861333-81.578667-257.877333-84.736L512 682.666667z m0-554.666667c106.069333 0 192 85.930667 192 192 0 103.04-81.066667 187.050667-182.954667 191.786667L512 512a191.957333 191.957333 0 0 1-192-192c0-103.04 81.066667-187.093333 182.954667-191.786667L512 128z m0 85.333333a106.624 106.624 0 0 0-106.666667 106.666667c0 58.965333 47.701333 106.666667 106.666667 106.666667s106.666667-47.701333 106.666667-106.666667S570.965333 213.333333 512 213.333333z"  ></path></svg>