<?xml version="1.0" standalone="no"?><svg xmlns="http://www.w3.org/2000/svg" class="icon"  id="Xz-photo" viewBox="0 0 1024 1024"><path d="M810.666667 128a128 128 0 0 1 128 128v512a128 128 0 0 1-128 128H213.333333a128 128 0 0 1-128-128V256a128 128 0 0 1 128-128h597.333334z m-149.376 426.666667l-189.354667 186.752a64.682667 64.682667 0 0 1-85.674667 4.309333l-4.864-4.309333L277.333333 638.805333 170.666667 743.936v24.661333c0 21.589333 16.469333 39.338667 37.674666 41.813334L213.333333 810.666667h597.333334c21.888 0 39.936-16.213333 42.368-37.12l0.298666-4.949334v-24.618666L661.290667 554.666667zM810.666667 213.333333H213.333333c-21.888 0-39.936 17.28-42.368 39.509334L170.666667 258.048v379.861333l61.44-64.341333a61.866667 61.866667 0 0 1 85.632-4.608l4.864 4.608L426.666667 682.666667l189.44-198.570667a61.866667 61.866667 0 0 1 85.632-4.608l4.864 4.608L853.333333 637.909333V258.048c0-22.912-16.469333-41.813333-37.674666-44.416L810.666667 213.333333zM362.666667 384a64 64 0 1 1 0 128 64 64 0 0 1 0-128z"  ></path></svg>