<?xml version="1.0" standalone="no"?><svg xmlns="http://www.w3.org/2000/svg" class="icon"  id="Xz-piechart" viewBox="0 0 1024 1024"><path d="M512 85.333333c235.648 0 426.666667 191.018667 426.666667 426.666667a42.666667 42.666667 0 0 1-42.666667 42.666667h-341.333333v341.333333a42.666667 42.666667 0 0 1-37.674667 42.368L512 938.666667C276.352 938.666667 85.333333 747.648 85.333333 512S276.352 85.333333 512 85.333333z m0 85.333334a341.333333 341.333333 0 0 0-52.309333 678.698666l9.642666 1.28v-298.24c0-43.776 33.877333-79.658667 76.885334-82.858666l6.186666-0.213334h298.24l-1.28-9.642666a341.418667 341.418667 0 0 0-326.741333-288.853334L512 170.666667z m363.776 419.925333a42.666667 42.666667 0 0 1 42.666667 42.666667v242.517333a42.666667 42.666667 0 0 1-42.666667 42.666667h-242.517333a42.666667 42.666667 0 0 1-42.666667-42.666667v-242.517333a42.666667 42.666667 0 0 1 42.666667-42.666667h242.517333z m-42.666667 85.333333h-157.184v157.184h157.184v-157.184z"  ></path></svg>