<?xml version="1.0" standalone="no"?><svg xmlns="http://www.w3.org/2000/svg" class="icon"  id="Xz-repetition" viewBox="0 0 1024 1024"><path d="M853.333333 469.333333a42.666667 42.666667 0 0 1 42.666667 42.666667 383.189333 383.189333 0 0 1-112.554667 271.530667 384 384 0 0 1-543.061333 0l-9.045333-9.386667-8.661334-9.557333 0.042667 68.906666a42.666667 42.666667 0 0 1-85.034667 4.992l-0.298666-4.992v-170.666666c0-9.045333 2.816-17.450667 7.68-24.32l3.072-4.010667 3.584-3.541333a42.496 42.496 0 0 1 22.997333-10.453334l5.333333-0.298666h170.666667a42.666667 42.666667 0 0 1 4.992 85.034666l-4.992 0.256H284.416A298.666667 298.666667 0 0 0 810.581333 512c0.085333-23.509333 19.2-42.624 42.752-42.624z m-69.802666-228.864l9.045333 9.386667 8.661333 9.557333V190.464a42.666667 42.666667 0 0 1 84.992-4.949333l0.298667 4.949333v170.666667c0 9.088-2.816 17.493333-7.637333 24.405333l-3.114667 3.968-3.584 3.541333a42.496 42.496 0 0 1-22.954667 10.453334l-5.376 0.298666h-170.666666a42.666667 42.666667 0 0 1-4.949334-85.034666l4.949334-0.298667h66.304a298.666667 298.666667 0 0 0-525.909334 180.778667L213.333333 512a42.666667 42.666667 0 0 1-85.034666 4.992L128 512a384 384 0 0 1 655.530667-271.530667z"  ></path></svg>