<?xml version="1.0" standalone="no"?><svg xmlns="http://www.w3.org/2000/svg" class="icon"  id="Xz-remove-circle" viewBox="0 0 1024 1024"><path d="M85.333333 512C85.333333 276.48 276.48 85.333333 512 85.333333s426.666667 191.146667 426.666667 426.666667-191.146667 426.666667-426.666667 426.666667S85.333333 747.52 85.333333 512z m85.333334 0c0 188.16 153.173333 341.333333 341.333333 341.333333s341.333333-153.173333 341.333333-341.333333-153.173333-341.333333-341.333333-341.333333-341.333333 153.173333-341.333333 341.333333z m512 42.666667H341.333333c-23.466667 0-42.666667-19.2-42.666666-42.666667s19.2-42.666667 42.666666-42.666667h341.333334c23.466667 0 42.666667 19.2 42.666666 42.666667s-19.2 42.666667-42.666666 42.666667z"  ></path></svg>