<?xml version="1.0" standalone="no"?><svg xmlns="http://www.w3.org/2000/svg" class="icon"  id="Xz-setting" viewBox="0 0 1024 1024"><path d="M568.704 85.333333a64 64 0 0 1 62.08 48.469334l16.128 64.554666c24.661333 10.666667 47.829333 24.106667 69.12 39.978667l64.085333-18.304a64 64 0 0 1 73.045334 29.525333l56.704 98.218667a64 64 0 0 1-10.965334 77.994667l-47.872 46.336a344.96 344.96 0 0 1 0 79.786666l47.872 46.336a64 64 0 0 1 10.965334 77.994667l-56.746667 98.218667a64 64 0 0 1-72.96 29.525333l-64.128-18.304a341.248 341.248 0 0 1-69.077333 39.936l-16.170667 64.597333A64 64 0 0 1 568.746667 938.666667H455.253333a64 64 0 0 1-62.08-48.469334l-16.213333-64.597333a341.034667 341.034667 0 0 1-69.034667-39.936l-64.085333 18.304a64 64 0 0 1-73.045333-29.525333l-56.704-98.218667a64 64 0 0 1 10.965333-77.994667l47.872-46.336a344.96 344.96 0 0 1 0-79.786666L125.098667 425.770667a64 64 0 0 1-10.965334-77.994667l56.746667-98.218667a64 64 0 0 1 72.96-29.525333l64.128 18.304a340.949333 340.949333 0 0 1 69.12-39.978667l16.128-64.554666A64 64 0 0 1 455.296 85.333333h113.408z m-16.682667 85.333334h-80.085333l-22.314667 89.386666-38.826666 16.682667a255.274667 255.274667 0 0 0-41.984 23.04l-9.813334 6.912-33.792 25.301333-88.789333-25.386666-40.064 69.376 66.261333 64.128-4.864 41.856a259.669333 259.669333 0 0 0-0.981333 50.133333l0.981333 9.941333 4.864 41.856-66.261333 64.042667 40.064 69.376 88.746667-25.301333 33.877333 25.301333c12.8 9.557333 26.496 17.92 40.874667 24.917333l10.88 4.992 38.741333 16.725334 22.4 89.386666h80.042667l22.442666-89.386666 38.784-16.682667a255.146667 255.146667 0 0 0 41.984-23.04l9.813334-6.912 33.792-25.301333 88.746666 25.344 40.064-69.376-66.218666-64.085334 4.864-41.856a259.754667 259.754667 0 0 0 0.981333-50.133333l-0.981333-9.941333-4.864-41.856 66.218666-64.085334-40.064-69.376-88.746666 25.344-33.834667-25.301333c-12.8-9.557333-26.538667-17.92-40.917333-24.96l-10.88-4.992-38.826667-16.725333L552.064 170.666667zM512 341.333333a170.666667 170.666667 0 1 1 0 341.333334 170.666667 170.666667 0 0 1 0-341.333334z m0 85.333334a85.333333 85.333333 0 1 0 0 170.666666 85.333333 85.333333 0 0 0 0-170.666666z"  ></path></svg>