<?xml version="1.0" standalone="no"?><svg xmlns="http://www.w3.org/2000/svg" class="icon"  id="Xz-triggers" viewBox="0 0 1024 1024"><path d="M814.165333 85.333333C882.944 85.333333 938.666667 137.429333 938.666667 201.685333v620.629334C938.666667 886.570667 882.944 938.666667 814.165333 938.666667H209.834667C141.056 938.666667 85.333333 886.570667 85.333333 822.314667V201.685333C85.333333 137.429333 141.056 85.333333 209.834667 85.333333h604.330666zM384 170.666667v168.362666l20.010667-18.56a32.938667 32.938667 0 0 1 41.984-2.773333l3.370666 2.773333 19.968 18.602667V170.666667H384zM298.666667 170.666667H211.882667C189.098667 170.666667 170.666667 187.648 170.666667 208.597333V815.36c0 20.949333 18.432 37.930667 41.216 37.930667h600.234666c22.784 0 41.216-16.981333 41.216-37.930667V208.64c0-20.949333-18.474667-37.930667-41.216-37.930667H554.666667v260.181334c0 33.152-40.149333 50.730667-65.536 28.714666L426.666667 405.461333 364.202667 459.52c-24.32 21.034667-62.08 5.888-65.28-24.448l-0.256-4.266667V170.666667z m384 512a42.666667 42.666667 0 1 1 0 85.333333H341.333333a42.666667 42.666667 0 1 1 0-85.333333h341.333334z m-84.053334-85.333334a42.666667 42.666667 0 0 0-42.666666-42.666666H341.333333a42.666667 42.666667 0 1 0 0 85.333333h214.613334a42.666667 42.666667 0 0 0 42.666666-42.666667z"  ></path></svg>