<?xml version="1.0" standalone="no"?><svg xmlns="http://www.w3.org/2000/svg" class="icon"  id="Xz-zaixian" viewBox="0 0 1024 1024"><path d="M511.995947 981.325565s391.122237-257.277963 391.122237-554.662276c0-212.051655-175.102614-383.99696-391.122237-383.99696s-391.122237 171.945305-391.122237 383.99696C120.87371 724.047601 511.995947 981.325565 511.995947 981.325565z" fill="#54CF9B" ></path><path d="M511.995947 0c235.518135 0 426.663289 189.139836 426.663289 422.609988 0 142.71887-78.591378 285.139076-208.85168 421.457996a1386.314358 1386.314358 0 0 1-188.585174 163.924036c-8.533266 6.143951-14.677217 10.410584-18.047857 12.629233a20.181174 20.181174 0 0 1-22.357156 0 1267.147302 1267.147302 0 0 1-64.85282-47.956953 1386.015694 1386.015694 0 0 1-141.780211-128.596316C163.924036 707.749064 85.332658 565.328858 85.332658 422.609988 85.332658 189.139836 276.477811 0 511.995947 0z m0 42.666329C299.858959 42.666329 127.998987 213.800974 127.998987 424.743304 127.998987 554.662276 201.385072 688.634548 324.434765 818.126856c57.002215 59.818193 119.465721 114.175096 186.451857 162.473381L511.995947 981.325565l1.066658-0.725328 4.565297-3.285307a1341.728045 1341.728045 0 0 0 181.88656-159.145407C822.606821 688.634548 895.992907 554.662276 895.992907 424.743304 895.992907 213.758308 724.132934 42.666329 511.995947 42.666329z" fill="#FFFFFF" ></path></svg>