<?xml version="1.0" standalone="no"?><svg xmlns="http://www.w3.org/2000/svg" class="icon"  id="Em300SldN00Cn-Temperature" viewBox="0 0 1024 1024"><path d="M509.226667 319.872c140.964571 0 255.24419 113.072762 255.24419 252.55619l-0.006095 234.374096h20.559238a21.333333 21.333333 0 0 1 0 42.666666H219.355429a21.333333 21.333333 0 1 1 0-42.666666h34.620952l0.006095-234.374096c0-139.483429 114.273524-252.55619 255.244191-252.55619z m0 40.978286c-111.292952 0-213.699048 101.461333-213.699048 211.577904l-0.006095 234.374096h427.398095V572.42819c0-110.116571-102.4-211.577905-213.699048-211.577904z m132.114285 361.069714a10.849524 10.849524 0 1 1 0 21.699048H472.198095a10.849524 10.849524 0 0 1 0-21.699048h169.142857zM402.285714 499.809524v9.258666l-9.136762-0.006095v225.298286H402.285714V743.619048h-30.47619v-9.258667h12.196571V509.062095L371.809524 509.06819V499.809524h30.47619z m42.666667 234.550857V743.619048h-30.476191v-9.258667h30.476191z m136.399238-222.19581c4.425143 0.768 8.112762 4.156952 9.874286 9.051429l59.416381 165.083429 0.201143 0.609523 0.091428 0.304762a14.628571 14.628571 0 0 1 0.347429 6.454857l-0.030476 0.170667a9.423238 9.423238 0 0 1-0.201143 0.950857 12.617143 12.617143 0 0 1-0.085334 0.316953l-0.073143 0.243809-0.103619 0.329143a6.991238 6.991238 0 0 1-0.073142 0.231619l-0.11581 0.316952a5.833143 5.833143 0 0 1-0.091429 0.24381l-0.109714 0.280381a23.253333 23.253333 0 0 1-0.384 0.835048l-0.079238 0.146285a15.683048 15.683048 0 0 1-0.518095 0.914286c-0.688762 1.097143-1.529905 2.072381-2.511238 2.858667l-0.079238 0.060952-0.323048 0.24381c-0.067048 0.054857-0.134095 0.097524-0.207238 0.146285a13.391238 13.391238 0 0 1-0.213333 0.146286l-0.377905 0.237714-0.060953 0.030476a9.289143 9.289143 0 0 1-4.589714 1.28h-216.137143c-5.766095 0-10.441143-5.577143-10.441143-12.452571 0-0.341333 0.01219-0.676571 0.036572-1.01181-0.164571-2.383238 0.24381-4.772571 1.194667-6.881523l37.241904-83.260953c1.974857-4.412952 5.64419-7.387429 9.813334-7.954285 4.163048-0.566857 8.301714 1.347048 11.056762 5.12l20.467809 27.995428L569.721905 517.467429c2.864762-4.089905 7.216762-6.076952 11.641905-5.302858z m-117.315048 105.691429l-30.049523 67.18781h79.177142l-22.966857-31.414858a14.183619 14.183619 0 0 1-1.212952-1.651809l-24.94781-34.121143z m114.383239-76.55619l-71.168 101.315047 27.733333 41.295238h95.457524l-52.022857-142.610285z m309.046857-48.536381c14.811429 0 26.819048 12.013714 26.819047 26.837333a26.831238 26.831238 0 0 1-26.819047 26.843428h-80.457143c-14.811429 0-26.819048-12.01981-26.819048-26.843428a26.831238 26.831238 0 0 1 26.819048-26.837333h80.457143z m-670.476191 0c14.811429 0 26.819048 12.013714 26.819048 26.837333a26.831238 26.831238 0 0 1-26.819048 26.843428H136.533333c-14.811429 0-26.819048-12.01981-26.819047-26.843428a26.831238 26.831238 0 0 1 26.819047-26.837333h80.457143zM487.619048 499.809524v9.258666h-30.476191V499.809524h30.476191z m42.666666 0v9.258666h-30.47619V499.809524h30.47619z m-85.333333 0v9.258666h-30.476191V499.809524h30.476191z m319.731809-224.146286c22.272 0 40.33219 17.962667 40.332191 40.118857s-18.06019 40.118857-40.332191 40.118857c-22.278095 0-40.338286-17.962667-40.338285-40.118857s18.06019-40.118857 40.338285-40.118857z m-510.915047 0c22.278095 0 40.33219 17.962667 40.33219 40.118857s-18.054095 40.118857-40.33219 40.118857-40.338286-17.962667-40.338286-40.118857 18.06019-40.118857 40.338286-40.118857zM512 170.666667c14.811429 0 26.819048 12.01981 26.819048 26.843428v80.518095a26.831238 26.831238 0 0 1-26.819048 26.843429c-14.811429 0-26.819048-12.013714-26.819048-26.837333V197.510095A26.831238 26.831238 0 0 1 512 170.666667z" fill="#FA737C" ></path></svg>