<?xml version="1.0" standalone="no"?><svg xmlns="http://www.w3.org/2000/svg" class="icon"  id="Uc3X22" viewBox="0 0 1024 1024"><path d="M265.142857 140.190476a39.619048 39.619048 0 0 1 39.619048 39.619048v79.536762a34.864762 34.864762 0 0 1 4.553143-0.298667H378.88c19.273143 0 35.029333 15.817143 35.029333 35.291429l-0.006095 95.664762h60.342857a60.714667 60.714667 0 0 1 58.24-50.883048l1.682286-0.024381h282.447238c33.706667 0.109714 61.013333 27.40419 61.092571 61.092571v285.379048c0 33.743238-27.343238 61.098667-61.092571 61.098667H801.52381c-33.743238 0-61.092571-27.355429-61.092572-61.092572V565.699048a20.358095 20.358095 0 0 0-20.36419-20.358096H654.32381c-33.749333 0-61.092571-25.002667-61.092572-55.856762 0-8.131048-9.61219-15.11619-20.36419-15.11619h-38.692572a60.65981 60.65981 0 0 1-58.191238-43.654095H413.909333v298.940952c0 19.516952-15.707429 35.291429-35.023238 35.291429H309.315048a34.864762 34.864762 0 0 1-4.553143-0.298667V844.190476a39.619048 39.619048 0 0 1-39.619048 39.619048h-79.238095a39.619048 39.619048 0 0 1-39.619048-39.619048v-664.380952a39.619048 39.619048 0 0 1 39.619048-39.619048h79.238095z m0 30.476191h-79.238095a9.142857 9.142857 0 0 0-9.142857 9.142857v664.380952a9.142857 9.142857 0 0 0 9.142857 9.142857h79.238095a9.142857 9.142857 0 0 0 9.142857-9.142857v-664.380952a9.142857 9.142857 0 0 0-9.142857-9.142857z m113.737143 119.04H309.321143a4.784762 4.784762 0 0 0-4.553143 3.407238v437.77219a4.784762 4.784762 0 0 0 4.553143 3.407238H378.88a4.681143 4.681143 0 0 0 4.72381-4.632381V294.339048c0-2.486857-2.133333-4.632381-4.72381-4.632381z m437.741714 90.118095h-282.453333a20.376381 20.376381 0 0 0-20.376381 20.36419v13.086477a20.376381 20.376381 0 0 0 20.382476 20.36419h38.662095c33.749333 0 61.074286 25.014857 61.074286 55.850667 0 8.149333 9.618286 15.122286 20.382476 15.122285h65.749334c33.731048 0 61.074286 27.355429 61.074285 61.092572v120.155428a20.376381 20.376381 0 0 0 20.382477 20.364191h15.11619a20.376381 20.376381 0 0 0 20.382476-20.364191V400.188952a20.376381 20.376381 0 0 0-20.376381-20.358095z" fill="#62B4E8" ></path></svg>