<?xml version="1.0" standalone="no"?><svg xmlns="http://www.w3.org/2000/svg" class="icon"  id="Icon-dianliuzhengchang1" viewBox="0 0 1024 1024"><path d="M128 512a384 384 0 1 0 768 0 384 384 0 0 0-768 0z m853.333333 0c0 259.2-210.133333 469.333333-469.333333 469.333333S42.666667 771.2 42.666667 512 252.8 42.666667 512 42.666667s469.333333 210.133333 469.333333 469.333333z m-419.114666-230.4l110.933333 273.066667 59.733333 157.866666c12.8 21.333333 0 46.933333-21.333333 55.466667-4.266667 4.266667-12.8 4.266667-17.066667 4.266667-17.066667 0-29.866667-8.533333-38.4-25.6l-51.2-128h-174.933333l-51.2 128c-8.533333 21.333333-34.133333 29.866667-55.466667 21.333333-21.333333-8.533333-29.866667-34.133333-21.333333-55.466667l183.466667-430.933333c4.266667-17.066667 21.333333-25.6 38.4-25.6s29.866667 8.533333 38.4 25.6z m-42.666667 128l-46.933333 119.466667h93.866666l-46.933333-119.466667z" fill="#58AFE7" ></path></svg>