<?xml version="1.0" standalone="no"?><svg xmlns="http://www.w3.org/2000/svg" class="icon"  id="Xz-angleYAlert" viewBox="0 0 1024 1024"><path d="M187.733333 136.533333a42.666667 42.666667 0 0 1 59.733334 8.533334l221.866666 295.808L691.2 145.066667a42.666667 42.666667 0 1 1 68.266667 51.2l-194.090667 258.773333a256 256 0 0 0-138.666667 226.474667v-155.306667L179.2 196.266667a42.666667 42.666667 0 0 1 8.533333-59.733334zM426.666667 683.818667a255.274667 255.274667 0 0 0 81.834666 186.453333A42.666667 42.666667 0 0 1 426.666667 853.333333v-169.514666z m256-147.456a146.304 146.304 0 1 1 0 292.608 146.304 146.304 0 0 1 0-292.608zM902.101333 682.666667a219.434667 219.434667 0 1 0-438.869333 0 219.434667 219.434667 0 0 0 438.869333 0z m-182.869333-74.368a36.565333 36.565333 0 0 0-73.130667 0v54.869333a36.565333 36.565333 0 1 0 73.130667 0v-54.869333zM682.666667 798.464A36.565333 36.565333 0 1 0 682.666667 725.333333a36.565333 36.565333 0 0 0 0 73.130667z"  ></path></svg>