<?xml version="1.0" standalone="no"?><svg xmlns="http://www.w3.org/2000/svg" class="icon"  id="Xz-accumulatedKiloampereHour" viewBox="0 0 1024 1024"><path d="M128 512a384 384 0 1 0 768 0 384 384 0 0 0-768 0z m853.333333 0c0 259.2-210.133333 469.333333-469.333333 469.333333S42.666667 771.2 42.666667 512 252.8 42.666667 512 42.666667s469.333333 210.133333 469.333333 469.333333zM299.946667 565.717333l71.04 93.994667 103.168-265.173333h48.64l116.693333 300.928h-63.146667l-33.066666-84.906667h-91.093334l-32.64 84.906667H325.12l-66.986667-90.069334-8.618666 7.466667V695.466667H190.506667V378.026667h59.008v162.304l2.261333-2.56 0.213333-0.213334 69.461334-73.514666h74.837333L299.946667 565.717333z m400.341333-187.690666v96.938666c6.954667-4.352 14.549333-7.68 22.698667-10.026666 9.386667-2.901333 19.072-4.352 29.013333-4.352 17.834667 0 33.706667 2.858667 46.933333 9.301333 13.781333 6.314667 24.32 16.384 31.274667 29.909333 6.826667 13.44 9.813333 29.952 9.813333 48.853334V695.466667h-58.965333v-144.512c0-15.018667-3.413333-23.765333-7.850667-28.672-4.096-4.48-11.562667-8.064-25.429333-8.064-13.952 0-23.125333 2.688-28.928 6.613333l-0.213333 0.170667a34.218667 34.218667 0 0 0-13.653334 18.645333c-2.986667 9.301333-4.693333 21.418667-4.693333 36.650667V695.466667H640.853333V378.026667h59.392z m-201.813333 109.226666l-0.341334 0.938667-0.170666 0.426667-24.618667 65.664h49.92l-24.32-65.706667-0.469333-1.365333z"  ></path></svg>