<?xml version="1.0" standalone="no"?><svg xmlns="http://www.w3.org/2000/svg" class="icon"  id="Xz-a-doalarm" viewBox="0 0 1024 1024"><path d="M938.666667 240.469333C938.666667 154.752 866.56 85.333333 777.472 85.333333H246.528C157.44 85.333333 85.333333 154.752 85.333333 240.469333v543.061334C85.333333 869.248 157.44 938.666667 246.528 938.666667h337.237333a257.28 257.28 0 0 1-80.213333-85.333334H253.013333c-44.629333 0-80.938667-34.816-80.938666-78.08V248.746667C172.074667 205.44 208.384 170.666667 253.013333 170.666667h520.746667c44.629333 0 80.981333 34.816 80.981333 78.08v255.658666A257.28 257.28 0 0 1 938.666667 583.765333V240.469333z m-117.973334 208.213334c4.778667 13.994667 7.893333 28.330667 9.258667 42.922666a252.928 252.928 0 0 0-14.336-5.888l0 0a254.549333 254.549333 0 0 0-58.666667-14.464l-0.298666-0.853333v-0.085333a104.96 104.96 0 0 0-18.048-33.578667l-0.128-0.170667c-7.424-9.472-16.64-17.066667-27.946667-22.656a86.314667 86.314667 0 0 0-39.125333-8.362666c-15.36 0-28.288 2.901333-39.168 8.362666-11.264 5.632-20.693333 13.226667-28.416 22.741334-7.637333 9.813333-13.525333 20.992-17.664 33.706666h-0.042667a122.026667 122.026667 0 0 0-6.144 44.202667 255.488 255.488 0 0 0-12.928 9.557333 135.637333 135.637333 0 0 1 6.186667-58.026666c4.608-14.08 11.264-26.752 19.968-37.845334a98.133333 98.133333 0 0 1 32.981333-26.496 99.84 99.84 0 0 1 45.226667-9.813333l0 0c-17.109333 0-32.213333 3.285333-45.226667 9.813333a98.133333 98.133333 0 0 0-32.981333 26.453334c-8.704 11.136-15.36 23.765333-19.968 37.888a135.637333 135.637333 0 0 0-6.186667 58.026666c-16.853333 13.269333-32 28.672-45.098667 45.738667a189.013333 189.013333 0 0 1 0.170667-121.173333c6.741333-20.010667 16.810667-38.016 30.08-54.016 13.525333-16.213333 30.293333-29.013333 50.133333-38.528 20.352-10.026667 43.52-14.805333 69.077334-14.805334s48.682667 4.778667 69.034666 14.805334c19.84 9.472 36.608 22.314667 50.133334 38.528 13.312 16 23.338667 34.005333 30.122666 54.016z m-432.896 199.68c17.92-8.704 32.853333-20.224 44.8-34.602667 11.946667-14.421333 20.906667-30.549333 26.88-48.469333a172.8 172.8 0 0 0 0-109.994667 148.906667 148.906667 0 0 0-26.88-48.469333 128.042667 128.042667 0 0 0-44.8-34.218667c-17.92-8.661333-38.954667-13.013333-63.146666-13.013333H226.986667h97.706666c24.192 0 45.226667 4.352 63.146667 13.013333 17.92 8.448 32.853333 19.84 44.8 34.218667 11.946667 14.421333 20.906667 30.549333 26.88 48.469333a172.8 172.8 0 0 1 0 109.994667c-5.973333 17.92-14.933333 34.048-26.88 48.469333-11.946667 14.378667-26.88 25.898667-44.8 34.602667zM266.837333 394.666667v231.338666H322.986667 266.837333V394.666667zM213.333333 674.56v-328.533333h111.36c25.728 0 48.853333 4.608 68.949334 14.336 19.584 9.216 36.096 21.802667 49.408 37.802666 13.013333 15.701333 22.784 33.365333 29.312 52.864a186.368 186.368 0 0 1 0 118.528 162.56 162.56 0 0 1-29.312 52.864c-13.269333 15.957333-29.781333 28.672-49.322667 38.144l-0.170667 0.085334c-20.053333 9.429333-43.178667 13.909333-68.906666 13.909333H213.333333z m149.76-70.570667c11.605333-5.674667 20.992-13.141333 28.330667-22.357333h0.042667c7.893333-9.813333 13.738667-20.778667 17.578666-33.024a127.146667 127.146667 0 0 0 0-76.629333 95.232 95.232 0 0 0-17.493333-32.469334l-0.213333-0.298666a79.573333 79.573333 0 0 0-28.245334-22.613334l-0.128-0.042666c-10.794667-5.418667-23.936-8.362667-39.936-8.362667h-42.666666v204.202667h42.666666c16 0 29.184-2.986667 39.936-8.362667h0.128z m362.24-24.96a146.304 146.304 0 1 1 0 292.608 146.304 146.304 0 0 1 0-292.608zM944.768 725.333333a219.434667 219.434667 0 1 0-438.869333 0 219.434667 219.434667 0 0 0 438.869333 0z m-182.869333-74.368a36.565333 36.565333 0 0 0-73.130667 0v54.869334a36.565333 36.565333 0 1 0 73.130667 0v-54.869334zM725.333333 841.130667A36.565333 36.565333 0 1 0 725.333333 768a36.565333 36.565333 0 0 0 0 73.130667z"  ></path></svg>