<?xml version="1.0" standalone="no"?><svg xmlns="http://www.w3.org/2000/svg" class="icon"  id="Xz-airPressure" viewBox="0 0 1024 1024"><path d="M384 128.426667a42.666667 42.666667 0 0 1 42.666667 42.666666V554.666667a170.666667 170.666667 0 0 1-341.333334 0 42.666667 42.666667 0 1 1 85.333334 0 85.333333 85.333333 0 0 0 170.666666 0V171.093333a42.666667 42.666667 0 0 1 42.666667-42.666666zM512 256a42.666667 42.666667 0 0 0-42.666667 42.666667v341.333333a42.666667 42.666667 0 0 0 85.333334 0V298.666667a42.666667 42.666667 0 0 0-42.666667-42.666667zM128 768a42.666667 42.666667 0 1 0 0 85.333333h768a42.666667 42.666667 0 0 0 0-85.333333H128zM597.333333 171.093333a42.666667 42.666667 0 1 1 85.333334 0V554.666667a85.333333 85.333333 0 0 0 170.666666 0 42.666667 42.666667 0 1 1 85.333334 0 170.666667 170.666667 0 0 1-341.333334 0V171.093333z"  ></path></svg>