<?xml version="1.0" standalone="no"?><svg xmlns="http://www.w3.org/2000/svg" class="icon"  id="Xz-angleXAlert" viewBox="0 0 1024 1024"><path d="M733.866667 145.066667a42.666667 42.666667 0 1 1 68.266666 51.2l-194.090666 258.773333a256.384 256.384 0 0 0-134.058667 178.773333L290.133333 878.933333a42.666667 42.666667 0 1 1-68.266666-51.2l236.8-315.733333L221.866667 196.266667a42.666667 42.666667 0 1 1 68.266666-51.2l221.866667 295.808L733.866667 145.066667z m-8.533334 391.296a146.304 146.304 0 1 1 0 292.608 146.304 146.304 0 0 1 0-292.608zM944.768 682.666667a219.434667 219.434667 0 1 0-438.869333 0 219.434667 219.434667 0 0 0 438.869333 0z m-182.869333-74.368a36.565333 36.565333 0 0 0-73.130667 0v54.869333a36.565333 36.565333 0 1 0 73.130667 0v-54.869333zM725.333333 798.464A36.565333 36.565333 0 1 0 725.333333 725.333333a36.565333 36.565333 0 0 0 0 73.130667z"  ></path></svg>