<?xml version="1.0" standalone="no"?><svg xmlns="http://www.w3.org/2000/svg" class="icon"  id="Xz-a-powerconsumptionalarm" viewBox="0 0 1024 1024"><path d="M162.901333 512a349.098667 349.098667 0 0 0 345.344 349.056 257.450667 257.450667 0 0 0 68.437334 72.746667c-21.077333 3.2-42.666667 4.864-64.682667 4.864-235.648 0-426.666667-191.018667-426.666667-426.666667S276.352 85.333333 512 85.333333s426.666667 191.018667 426.666667 426.666667c0 21.973333-1.664 43.605333-4.864 64.725333a257.450667 257.450667 0 0 0-72.746667-68.48A349.098667 349.098667 0 0 0 162.901333 512z m559.189334-65.792a40.021333 40.021333 0 0 1 2.56 23.125333 254.805333 254.805333 0 0 0-133.632 38.016l5.248-5.717333h-87.808a39.082667 39.082667 0 0 1-35.242667-22.4 40.064 40.064 0 0 1 4.608-41.813333l80-102.186667h-108.8L360.106667 505.6h100.992c12.117333 0 23.594667 5.717333 30.976 15.488a40.021333 40.021333 0 0 1 6.826666 34.304l-19.157333 72.874667 17.237333-18.730667a254.890667 254.890667 0 0 0-26.026666 144.469333l-40.533334 44.074667a38.741333 38.741333 0 0 1-47.530666 7.637333 39.808 39.808 0 0 1-18.858667-44.842666l46.165333-176.042667H295.125333a38.997333 38.997333 0 0 1-33.536-19.2 40.064 40.064 0 0 1-1.066666-38.954667l130.389333-249.6A39.04 39.04 0 0 1 425.472 256h213.333333c15.018667 0 28.714667 8.704 35.242667 22.4a40.021333 40.021333 0 0 1-4.608 41.813333L589.397333 422.4h96.853334c15.530667 0 29.610667 9.386667 35.84 23.808zM725.333333 579.029333a146.304 146.304 0 1 1 0 292.608 146.304 146.304 0 0 1 0-292.608zM944.768 725.333333a219.434667 219.434667 0 1 0-438.869333 0 219.434667 219.434667 0 0 0 438.869333 0z m-182.869333-74.368a36.565333 36.565333 0 0 0-73.130667 0v54.869334a36.565333 36.565333 0 1 0 73.130667 0v-54.869334zM725.333333 841.130667A36.565333 36.565333 0 1 0 725.333333 768a36.565333 36.565333 0 0 0 0 73.130667z"  ></path></svg>