<?xml version="1.0" standalone="no"?><svg xmlns="http://www.w3.org/2000/svg" class="icon"  id="Xz-a-handmovement" viewBox="0 0 1024 1024"><path d="M589.824 189.098667A255.658667 255.658667 0 0 0 384 85.333333c-82.133333 0-157.866667 38.997333-205.824 103.765334A255.317333 255.317333 0 0 0 128 341.333333a42.666667 42.666667 0 0 0 85.333333 0 170.581333 170.581333 0 0 1 33.408-101.461333A170.325333 170.325333 0 0 1 384 170.666667c54.826667 0 105.216 25.984 137.258667 69.205333A169.856 169.856 0 0 1 554.666667 341.333333a42.666667 42.666667 0 1 0 85.333333 0 255.914667 255.914667 0 0 0-50.176-152.234666zM490.666667 341.333333a106.666667 106.666667 0 1 0-213.333334 0v352A288 288 0 0 0 565.333333 981.333333h21.333334a288 288 0 0 0 288-288V533.333333a106.666667 106.666667 0 0 0-170.666667-85.333333A106.24 106.24 0 0 0 640 426.666667a106.24 106.24 0 0 0-64 21.333333 106.24 106.24 0 0 0-85.333333-19.2V341.333333z m298.666666 213.333334v138.666666A202.666667 202.666667 0 0 1 586.666667 896h-21.333334a202.666667 202.666667 0 0 1-202.666666-202.666667V341.333333a21.333333 21.333333 0 1 1 42.666666 0v298.666667a42.666667 42.666667 0 1 0 85.333334 0v-106.666667a21.333333 21.333333 0 1 1 42.666666 0V640a42.666667 42.666667 0 1 0 85.333334 0v-106.666667a21.333333 21.333333 0 1 1 42.666666 0V640a42.666667 42.666667 0 1 0 85.333334 0v-106.666667a21.333333 21.333333 0 1 1 42.666666 0v21.333334z"  ></path></svg>