<?xml version="1.0" standalone="no"?><svg xmlns="http://www.w3.org/2000/svg" class="icon"  id="Xz-angleZAlert" viewBox="0 0 1024 1024"><path d="M730.581333 128c32.085333 0 49.237333 43.178667 28.117334 70.784l-187.733334 245.162667a256.128 256.128 0 0 0-180.736 236.16L290.304 810.666667h130.602667a257.28 257.28 0 0 0 74.88 85.333333H208.042667c-32.042667 0-49.194667-43.178667-28.074667-70.784L648.32 213.333333H208.042667c-19.114667 0-34.901333-16.469333-37.034667-37.674666L170.752 170.666667c0-23.552 16.682667-42.666667 37.290667-42.666667h522.538666z m-84.48 414.464a146.304 146.304 0 1 1 0 292.565333 146.304 146.304 0 0 1 0-292.565333z m219.434667 146.304a219.434667 219.434667 0 1 0-438.869333 0 219.434667 219.434667 0 0 0 438.869333 0zM682.666667 614.4a36.565333 36.565333 0 0 0-73.130667 0v54.869333a36.565333 36.565333 0 0 0 73.130667 0V614.4z m-36.565334 190.165333a36.565333 36.565333 0 1 0 0-73.130666 36.565333 36.565333 0 0 0 0 73.130666z"  ></path></svg>