<?xml version="1.0" standalone="no"?><svg xmlns="http://www.w3.org/2000/svg" class="icon"  id="Xz-button" viewBox="0 0 1024 1024"><path d="M661.504 198.144c2.048-4.096 3.584-9.216 2.048-13.824-1.024-4.608-4.096-8.704-7.68-10.752-28.16-16.896-59.392-28.16-92.672-33.28-12.8-2.048-26.624-3.072-38.912-3.072-53.76 0-105.984 16.896-151.04 49.152-54.784 40.96-91.136 100.352-101.376 167.936-5.12 32.256-4.096 64 3.584 95.232 1.536 7.68 9.216 13.824 16.896 13.824 1.024 0 2.048 0 4.096-0.512 9.728-2.048 15.36-11.776 13.824-20.992-6.144-27.136-6.656-54.272-3.072-82.432 18.944-120.32 131.584-203.264 251.904-184.32 28.16 4.608 54.784 14.336 79.36 28.672 4.096 2.048 9.216 3.584 13.824 1.536 3.072 0 7.168-2.56 9.216-7.168z" fill="#4F4F4F" ></path><path d="M287.744 689.664l3.072 2.048 0.512 3.584c0.512 4.608 1.536 7.168 2.048 10.752 3.584 11.776 8.704 22.528 14.336 31.232l14.848 22.528c30.72 46.08 64.512 99.328 98.816 148.992 37.888 57.344 94.208 93.696 165.376 105.984 9.728 1.536 17.408 3.072 25.6 4.096 2.048 0.512 4.096 0.512 6.144 0.512 2.048 0 4.096 0.512 6.144 0.512 3.072 0.512 5.632 0.512 7.68 0.512h43.52c3.584 0 6.144 0 9.216-0.512 2.048-0.512 4.096-0.512 5.632-1.024 2.048-0.512 4.096-0.512 5.632-1.024l2.048-0.512c5.632-1.024 11.776-1.536 17.408-3.072 89.6-15.36 157.184-82.944 172.032-171.008 3.584-17.408 4.608-35.84 5.12-53.76v-105.472-69.12c0-27.648-10.752-52.736-30.208-70.656l-4.608-4.096 2.048-5.632c20.992-47.616 31.232-98.816 31.232-150.528 1.024-209.408-169.472-379.392-378.88-379.392S132.096 174.08 132.096 383.488c0.512 119.808 58.368 234.496 155.648 306.176z m557.056-9.216v108.544c0 14.848-1.536 30.72-4.096 46.08-11.776 68.608-63.488 120.32-132.608 132.096-5.632 1.024-10.752 1.536-15.872 3.072-5.12 0.512-10.24 1.536-15.36 2.048h-46.08c-4.608-0.512-8.704-1.024-12.8-1.536-7.168-1.024-15.36-2.048-22.528-3.584-57.856-10.752-103.424-38.912-133.632-85.504-33.792-50.688-69.632-104.96-112.64-172.032-3.584-5.12-6.144-11.264-7.68-17.92-4.096-14.336-2.048-29.696 5.632-41.472 7.168-11.776 18.944-19.968 32.256-22.528 22.016-4.608 40.96 3.584 54.272 20.992 10.752 14.336 21.504 28.672 31.744 41.984 1.536 2.048 3.584 5.12 5.632 7.168V392.704v-11.776c1.536-23.552 25.6-42.496 49.152-38.4 24.576 4.096 38.912 21.504 38.912 46.08v211.456c0 3.072 0 5.12 0.512 6.656 0 0.512 0.512 1.024 2.048 1.536h0.512c1.024 0 1.536-0.512 2.048-1.536 0.512-1.024 0.512-4.096 0.512-5.632v-33.792c0-16.896 6.656-30.72 19.456-38.4 3.584-2.048 7.168-4.096 10.752-5.632 1.024-0.512 3.072-1.024 4.096-1.536l1.536-1.024h19.456l2.048 1.024c0.512 0 0.512 0.512 1.024 0.512 21.504 7.168 32.256 23.04 32.256 46.08V605.184c0 2.048 1.024 3.072 3.584 3.072h0.512c1.024 0 2.048-0.512 2.048-5.12v-14.848c0.512-11.264 3.584-20.992 9.728-28.672 9.216-11.264 21.504-17.408 35.328-17.408 4.608 0 9.728 0.512 14.848 2.048 18.944 6.144 30.72 24.576 30.72 45.056v38.4c0 1.024 0 2.048 3.584 3.072 1.024 0 2.048-1.024 2.048-1.536 0.512-1.536 0.512-3.584 0.512-6.144v-6.656-2.048c0-7.68 1.536-15.872 4.608-22.528 6.656-15.872 22.528-26.112 39.936-26.112 3.584 0 6.144 0.512 9.728 1.024 21.504 4.608 34.816 22.528 34.816 46.08l-2.56 67.584zM512.512 51.2c182.784 0 331.776 148.992 331.776 331.776 0 45.056-9.216 89.6-27.136 131.072l-2.048 5.632-6.144-0.512c-11.264-1.024-22.528 0-33.792 3.072l-4.608 1.024-3.584-3.584c-9.728-9.216-20.992-15.872-32.768-19.968-1.536-0.512-4.096-1.024-6.144-1.536l-10.24-3.072 4.608-9.216c10.752-21.504 17.92-44.032 21.504-67.584 7.68-51.712-1.024-103.424-26.624-149.504-3.584-6.144-11.776-8.704-17.92-5.12-3.072 1.536-5.12 4.608-6.144 7.68-1.024 3.584-0.512 6.656 1.024 10.24 22.528 40.448 31.232 86.528 23.552 132.608-4.608 28.16-14.848 54.784-30.208 79.36l-1.536 3.072-3.584 1.024c-1.024 0-1.536 0.512-3.072 0.512h-1.024l-4.608 1.024-3.584-3.584c-8.704-7.168-17.92-13.824-29.696-18.944l-0.512-0.512c-8.704-4.608-17.408-6.656-26.624-6.656h-10.752v-81.92c0-48.128-32.256-85.504-79.872-93.696-4.608-0.512-8.704-1.024-12.8-1.024-46.592 0-87.552 36.864-91.136 83.456-0.512 6.144-0.512 11.264-0.512 15.872v178.688l-12.288-7.168c-21.504-12.288-40.448-28.16-55.808-46.592-2.048-3.072-5.632-4.608-9.216-4.608-3.584-0.512-6.656 0.512-9.728 3.072-3.072 2.048-4.608 5.632-4.608 9.216-0.512 3.584 0.512 6.656 3.072 9.728 9.728 11.776 20.992 22.528 33.792 32.768l13.824 10.752-16.384 4.096c-24.576 6.144-45.568 22.016-58.368 43.008 0 0.512-0.512 0.512-0.512 0.512-0.512 0.512-0.512 1.024-1.024 2.048l-5.12 8.704-7.168-6.656c-70.144-62.464-110.08-152.576-110.08-245.76 1.536-183.808 150.528-332.8 333.824-332.8z" fill="#4F4F4F" ></path></svg>