<?xml version="1.0" standalone="no"?><svg xmlns="http://www.w3.org/2000/svg" class="icon"  id="Xz-button-TWO" viewBox="0 0 1024 1024"><path d="M862.208 544.256l-4.608-4.096 2.048-5.632C880.64 486.912 890.88 435.712 890.88 384c1.024-209.408-169.472-379.392-378.88-379.392S131.584 174.08 131.584 383.488c0.512 119.808 58.368 234.496 155.648 306.176l3.072 2.048 0.512 3.584c0.512 4.608 1.536 7.168 2.048 10.752 3.584 11.776 8.704 22.528 14.336 31.232l14.848 22.528c30.72 46.08 64.512 99.328 98.816 148.992 37.888 57.344 94.208 93.696 165.376 105.984 9.728 1.536 17.408 3.072 25.6 4.096 2.048 0.512 4.096 0.512 6.144 0.512 2.048 0 4.096 0.512 6.144 0.512 3.072 0.512 5.632 0.512 7.68 0.512h43.52c3.584 0 6.144 0 9.216-0.512 2.048-0.512 4.096-0.512 5.632-1.024 2.048-0.512 4.096-0.512 5.632-1.024l2.048-0.512c5.632-1.024 11.776-1.536 17.408-3.072 89.6-15.36 157.184-82.944 172.032-171.008 3.584-17.408 4.608-35.84 5.12-53.76v-105.472-69.12c0-27.648-10.752-52.736-30.208-70.656z m-167.424-50.688c15.36-24.576 25.6-51.2 30.208-79.36 7.68-46.08-1.024-92.16-23.552-132.608-1.536-3.584-2.048-6.656-1.024-10.24 1.024-3.072 3.072-6.144 6.144-7.68 6.144-3.584 14.336-1.024 17.92 5.12 25.6 46.08 34.304 97.792 26.624 149.504-3.584 23.552-10.752 46.08-21.504 67.584l-4.608 9.216-31.744 1.536 1.536-3.072zM309.76 441.856c1.536 9.216-4.096 18.944-13.824 20.992-2.048 0.512-3.072 0.512-4.096 0.512-7.68 0-15.36-6.144-16.896-13.824-7.68-31.232-8.704-62.976-3.584-95.232 10.24-67.584 46.592-126.976 101.376-167.936 45.056-32.256 97.28-49.152 151.04-49.152 12.288 0 26.112 1.024 38.912 3.072 33.28 5.12 64.512 16.384 92.672 33.28 3.584 2.048 6.656 6.144 7.68 10.752 1.536 4.608 0 9.728-2.048 13.824-2.048 4.608-6.144 7.168-9.216 7.168-4.608 2.048-9.728 0.512-13.824-1.536-24.576-14.336-51.2-24.064-79.36-28.672-120.32-18.944-232.96 64-251.904 184.32-3.584 28.16-3.072 55.296 3.072 82.432z m24.064 82.944c0-3.584 1.536-7.168 4.608-9.216 3.072-2.56 6.144-3.584 9.728-3.072 3.584 0 7.168 1.536 9.216 4.608 15.36 18.432 34.304 34.304 55.808 46.592l12.288 7.168-40.96 7.168-13.824-10.752c-12.8-10.24-24.064-20.992-33.792-32.768-2.56-3.072-3.584-6.144-3.072-9.728z m510.464 155.648v108.544c0 14.848-1.536 30.72-4.096 46.08-11.776 68.608-63.488 120.32-132.608 132.096-5.632 1.024-10.752 1.536-15.872 3.072-5.12 0.512-10.24 1.536-15.36 2.048h-46.08c-4.608-0.512-8.704-1.024-12.8-1.536-7.168-1.024-15.36-2.048-22.528-3.584-57.856-10.752-103.424-38.912-133.632-85.504-33.792-50.688-69.632-104.96-112.64-172.032-3.584-5.12-6.144-11.264-7.68-17.92-4.096-14.336-2.048-29.696 5.632-41.472 7.168-11.776 18.944-19.968 32.256-22.528 22.016-4.608 40.96 3.584 54.272 20.992 10.752 14.336 21.504 28.672 31.744 41.984 1.536 2.048 3.584 5.12 5.632 7.168V392.704v-11.776c1.536-23.552 25.6-42.496 49.152-38.4 24.576 4.096 38.912 21.504 38.912 46.08v211.456c0 3.072 0 5.12 0.512 6.656 0 0.512 0.512 1.024 2.048 1.536h0.512c1.024 0 1.536-0.512 2.048-1.536 0.512-1.024 0.512-4.096 0.512-5.632v-33.792c0-16.896 6.656-30.72 19.456-38.4 3.584-2.048 7.168-4.096 10.752-5.632 1.024-0.512 3.072-1.024 4.096-1.536l1.536-1.024h19.456l2.048 1.024c0.512 0 0.512 0.512 1.024 0.512 21.504 7.168 32.256 23.04 32.256 46.08V605.184c0 2.048 1.024 3.072 3.584 3.072h0.512c1.024 0 2.048-0.512 2.048-5.12v-14.848c0.512-11.264 3.584-20.992 9.728-28.672 9.216-11.264 21.504-17.408 35.328-17.408 4.608 0 9.728 0.512 14.848 2.048 18.944 6.144 30.72 24.576 30.72 45.056v38.4c0 1.024 0 2.048 3.584 3.072 1.024 0 2.048-1.024 2.048-1.536 0.512-1.536 0.512-3.584 0.512-6.144v-6.656-2.048c0-7.68 1.536-15.872 4.608-22.528 6.656-15.872 22.528-26.112 39.936-26.112 3.584 0 6.144 0.512 9.728 1.024 21.504 4.608 34.816 22.528 34.816 46.08l-2.56 67.584z" fill="#4F4F4F" ></path></svg>