<?xml version="1.0" standalone="no"?><svg xmlns="http://www.w3.org/2000/svg" class="icon"  id="Xz-co2" viewBox="0 0 1024 1024"><path d="M512 213.333333c136.021333 0 226.176 64.170667 265.642667 161.706667l1.28 3.370667 5.418666 1.28a308.864 308.864 0 0 1 69.333334 26.922666l10.496 5.845334C936.533333 454.698667 981.333333 523.136 981.333333 618.666667c0 139.221333-88.917333 213.333333-213.333333 213.333333H256c-119.424 0-213.333333-66.730667-213.333333-202.666667 0-133.12 99.626667-208.384 201.642666-221.824l0.981334-0.128 0.981333-2.773333c41.130667-118.954667 111.616-187.392 253.397333-191.146667L512 213.333333z m0 85.333334c-116.224 0-162.304 51.413333-193.621333 161.066666a42.666667 42.666667 0 0 1-41.045334 30.933334c-71.168 0-149.333333 48.853333-149.333333 138.666666 0 81.322667 50.688 117.333333 128 117.333334h512c80.384 0 128-39.68 128-128 0-63.146667-27.221333-104.704-74.837333-132.48a228.010667 228.010667 0 0 0-55.552-22.826667 178.176 178.176 0 0 0-23.637334-4.949333 42.666667 42.666667 0 0 1-36.352-30.72C683.264 349.354667 621.568 298.666667 512 298.666667z m-145.024 264.106666h50.133333c14.336 0 28.672-10.154667 28.672-27.050666 0-16.938667-14.336-23.722667-28.672-23.722667H366.976C306.133333 512 256 559.402667 256 616.96c0 57.6 50.133333 104.96 110.976 104.96h50.133333c14.336 0 28.672-10.154667 28.672-27.050667 0-16.938667-10.752-27.093333-28.672-27.093333H366.976c-32.213333 0-57.258667-23.722667-57.258667-54.186667s25.045333-50.773333 57.258667-50.773333zM556.8 512c-50.133333 0-93.098667 40.618667-93.098667 88.021333v37.248c0 47.445333 42.965333 88.064 93.098667 88.064s93.098667-40.618667 93.098667-88.021333v-37.248C646.272 552.576 606.890667 512 556.757333 512z m165.248 179.456s13.141333-8.704 23.04-14.762667c9.898667-6.101333 14.250667-9.642667 15.786667-25.856 0-13.525333-3.498667-23.466667-12.970667-33.877333-17.92-16.938667-44.501333-14.464-62.421333-0.896l-12.074667 9.472c-7.168 6.826667-9.216 18.346667-2.048 25.301333 8.234667 8.704 17.92 6.784 25.088 3.413334l9.898667-8.106667c3.584-3.413333 12.117333-7.424 15.701333-4.053333 3.754667 3.797333 1.749333 7.68-4.138667 12.117333l-53.717333 40.661333c-7.125333 5.546667-10.709333 13.525333-7.125333 20.309334 3.584 6.784 9.002667 10.154667 17.92 10.154666h75.136c10.752 0 17.92-6.784 17.92-16.938666 0-10.154667-7.168-16.938667-17.92-16.938667h-28.074667z m-168.832-16.896c-21.504 0-39.381333-16.938667-39.381333-37.248v-37.248c0-20.352 17.92-37.248 39.381333-37.248 21.504 0 39.381333 16.896 39.381333 37.205333v37.248c0 20.352-17.92 37.248-39.381333 37.248z"  ></path></svg>