<?xml version="1.0" standalone="no"?><svg xmlns="http://www.w3.org/2000/svg" class="icon"  id="Xz-currentRating" viewBox="0 0 1024 1024"><path d="M85.333333 512C85.333333 276.48 276.48 85.333333 512 85.333333s426.666667 191.146667 426.666667 426.666667-191.146667 426.666667-426.666667 426.666667S85.333333 747.52 85.333333 512z m85.333334 0c0 188.16 153.173333 341.333333 341.333333 341.333333s341.333333-153.173333 341.333333-341.333333-153.173333-341.333333-341.333333-341.333333-341.333333 153.173333-341.333333 341.333333z m377.301333-190.421333c-7.253333-14.506667-18.304-21.845333-32.768-21.845334-15.786667 0-29.44 8.405333-32.938667 22.442667l-137.386666 322.56c-7.466667 18.602667 0.426667 40.106667 18.346666 47.232l4.309334 1.450667c17.450667 4.693333 36.224-3.328 42.837333-19.84l37.290667-93.354667h125.44l37.333333 93.354667c7.253333 14.506667 18.304 21.888 32.768 21.888 2.986667 0 4.864-0.085333 7.082667-0.426667a15.488 15.488 0 0 0 8.746666-4.010667c17.792-6.741333 27.221333-29.184 16.64-46.805333l-44.501333-117.845333-83.2-204.8z m-64.896 182.912L512 430.848l28.928 73.642667H482.986667z"  ></path></svg>