<?xml version="1.0" standalone="no"?><svg xmlns="http://www.w3.org/2000/svg" class="icon"  id="Xz-currentRatingOverflowAlarm" viewBox="0 0 1024 1024"><path d="M192 170.666667a21.333333 21.333333 0 0 0-21.333333 21.333333V341.333333h420.437333l6.613333-48.426666a42.666667 42.666667 0 0 1 82.346667-8.832L700.970667 341.333333H853.333333V192a21.333333 21.333333 0 0 0-21.333333-21.333333h-640zM853.333333 426.666667h-121.386666l23.253333 64h34.133333a42.666667 42.666667 0 1 1 0 85.333333H725.333333a42.666667 42.666667 0 0 1-40.106666-28.074667l-26.282667-72.32-40.661333 298.154667a42.666667 42.666667 0 0 1-82.090667 9.557333l-77.098667-200.405333-39.594666 59.434667A42.666667 42.666667 0 0 1 349.866667 644.266667L298.666667 576H256a42.666667 42.666667 0 1 1 0-85.333333h64a42.666667 42.666667 0 0 1 34.133333 17.066666l27.818667 37.12 51.882667-77.866666a42.666667 42.666667 0 0 1 75.306666 8.362666l47.018667 122.24 23.338667-170.922666H170.666667v405.333333a21.333333 21.333333 0 0 0 21.333333 21.333333h640a21.333333 21.333333 0 0 0 21.333333-21.333333V426.666667zM85.333333 192A106.666667 106.666667 0 0 1 192 85.333333h640A106.666667 106.666667 0 0 1 938.666667 192v640a106.666667 106.666667 0 0 1-106.666667 106.666667h-640A106.666667 106.666667 0 0 1 85.333333 832v-640z" fill="#58AFE7" ></path></svg>