<?xml version="1.0" standalone="no"?><svg xmlns="http://www.w3.org/2000/svg" class="icon"  id="Xz-continuousSoundLevel" viewBox="0 0 1024 1024"><path d="M810.666667 128a85.333333 85.333333 0 0 1 85.333333 85.333333v398.933334a333.269333 333.269333 0 0 0-85.333333-39.125334V213.333333H213.333333v597.333334h187.648c18.602667 33.792 51.456 63.232 93.952 85.333333H213.333333a85.333333 85.333333 0 0 1-85.333333-85.333333V213.333333a85.333333 85.333333 0 0 1 85.333333-85.333333h597.333334z m-68.266667 315.733333v114.773334a462.165333 462.165333 0 0 0-76.8-3.541334V443.733333a38.4 38.4 0 1 1 76.8 0z m-128-42.666666v158.634666a408.746667 408.746667 0 0 0-76.8 19.072V401.066667a38.4 38.4 0 1 1 76.8 0z m-128-85.333334v286.208c-32.597333 18.304-59.008 41.088-76.8 66.816V315.733333a38.4 38.4 0 0 1 76.8 0zM320 362.666667a38.4 38.4 0 0 1 38.4 38.4v221.866666a38.4 38.4 0 0 1-76.8 0V401.066667a38.4 38.4 0 0 1 38.4-38.4z m492.288 311.125333a54.314667 54.314667 0 0 0-16.768-2.432 57.173333 57.173333 0 0 0-29.141333 6.954667 43.776 43.776 0 0 0-18.090667 20.266666 71.253333 71.253333 0 0 0-5.888 25.088l-0.256 7.637334 0.256 7.338666c0.426667 8.533333 2.432 16.938667 5.973333 24.917334 3.456 8.192 9.685333 15.274667 17.92 20.394666 7.808 4.693333 17.194667 7.04 28.16 7.04 5.888 0.085333 11.776-0.725333 17.365334-2.346666a38.954667 38.954667 0 0 0 13.269333-6.784 29.568 29.568 0 0 0 8.448-10.538667h2.346667v56.32h49.066666v-154.624h-49.066666v18.858667h-1.792l-2.304-4.181334a31.829333 31.829333 0 0 0-6.357334-6.912 39.424 39.424 0 0 0-13.141333-6.997333z m-112.042667 3.541333a84.181333 84.181333 0 0 0-36.138666-7.253333 82.986667 82.986667 0 0 0-36.138667 7.296 54.741333 54.741333 0 0 0-31.658667 46.293333l-0.298666 7.509334 0.298666 7.381333c0.682667 8.832 3.413333 17.450667 8.106667 25.301333 5.418667 8.96 13.781333 16.213333 24.021333 21.034667 10.410667 4.906667 22.784 7.338667 37.205334 7.338667 9.984 0.213333 19.968-1.066667 29.44-3.84a62.72 62.72 0 0 0 19.498666-9.642667c8.192-6.229333 14.037333-14.421333 16.725334-23.552l0.426666-1.365333-44.245333 0.085333-0.896 1.109333-2.432 2.261334-1.834667 1.408a27.434667 27.434667 0 0 1-15.744 4.352 22.613333 22.613333 0 0 1-11.989333-2.56 18.389333 18.389333 0 0 1-8.021333-8.149334l-1.493334-3.712a27.093333 27.093333 0 0 1-0.853333-4.181333l-0.341333-4.096h88.405333v-11.648l-0.298667-6.954667a54.314667 54.314667 0 0 0-8.064-24.106666 54.826667 54.826667 0 0 0-23.68-20.309334z m-180.266666 77.226667V640H469.333333v149.333333h120.917334v-34.816h-70.272z m282.368-45.952a21.589333 21.589333 0 0 1 11.562666-3.114667 20.693333 20.693333 0 0 1 19.456 11.818667 27.733333 27.733333 0 0 1 2.474667 8.746667l0.341333 5.333333-0.341333 5.034667a28.032 28.032 0 0 1-2.432 8.704 19.968 19.968 0 0 1-19.498667 11.690666 21.674667 21.674667 0 0 1-11.648-3.029333 20.309333 20.309333 0 0 1-7.68-8.832 28.032 28.032 0 0 1-2.474666-8.576l-0.298667-5.333333 0.298667-4.992a28.074667 28.074667 0 0 1 2.474666-8.576 20.48 20.48 0 0 1 7.765334-8.874667z m-148.224-6.570667a22.485333 22.485333 0 0 1 11.264-2.730666 22.442667 22.442667 0 0 1 11.392 2.730666 18.858667 18.858667 0 0 1 7.424 7.978667l1.493333 3.712 0.682667 3.157333h-41.984l0.682666-3.157333a22.357333 22.357333 0 0 1 1.493334-3.712 18.773333 18.773333 0 0 1 7.552-7.978667z"  ></path></svg>