<?xml version="1.0" standalone="no"?><svg xmlns="http://www.w3.org/2000/svg" class="icon"  id="Xz-currentRatingThresholdAlarm" viewBox="0 0 1024 1024"><path d="M170.666667 192a21.333333 21.333333 0 0 1 21.333333-21.333333h640a21.333333 21.333333 0 0 1 21.333333 21.333333v640a21.333333 21.333333 0 0 1-21.333333 21.333333h-640a21.333333 21.333333 0 0 1-21.333333-21.333333v-640zM192 85.333333A106.666667 106.666667 0 0 0 85.333333 192v640A106.666667 106.666667 0 0 0 192 938.666667h640a106.666667 106.666667 0 0 0 106.666667-106.666667v-640A106.666667 106.666667 0 0 0 832 85.333333h-640z m255.573333 207.573334a42.666667 42.666667 0 0 0-82.346666-8.832L290.133333 490.666667H256a42.666667 42.666667 0 1 0 0 85.333333h64a42.666667 42.666667 0 0 0 40.106667-28.074667l26.282666-72.32 40.661334 298.154667a42.666667 42.666667 0 0 0 82.090666 9.557333l77.098667-200.405333 39.594667 59.434667a42.666667 42.666667 0 0 0 69.632 1.92l51.2-68.266667h42.666666a42.666667 42.666667 0 1 0 0-85.333333H725.333333a42.666667 42.666667 0 0 0-34.133333 17.066666l-27.818667 37.12-51.882666-77.866666a42.666667 42.666667 0 0 0-75.306667 8.362666l-47.018667 122.24-41.557333-304.682666z"  ></path></svg>