<?xml version="1.0" standalone="no"?><svg xmlns="http://www.w3.org/2000/svg" class="icon"  id="Xz-cold" viewBox="0 0 1024 1024"><path d="M512 42.666667a42.666667 42.666667 0 0 1 42.666667 42.666666v89.002667l55.168-55.168a42.666667 42.666667 0 1 1 60.330666 60.330667L554.666667 294.997333v143.104l115.712-66.816 57.173333-171.434666a42.666667 42.666667 0 0 1 80.938667 26.965333l-26.752 80.213333 77.610666-44.8a42.666667 42.666667 0 0 1 42.666667 73.856l-86.954667 50.218667 90.197334 20.053333a42.666667 42.666667 0 1 1-18.517334 83.285334l-181.034666-40.234667-107.904 62.293333 108.586666 62.72 180.352-40.106666a42.666667 42.666667 0 1 1 18.517334 83.328l-89.514667 19.882666 88.064 50.858667a42.666667 42.666667 0 1 1-42.666667 73.898667l-79.616-45.952 26.965334 80.853333a42.666667 42.666667 0 0 1-80.981334 26.965333l-57.344-172.117333L554.666667 585.344v143.658667l115.498666 115.498666a42.666667 42.666667 0 0 1-60.330666 60.330667L554.666667 849.664V938.666667a42.666667 42.666667 0 1 1-85.333334 0v-89.002667l-55.168 55.168a42.666667 42.666667 0 0 1-60.330666-60.330667L469.333333 729.002667v-143.104l-115.712 66.816-57.173333 171.434666a42.666667 42.666667 0 0 1-80.938667-26.965333l26.752-80.170667-77.568 44.8a42.666667 42.666667 0 0 1-42.666666-73.898666l86.912-50.218667-90.197334-20.053333a42.666667 42.666667 0 0 1 18.517334-83.285334l181.034666 40.234667 108.842667-62.848-108.16-62.464-181.76 40.362667a42.666667 42.666667 0 1 1-18.474667-83.285334l90.88-20.224-87.466666-50.517333a42.666667 42.666667 0 1 1 42.666666-73.898667l77.226667 44.586667-26.538667-79.488a42.666667 42.666667 0 1 1 80.981334-26.965333l56.917333 170.752L469.333333 437.546667v-142.506667L353.834667 179.456a42.666667 42.666667 0 0 1 60.330666-60.330667L469.333333 174.336V85.333333a42.666667 42.666667 0 0 1 42.666667-42.666666z"  ></path></svg>