<?xml version="1.0" standalone="no"?><svg xmlns="http://www.w3.org/2000/svg" class="icon"  id="Xz-conductivity" viewBox="0 0 1024 1024"><path d="M673.706667 256l-105.728 179.882667L725.333333 478.890667 392.96 725.333333l105.728-179.882666L341.333333 502.442667 673.706667 256z m-156.885334-85.333333c164.181333 0 301.738667 113.450667 336.64 265.429333 5.248 22.997333 28.373333 37.376 51.626667 32.170667a42.666667 42.666667 0 0 0 32.512-51.029334C893.994667 227.2 722.218667 85.333333 516.821333 85.333333 278.528 85.333333 85.333333 276.352 85.333333 512s193.194667 426.666667 431.488 426.666667c178.816 0 332.16-107.605333 397.610667-260.693334 7.210667-16.938667 13.354667-34.389333 18.346667-52.309333 10.368-37.12-25.813333-68.736-61.098667-56.746667l-131.584 44.714667c-49.578667 16.853333-38.954667 89.088 13.44 91.306667l46.72 1.92A345.898667 345.898667 0 0 1 516.821333 853.333333c-190.634667 0-345.173333-152.832-345.173333-341.333333s154.538667-341.333333 345.173333-341.333333z"  ></path></svg>