<?xml version="1.0" standalone="no"?><svg xmlns="http://www.w3.org/2000/svg" class="icon"  id="Xz-currentRatingThresholdAlarm-TWO" viewBox="0 0 1024 1024"><path d="M170.666667 192a21.333333 21.333333 0 0 1 21.333333-21.333333h640a21.333333 21.333333 0 0 1 21.333333 21.333333v291.882667c31.786667 11.264 60.714667 28.586667 85.333334 50.645333V192A106.666667 106.666667 0 0 0 832 85.333333h-640A106.666667 106.666667 0 0 0 85.333333 192v640A106.666667 106.666667 0 0 0 192 938.666667h434.432a257.28 257.28 0 0 1-80.213333-85.333334H192a21.333333 21.333333 0 0 1-21.333333-21.333333v-640z m440.832 274.986667l25.557333 38.314666a255.872 255.872 0 0 0-121.642667 261.802667l-6.272 16.213333a42.666667 42.666667 0 0 1-82.090666-9.557333l-40.661334-298.154667-26.282666 72.32a42.666667 42.666667 0 0 1-40.106667 28.074667H256a42.666667 42.666667 0 1 1 0-85.333333h34.133333l75.093334-206.592a42.666667 42.666667 0 0 1 82.346666 8.832l41.6 304.682666 47.018667-122.24a42.666667 42.666667 0 0 1 75.306667-8.362666zM768 579.029333a146.304 146.304 0 1 1 0 292.608 146.304 146.304 0 0 1 0-292.608zM987.434667 725.333333a219.434667 219.434667 0 1 0-438.869334 0 219.434667 219.434667 0 0 0 438.869334 0z m-182.869334-74.368a36.565333 36.565333 0 0 0-73.130666 0v54.869334a36.565333 36.565333 0 1 0 73.130666 0v-54.869334zM768 841.130667A36.565333 36.565333 0 1 0 768 768a36.565333 36.565333 0 0 0 0 73.130667z"  ></path></svg>