<?xml version="1.0" standalone="no"?><svg xmlns="http://www.w3.org/2000/svg" class="icon"  id="Xz-counter" viewBox="0 0 1024 1024"><path d="M938.666667 208C938.666667 163.797333 900.48 128 853.333333 128h-85.333333c-47.146667 0-85.333333 35.84-85.333333 80v480C682.666667 732.16 720.853333 768 768 768h85.333333c47.146667 0 85.333333-35.84 85.333334-80V208zM768 213.333333h85.333333v469.333334h-85.333333V213.333333z m-213.333333 42.666667c47.146667 0 85.333333 35.285333 85.333333 78.762667v354.474666c0 43.52-38.186667 78.762667-85.333333 78.762667h-85.333334c-47.146667 0-85.333333-35.285333-85.333333-78.762667V334.762667C384 291.242667 422.186667 256 469.333333 256h85.333334z m0 85.333333h-85.333334v341.333334h85.333334V341.333333z m-298.666667 85.333334c47.146667 0 85.333333 33.962667 85.333333 75.861333v189.610667C341.333333 734.037333 303.146667 768 256 768H170.666667c-47.146667 0-85.333333-33.962667-85.333334-75.861333v-189.610667C85.333333 460.629333 123.52 426.666667 170.666667 426.666667h85.333333z m0 85.333333H170.666667v170.666667h85.333333v-170.666667z m-128 298.666667a42.666667 42.666667 0 1 0 0 85.333333h768a42.666667 42.666667 0 1 0 0-85.333333H128z"  ></path></svg>