<?xml version="1.0" standalone="no"?><svg xmlns="http://www.w3.org/2000/svg" class="icon"  id="Xz-currentRatingOverflowAlarm-TWO" viewBox="0 0 1024 1024"><path d="M761.770667 597.930667c20.693333 0 37.504 16.597333 37.504 37.077333v37.418667c19.157333 3.84 36.949333 11.093333 52.906666 20.608l25.898667-25.6c14.634667-14.506667 38.4-14.506667 53.034667 0 14.634667 14.421333 14.634667 37.930667 0 52.394666l-23.978667 23.68c17.877333 24.917333 29.354667 54.357333 29.354667 84.010667v79.701333h6.570666c20.522667 0 37.162667 16.426667 37.162667 36.736s-16.64 36.778667-37.162667 36.778667h-350.122666a36.992 36.992 0 0 1-37.162667-36.778667c0-20.309333 16.64-36.736 37.162667-36.736h6.570666v-79.701333c0-22.912 6.826667-45.696 18.218667-66.346667a37.546667 37.546667 0 0 1-2.218667-2.005333l-39.808-39.338667a36.778667 36.778667 0 0 1 0-52.437333c14.677333-14.506667 38.4-14.506667 53.077334 0l37.76 37.333333c16.725333-12.757333 36.224-23.082667 57.685333-29.269333v-40.448c0-20.48 16.810667-37.12 37.546667-37.12z m-60.288 174.208c-18.645333 18.389333-27.562667 39.893333-27.562667 55.381333v79.701333h188.16v-79.701333c0-15.488-8.917333-36.992-27.562667-55.381333-18.176-17.962667-41.941333-29.312-66.517333-29.312s-48.341333 11.349333-66.56 29.312z" fill="#F13535" ></path><path d="M192 170.666667h640a21.333333 21.333333 0 0 1 21.333333 21.333333V341.333333h-152.405333l-20.821333-57.258666a42.666667 42.666667 0 0 0-82.346667 8.832L591.061333 341.333333H170.666667V192a21.333333 21.333333 0 0 1 21.333333-21.333333zM853.333333 426.666667v229.162666l6.741334-6.656A63.445333 63.445333 0 0 1 938.666667 640.853333V192A106.666667 106.666667 0 0 0 832 85.333333h-640A106.666667 106.666667 0 0 0 85.333333 192v640A106.666667 106.666667 0 0 0 192 938.666667h338.346667a62.464 62.464 0 0 1 43.562666-54.144V853.333333H192a21.333333 21.333333 0 0 1-21.333333-21.333333V426.666667h408.832l-23.338667 170.922666-47.018667-122.24a42.666667 42.666667 0 0 0-75.306666-8.362666L381.952 544.853333 354.133333 507.733333a42.666667 42.666667 0 0 0-34.133333-17.066666H256a42.666667 42.666667 0 1 0 0 85.333333h42.666667l51.2 68.266667a42.666667 42.666667 0 0 0 69.632-1.92l39.594666-59.434667 77.098667 200.405333a42.666667 42.666667 0 0 0 38.741333 27.306667c1.792-15.232 5.888-29.994667 11.733334-43.946667l-28.928-28.629333a62.378667 62.378667 0 0 1 0-88.874667 63.445333 63.445333 0 0 1 78.677333-8.277333l22.528-165.290667 26.282667 72.32a42.666667 42.666667 0 0 0 40.106666 28.074667h15.104a63.36 63.36 0 0 1 42.666667 0h6.229333a42.666667 42.666667 0 1 0 0-85.333333h-34.133333l-23.253333-64H853.333333z" fill="#F13535" ></path></svg>