<?xml version="1.0" standalone="no"?><svg xmlns="http://www.w3.org/2000/svg" class="icon"  id="Xz-doorWatcher-TWO" viewBox="0 0 1024 1024"><path d="M874.666667 240.469333C874.666667 154.752 802.56 85.333333 713.472 85.333333H310.528C221.44 85.333333 149.333333 154.752 149.333333 240.469333v543.061334C149.333333 869.248 221.44 938.666667 310.528 938.666667h402.944c89.088 0 161.194667-69.418667 161.194667-155.136V240.469333zM394.325333 170.666667h316.245334c43.306667 0 78.762667 34.133333 78.762666 75.861333v530.944c0 41.728-35.456 75.861333-78.762666 75.861333H394.325333l129.664-50.048c59.904-22.826667 99.157333-78.677333 98.858667-140.714666V361.429333c0-62.592-38.997333-117.546667-98.858667-140.714666L394.325333 170.666667zM234.538667 260.693333c0.170667-17.621333 6.954667-34.56 19.029333-47.36l238.464 90.24c28.672 11.136 46.933333 37.333333 46.933333 66.773334v285.013333c0 29.44-18.261333 55.68-46.976 66.773333L253.568 810.666667a69.845333 69.845333 0 0 1-19.029333-47.36V260.693333zM448 426.666667c0-23.466667-19.2-42.666667-42.666667-42.666667s-42.666667 19.2-42.666666 42.666667v85.333333c0 23.466667 19.2 42.666667 42.666666 42.666667s42.666667-19.2 42.666667-42.666667v-85.333333z"  ></path></svg>