<?xml version="1.0" standalone="no"?><svg xmlns="http://www.w3.org/2000/svg" class="icon"  id="Xz-digital" viewBox="0 0 1024 1024"><path d="M930.304 1000.96H93.696c-39.424 0-71.168-31.744-71.168-71.168V93.696c0-39.424 31.744-71.168 71.168-71.168h836.096c39.424 0 71.168 31.744 71.168 71.168v836.096c0 39.424-31.744 71.168-70.656 71.168zM93.696 43.52c-27.648 0-50.688 22.528-50.688 50.688v836.096c0 27.648 22.528 50.688 50.688 50.688h836.096c27.648 0 50.688-22.528 50.688-50.688V93.696c0-27.648-22.528-50.688-50.688-50.688H93.696z" fill="#9AB9CD" ></path><path d="M356.864 365.056c3.072-82.944 70.144-149.504 155.136-149.504 83.968 0 152.576 66.56 155.648 149.504v288.768c0 86.016-69.632 155.136-155.648 155.136s-155.136-68.608-155.136-155.136V365.056z m294.912 6.144c0-77.312-62.464-139.776-139.776-139.776-77.312 0-139.264 62.464-139.264 139.776v282.112c0 77.312 61.44 139.264 139.264 139.264 77.312 0 139.776-61.44 139.776-139.264V371.2z" fill="#9AB9CD" ></path><path d="M511.488 831.488c-98.304 0-178.176-79.872-178.176-178.176V364.032c3.584-96.256 81.92-171.52 178.176-171.52 96.768 0 175.104 75.264 178.688 171.52v289.792c0 97.792-79.872 177.664-178.688 177.664z m0-577.024c-64 0-116.224 52.224-116.224 116.736v282.112c0 65.024 51.2 116.224 116.224 116.224 64.512 0 116.736-52.224 116.736-116.224V371.2c0.512-64.512-52.224-116.736-116.736-116.736z" fill="#9AB9CD" ></path></svg>