<?xml version="1.0" standalone="no"?><svg xmlns="http://www.w3.org/2000/svg" class="icon"  id="Xz-doorWatcher" viewBox="0 0 1024 1024"><path d="M734.805333 85.333333C823.893333 85.333333 896 154.752 896 240.469333v543.061334C896 869.248 823.893333 938.666667 734.805333 938.666667H331.861333C242.773333 938.666667 170.666667 869.248 170.666667 783.530667V240.469333C170.666667 154.752 242.773333 85.333333 331.861333 85.333333h402.944z m-3.712 85.333334H338.346667c-44.629333 0-80.938667 34.816-80.938667 78.08v526.506666c0 43.264 36.309333 78.08 80.938667 78.08h392.746666c44.629333 0 80.981333-34.816 80.981334-78.08V248.746667c0-43.264-36.352-78.08-80.981334-78.08zM640 426.666667c23.466667 0 42.666667 19.2 42.666667 42.666666v85.333334c0 23.466667-19.2 42.666667-42.666667 42.666666s-42.666667-19.2-42.666667-42.666666v-85.333334c0-23.466667 19.2-42.666667 42.666667-42.666666z"  ></path></svg>