<?xml version="1.0" standalone="no"?><svg xmlns="http://www.w3.org/2000/svg" class="icon"  id="Xz-di" viewBox="0 0 1024 1024"><path d="M938.666667 240.469333C938.666667 154.752 866.56 85.333333 777.472 85.333333H246.528C157.44 85.333333 85.333333 154.752 85.333333 240.469333v543.061334C85.333333 869.248 157.44 938.666667 246.528 938.666667h530.944C866.56 938.666667 938.666667 869.248 938.666667 783.530667V240.469333zM253.013333 170.666667h520.746667c44.629333 0 80.981333 34.816 80.981333 78.08v526.506666c0 43.264-36.352 78.08-80.981333 78.08H253.013333c-44.629333 0-80.938667-34.816-80.938666-78.08V248.746667C172.074667 205.44 208.384 170.666667 253.013333 170.666667z m400.341334 236.16A48 48 0 0 1 640 373.077333c0-13.013333 4.394667-24.746667 13.354667-34.261333l0.341333-0.341333c9.557333-9.557333 21.674667-14.208 35.114667-14.208 13.312 0 25.173333 4.778667 34.56 14.208 9.472 9.386667 14.250667 21.333333 14.250666 34.602666 0 13.141333-4.949333 24.789333-14.208 34.090667-9.429333 9.386667-21.333333 14.208-34.602666 14.208-13.44 0-25.557333-4.693333-35.114667-14.208l-0.341333-0.341333z m-5.674667 337.621333v-305.493333h82.773333v305.493333h-82.773333zM688.810667 341.333333c8.874667 0 16.384 3.072 22.528 9.216 6.144 6.144 9.216 13.653333 9.216 22.528l0 0a30.634667 30.634667 0 0 0-9.216-22.528 30.634667 30.634667 0 0 0-22.528-9.216z m24.576 114.688h-48.64 48.64v271.36-271.36zM256 744.448v-413.013333h139.946667c32.384 0 61.44 5.802667 86.698666 18.048a178.005333 178.005333 0 0 1 62.122667 47.488c16.384 19.754667 28.672 41.941333 36.864 66.432a234.24 234.24 0 0 1 0 149.034666 204.288 204.288 0 0 1-36.864 66.432 183.466667 183.466667 0 0 1-62.037333 48l-0.170667 0.085334c-25.258667 11.861333-54.272 17.493333-86.613333 17.493333H256z m188.245333-88.746667c14.634667-7.125333 26.410667-16.512 35.669334-28.074666 9.941333-12.373333 17.28-26.154667 22.101333-41.557334a159.744 159.744 0 0 0 0-96.256 119.722667 119.722667 0 0 0-21.930667-40.832l-0.298666-0.384a100.053333 100.053333 0 0 0-35.541334-28.458666l-0.128-0.042667c-13.568-6.826667-30.122667-10.496-50.218666-10.496H340.309333v256.682667h53.589334c20.053333 0 36.693333-3.712 50.218666-10.496l0.128-0.042667z"  ></path></svg>