<?xml version="1.0" standalone="no"?><svg xmlns="http://www.w3.org/2000/svg" class="icon"  id="Xz-distance" viewBox="0 0 1024 1024"><path d="M426.666667 85.333333H213.333333a128 128 0 0 0-128 128v554.666667a128 128 0 0 0 128 128h213.333334a128 128 0 0 0 128-128V213.333333a128 128 0 0 0-128-128zM170.666667 213.333333a42.666667 42.666667 0 0 1 42.666666-42.666666h213.333334a42.666667 42.666667 0 0 1 42.666666 42.666666v554.666667a42.666667 42.666667 0 0 1-42.666666 42.666667H213.333333a42.666667 42.666667 0 0 1-42.666666-42.666667v-42.666667h128a42.666667 42.666667 0 1 0 0-85.333333H170.666667v-85.333333h128a42.666667 42.666667 0 1 0 0-85.333334H170.666667V341.333333h128a42.666667 42.666667 0 0 0 0-85.333333H170.666667V213.333333z m489.386666 49.152a42.666667 42.666667 0 0 1 58.794667 13.568c41.813333 66.944 95.189333 239.232 1.962667 425.685334a42.666667 42.666667 0 1 1-76.288-38.144c77.44-154.88 31.232-295.466667 1.962666-342.314667a42.666667 42.666667 0 0 1 13.568-58.794667z m180.778667-122.026666a42.666667 42.666667 0 1 0-60.330667 60.373333C832.768 253.098667 874.666667 351.274667 874.666667 469.333333c0 116.821333-41.386667 240.128-98.133334 315.733334a42.666667 42.666667 0 1 0 68.266667 51.2c71.253333-95.061333 115.2-238.421333 115.2-366.933334 0-127.274667-43.392-253.098667-119.168-328.832z"  ></path></svg>