<?xml version="1.0" standalone="no"?><svg xmlns="http://www.w3.org/2000/svg" class="icon"  id="Xz-dout" viewBox="0 0 1024 1024"><path d="M938.666667 240.469333C938.666667 154.752 866.56 85.333333 777.472 85.333333H246.528C157.44 85.333333 85.333333 154.752 85.333333 240.469333v543.061334C85.333333 869.248 157.44 938.666667 246.528 938.666667h530.944C866.56 938.666667 938.666667 869.248 938.666667 783.530667V240.469333zM253.013333 170.666667h520.746667c44.629333 0 80.981333 34.816 80.981333 78.08v526.506666c0 43.264-36.352 78.08-80.981333 78.08H253.013333c-44.629333 0-80.938667-34.816-80.938666-78.08V248.746667C172.074667 205.44 208.384 170.666667 253.013333 170.666667z m349.226667 492.928a151.296 151.296 0 0 1-50.048-38.912l-0.042667-0.085334a172.373333 172.373333 0 0 1-30.08-54.357333A189.184 189.184 0 0 1 512 509.269333c0-20.778667 3.370667-40.96 10.112-60.586666 6.741333-20.010667 16.810667-38.016 30.08-54.016 13.525333-16.213333 30.293333-29.013333 50.133333-38.528 20.352-10.026667 43.52-14.805333 69.077334-14.805334s48.682667 4.778667 69.034666 14.805334c19.84 9.472 36.608 22.314667 50.133334 38.528 13.312 16 23.338667 34.005333 30.122666 54.016a189.056 189.056 0 0 1 0 121.557333 172.373333 172.373333 0 0 1-30.037333 54.357333l-0.085333 0.085334c-13.525333 16.213333-30.293333 29.184-50.048 38.912l-0.170667 0.085333c-20.309333 9.685333-43.434667 14.336-68.949333 14.336-25.6 0-48.64-4.650667-68.992-14.336l-0.170667-0.085333z m69.12 0.853333c-23.893333 0-44.928-4.352-63.104-13.013333 18.176 8.661333 39.253333 13.013333 63.146667 13.013333 23.893333 0 44.928-4.352 63.146666-13.056 18.133333-8.96 33.365333-20.736 45.568-35.413333a158.72 158.72 0 0 0 27.733334-50.090667c6.229333-18.474667 9.344-37.333333 9.344-56.618667l0 0c0 19.285333-3.114667 38.144-9.386667 56.618667a158.805333 158.805333 0 0 1-27.690667 50.090667c-12.202667 14.677333-27.392 26.453333-45.610666 35.413333-18.176 8.704-39.253333 13.056-63.146667 13.056z m67.242667-81.834667a104.96 104.96 0 0 0 18.048-33.578666 127.104 127.104 0 0 0 0-78.634667v-0.085333a104.96 104.96 0 0 0-18.048-33.578667l-0.128-0.170667c-7.424-9.472-16.64-17.066667-27.946667-22.656a86.314667 86.314667 0 0 0-39.125333-8.362666c-15.36 0-28.288 2.901333-39.168 8.362666-11.264 5.632-20.693333 13.226667-28.416 22.741334-7.637333 9.813333-13.525333 20.992-17.664 33.706666h-0.042667a127.104 127.104 0 0 0 0 78.634667c4.181333 12.714667 10.069333 23.893333 17.706667 33.706667 7.68 9.557333 17.152 17.109333 28.416 22.784 10.88 5.418667 23.808 8.32 39.168 8.32s28.288-2.901333 39.125333-8.32c11.264-5.674667 20.565333-13.226667 27.946667-22.698667l0.128-0.170667z m-145.408 8.533334a123.221333 123.221333 0 0 1-19.968-37.888 140.629333 140.629333 0 0 1 0-87.168c4.608-14.08 11.264-26.752 19.968-37.845334a98.133333 98.133333 0 0 1 32.981333-26.496 99.84 99.84 0 0 1 45.226667-9.813333l0 0c-17.109333 0-32.213333 3.285333-45.226667 9.813333a98.133333 98.133333 0 0 0-32.981333 26.453334c-8.704 11.136-15.36 23.765333-19.968 37.888a140.672 140.672 0 0 0 0 87.168c4.608 14.08 11.264 26.752 19.968 37.888z m-205.397334 57.216c17.92-8.704 32.853333-20.224 44.8-34.602667 11.946667-14.421333 20.906667-30.549333 26.88-48.469333a172.8 172.8 0 0 0 0-109.994667 148.906667 148.906667 0 0 0-26.88-48.469333 128.042667 128.042667 0 0 0-44.8-34.218667c-17.92-8.661333-38.954667-13.013333-63.146666-13.013333H226.986667h97.706666c24.192 0 45.226667 4.352 63.146667 13.013333 17.92 8.448 32.853333 19.84 44.8 34.218667 11.946667 14.421333 20.906667 30.549333 26.88 48.469333a172.8 172.8 0 0 1 0 109.994667c-5.973333 17.92-14.933333 34.048-26.88 48.469333-11.946667 14.378667-26.88 25.898667-44.8 34.602667zM266.837333 394.666667v231.338666H322.986667 266.837333V394.666667zM213.333333 674.56v-328.533333h111.36c25.728 0 48.853333 4.608 68.949334 14.336 19.584 9.216 36.096 21.802667 49.408 37.802666 13.013333 15.701333 22.784 33.365333 29.312 52.864a186.368 186.368 0 0 1 0 118.528 162.56 162.56 0 0 1-29.312 52.864c-13.269333 15.957333-29.781333 28.672-49.322667 38.144l-0.170667 0.085334c-20.053333 9.429333-43.178667 13.909333-68.906666 13.909333H213.333333z m149.76-70.570667c11.605333-5.674667 20.992-13.141333 28.330667-22.357333h0.042667c7.893333-9.813333 13.738667-20.778667 17.578666-33.024a127.146667 127.146667 0 0 0 0-76.629333 95.232 95.232 0 0 0-17.493333-32.469334l-0.213333-0.298666a79.573333 79.573333 0 0 0-28.245334-22.613334l-0.128-0.042666c-10.794667-5.418667-23.936-8.362667-39.936-8.362667h-42.666666v204.202667h42.666666c16 0 29.184-2.986667 39.936-8.362667h0.128z"  ></path></svg>