<?xml version="1.0" standalone="no"?><svg xmlns="http://www.w3.org/2000/svg" class="icon"  id="Xz-digital-TWO" viewBox="0 0 1024 1024"><path d="M930.304 1000.96H93.696c-39.424 0-71.168-31.744-71.168-71.168V93.696c0-39.424 31.744-71.168 71.168-71.168h836.096c39.424 0 71.168 31.744 71.168 71.168v836.096c0 39.424-31.744 71.168-70.656 71.168zM93.696 43.52c-27.648 0-50.688 22.528-50.688 50.688v836.096c0 27.648 22.528 50.688 50.688 50.688h836.096c27.648 0 50.688-22.528 50.688-50.688V93.696c0-27.648-22.528-50.688-50.688-50.688H93.696z" fill="#9AB9CD" ></path><path d="M504.32 215.552h15.872v592.896h-15.872V215.552z" fill="#9AB9CD" ></path><path d="M481.28 192.512h61.952v638.976H481.28z" fill="#9AB9CD" ></path></svg>