<?xml version="1.0" standalone="no"?><svg xmlns="http://www.w3.org/2000/svg" class="icon"  id="Xz-eventPlan-3" viewBox="0 0 1024 1024"><path d="M407.381333 143.36a359.594667 359.594667 0 0 0-5.248 200.149333 355.328 355.328 0 0 0 102.442667 171.093334 346.752 346.752 0 0 0 177.408 87.296 343.936 343.936 0 0 0 195.712-24.277334c34.389333-15.146667 70.272 18.005333 58.794667 54.186667a442.752 442.752 0 0 1-158.421334 222.037333A431.658667 431.658667 0 0 1 521.386667 938.666667C280.576 938.666667 85.333333 740.394667 85.333333 495.786667 85.333333 317.44 190.122667 158.634667 348.544 89.088c34.432-15.146667 70.272 18.005333 58.837333 54.186667v0.085333zM304.64 218.026667l-3.328 2.688a353.450667 353.450667 0 0 0-92.8 118.613333 358.826667 358.826667 0 0 0-7.253333 295.936 354.218667 354.218667 0 0 0 86.826666 123.178667 347.562667 347.562667 0 0 0 129.578667 75.093333 343.765333 343.765333 0 0 0 289.066667-37.845333 351.402667 351.402667 0 0 0 106.666666-105.984l0.768-1.28-3.498666 0.725333c-17.493333 2.901333-35.328 4.778667-53.248 5.504l-18.005334 0.384c-240.810667 0-436.053333-198.272-436.053333-442.88 0-5.845333 0.128-11.648 0.341333-17.450667l0.938667-16.64z m587.392-76.544c41.216 0 59.434667 52.693333 27.264 78.848l-121.045333 98.304h93.781333c10.666667 0 20.992 3.968 29.013333 11.178666 7.936 7.253333 13.056 17.152 14.293334 27.946667l0.298666 5.162667c0 11.733333-4.565333 23.04-12.8 31.317333a43.264 43.264 0 0 1-30.805333 12.970667h-218.026667c-41.216 0-59.434667-52.693333-27.264-78.890667l121.002667-98.304h-79.36c-10.666667 0-20.992-3.968-28.970667-11.178667a44.501333 44.501333 0 0 1-14.293333-27.904l-0.341333-5.12c0-11.776 4.608-23.04 12.8-31.36 8.149333-8.32 19.242667-12.970667 30.805333-12.970666h203.648z"  ></path></svg>