<?xml version="1.0" standalone="no"?><svg xmlns="http://www.w3.org/2000/svg" class="icon"  id="Xz-eventPlan-1" viewBox="0 0 1024 1024"><path d="M853.333333 240.469333C853.333333 154.752 781.226667 85.333333 692.138667 85.333333H289.194667C200.106667 85.333333 128 154.752 128 240.469333v543.061334C128 869.248 200.106667 938.666667 289.194667 938.666667h402.944C781.226667 938.666667 853.333333 869.248 853.333333 783.530667V240.469333zM372.992 170.666667h316.245333C732.544 170.666667 768 204.8 768 246.528v530.944C768 819.2 732.544 853.333333 689.237333 853.333333H372.992l129.664-50.048c59.904-22.826667 99.157333-78.677333 98.858667-140.714666v-102.272h37.248l-0.810667 1.834666a26.88 26.88 0 0 0 44.714667 27.306667v0.042667l37.077333-37.077334a26.922667 26.922667 0 0 0 0-38.058666L682.666667 477.269333a26.88 26.88 0 0 0-38.101334 0l-2.773333 3.328-2.218667 3.925334a27.477333 27.477333 0 0 0-1.450666 20.352l0.64 1.578666h-37.248V361.386667c0-62.592-38.997333-117.546667-98.858667-140.714667L372.992 170.666667zM213.205333 260.693333c0.170667-17.621333 6.954667-34.56 19.029334-47.36l238.464 90.24c28.672 11.136 46.933333 37.333333 46.933333 66.773334v285.013333c0 29.44-18.261333 55.68-46.976 66.773333L232.234667 810.666667a69.845333 69.845333 0 0 1-19.029334-47.36V260.693333zM426.666667 426.666667c0-23.466667-19.2-42.666667-42.666667-42.666667s-42.666667 19.2-42.666667 42.666667v85.333333c0 23.466667 19.2 42.666667 42.666667 42.666667s42.666667-19.2 42.666667-42.666667v-85.333333z"  ></path></svg>