<?xml version="1.0" standalone="no"?><svg xmlns="http://www.w3.org/2000/svg" class="icon"  id="Xz-eventPlan-2" viewBox="0 0 1024 1024"><path d="M535.68 92.501333a42.666667 42.666667 0 0 0-47.36 0l-384 256A42.666667 42.666667 0 0 0 85.333333 384v512a42.666667 42.666667 0 0 0 42.666667 42.666667h768a42.666667 42.666667 0 0 0 42.666667-42.666667V384a42.666667 42.666667 0 0 0-18.986667-35.498667l-384-256zM853.333333 853.333333h-170.666666v-256a42.666667 42.666667 0 0 0-42.666667-42.666666H384a42.666667 42.666667 0 0 0-42.666667 42.666666v256H170.666667V406.826667l341.333333-227.541334 341.333333 227.541334V853.333333z m-256 0h-170.666666v-213.333333h170.666666v213.333333z"  ></path></svg>