<?xml version="1.0" standalone="no"?><svg xmlns="http://www.w3.org/2000/svg" class="icon"  id="Xz-eventPlan-0" viewBox="0 0 1024 1024"><path d="M512 144.682667A51.029333 51.029333 0 1 0 512 42.666667a51.029333 51.029333 0 0 0 0 102.016zM819.925333 512a307.925333 307.925333 0 1 0-615.850666 0 307.925333 307.925333 0 0 0 615.850666 0zM289.408 512a222.592 222.592 0 1 1 445.184 0 222.592 222.592 0 0 1-445.184 0zM858.88 216.106667a51.029333 51.029333 0 1 1-101.973333 0 51.029333 51.029333 0 0 1 101.973333 0z m71.424 346.88a51.029333 51.029333 0 1 0 0-101.973334 51.029333 51.029333 0 0 0 0 101.973334z m-71.424 244.906666a51.029333 51.029333 0 1 1-101.973333 0 51.029333 51.029333 0 0 1 101.973333 0zM512 981.333333a51.029333 51.029333 0 1 0 0-102.016A51.029333 51.029333 0 0 0 512 981.333333z m-244.906667-173.44a51.029333 51.029333 0 1 1-101.973333 0 51.029333 51.029333 0 0 1 101.973333 0z m-173.397333-244.906666a51.029333 51.029333 0 1 0 0-101.973334 51.029333 51.029333 0 0 0 0 101.973334z m173.44-346.88a51.029333 51.029333 0 1 1-102.016 0 51.029333 51.029333 0 0 1 101.973333 0z"  ></path></svg>