<?xml version="1.0" standalone="no"?><svg xmlns="http://www.w3.org/2000/svg" class="icon"  id="Xz-electricPower" viewBox="0 0 1024 1024"><path d="M832 85.333333A106.666667 106.666667 0 0 1 938.666667 192v640a106.666667 106.666667 0 0 1-106.666667 106.666667h-640A106.666667 106.666667 0 0 1 85.333333 832v-640A106.666667 106.666667 0 0 1 192 85.333333h640z m0 85.333334h-640a21.333333 21.333333 0 0 0-21.333333 21.333333v640a21.333333 21.333333 0 0 0 21.333333 21.333333h640a21.333333 21.333333 0 0 0 21.333333-21.333333v-640a21.333333 21.333333 0 0 0-21.333333-21.333333z m-76.501333 204.501333a42.666667 42.666667 0 0 0-60.330667 0l-131.2 131.114667-57.6-100.778667a42.666667 42.666667 0 0 0-67.2-9.002667l-170.666667 170.666667a42.666667 42.666667 0 0 0 0 60.330667l4.010667 3.541333a42.666667 42.666667 0 0 0 56.32-3.541333l131.157333-131.157334 57.6 100.821334a42.666667 42.666667 0 0 0 67.242667 9.002666l170.666667-170.666666a42.666667 42.666667 0 0 0 0-60.330667z"  ></path></svg>