<?xml version="1.0" standalone="no"?><svg xmlns="http://www.w3.org/2000/svg" class="icon"  id="Xz-freezeProtectionStatus-TWO" viewBox="0 0 1024 1024"><path d="M543.616 92.032l308.48 137.514667a77.653333 77.653333 0 0 1 45.994667 70.912v207.744c0 9.258667-0.256 18.389333-0.853334 27.434666a256.085333 256.085333 0 0 0-76.8-48.042666V300.458667L512 162.986667l-308.48 137.472v207.744c0 144.469333 95.488 257.28 298.794667 342.826666a257.194667 257.194667 0 0 0 57.045333 69.162667 1114.453333 1114.453333 0 0 1-33.322667 13.141333L512 938.666667l-13.866667-5.461334c-246.869333-97.237333-372.309333-238.293333-372.309333-425.002666V300.458667A77.653333 77.653333 0 0 1 171.946667 229.546667l308.437333-137.472a77.653333 77.653333 0 0 1 63.189333 0h0.085334z m145.706667 363.306667c7.936 1.706667 13.824 7.594667 15.914666 14.762666a254.549333 254.549333 0 0 0-71.936 16.256l-43.818666-9.642666-53.973334 30.933333 30.378667 17.408a257.578667 257.578667 0 0 0-32.170667 30.506667l-15.104-8.661334v27.392a254.592 254.592 0 0 0-47.445333 120.234667v-19.157333l-27.605333 27.434666a21.461333 21.461333 0 0 1-28.16 1.706667l-2.048-1.706667a21.034667 21.034667 0 0 1 0-29.994666l57.856-57.301334v-71.04l-57.984 33.152-28.586667 85.12a21.376 21.376 0 0 1-40.533333-13.397333l13.397333-39.808-38.826667 22.229333a21.418667 21.418667 0 0 1-31.829333-15.573333 21.077333 21.077333 0 0 1 10.496-21.12l43.52-24.917333-45.141333-9.941334a21.162667 21.162667 0 0 1-16.64-22.826666l0.426666-2.432a21.333333 21.333333 0 0 1 25.472-16.085334l90.538667 20.010667 54.485333-31.232-54.186666-31.061333-90.837334 20.138666a21.12 21.12 0 1 1-9.258666-41.386666l45.397333-10.069334L297.386667 420.266667a21.077333 21.077333 0 0 1 5.205333-38.826667 21.418667 21.418667 0 0 1 16.128 2.133333l38.698667 22.101334-13.312-39.424a21.12 21.12 0 0 1 11.221333-25.856l2.346667-0.938667a21.418667 21.418667 0 0 1 27.008 13.397333l28.458666 84.778667 58.026667 33.194667V400.042667L413.44 342.741333a21.034667 21.034667 0 0 1 0-29.909333 21.461333 21.461333 0 0 1 30.208 0l27.605333 27.349333V296.021333c0-11.690667 10.666667-21.162667 23.722667-21.162666l-0.042667-0.042667c13.141333 0 23.722667 9.514667 23.722667 21.205333v39.424l22.912-22.613333a21.461333 21.461333 0 0 1 28.16-1.792l2.005333 1.792a21.034667 21.034667 0 0 1 0 29.909333l-53.077333 52.565334v73.088l53.205333-30.421334 28.586667-85.12a21.418667 21.418667 0 0 1 41.557333 5.162667 21.077333 21.077333 0 0 1-1.024 8.234667l-13.44 39.808 38.826667-22.272a21.504 21.504 0 0 1 31.872 15.616 21.077333 21.077333 0 0 1-10.496 21.077333l-43.52 24.832 45.141333 10.026667z m36.010666 123.733333a146.304 146.304 0 1 1 0 292.565333 146.304 146.304 0 0 1 0-292.608zM944.768 725.333333a219.434667 219.434667 0 1 0-438.869333 0 219.434667 219.434667 0 0 0 438.869333 0z m-182.869333-74.368a36.565333 36.565333 0 0 0-73.130667 0v54.869334a36.565333 36.565333 0 1 0 73.130667 0v-54.869334zM725.333333 841.130667A36.565333 36.565333 0 1 0 725.333333 768a36.565333 36.565333 0 0 0 0 73.130667z"  ></path></svg>