<?xml version="1.0" standalone="no"?><svg xmlns="http://www.w3.org/2000/svg" class="icon"  id="Xz-fanStatus-2" viewBox="0 0 1024 1024"><path d="M339.2 362.666667a42.666667 42.666667 0 0 0 0-85.333334H264.149333l2.432-2.645333a340.693333 340.693333 0 0 1 233.130667-103.808L512 170.666667a341.077333 341.077333 0 0 1 204.885333 68.010666 42.666667 42.666667 0 0 0 51.072-68.352A426.368 426.368 0 0 0 512 85.333333a426.453333 426.453333 0 0 0-369.578667 213.333334 42.666667 42.666667 0 0 0 36.949334 64H339.2zM682.666667 903.168c154.197333-67.413333 256-219.946667 256-391.168 0-75.946667-19.882667-149.034667-57.088-213.333333a42.666667 42.666667 0 0 0-73.898667 0l-77.653333 134.4a42.666667 42.666667 0 0 0 73.941333 42.666666l35.242667-61.098666 0.64 1.962666c7.68 26.496 12.117333 53.845333 13.226666 81.408L853.333333 512a341.418667 341.418667 0 0 1-204.8 312.96 42.666667 42.666667 0 0 0 34.133334 78.208zM512 669.866667a157.866667 157.866667 0 1 0 0-315.733334 157.866667 157.866667 0 0 0 0 315.733334z m0 268.8a42.666667 42.666667 0 0 0 36.949333-64l-77.653333-134.4a42.666667 42.666667 0 0 0-73.856 42.666666l35.242667 61.141334-3.2-0.768a341.504 341.504 0 0 1-258.645334-320.682667L170.666667 512c0-11.52 0.554667-22.869333 1.706666-34.176A42.666667 42.666667 0 1 0 87.466667 469.333333 417.706667 417.706667 0 0 0 85.333333 512c0 235.648 191.018667 426.666667 426.666667 426.666667z m0-354.133334a72.533333 72.533333 0 1 1 0-145.066666 72.533333 72.533333 0 0 1 0 145.066666z"  ></path></svg>