<?xml version="1.0" standalone="no"?><svg xmlns="http://www.w3.org/2000/svg" class="icon"  id="Xz-freezeProtectionStatus" viewBox="0 0 1024 1024"><path d="M545.792 92.032l308.437333 137.472A77.653333 77.653333 0 0 1 900.266667 300.458667v207.701333c0 191.146667-125.226667 332.245333-372.138667 425.173333l-13.952 5.248-13.909333-5.461333C253.44 835.882667 128 694.826667 128 508.16V300.416a77.653333 77.653333 0 0 1 46.08-70.954667l308.394667-137.429333a77.653333 77.653333 0 0 1 63.232 0l0.085333-0.042667z m-31.701333 70.912L205.653333 300.458667v207.701333c0 150.101333 103.04 266.026667 323.029334 352.725333l-13.866667-5.674666c205.098667-80.341333 303.402667-190.890667 307.626667-337.066667l0.170666-10.026667V300.458667l-308.48-137.514667h-0.042666z m-17.066667 111.829333c13.141333 0 23.765333 9.514667 23.765333 21.205334v39.424l22.912-22.613334a21.461333 21.461333 0 0 1 28.16-1.792l1.962667 1.792a21.034667 21.034667 0 0 1 0 29.952l-53.034667 52.565334v73.045333l53.162667-30.421333 28.586667-85.12a21.376 21.376 0 0 1 40.533333 13.397333l-13.44 39.808 38.869333-22.272a21.504 21.504 0 0 1 31.872 15.616 21.077333 21.077333 0 0 1-10.496 21.077333l-43.52 24.874667 45.141334 10.026667a21.12 21.12 0 0 1 16.64 22.826666l-0.426667 2.432a21.333333 21.333333 0 0 1-25.472 16.085334l-90.624-20.010667-53.973333 30.933333 54.357333 31.146667 90.24-19.925333a21.12 21.12 0 0 1 16.853333 37.973333 21.077333 21.077333 0 0 1-7.552 3.413333l-44.842666 9.813334 44.117333 25.258666a21.077333 21.077333 0 0 1-5.205333 38.826667 21.461333 21.461333 0 0 1-16.170667-2.133333l-39.893333-22.869334 13.525333 40.192a21.12 21.12 0 0 1-11.178667 25.898667l-2.346666 0.853333a21.418667 21.418667 0 0 1-27.008-13.354666l-28.714667-85.461334-53.034667-30.378666v73.386666l53.077334 52.522667a20.992 20.992 0 0 1 0 29.994667 21.461333 21.461333 0 0 1-30.208 0l-22.869334-22.656v39.424c0 11.690667-10.624 21.205333-23.722666 21.205333-13.098667 0-23.722667-9.514667-23.722667-21.205333v-44.202667l-27.605333 27.434667a21.461333 21.461333 0 0 1-28.202667 1.706666l-2.005333-1.706666a21.077333 21.077333 0 0 1 0-29.994667l57.813333-57.301333V544.426667l-57.941333 33.152-28.586667 85.12a21.376 21.376 0 0 1-40.533333-13.397334l13.354666-39.808-38.784 22.272a21.418667 21.418667 0 0 1-31.829333-15.616 21.077333 21.077333 0 0 1 10.453333-21.077333l43.52-24.96-45.141333-9.941333a21.162667 21.162667 0 0 1-16.64-22.826667l0.426667-2.432a21.333333 21.333333 0 0 1 25.514666-16.085333l90.538667 20.010666 54.485333-31.232-54.186666-31.061333-90.88 20.138667a21.12 21.12 0 1 1-9.258667-41.386667l45.44-10.069333-43.776-25.002667a21.077333 21.077333 0 0 1 5.205333-38.826667 21.418667 21.418667 0 0 1 16.170667 2.133334l38.656 22.144-13.269333-39.466667a21.12 21.12 0 0 1 11.221333-25.856l2.346667-0.938667a21.418667 21.418667 0 0 1 26.965333 13.397334l28.501333 84.778666 58.026667 33.237334v-70.826667L415.573333 342.784a21.034667 21.034667 0 0 1 0-29.952 21.461333 21.461333 0 0 1 30.208 0l27.648 27.349333V295.978667c0-11.690667 10.624-21.162667 23.68-21.162667V274.773333z"  ></path></svg>