<?xml version="1.0" standalone="no"?><svg xmlns="http://www.w3.org/2000/svg" class="icon"  id="Xz-fanStatus-1" viewBox="0 0 1024 1024"><path d="M533.333333 85.333333c20.650667 0 40.704 2.688 59.733334 7.68C790.016 130.901333 938.666667 304.085333 938.666667 512c0 5.376-0.085333 10.752-0.298667 16.085333 0.170667 1.706667 0.298667 3.456 0.298667 5.248 0 20.650667-2.688 40.704-7.68 59.733334-35.968 186.88-193.877333 330.410667-387.669334 344.448A45.226667 45.226667 0 0 1 533.333333 938.666667l-8.746666-0.170667A410.88 410.88 0 0 1 512 938.666667c-225.109333 0-409.514667-174.336-425.557333-395.392A44.885333 44.885333 0 0 1 85.333333 533.333333l0.170667-8.704A432.64 432.64 0 0 1 85.333333 512C85.333333 276.352 276.352 85.333333 512 85.333333c5.376 0 10.752 0.085333 16.085333 0.298667 1.706667-0.170667 3.456-0.298667 5.248-0.298667z m-61.44 482.56a149.333333 149.333333 0 0 0 52.992 285.184 340.010667 340.010667 0 0 0 216.106667-87.936 234.666667 234.666667 0 0 1-269.098667-197.248zM320 384a149.333333 149.333333 0 0 0-149.077333 140.885333A340.949333 340.949333 0 0 0 315.306667 791.04a234.752 234.752 0 0 1 144.512-309.973333A149.333333 149.333333 0 0 0 320 384z m445.141333-100.992l1.194667 8.96a234.666667 234.666667 0 0 1-210.261333 261.589333 149.333333 149.333333 0 0 0 291.712 20.224c3.626667-20.053333 5.546667-40.704 5.546666-61.781333a340.053333 340.053333 0 0 0-88.192-228.992zM512 170.666667a340.906667 340.906667 0 0 0-279.04 144.682666 234.752 234.752 0 0 1 312.704 153.429334 149.248 149.248 0 0 0 28.117333-292.565334A346.624 346.624 0 0 0 512 170.666667z"  ></path></svg>