<?xml version="1.0" standalone="no"?><svg xmlns="http://www.w3.org/2000/svg" class="icon"  id="Xz-fanStatus-0" viewBox="0 0 1024 1024"><path d="M818.090667 380.842667c130.56 105.984 152.490667 300.970667 48.938666 434.432-57.856 74.538667-143.957333 117.077333-236.885333 117.077333h-4.352a37.376 37.376 0 0 1-36.352-38.272 37.333333 37.333333 0 0 1 36.906667-37.205333h3.84c70.272 0 135.253333-32.213333 179.072-88.533334 78.293333-101.034667 61.824-248.490667-36.864-328.618666a224.128 224.128 0 0 0-167.168-49.152 308.906667 308.906667 0 0 1 51.925333 68.949333c82.090667 148.48 30.890667 337.621333-114.133333 421.674667a295.338667 295.338667 0 0 1-148.394667 40.277333 298.965333 298.965333 0 0 1-81.194667-11.349333c-77.866667-22.058667-142.549333-73.856-182.357333-145.749334a313.770667 313.770667 0 0 1-15.36-272.768 36.693333 36.693333 0 0 1 48.298667-20.053333 38.186667 38.186667 0 0 1 19.626666 49.450667 237.226667 237.226667 0 0 0 11.648 206.293333c62.122667 112.298667 201.813333 151.893333 311.424 88.32a231.594667 231.594667 0 0 0 101.589334-122.88 295.466667 295.466667 0 0 1-117.034667 17.152c-80.64-4.778667-154.496-41.472-208.213333-103.168a311.893333 311.893333 0 0 1-75.946667-223.658667 309.888 309.888 0 0 1 100.821333-213.12 295.893333 295.893333 0 0 1 218.496-77.738666c94.293333 5.546667 178.858667 54.698667 232.149334 134.613333a38.314667 38.314667 0 0 1-9.685334 52.48 36.437333 36.437333 0 0 1-51.285333-9.941333c-40.234667-60.458667-104.32-97.706667-175.616-101.888a223.658667 223.658667 0 0 0-165.162667 58.794666 234.666667 234.666667 0 0 0-76.245333 161.109334 235.648 235.648 0 0 0 55.424 166.570666 312.405333 312.405333 0 0 1 57.429333-123.178666 302.250667 302.250667 0 0 1 116.352-91.52c1.109333-0.512 2.133333-1.066667 3.370667-1.365334a295.936 295.936 0 0 1 304.938667 42.965334z m-195.797334 224.64a234.88 234.88 0 0 0-29.568-108.629334 230.826667 230.826667 0 0 0-72.234666-78.933333 229.546667 229.546667 0 0 0-69.376 59.776 236.288 236.288 0 0 0-47.872 117.504 38.741333 38.741333 0 0 1-3.541334 11.264 223.445333 223.445333 0 0 0 217.173334 0.725333c1.706667-0.938667 3.669333-1.024 5.418666-1.706666z"  ></path></svg>