<?xml version="1.0" standalone="no"?><svg xmlns="http://www.w3.org/2000/svg" class="icon"  id="Xz-geofenceAlert-TWO" viewBox="0 0 1024 1024"><path d="M805.76 257.706667c17.578667-25.002667 29.738667-45.525333 37.333333-62.122667 7.808-16.938667 9.685333-27.178667 9.685334-32.426667A77.397333 77.397333 0 0 0 775.808 85.333333c-42.24 0-76.970667 34.56-76.970667 77.824 0 5.205333 1.877333 15.445333 9.685334 32.426667 7.594667 16.597333 19.754667 37.12 37.333333 62.122667 10.666667 15.146667 21.248 28.928 29.952 39.893333 8.704-10.965333 19.285333-24.746667 29.952-39.893333z m-29.952 97.834666a15.786667 15.786667 0 0 1-11.946667-5.418666l-0.128-0.213334a915.072 915.072 0 0 1-52.778666-67.669333A660.48 660.48 0 0 1 693.376 256H375.466667l25.6-85.333333h255.530666c-0.298667-2.56-0.426667-5.12-0.426666-7.509334A120.064 120.064 0 0 1 775.808 42.666667a120.064 120.064 0 0 1 119.637333 120.490666c0 13.994667-4.565333 30.848-13.824 50.816A170.24 170.24 0 0 1 938.666667 341.333333v93.866667l-85.333334-25.6V341.333333c0-19.626667-6.613333-37.632-17.706666-52.053333a915.328 915.328 0 0 1-47.616 60.501333l-0.298667 0.341334a15.786667 15.786667 0 0 1-11.904 5.418666zM823.466667 170.666667a42.666667 42.666667 0 1 1-85.333334 0 42.666667 42.666667 0 0 1 85.333334 0zM256 170.666667h81.066667l-25.6 85.333333H256a85.333333 85.333333 0 0 0-85.333333 85.333333v269.824l-85.333334-25.6V341.333333a170.666667 170.666667 0 0 1 170.666667-170.666666zM85.333333 649.557333l85.333334 25.6V810.666667a85.333333 85.333333 0 0 0 85.333333 85.333333h74.538667l-52.693334 85.333333H256a170.666667 170.666667 0 0 1-170.666667-170.666666v-161.109334zM349.909333 981.333333H768a170.368 170.368 0 0 0 134.954667-66.176l-95.701334-28.714666A84.906667 84.906667 0 0 1 768 896H402.602667l-52.693334 85.333333z m581.589334-121.6l-81.749334-24.533333c2.346667-7.765333 3.584-16 3.584-24.533333v-337.066667l85.333334 25.6V810.666667a170.666667 170.666667 0 0 1-7.168 49.066666z m-199.765334-218.666666l31.402667 6.229333a257.365333 257.365333 0 0 0 0-99.925333l-31.402667 6.229333-31.402666 6.186667a193.109333 193.109333 0 0 1 0 75.093333l31.402666 6.186667z m-27.776-171.946667l20.906667-14.037333a257.450667 257.450667 0 0 0-70.613333-70.613334l-17.834667 26.581334-17.792 26.581333c7.253333 4.864 14.208 10.24 20.778667 16.042667l-9.728 21.333333h-122.112l19.541333-69.12c7.68 0.64 15.146667 1.664 22.442667 3.114667l6.186666-31.402667 6.229334-31.402667a257.28 257.28 0 0 0-99.925334 0l6.229334 31.402667 3.712 18.901333-22.442667 80.042667-52.138667-50.858667-9.813333-14.634666-17.834667-26.581334a257.408 257.408 0 0 0-70.613333 70.613334l26.581333 17.834666 26.581334 17.792c1.237333-1.834667 2.474667-3.669333 3.797333-5.461333l86.4 51.2-3.413333 29.610667H322.474667c0.341333-2.133333 0.725333-4.181333 1.152-6.272l-31.402667-6.186667-31.402667-6.229333a257.28 257.28 0 0 0 0 99.925333l31.402667-6.229333 31.402667-6.186667a193.194667 193.194667 0 0 1-1.152-6.272h123.221333l174.549333 127.274667-1.664 1.152 17.792 26.581333 17.834667 26.581333a257.493333 257.493333 0 0 0 70.613333-70.613333l-26.581333-17.834667-26.581333-17.792a145.152 145.152 0 0 1-1.834667 2.730667l-174.08-113.962667 6.4-54.741333 8.96 0.213333 0.085333-0.853333h132.010667L682.666667 512l13.952-37.973333 1.706666-1.109334 5.290667-3.584h0.384l-0.085333-0.213333z m-378.24 252.629333l-26.581333 17.834667a257.450667 257.450667 0 0 0 70.613333 70.613333l17.834667-26.581333 17.792-26.581333a193.365333 193.365333 0 0 1-53.077333-53.077334l-26.581334 17.834667z m142.506667 95.317334l-6.186667 31.402666a257.365333 257.365333 0 0 0 99.925334 0l-6.229334-31.402666-6.186666-31.402667a193.109333 193.109333 0 0 1-75.093334 0l-6.186666 31.402667z"  ></path></svg>