<?xml version="1.0" standalone="no"?><svg xmlns="http://www.w3.org/2000/svg" class="icon"  id="Xz-geofenceAlert" viewBox="0 0 1024 1024"><path d="M256 85.333333h81.066667l-25.6 85.333334H256a85.333333 85.333333 0 0 0-85.333333 85.333333v269.824l-85.333334-25.6V256a170.666667 170.666667 0 0 1 170.666667-170.666667zM85.333333 564.224l85.333334 25.6V725.333333a85.333333 85.333333 0 0 0 85.333333 85.333334h74.538667l-52.693334 85.333333H256a170.666667 170.666667 0 0 1-170.666667-170.666667v-161.109333zM349.909333 896H768a170.368 170.368 0 0 0 134.954667-66.176l-95.701334-28.714667A84.906667 84.906667 0 0 1 768 810.666667H402.602667l-52.693334 85.333333z m581.589334-121.6l-81.749334-24.533333c2.346667-7.765333 3.584-16 3.584-24.533334V388.266667l85.333334 25.6V725.333333a170.666667 170.666667 0 0 1-7.168 49.066667zM938.666667 349.866667V256a170.666667 170.666667 0 0 0-170.666667-170.666667H401.066667l-25.6 85.333334H768a85.333333 85.333333 0 0 1 85.333333 85.333333v68.266667l85.333334 25.6z m-175.530667 212.096l-31.402667-6.229334-31.402666-6.186666a193.109333 193.109333 0 0 0 3.285333-49.664c-9.088 11.264-15.573333 18.773333-17.066667 20.565333l-0.341333 0.341333a15.872 15.872 0 0 1-23.808 0l-0.213333-0.213333c-2.474667-2.858667-27.434667-31.658667-52.736-67.669333l-0.64-0.938667h-97.578667l-0.085333 0.896-8.96-0.213333-6.4 54.741333 174.08 113.92 1.834666-2.688 26.581334 17.792 26.581333 17.834667a257.493333 257.493333 0 0 1-70.613333 70.613333l-17.834667-26.581333-17.792-26.581334 1.706667-1.152-174.592-127.274666H322.56c0.341333 2.133333 0.725333 4.181333 1.152 6.272l-31.402667 6.186666-31.402666 6.229334a257.28 257.28 0 0 1 0-99.925334l31.402666 6.229334 31.402667 6.186666-1.152 6.272h116.522667l3.498666-29.568-86.442666-51.2c-1.28 1.749333-2.56 3.584-3.797334 5.418667l-26.581333-17.792-26.581333-17.834667a257.408 257.408 0 0 1 70.613333-70.613333l17.834667 26.581333 9.813333 14.634667 52.138667 50.858667 22.442666-80.042667-3.712-18.901333-6.229333-31.402667a257.28 257.28 0 0 1 99.925333 0l-6.229333 31.402667-6.186667 31.402666a191.957333 191.957333 0 0 0-22.442666-3.072l-19.541334 69.12h63.317334c-10.88-22.272-16.213333-40.746667-16.213334-55.893333A120.064 120.064 0 0 1 674.304 213.333333a120.064 120.064 0 0 1 119.637333 120.490667c0 27.733333-17.92 66.645333-54.826666 119.082667a802.986667 802.986667 0 0 1-11.648 16.213333l4.266666-0.853333 31.402667-6.229334a257.365333 257.365333 0 0 1 0 99.925334zM299.093333 654.250667l26.581334-17.834667 26.581333-17.792c14.037333 20.992 32.085333 39.04 53.077333 53.077333l-17.792 26.581334-17.834666 26.581333a257.450667 257.450667 0 0 1-70.613334-70.613333z m162.901334 108.885333l6.229333-31.402667 6.186667-31.402666a193.109333 193.109333 0 0 0 75.093333 0l6.186667 31.402666 6.229333 31.402667a257.365333 257.365333 0 0 1-99.925333 0z m242.176-334.762667c17.621333-25.002667 29.781333-45.525333 37.376-62.122666 7.808-16.938667 9.685333-27.178667 9.685333-32.426667A77.397333 77.397333 0 0 0 674.304 256C632.064 256 597.333333 290.56 597.333333 333.824c0 5.205333 1.834667 15.445333 9.642667 32.426667 7.68 16.597333 19.797333 37.12 37.376 62.122666 10.666667 15.146667 21.248 28.970667 29.952 39.893334 8.704-10.965333 19.285333-24.746667 29.909333-39.893334zM721.962667 341.333333a42.666667 42.666667 0 1 1-85.333334 0 42.666667 42.666667 0 0 1 85.333334 0z"  ></path></svg>