<?xml version="1.0" standalone="no"?><svg xmlns="http://www.w3.org/2000/svg" class="icon"  id="Xz-h2s" viewBox="0 0 1024 1024"><path d="M777.642667 375.04C738.176 277.504 648.021333 213.333333 512 213.333333l-12.330667 0.170667c-141.781333 3.712-212.266667 72.106667-253.44 191.104l-0.938666 2.773333-0.981334 0.128C142.336 420.949333 42.666667 496.213333 42.666667 629.333333c0 135.936 93.909333 202.666667 213.333333 202.666667h512c124.416 0 213.333333-74.112 213.333333-213.333333 0-95.573333-44.8-163.968-117.162666-206.208l-10.496-5.845334a308.864 308.864 0 0 0-69.333334-26.922666l-5.418666-1.28-1.28-3.370667zM318.378667 459.733333C349.696 350.08 395.776 298.666667 512 298.666667c109.568 0 171.221333 50.645333 193.621333 129.066666a42.666667 42.666667 0 0 0 36.352 30.677334c3.968 0.426667 12.373333 1.92 23.637334 4.949333 19.072 5.12 38.101333 12.629333 55.552 22.826667C868.778667 513.962667 896 555.562667 896 618.666667c0 88.32-47.616 128-128 128H256c-77.312 0-128-36.010667-128-117.333334 0-89.813333 78.165333-138.666667 149.333333-138.666666a42.666667 42.666667 0 0 0 41.045334-30.933334zM268.8 541.866667a29.866667 29.866667 0 1 1 59.733333 0v46.933333h25.6v-46.933333a29.866667 29.866667 0 1 1 59.733334 0v153.6a29.866667 29.866667 0 1 1-59.733334 0v-46.933334h-25.6v46.933334a29.866667 29.866667 0 1 1-59.733333 0v-153.6z m262.912 134.826666c-9.898667 6.058667-23.04 14.762667-23.04 14.762667h28.074667c10.752 0 17.92 6.826667 17.92 16.938667 0 10.154667-7.168 16.938667-17.92 16.938666h-75.178667c-8.874667 0-14.293333-3.413333-17.92-10.154666-3.541333-6.784 0-14.762667 7.168-20.309334l53.76-40.661333c5.845333-4.437333 7.850667-8.32 4.053333-12.117333-3.541333-3.413333-12.074667 0.64-15.658666 4.010666l-9.898667 8.106667c-7.168 3.413333-16.853333 5.333333-25.088-3.370667-7.168-6.997333-5.12-18.517333 2.048-25.301333l12.074667-9.472c17.92-13.568 44.501333-16.042667 62.421333 0.896 9.472 10.410667 12.970667 20.309333 12.970667 33.877333-1.578667 16.213333-5.888 19.754667-15.786667 25.856z m171.733333-149.034666c1.706667 3.626667 2.688 7.68 2.688 11.989333a27.392 27.392 0 0 1-27.136 27.648h-58.368a11.733333 11.733333 0 0 0-11.648 11.861333c0 6.528 5.205333 11.861333 11.648 11.861334h43.093334c2.688 0 5.290667 0.384 6.912 0.938666A66.901333 66.901333 0 0 1 725.333333 661.333333a64 64 0 0 1-64 64H596.778667a21.333333 21.333333 0 0 1-20.565334-15.786666 27.904 27.904 0 0 1-2.645333-11.861334c0-15.274667 12.16-27.648 27.136-27.648h58.666667c6.442667 0 11.648-5.333333 11.648-11.861333a11.733333 11.733333 0 0 0-11.648-11.861333h-38.784c-36.394667 0-65.92-30.08-65.92-67.157334a67.157333 67.157333 0 0 1 0-3.157333 64 64 0 0 1 64-64H682.88a21.333333 21.333333 0 0 1 20.565333 15.658667z"  ></path></svg>