<?xml version="1.0" standalone="no"?><svg xmlns="http://www.w3.org/2000/svg" class="icon"  id="Xz-humidity" viewBox="0 0 1024 1024"><path d="M512.128 128l23.210667 20.181333 1.365333 1.194667c62.933333 54.741333 97.28 87.338667 139.648 136.789333 85.76 99.882667 134.314667 200.448 134.314667 302.933334C810.666667 758.869333 676.608 896 512 896s-298.666667-137.088-298.666667-306.944c0-97.792 48.853333-197.546667 135.082667-299.136 31.573333-37.205333 65.877333-72.192 106.24-109.738667 9.813333-9.088 18.304-16.810667 34.602667-31.573333L512.128 128z m0.64 114.688c-39.808 36.992-71.253333 69.376-99.285333 102.4C336.042667 436.437333 298.666667 517.504 298.666667 589.098667 298.666667 712.021333 394.794667 810.666667 512 810.666667s213.333333-98.645333 213.333333-221.610667c0-76.288-37.034667-157.994667-113.706666-247.338667-30.293333-35.242667-55.594667-60.970667-98.304-99.2l-0.554667 0.170667z m79.189333 246.570667a95.573333 95.573333 0 0 0-88.533333 59.776h0.042667a86.272 86.272 0 0 1-80.810667 57.6 86.186667 86.186667 0 0 1-79.701333-54.613334c-1.792 10.24-2.688 20.608-2.688 31.018667 0 96.896 76.885333 175.488 171.733333 175.488 94.848 0 171.733333-78.592 171.733333-175.488 0-11.605333-1.109333-23.168-3.456-34.56a95.573333 95.573333 0 0 0-88.32-59.221333z"  ></path></svg>