<?xml version="1.0" standalone="no"?><svg xmlns="http://www.w3.org/2000/svg" class="icon"  id="Xz-hcho" viewBox="0 0 1024 1024"><path d="M512 213.333333c136.021333 0 226.176 64.170667 265.642667 161.706667l1.28 3.370667 5.418666 1.28a308.864 308.864 0 0 1 69.333334 26.922666l10.496 5.845334C936.533333 454.698667 981.333333 523.136 981.333333 618.666667c0 139.221333-88.917333 213.333333-213.333333 213.333333H256c-119.424 0-213.333333-66.730667-213.333333-202.666667 0-133.12 99.626667-208.384 201.642666-221.824l0.981334-0.128 0.981333-2.773333c41.130667-118.954667 111.616-187.392 253.397333-191.146667L512 213.333333z m0 85.333334c-116.224 0-162.304 51.413333-193.621333 161.066666a42.666667 42.666667 0 0 1-41.045334 30.933334c-71.168 0-149.333333 48.853333-149.333333 138.666666 0 81.322667 50.688 117.333333 128 117.333334h512c80.384 0 128-39.68 128-128 0-63.146667-27.221333-104.704-74.837333-132.48a228.010667 228.010667 0 0 0-55.552-22.826667 178.176 178.176 0 0 0-23.637334-4.949333 42.666667 42.666667 0 0 1-36.352-30.72C683.264 349.354667 621.568 298.666667 512 298.666667z m258.090667 213.333333c-50.133333 0-93.098667 40.618667-93.098667 88.021333v37.248c0 47.445333 42.965333 88.064 93.098667 88.064s93.098667-40.618667 93.098666-88.021333v-37.248C859.605333 552.576 820.224 512 770.090667 512z m-3.584 162.56c-21.461333 0-39.381333-16.938667-39.381334-37.248v-37.248c0-20.352 17.92-37.248 39.381334-37.248 21.461333 0 39.381333 16.896 39.381333 37.205333v37.248c0 20.352-17.92 37.248-39.381333 37.248zM196.266667 541.866667a29.866667 29.866667 0 1 1 59.733333 0v46.933333h25.6v-46.933333a29.866667 29.866667 0 1 1 59.733333 0v153.6a29.866667 29.866667 0 1 1-59.733333 0v-46.933334H256v46.933334a29.866667 29.866667 0 1 1-59.733333 0v-153.6z m354.133333-29.866667a29.866667 29.866667 0 0 0-29.866667 29.866667v153.6a29.866667 29.866667 0 1 0 59.733334 0v-46.933334h25.6v46.933334a29.866667 29.866667 0 1 0 59.733333 0v-153.6a29.866667 29.866667 0 1 0-59.733333 0v46.933333h-25.6v-46.933333a29.866667 29.866667 0 0 0-29.866667-29.866667z m-152.533333 99.541333c0-29.866667 22.4-49.749333 51.2-49.749333h24.533333c12.8 0 25.6-9.984 25.6-26.581333 0-16.554667-12.8-23.210667-25.6-23.210667h-24.533333C394.666667 512 349.866667 558.464 349.866667 614.869333s44.8 102.869333 99.2 102.869334h24.533333c12.8 0 25.6-9.941333 25.6-26.538667s-9.6-26.538667-25.6-26.538667h-24.533333c-28.8 0-51.2-23.253333-51.2-53.12z"  ></path></svg>