<?xml version="1.0" standalone="no"?><svg xmlns="http://www.w3.org/2000/svg" class="icon"  id="Xz-inclination-TWO" viewBox="0 0 1024 1024"><path d="M977.28 267.690667c8.192-55.978667-34.133333-108.501333-94.549333-117.333334L257.194667 58.666667c-60.416-8.874667-116.053333 29.312-124.245334 85.290666L113.152 279.04c-8.192 55.936 34.133333 108.501333 94.549333 117.333333L833.28 488.106667c60.416 8.832 116.053333-29.354667 124.202667-85.333334l19.797333-135.04zM262.101333 145.664l591.018667 86.570667a42.666667 42.666667 0 0 1 36.010667 48.384l-12.373334 84.48a42.666667 42.666667 0 0 1-48.384 36.010666L237.354667 314.453333a42.666667 42.666667 0 0 1-36.053334-48.384l12.373334-84.437333a42.666667 42.666667 0 0 1 48.426666-36.010667zM921.6 647.637333c8.234667-55.978667-34.133333-108.501333-94.506667-117.333333L201.514667 438.613333c-60.416-8.832-116.053333 29.354667-124.202667 85.333334l-19.797333 135.082666c-8.192 55.936 34.133333 108.501333 94.549333 117.333334l625.536 91.648c60.416 8.832 116.053333-29.354667 124.245333-85.333334l19.754667-135.04z m-715.178667-122.026666l591.018667 86.570666a42.666667 42.666667 0 0 1 36.053333 48.384l-12.373333 84.48a42.666667 42.666667 0 0 1-48.426667 36.010667l-591.018666-86.613333a42.666667 42.666667 0 0 1-36.010667-48.384l12.373333-84.437334a42.666667 42.666667 0 0 1 48.384-36.010666z m169.941334-276.992c3.413333-23.296-11.818667-44.8-34.005334-48.085334l-4.053333-0.597333c-22.186667-3.242667-42.965333 13.013333-46.378667 36.352-3.413333 23.296 11.818667 44.8 34.005334 48.085333l4.053333 0.597334c22.186667 3.242667 42.965333-13.013333 46.378667-36.352z m-89.685334 331.861333c22.186667 3.242667 37.418667 24.746667 34.005334 48.085333-3.413333 23.338667-24.149333 39.594667-46.378667 36.352l-4.010667-0.597333c-22.186667-3.242667-37.461333-24.789333-34.005333-48.085333 3.413333-23.338667 24.149333-39.594667 46.378667-36.352l4.010666 0.597333zM170.666667 853.333333a42.666667 42.666667 0 1 0 0 85.333334h426.666666a42.666667 42.666667 0 1 0 0-85.333334H170.666667z"  ></path></svg>