<?xml version="1.0" standalone="no"?><svg xmlns="http://www.w3.org/2000/svg" class="icon"  id="Xz-inclination" viewBox="0 0 1024 1024"><path d="M938.666667 187.733333C938.666667 131.2 889.173333 85.333333 828.16 85.333333H195.84C134.826667 85.333333 85.333333 131.2 85.333333 187.733333v136.533334C85.333333 380.8 134.826667 426.666667 195.84 426.666667h632.32C889.173333 426.666667 938.666667 380.8 938.666667 324.266667V187.733333zM213.333333 170.666667h597.333334a42.666667 42.666667 0 0 1 42.666666 42.666666v85.333334a42.666667 42.666667 0 0 1-42.666666 42.666666H213.333333a42.666667 42.666667 0 0 1-42.666666-42.666666V213.333333a42.666667 42.666667 0 0 1 42.666666-42.666666z m725.333334 401.066666c0-56.533333-49.493333-102.4-110.506667-102.4H195.84C134.826667 469.333333 85.333333 515.2 85.333333 571.733333v136.533334C85.333333 764.8 134.826667 810.666667 195.84 810.666667h632.32c61.013333 0 110.506667-45.866667 110.506667-102.4v-136.533334zM213.333333 554.666667h597.333334a42.666667 42.666667 0 0 1 42.666666 42.666666v85.333334a42.666667 42.666667 0 0 1-42.666666 42.666666H213.333333a42.666667 42.666667 0 0 1-42.666666-42.666666v-85.333334a42.666667 42.666667 0 0 1 42.666666-42.666666z m128-298.666667c0-23.552-18.176-42.666667-40.618666-42.666667h-4.096C274.176 213.333333 256 232.448 256 256s18.176 42.666667 40.618667 42.666667h4.096C323.157333 298.666667 341.333333 279.552 341.333333 256z m-40.618666 341.333333c22.442667 0 40.618667 19.114667 40.618666 42.666667s-18.176 42.666667-40.618666 42.666667h-4.096C274.176 682.666667 256 663.552 256 640s18.176-42.666667 40.618667-42.666667h4.096zM85.333333 853.333333a42.666667 42.666667 0 1 0 0 85.333334h853.333334a42.666667 42.666667 0 1 0 0-85.333334H85.333333z"  ></path></svg>