<?xml version="1.0" standalone="no"?><svg xmlns="http://www.w3.org/2000/svg" class="icon"  id="Xz-installationStatus-TWO" viewBox="0 0 1024 1024"><path d="M770.432 131.754667A155.306667 155.306667 0 0 0 734.122667 128l-10.453334 0.298667c-45.184 2.56-87.466667 21.76-119.424 53.632l-6.826666 7.296a182.058667 182.058667 0 0 0-45.397334 101.418666l-0.938666 10.368h-0.426667v12.074667c0 0.938667 0 1.92 0.085333 3.242667v1.194666l-42.88 42.581334-65.536-65.578667-18.901333-64a39.68 39.68 0 0 0-22.869333-25.685333L248.96 140.16a39.68 39.68 0 0 0-43.989333 8.533333l-26.410667 26.453334-26.752 26.538666a40.064 40.064 0 0 0-7.125333 46.976l63.445333 148.906667 2.346667 4.565333a39.850667 39.850667 0 0 0 23.466666 18.048l63.786667 19.072 65.578667 65.578667-197.290667 197.333333-0.341333 0.725334 0.128-0.085334c-38.741333 38.485333-47.232 88.490667-27.605334 134.058667 6.485333 15.402667 16.170667 29.610667 28.416 41.898667 12.245333 12.202667 26.666667 22.016 42.24 28.501333l8.064 3.157333c43.221333 15.317333 89.6 5.632 126.08-30.848l127.658667-127.957333a255.573333 255.573333 0 0 1 13.098667-111.232l-189.952 189.952c-18.858667 18.432-40.234667 20.522667-58.026667 12.8a66.816 66.816 0 0 1-20.096-13.653333 72.234667 72.234667 0 0 1-13.653333-19.626667c-7.509333-17.834667-5.418667-39.424 13.013333-58.453333h0.213333l398.208-398.037334a29.184 29.184 0 0 0 7.936-26.581333l-0.853333-6.912v-8.192h-0.426667a112.469333 112.469333 0 0 1 33.536-80.426667 113.024 113.024 0 0 1 76.288-33.493333l-1.28 1.28c-13.013333 12.970667-25.770667 25.728-38.528 38.698667a28.757333 28.757333 0 0 0-7.765333 27.861333l8.192 30.165333 7.936 30.165334a28.757333 28.757333 0 0 0 20.949333 20.949333l30.165334 8.192 29.781333 8.149333a30.421333 30.421333 0 0 0 29.738667-9.002666c7.68-7.936 15.317333-15.616 22.997333-23.296l15.36-15.445334a112.554667 112.554667 0 0 1-32.938667 76.245334v0.426666a114.944 114.944 0 0 1-80.426666 32.853334c-3.370667 0-6.314667-0.170667-8.405334-0.426667-2.901333 0-5.461333-0.341333-8.106666-0.725333l-0.682667-0.085334a27.946667 27.946667 0 0 0-24.917333 8.576h-0.213334l-51.925333 51.626667A255.530667 255.530667 0 0 1 725.333333 469.333333c27.093333 0 53.205333 4.224 77.696 11.989334a183.893333 183.893333 0 0 0 114.346667-169.642667c0-12.629333-1.28-24.917333-3.797333-36.565333l0.256 1.792a155.904 155.904 0 0 0-9.813334-33.877334 38.528 38.528 0 0 0-9.216-15.744 40.448 40.448 0 0 0-57.301333-0.170666l-2.261333 2.304-12.202667 12.288-6.912 6.869333-4.778667 4.778667-6.101333 6.058666-8.234667 8.192-6.272 6.229334-15.914666 15.872-7.381334-1.92-7.765333-2.133334-1.792-7.509333-2.218667-7.765333 7.765334-7.765334 21.162666-21.162666 4.224-4.224 12.16-12.117334 3.413334-3.413333 6.613333-6.570667 7.296-7.338666a41.6 41.6 0 0 0 8.362667-12.586667 40.192 40.192 0 0 0-20.906667-52.736 164.266667 164.266667 0 0 0-35.328-10.666667z m-304.213333 285.525333L419.84 463.36 339.882667 383.317333a26.112 26.112 0 0 0-12.586667-7.722666l-60.714667-17.834667-51.328-120.661333 12.373334-12.544 12.330666-12.16 120.661334 50.901333 17.365333 58.88c1.194667 5.546667 3.968 10.624 7.978667 14.634667l80.213333 80.469333zM725.333333 579.072a146.304 146.304 0 1 1 0 292.565333 146.304 146.304 0 0 1 0-292.565333zM944.768 725.333333a219.434667 219.434667 0 1 0-438.869333 0 219.434667 219.434667 0 0 0 438.869333 0z m-182.869333-74.368a36.565333 36.565333 0 0 0-73.130667 0v54.869334a36.565333 36.565333 0 1 0 73.130667 0v-54.869334zM725.333333 841.130667A36.565333 36.565333 0 1 0 725.333333 768a36.565333 36.565333 0 0 0 0 73.130667z"  ></path></svg>