<?xml version="1.0" standalone="no"?><svg xmlns="http://www.w3.org/2000/svg" class="icon"  id="Xz-location" viewBox="0 0 1024 1024"><path d="M512 96c212.096 0 384 163.136 384 364.352 0 134.208-128 290.048-384 467.648-256-177.6-384-333.44-384-467.648C128 259.2 299.904 96 512 96z m0 72.896c-169.664 0-307.2 130.496-307.2 291.456 0 94.72 94.72 218.688 290.688 364.416l16.512 12.16 16.512-12.16c189.44-140.864 284.288-261.376 290.368-354.816l0.32-9.6c0-160.96-137.536-291.456-307.2-291.456zM512 288a128 128 0 1 1 0 256 128 128 0 0 1 0-256z"  ></path></svg>