<?xml version="1.0" standalone="no"?><svg xmlns="http://www.w3.org/2000/svg" class="icon"  id="Xz-liquidLevelStatus-0" viewBox="0 0 1024 1024"><path d="M785.792 96A46.208 46.208 0 0 1 832 142.208V696.32a23.893333 23.893333 0 0 1 8.832-17.578667l78.208-66.730666c19.029333-16.213333 51.626667-4.608 51.626667 18.261333V763.733333c0 22.912-32.597333 34.176-51.626667 18.005334l-78.208-66.688a23.893333 23.893333 0 0 1-8.789333-17.664v184.448a46.250667 46.250667 0 0 1-40.832 45.866666l-5.418667 0.341334H138.666667a46.208 46.208 0 0 1-46.208-46.208V142.208A46.208 46.208 0 0 1 138.666667 96h647.125333z m-46.250667 92.458667h-554.666666v647.082666h554.666666V188.458667z m-210.346666 453.205333c8.618667 0 16.810667 3.498667 22.912 9.685333l41.984 43.008 42.24-43.008c6.101333-6.186667 29.226667-16.426667 45.866666 0 16.64 16.512 10.154667 35.328 0 46.933334-12.16 14.549333-33.962667 36.650667-65.408 66.261333a31.914667 31.914667 0 0 1-45.866666 0l-41.941334-42.922667-42.24 42.965334a31.914667 31.914667 0 0 1-45.866666 0l-41.984-42.965334-42.282667 43.264a31.914667 31.914667 0 0 1-45.866667 0l-64.682666-66.56a33.706667 33.706667 0 0 1 0.64-46.208 31.914667 31.914667 0 0 1 45.141333-0.725333l41.984 42.965333 42.282667-43.008a32 32 0 0 1 45.909333 0l41.898667 43.008 42.368-43.008a32 32 0 0 1 22.912-9.685333z m0-166.4c8.618667 0 16.810667 3.498667 22.912 9.728l41.984 42.965333 42.24-42.965333c6.101333-6.229333 29.226667-16.469333 45.866666 0 16.64 16.512 10.154667 35.328 0 46.933333-12.16 14.549333-33.962667 36.608-65.408 66.176a31.914667 31.914667 0 0 1-45.866666 0l-41.941334-42.88-42.24 42.88a31.914667 31.914667 0 0 1-45.866666 0l-41.984-42.88-42.282667 43.264a31.914667 31.914667 0 0 1-45.866667 0l-64.682666-66.56a33.706667 33.706667 0 0 1 0.64-46.208 31.914667 31.914667 0 0 1 45.141333-0.725333l41.984 42.965333 42.282667-42.965333a32.085333 32.085333 0 0 1 45.909333 0l41.898667 42.965333 42.368-42.965333a32.128 32.128 0 0 1 22.912-9.685333v-0.042667z m0-184.917333c8.618667 0 16.810667 3.541333 22.912 9.770666l41.984 42.922667 42.24-42.922667c6.101333-6.229333 29.226667-16.512 45.866666 0 16.64 16.512 10.154667 35.328 0 46.933334-12.16 14.506667-33.962667 36.608-65.408 66.133333a31.914667 31.914667 0 0 1-45.866666 0l-41.941334-42.837333-42.24 42.88a31.914667 31.914667 0 0 1-45.866666 0L398.890667 370.346667l-42.282667 43.264a31.872 31.872 0 0 1-45.866667 0l-64.682666-66.56a33.706667 33.706667 0 0 1 0.64-46.250667 31.914667 31.914667 0 0 1 45.141333-0.682667l41.984 42.922667 42.282667-42.922667a32 32 0 0 1 45.909333 0l41.898667 42.922667 42.368-42.922667a32.042667 32.042667 0 0 1 22.912-9.728z"  ></path></svg>