<?xml version="1.0" standalone="no"?><svg xmlns="http://www.w3.org/2000/svg" class="icon"  id="Xz-methane" viewBox="0 0 1024 1024"><path d="M777.642667 375.04C738.176 277.504 648.021333 213.333333 512 213.333333l-12.330667 0.170667c-141.781333 3.712-212.266667 72.106667-253.44 191.104l-0.938666 2.773333-0.981334 0.128C142.336 420.949333 42.666667 496.213333 42.666667 629.333333c0 135.936 93.909333 202.666667 213.333333 202.666667h512c124.416 0 213.333333-74.112 213.333333-213.333333 0-95.573333-44.8-163.968-117.162666-206.208l-10.496-5.845334a308.864 308.864 0 0 0-69.333334-26.922666l-5.418666-1.28-1.28-3.370667zM318.378667 459.733333C349.696 350.08 395.776 298.666667 512 298.666667c109.568 0 171.221333 50.645333 193.621333 129.066666a42.666667 42.666667 0 0 0 36.352 30.677334c3.968 0.426667 12.373333 1.92 23.637334 4.949333 19.072 5.12 38.101333 12.629333 55.552 22.826667C868.778667 513.962667 896 555.562667 896 618.666667c0 88.32-47.616 128-128 128H256c-77.312 0-128-36.010667-128-117.333334 0-89.813333 78.165333-138.666667 149.333333-138.666666a42.666667 42.666667 0 0 0 41.045334-30.933334z m113.621333 68.864c12.8 0 25.6-9.941333 25.6-26.538666 0-16.64-12.8-23.253333-25.6-23.253334h-44.8c-54.4 0-99.2 46.506667-99.2 102.869334 0 56.448 44.8 102.869333 99.2 102.869333h44.8c12.8 0 25.6-9.941333 25.6-26.538667s-9.6-26.538667-25.6-26.538666h-44.8c-28.8 0-51.2-23.210667-51.2-53.077334s22.4-49.792 51.2-49.792h44.8z m289.962667 25.856a29.866667 29.866667 0 0 0-32.512 4.906667l-52.181334 46.933333a29.824 29.824 0 0 0 26.325334 51.328 30.165333 30.165333 0 0 0 4.736 0.426667H682.666667v4.266667a29.866667 29.866667 0 1 0 59.733333 0v-4.864a29.866667 29.866667 0 0 0 0-58.624v-16.042667a29.866667 29.866667 0 0 0-20.48-28.330667zM499.2 478.805333a29.866667 29.866667 0 0 1 29.866667 29.866667v46.933333h25.6v-46.933333a29.866667 29.866667 0 1 1 59.733333 0v153.6a29.866667 29.866667 0 1 1-59.733333 0v-46.933333h-25.6v46.933333a29.866667 29.866667 0 1 1-59.733334 0v-153.6a29.866667 29.866667 0 0 1 29.866667-29.866667z"  ></path><path d="M387.2 528.597333h44.8c12.8 0 25.6-9.941333 25.6-26.538666 0-16.64-12.8-23.253333-25.6-23.253334h-44.8c-54.4 0-99.2 46.506667-99.2 102.869334 0 56.448 44.8 102.869333 99.2 102.869333h44.8c12.8 0 25.6-9.941333 25.6-26.538667s-9.6-26.538667-25.6-26.538666h-44.8c-28.8 0-51.2-23.210667-51.2-53.077334s22.4-49.792 51.2-49.792zM742.4 582.826667a29.866667 29.866667 0 0 0-20.48-28.373334 29.866667 29.866667 0 0 0-32.426667 4.906667l-52.224 46.933333a29.824 29.824 0 0 0 26.325334 51.328 30.165333 30.165333 0 0 0 4.736 0.426667H682.666667v4.266667a29.866667 29.866667 0 1 0 59.733333 0v-4.864a29.866667 29.866667 0 0 0 0-58.624v-16.042667zM469.333333 508.672a29.866667 29.866667 0 1 1 59.733334 0v46.933333h25.6v-46.933333a29.866667 29.866667 0 1 1 59.733333 0v153.6a29.866667 29.866667 0 1 1-59.733333 0v-46.933333h-25.6v46.933333a29.866667 29.866667 0 1 1-59.733334 0v-153.6z"  ></path></svg>