<?xml version="1.0" standalone="no"?><svg xmlns="http://www.w3.org/2000/svg" class="icon"  id="Xz-motorStroke-TWO" viewBox="0 0 1024 1024"><path d="M939.306667 292.693333v406.613334a40.661333 40.661333 0 1 1-81.322667 0V292.693333a40.661333 40.661333 0 1 1 81.322667 0zM385.152 170.666667c22.656 0 37.717333 15.445333 37.717333 38.613333v189.098667l34.56 38.656h19.498667c7.552 0 15.104 7.68 15.104 23.168v-4.864a40.661333 40.661333 0 1 1 0 81.322666v2.858667c0 7.68-7.552 15.445333-15.061333 15.445333h-19.498667l-34.602667 38.613334v229.76c0 23.168-15.061333 38.613333-37.674666 38.613333-22.570667 0-37.632-15.445333-37.632-38.613333v2.048H235.818667a76.373333 76.373333 0 0 1-75.221334-77.269334l-67.754666-38.656c-7.509333 0-7.509333-7.68-7.509334-15.445333v-363.52a24.874667 24.874667 0 0 1 7.509334-15.061333l67.754666-30.890667a76.373333 76.373333 0 0 1 75.221334-77.269333h111.744V209.066667l0.213333-4.650667c1.792-18.901333 14.250667-31.701333 32.682667-33.536L385.152 170.666667z m-37.589333 113.877333H235.818667v463.573333h111.744V284.544z"  ></path></svg>