<?xml version="1.0" standalone="no"?><svg xmlns="http://www.w3.org/2000/svg" class="icon"  id="Xz-maximumSoundLevel" viewBox="0 0 1024 1024"><path d="M810.666667 128a85.333333 85.333333 0 0 1 85.333333 85.333333v398.933334a333.269333 333.269333 0 0 0-85.333333-39.125334V213.333333H213.333333v597.333334h187.648c18.602667 33.792 51.456 63.232 93.952 85.333333H213.333333a85.333333 85.333333 0 0 1-85.333333-85.333333V213.333333a85.333333 85.333333 0 0 1 85.333333-85.333333h597.333334z m-68.266667 315.733333v114.773334a462.165333 462.165333 0 0 0-76.8-3.541334V443.733333a38.4 38.4 0 1 1 76.8 0z m-128-42.666666v158.634666a408.746667 408.746667 0 0 0-76.8 19.072V401.066667a38.4 38.4 0 1 1 76.8 0z m-128-85.333334v286.208c-32.597333 18.304-59.008 41.088-76.8 66.816V315.733333a38.4 38.4 0 0 1 76.8 0zM320 362.666667a38.4 38.4 0 0 1 38.4 38.4v221.866666a38.4 38.4 0 0 1-76.8 0V401.066667a38.4 38.4 0 0 1 38.4-38.4z m413.269333 312.405333a75.264 75.264 0 0 0-28.501333-4.778667 82.730667 82.730667 0 0 0-29.098667 4.608 45.866667 45.866667 0 0 0-19.328 12.970667 34.261333 34.261333 0 0 0-7.893333 19.669333l-0.128 1.365334h38.144l1.450667-2.730667a11.349333 11.349333 0 0 1 4.053333-3.413333 22.357333 22.357333 0 0 1 10.197333-1.962667c3.413333-0.170667 6.826667 0.725333 9.685334 2.602667l1.578666 1.408a8.533333 8.533333 0 0 1 1.962667 5.76v8.618666l-23.125333 1.408-7.424 0.682667c-11.904 1.450667-21.290667 4.693333-28.202667 9.813333a29.781333 29.781333 0 0 0-12.373333 25.344l0.298666 5.12c0.512 4.778667 1.962667 9.386667 4.352 13.525334a31.829333 31.829333 0 0 0 13.056 12.416c6.058667 3.072 12.8 4.565333 19.584 4.437333 4.949333 0 9.514667-0.64 13.781334-1.92a35.498667 35.498667 0 0 0 11.093333-5.418667 21.76 21.76 0 0 0 6.912-8.064h2.048v13.781334h41.898667v-79.701334l-0.256-4.949333a35.84 35.84 0 0 0-5.888-16.853333 38.229333 38.229333 0 0 0-17.877334-13.738667z m88.874667 32.512l-13.994667-34.346667h-48.298666l33.621333 59.776-33.536 57.301334h43.946667l16.042666-33.450667h2.133334l16.213333 33.450667h46.165333l-34.090666-59.050667 34.090666-58.026667h-45.952l-14.293333 34.346667h-2.048z m-270.848 27.136L519.509333 640H469.333333v150.314667h38.528v-89.813334h2.005334l30.506666 89.813334h23.637334l30.421333-89.813334h2.090667v89.813334h38.528V640h-50.218667l-31.573333 94.72h-1.962667z m147.882667 8.32l16.213333-1.066667v6.784l-0.256 2.645334a12.458667 12.458667 0 0 1-2.005333 4.693333 15.616 15.616 0 0 1-6.229334 5.205333 19.370667 19.370667 0 0 1-8.661333 1.92 15.36 15.36 0 0 1-9.642667-2.773333 8.746667 8.746667 0 0 1-3.584-7.424l0.213334-2.048a8.362667 8.362667 0 0 1 3.498666-4.864 20.053333 20.053333 0 0 1 10.453334-3.072z"  ></path></svg>