<?xml version="1.0" standalone="no"?><svg xmlns="http://www.w3.org/2000/svg" class="icon"  id="Xz-motorStroke" viewBox="0 0 1024 1024"><path d="M939.306667 288.341333v406.613334a40.661333 40.661333 0 1 1-81.322667 0v-406.613334a40.661333 40.661333 0 1 1 81.322667 0zM385.152 166.314667c22.656 0 37.717333 15.488 37.717333 38.656v189.098666l34.56 38.613334h360.832c7.552 0 15.104 7.722667 15.104 23.210666v-4.906666a40.661333 40.661333 0 1 1 0 81.322666v2.858667c0 7.722667-7.552 15.445333-15.061333 15.445333h-360.832l-34.602667 38.656v229.76c0 23.168-15.061333 38.613333-37.674666 38.613334-22.570667 0-37.632-15.445333-37.632-38.613334v2.005334H235.818667a76.373333 76.373333 0 0 1-75.221334-77.226667l-67.754666-38.656C85.333333 705.152 85.333333 697.429333 85.333333 689.706667v-363.52a24.874667 24.874667 0 0 1 7.509334-15.061334l67.754666-30.933333a76.373333 76.373333 0 0 1 75.221334-77.226667h111.744v1.792l0.213333-4.608c1.792-18.901333 14.250667-31.744 32.682667-33.578666l4.693333-0.213334z m-37.589333 113.92H235.818667v463.573333h111.744V280.192z"  ></path></svg>