<?xml version="1.0" standalone="no"?><svg xmlns="http://www.w3.org/2000/svg" class="icon"  id="Xz-nh3" viewBox="0 0 1024 1024"><path d="M777.642667 375.04C738.176 277.504 648.021333 213.333333 512 213.333333l-12.330667 0.170667c-141.781333 3.712-212.266667 72.106667-253.44 191.104l-0.938666 2.773333-0.981334 0.128C142.336 420.949333 42.666667 496.213333 42.666667 629.333333c0 135.936 93.909333 202.666667 213.333333 202.666667h512c124.416 0 213.333333-74.112 213.333333-213.333333 0-95.573333-44.8-163.968-117.162666-206.208l-10.496-5.845334a308.864 308.864 0 0 0-69.333334-26.922666l-5.418666-1.28-1.28-3.370667zM318.378667 459.733333C349.696 350.08 395.776 298.666667 512 298.666667c109.568 0 171.221333 50.645333 193.621333 129.066666a42.666667 42.666667 0 0 0 36.352 30.677334c3.968 0.426667 12.373333 1.92 23.637334 4.949333 19.072 5.12 38.101333 12.629333 55.552 22.826667 43.392 25.301333 69.845333 62.08 74.197333 116.138666a20.181333 20.181333 0 0 0-2.048 9.216 19.626667 19.626667 0 0 0 2.688 10.325334c-1.152 86.101333-48.64 124.8-128 124.8H256c-77.312 0-128-36.010667-128-117.333334 0-89.813333 78.165333-138.666667 149.333333-138.666666a42.666667 42.666667 0 0 0 41.045334-30.933334z m-28.842667 62.122667a27.605333 27.605333 0 0 1 19.882667-8.021333c4.266667 0 9.514667 0.725333 14.464 3.584a32.042667 32.042667 0 0 1 10.368 10.026666l48.810666 69.973334V540.586667c0-6.272 1.834667-13.269333 7.253334-18.901334a25.984 25.984 0 0 1 19.072-7.850666c6.570667 0 13.653333 2.133333 19.114666 7.850666 5.376 5.632 7.253333 12.629333 7.253334 18.901334v133.333333a26.88 26.88 0 0 1-8.064 19.797333 27.776 27.776 0 0 1-19.626667 7.466667 28.928 28.928 0 0 1-14.72-3.669333 32.810667 32.810667 0 0 1-10.069333-9.685334l-0.042667-0.085333-48.938667-69.888v56.576c0 6.272-1.877333 13.269333-7.253333 18.901333a25.984 25.984 0 0 1-19.114667 7.850667 25.984 25.984 0 0 1-19.072-7.850667 26.794667 26.794667 0 0 1-7.253333-18.901333V541.866667c0-6.912 2.176-14.08 7.68-19.754667l0.256-0.213333z m155.818667 152.576c0 6.272 1.834667 13.269333 7.253333 18.901333l0.256 0.256c5.418667 5.461333 12.373333 7.594667 18.944 7.594667a26.026667 26.026667 0 0 0 26.453333-26.752v-43.136h48.341334v43.136c0 6.272 1.834667 13.269333 7.253333 18.901333l0.256 0.256c5.418667 5.461333 12.373333 7.594667 18.944 7.594667a26.026667 26.026667 0 0 0 26.453333-26.752V540.586667a26.026667 26.026667 0 0 0-26.453333-26.752 26.325333 26.325333 0 0 0-18.944 7.594666l-0.256 0.256a26.794667 26.794667 0 0 0-7.253333 18.901334v39.68h-48.384v-39.68a26.026667 26.026667 0 0 0-26.453334-26.752 26.325333 26.325333 0 0 0-18.901333 7.594666l-0.256 0.256a26.794667 26.794667 0 0 0-7.253333 18.901334v133.845333z m201.813333 10.410667c5.930667 4.48 12.629333 7.765333 20.010667 9.984l0.170666 0.042666c7.424 2.133333 15.36 3.114667 23.808 3.114667 11.477333 0 22.186667-2.133333 32-6.741333l0.085334-0.042667c9.642667-4.608 17.664-11.178667 23.594666-19.754667 6.272-8.874667 9.301333-19.072 9.301334-30.122666a46.592 46.592 0 0 0-18.901334-39.04 46.933333 46.933333 0 0 0 8.277334-10.709334l0.042666-0.085333c3.882667-6.997333 5.674667-14.72 5.674667-22.869333 0-9.514667-2.56-18.432-7.637333-26.368a51.84 51.84 0 0 0-21.376-18.688 70.016 70.016 0 0 0-31.274667-6.528c-8.106667 0-15.786667 1.109333-22.954667 3.413333-7.168 2.261333-13.653333 5.674667-19.370666 10.282667l-0.085334 0.085333a54.272 54.272 0 0 0-13.568 16.64 37.504 37.504 0 0 0-4.650666 18.133333c0 5.034667 1.408 10.666667 5.717333 15.189334l0.213333 0.213333c4.48 4.48 10.154667 5.930667 15.232 5.930667a20.138667 20.138667 0 0 0 14.08-5.12 25.984 25.984 0 0 0 6.357334-10.666667 25.216 25.216 0 0 1 4.352-7.381333 12.501333 12.501333 0 0 1 4.992-3.413334 27.648 27.648 0 0 1 9.685333-1.450666 23.893333 23.893333 0 0 1 10.368 1.834666c2.133333 1.024 3.285333 2.218667 3.968 3.456 0.853333 1.578667 1.493333 3.712 1.493333 6.912 0 2.688-0.64 4.693333-1.749333 6.4a14.208 14.208 0 0 1-5.674667 4.821334 23.253333 23.253333 0 0 1-10.197333 2.048h-11.093333a21.546667 21.546667 0 0 0-14.805334 5.546666l-0.213333 0.170667a20.352 20.352 0 0 0-6.272 14.976c0 5.418667 1.877333 10.837333 6.272 15.018667l0.213333 0.170666c4.309333 3.925333 9.6 5.546667 14.762667 5.546667h11.946667c8.618667 0 13.824 2.005333 17.066666 4.650667 2.645333 2.133333 4.48 5.248 4.437334 11.392v0.085333a11.52 11.52 0 0 1-1.92 6.741333 15.914667 15.914667 0 0 1-6.528 5.248 28.032 28.032 0 0 1-11.861334 2.218667 34.133333 34.133333 0 0 1-11.349333-1.621333 17.28 17.28 0 0 1-10.581333-10.752v-0.042667a26.453333 26.453333 0 0 0-7.253334-10.581333 20.266667 20.266667 0 0 0-13.312-4.949334c-5.376 0-11.136 1.706667-15.616 6.4a21.546667 21.546667 0 0 0-5.845333 15.189334c0 6.570667 1.877333 12.714667 5.12 18.346666l0.128 0.170667c3.84 6.485333 8.746667 12.032 14.72 16.554667z"  ></path></svg>