<?xml version="1.0" standalone="no"?><svg xmlns="http://www.w3.org/2000/svg" class="icon"  id="Xz-occupancyStatus" viewBox="0 0 1024 1024"><path d="M815.573333 190.293333c-45.952 0-83.029333 39.765333-83.029333 88.32v79.232l-2.261333-0.512a79.232 79.232 0 0 0-6.826667-0.896l-6.826667-0.341333H305.578667c-4.565333 0-9.088 0.426667-13.653334 1.28l-2.218666 0.426667V278.570667c0-44.544-40.576-84.608-86.912-88.021334l-6.4-0.256H130.304C83.157333 190.293333 42.666667 230.186667 42.666667 278.613333v398.933334c0 49.152 41.045333 98.133333 87.552 98.133333h85.162666v61.44a37.546667 37.546667 0 0 0 75.093334 0v-61.44H733.44v61.482667a37.504 37.504 0 0 0 75.008 0v-61.44h74.965333c46.250667 0 93.44-47.104 97.450667-92.074667l0.256-6.101333V278.613333c0-45.909333-48.426667-88.32-97.706667-88.32h-67.84z m5.418667 69.76h62.421333c10.112 0 22.613333 10.922667 22.613334 18.517334v394.496c0 10.069333-15.488 28.501333-22.613334 28.501333H130.218667c-3.242667 0-12.458667-15.530667-12.458667-28.501333V278.570667c0-10.410667 5.717333-18.56 12.458667-18.56h60.842666c10.24 0 23.552 11.264 23.552 18.56v118.954666l0.042667-0.768v125.312l0.042667 0.853334-0.085334-0.768v85.504h592.981334V278.613333c0-10.112 6.229333-18.56 13.397333-18.56z m-515.413333 171.093334h411.008c8.789333 0 15.914667 7.125333 15.914666 15.872v65.066666a15.957333 15.957333 0 0 1-15.914666 15.957334H305.621333a15.914667 15.914667 0 0 1-15.872-15.829334v-65.237333c0-8.746667 7.125333-15.786667 15.872-15.786667v-0.085333z"  ></path></svg>