<?xml version="1.0" standalone="no"?><svg xmlns="http://www.w3.org/2000/svg" class="icon"  id="Xz-other" viewBox="0 0 1024 1024"><path d="M384 85.333333a85.333333 85.333333 0 0 1 85.333333 85.333334v213.333333a85.333333 85.333333 0 0 1-85.333333 85.333333H170.666667a85.333333 85.333333 0 0 1-85.333334-85.333333V170.666667a85.333333 85.333333 0 0 1 85.333334-85.333334h213.333333z m0 85.333334H170.666667v213.333333h213.333333V170.666667z m0 384a85.333333 85.333333 0 0 1 85.333333 85.333333v213.333333a85.333333 85.333333 0 0 1-85.333333 85.333334H170.666667a85.333333 85.333333 0 0 1-85.333334-85.333334v-213.333333a85.333333 85.333333 0 0 1 85.333334-85.333333h213.333333z m0 85.333333H170.666667v213.333333h213.333333v-213.333333z m362.666667-554.666667a192 192 0 1 1 0 384 192 192 0 0 1 0-384z m0 85.333334a106.666667 106.666667 0 1 0 0 213.333333 106.666667 106.666667 0 0 0 0-213.333333z m106.666666 384a85.333333 85.333333 0 0 1 85.333334 85.333333v213.333333a85.333333 85.333333 0 0 1-85.333334 85.333334h-213.333333a85.333333 85.333333 0 0 1-85.333333-85.333334v-213.333333a85.333333 85.333333 0 0 1 85.333333-85.333333h213.333333z m0 85.333333h-213.333333v213.333333h213.333333v-213.333333z"  ></path></svg>