<?xml version="1.0" standalone="no"?><svg xmlns="http://www.w3.org/2000/svg" class="icon"  id="Xz-occupancyStatus-WS203-TWO" viewBox="0 0 1024 1024"><path d="M85.333333 128a42.666667 42.666667 0 0 1 42.666667-42.666667h597.333333a213.333333 213.333333 0 0 1 213.333334 213.333334v597.333333a42.666667 42.666667 0 1 1-85.333334 0v-343.893333c-182.528-22.186667-321.664-184.746667-339.413333-381.44H128a42.666667 42.666667 0 0 1-42.666667-42.666667z m768 170.666667a128 128 0 0 0-128-128h-125.738666c16.768 155.306667 123.904 273.621333 253.738666 295.168V298.666667zM341.333333 426.666667a42.666667 42.666667 0 1 0 0-85.333334 42.666667 42.666667 0 0 0 0 85.333334z m0 85.333333l-5.632-0.128a41.941333 41.941333 0 0 1-1.536 2.474667c-12.16 18.261333-27.690667 48.64-34.389333 78.506666-7.04 31.146667-2.304 49.621333 7.722667 59.648 24.021333 24.021333 30.122667 54.442667 27.605333 82.005334-2.474667 26.453333-12.8 52.565333-24.832 75.306666-24.192 45.738667-61.44 89.685333-88.106667 116.352a42.666667 42.666667 0 0 1-60.330666-60.330666c23.125333-23.125333 54.144-60.245333 72.96-95.914667 9.514667-17.92 14.336-32.64 15.36-43.264 0.853333-9.429333-1.408-12.245333-2.986667-13.824-32.938667-32.938667-38.784-75.434667-34.986667-112.298667l-101.76 73.984a42.666667 42.666667 0 1 1-50.176-69.034666l186.282667-135.466667A128 128 0 1 1 418.133333 486.4l1.365334 1.92c11.306667 16.938667 32.853333 39.850667 58.453333 52.778667 23.68 11.989333 48.64 14.805333 76.117333-1.706667a42.666667 42.666667 0 1 1 43.904 73.216c-57.898667 34.688-114.688 26.837333-158.549333 4.693333-41.984-21.248-73.770667-55.893333-90.88-81.621333A42.453333 42.453333 0 0 1 341.333333 512z m-38.144 87.594667a42.666667 42.666667 0 0 1 57.216-19.072c55.68 27.818667 157.013333 124.928 193.450667 307.114666a42.666667 42.666667 0 0 1-83.712 16.725334c-31.829333-159.146667-118.186667-232.704-147.882667-247.552a42.666667 42.666667 0 0 1-19.072-57.216z"  ></path></svg>