<?xml version="1.0" standalone="no"?><svg xmlns="http://www.w3.org/2000/svg" class="icon"  id="Xz-occupancyStatus-WS203" viewBox="0 0 1024 1024"><path d="M85.333333 128a42.666667 42.666667 0 0 1 42.666667-42.666667h597.333333a213.333333 213.333333 0 0 1 213.333334 213.333334v597.333333a42.666667 42.666667 0 1 1-85.333334 0v-343.893333c-182.528-22.186667-321.664-184.746667-339.413333-381.44H128a42.666667 42.666667 0 0 1-42.666667-42.666667z m768 170.666667a128 128 0 0 0-128-128h-125.738666c16.768 155.306667 123.904 273.621333 253.738666 295.168V298.666667z m-249.386666 544.554666C378.453333 809.685333 200.917333 627.882667 180.437333 406.613333c0.128-21.589333-21.418667-38.698667-44.117333-35.84l-1.664 0.256-1.28 0.042667a39.082667 39.082667 0 0 0-34.133333 44.074667l0.298666 1.152 1.28 11.818666c30.805333 257.408 242.56 465.92 507.008 496.810667l5.12 0.170667c19.797333 0 40.618667-16.64 40.618667-38.101334l-0.213333-4.394666c-1.962667-18.858667-16.341333-35.413333-35.84-37.674667l-1.706667-0.128-11.861333-1.578667zM334.933333 403.328c-2.56-21.418667-21.76-32.896-42.24-32.896a38.656 38.656 0 0 0-37.376 48.170667c22.4 173.994667 166.912 320 348.8 350.933333l4.266667 0.426667h2.133333a40.874667 40.874667 0 0 0 39.552-31.36c6.101333-23.552-9.813333-42.282667-31.530666-47.488-149.802667-25.728-265.642667-142.634667-283.562667-286.122667l-0.042667-1.621333z m207.146667 81.365333a181.12 181.12 0 0 1-45.482667-82.56c-5.717333-22.186667-28.714667-35.072-49.450666-28.416a38.229333 38.229333 0 0 0-26.88 48.896c18.346667 89.6 88.32 163.328 181.504 188.544l6.570666 0.853334h4.352a41.386667 41.386667 0 0 0 38.912-27.306667c6.272-23.808-6.229333-46.08-28.714666-51.498667a181.077333 181.077333 0 0 1-80.810667-48.512z"  ></path></svg>