<?xml version="1.0" standalone="no"?><svg xmlns="http://www.w3.org/2000/svg" class="icon"  id="Xz-occupancyStatus-TWO" viewBox="0 0 1024 1024"><path d="M552.661333 491.690667a40.618667 40.618667 0 1 1 0-81.28h325.077334a40.618667 40.618667 0 1 1 0 81.28h-121.898667v406.357333a40.661333 40.661333 0 0 1-81.28 0v-406.357333h-121.898667z m-223.530666-162.56a102.4 102.4 0 0 1 102.442666 101.589333l1.109334 135.466667h126.848c46.592 0 71.893333 35.968 74.24 70.741333l0.128 5.205333v241.237334c0 74.154667-108.970667 73.813333-108.970667-1.365334V684.8H340.778667c-2.602667 0.256-5.205333 0.426667-7.808 0.426667h-0.853334a102.442667 102.442667 0 0 1-102.4-101.589334l-1.322666-152.917333a100.778667 100.778667 0 0 1 99.882666-101.546667h0.853334z m-182.826667 0a40.618667 40.618667 0 0 1 40.618667 40.661333v336.853333h284.458666a40.618667 40.618667 0 1 1 0 81.28h-325.12a40.661333 40.661333 0 0 1-40.192-46.506666 39.808 39.808 0 0 1-0.426666-5.930667V369.792a40.618667 40.618667 0 0 1 40.661333-40.661333zM327.509333 85.333333c36.48 0 70.144 19.882667 88.32 52.096a105.984 105.984 0 0 1 0 104.192 101.632 101.632 0 0 1-88.32 52.053334c-56.32 0-101.973333-46.634667-101.973333-104.149334C225.536 131.968 271.189333 85.333333 327.509333 85.333333z"  ></path></svg>