<?xml version="1.0" standalone="no"?><svg xmlns="http://www.w3.org/2000/svg" class="icon"  id="Xz-o3" viewBox="0 0 1024 1024"><path d="M777.642667 375.04C738.176 277.504 648.021333 213.333333 512 213.333333l-12.330667 0.170667c-141.781333 3.712-212.266667 72.106667-253.44 191.104l-0.938666 2.773333-0.981334 0.128C142.336 420.949333 42.666667 496.213333 42.666667 629.333333c0 135.936 93.909333 202.666667 213.333333 202.666667h512c124.416 0 213.333333-74.112 213.333333-213.333333 0-95.573333-44.8-163.968-117.162666-206.208l-10.496-5.845334a308.864 308.864 0 0 0-69.333334-26.922666l-5.418666-1.28-1.28-3.370667zM318.378667 459.733333C349.696 350.08 395.776 298.666667 512 298.666667c109.568 0 171.221333 50.645333 193.621333 129.066666a42.666667 42.666667 0 0 0 36.352 30.677334c3.968 0.426667 12.373333 1.92 23.637334 4.949333 19.072 5.12 38.101333 12.629333 55.552 22.826667C868.778667 513.962667 896 555.562667 896 618.666667c0 88.32-47.616 128-128 128H256c-77.312 0-128-36.010667-128-117.333334 0-89.813333 78.165333-138.666667 149.333333-138.666666a42.666667 42.666667 0 0 0 41.045334-30.933334z m17.28 97.621334c0-47.36 42.965333-88.021333 93.098666-88.021334s89.514667 40.618667 93.098667 88.021334v37.248c0 47.445333-42.965333 88.064-93.098667 88.064s-93.098667-40.618667-93.098666-88.021334v-37.248z m128.896 37.248v-37.248c0-20.309333-17.92-37.248-39.381334-37.248-21.461333 0-39.381333 16.938667-39.381333 37.248v37.248c0 20.352 17.92 37.248 39.381333 37.248 21.504 0 39.381333-16.896 39.381334-37.205334z m110.08 76.672c5.930667 4.48 12.629333 7.765333 20.010666 9.984h0.170667c7.424 2.133333 15.36 3.114667 23.808 3.114666 11.477333 0 22.186667-2.133333 32-6.741333h0.085333c9.642667-4.650667 17.664-11.178667 23.594667-19.754667 6.272-8.874667 9.301333-19.114667 9.301333-30.165333a46.592 46.592 0 0 0-18.901333-38.997333 46.933333 46.933333 0 0 0 8.277333-10.752l0.042667-0.042667c3.882667-6.997333 5.674667-14.762667 5.674667-22.912 0-9.514667-2.56-18.389333-7.637334-26.368a51.84 51.84 0 0 0-21.376-18.645333 70.016 70.016 0 0 0-31.274666-6.528c-8.106667 0-15.786667 1.066667-22.954667 3.413333-7.168 2.261333-13.653333 5.674667-19.370667 10.24l-0.085333 0.085333a54.314667 54.314667 0 0 0-13.568 16.64 37.504 37.504 0 0 0-4.650667 18.133334c0 5.034667 1.408 10.666667 5.717334 15.232l0.213333 0.213333c4.48 4.437333 10.154667 5.930667 15.232 5.930667a20.138667 20.138667 0 0 0 14.08-5.162667 25.984 25.984 0 0 0 6.357333-10.666667 25.216 25.216 0 0 1 4.309334-7.338666 12.501333 12.501333 0 0 1 5.034666-3.413334 27.648 27.648 0 0 1 9.685334-1.450666c5.162667 0 8.448 0.853333 10.368 1.792 2.133333 1.066667 3.285333 2.261333 3.968 3.498666 0.853333 1.536 1.493333 3.712 1.493333 6.912 0 2.645333-0.64 4.693333-1.749333 6.4a14.208 14.208 0 0 1-5.674667 4.821334 23.253333 23.253333 0 0 1-10.197333 2.005333h-11.093334a21.546667 21.546667 0 0 0-14.805333 5.546667l-0.213333 0.213333a20.309333 20.309333 0 0 0-6.272 14.933333c0 5.418667 1.92 10.837333 6.272 15.018667l0.213333 0.213333c4.309333 3.925333 9.6 5.546667 14.762667 5.546667h11.946666c8.618667 0 13.824 2.005333 17.066667 4.608 2.645333 2.133333 4.48 5.248 4.437333 11.434667v0.085333a11.52 11.52 0 0 1-1.92 6.741333 15.914667 15.914667 0 0 1-6.528 5.205334 28.032 28.032 0 0 1-11.861333 2.218666 34.133333 34.133333 0 0 1-11.349333-1.578666 17.28 17.28 0 0 1-10.581334-10.752v-0.085334a26.496 26.496 0 0 0-7.253333-10.581333 20.309333 20.309333 0 0 0-13.312-4.906667c-5.376 0-11.136 1.706667-15.616 6.357334a21.589333 21.589333 0 0 0-5.845333 15.189333c0 6.570667 1.877333 12.757333 5.12 18.389333l0.128 0.128c3.84 6.528 8.789333 12.074667 14.72 16.597334z"  ></path></svg>