<?xml version="1.0" standalone="no"?><svg xmlns="http://www.w3.org/2000/svg" class="icon"  id="Xz-pulseWaterMeter" viewBox="0 0 1024 1024"><path d="M327.210667 139.264a8.533333 8.533333 0 0 0-14.421334 0l-12.373333 19.370667-16.085333 25.173333-3.114667 4.906667-1.749333 2.858666a1593.429333 1593.429333 0 0 0-50.005334 86.144c-6.826667 12.714667-13.141333 24.96-18.901333 36.608C183.978667 368.469333 170.666667 407.893333 170.666667 438.272 170.666667 526.165333 237.568 597.333333 320 597.333333s149.333333-71.168 149.333333-159.061333c0-30.421333-13.312-69.802667-39.893333-123.946667-5.76-11.648-12.032-23.893333-18.901333-36.650666a1593.429333 1593.429333 0 0 0-54.869334-93.866667l-16.085333-25.173333-12.373333-19.370667zM312.874667 302.933333l7.082666-12.629333 7.168 12.629333 8.277334 15.146667c6.4 11.904 12.202667 23.168 17.450666 33.834667 21.973333 44.8 31.146667 72.874667 31.146667 86.314666C384 480.170667 354.090667 512 320 512c-34.133333 0-64-31.829333-64-73.728 0-13.44 9.173333-41.514667 31.146667-86.314667 5.248-10.666667 11.093333-21.930667 17.493333-33.834666l8.234667-15.146667z m398.293333-163.712a8.533333 8.533333 0 0 0-14.378667 0l-12.373333 19.370667-16.085333 25.173333a924.16 924.16 0 0 0-3.114667 4.906667l-1.749333 2.858667a1588.565333 1588.565333 0 0 0-50.005334 86.144c-6.826667 12.714667-13.184 24.96-18.901333 36.608C567.978667 368.469333 554.666667 407.893333 554.666667 438.272 554.666667 526.165333 621.568 597.333333 704 597.333333s149.333333-71.168 149.333333-159.061333c0-30.421333-13.312-69.802667-39.893333-123.946667-5.76-11.648-12.032-23.893333-18.901333-36.650666a1588.565333 1588.565333 0 0 0-54.869334-93.866667l-16.085333-25.173333-12.373333-19.370667zM696.917333 302.933333l7.082667-12.629333 7.168 12.629333 8.277333 15.146667c6.4 11.904 12.202667 23.168 17.450667 33.834667 21.973333 44.8 31.146667 72.874667 31.146667 86.314666 0 41.898667-29.909333 73.728-64 73.728-34.133333 0-64-31.829333-64-73.728 0-13.44 9.173333-41.514667 31.146666-86.314666 5.248-10.666667 11.093333-21.930667 17.493334-33.834667l8.234666-15.146667z m-186.112 217.685334a8.576 8.576 0 0 1 2.602667 2.56l8.832 13.824 13.184 20.650666 3.968 6.314667a1285.290667 1285.290667 0 0 1 56.362667 100.437333c21.76 44.288 32.64 76.501333 32.64 101.418667 0 71.893333-54.741333 130.133333-122.154667 130.133333C438.741333 896 384 837.76 384 765.866667c0-24.917333 10.88-57.130667 32.64-101.418667 4.693333-9.557333 9.856-19.541333 15.445333-29.994667a1301.504 1301.504 0 0 1 40.96-70.442666l1.408-2.304 2.56-4.010667 13.141334-20.650667 8.832-13.781333a8.533333 8.533333 0 0 1 11.776-2.602667z m-4.608 156.245333l-3.882666 7.381333c-3.242667 6.186667-6.229333 12.117333-9.045334 17.792-17.024 34.688-23.893333 55.765333-23.893333 63.786667 0 25.898667 17.749333 44.8 36.864 44.8 19.072 0 36.821333-18.901333 36.821333-44.8 0-8.021333-6.826667-29.098667-23.893333-63.786667a771.754667 771.754667 0 0 0-9.045333-17.792l-3.925334-7.381333z"  ></path></svg>