<?xml version="1.0" standalone="no"?><svg xmlns="http://www.w3.org/2000/svg" class="icon"  id="Xz-pir-400" viewBox="0 0 1024 1024"><path d="M796.458667 170.666667H227.541333C196.138667 170.666667 170.666667 196.138667 170.666667 227.541333v568.917334C170.666667 827.861333 196.138667 853.333333 227.541333 853.333333h568.917334c31.402667 0 56.874667-25.472 56.874666-56.874666V227.541333C853.333333 196.138667 827.861333 170.666667 796.458667 170.666667z m0-85.333334A142.250667 142.250667 0 0 1 938.666667 227.541333v568.917334A142.250667 142.250667 0 0 1 796.458667 938.666667H227.541333A142.250667 142.250667 0 0 1 85.333333 796.458667V227.541333A142.250667 142.250667 0 0 1 227.541333 85.333333h568.917334zM725.333333 395.434667C725.333333 318.421333 661.930667 256 583.68 256c-3.285333 0-6.528 0.213333-9.770667 0.469333l-0.768 0.042667h-125.098666v0.256H384V768h71.850667v-233.514667h116.778666c4.309333 0.469333 5.205333 0.426667 8.106667 0.426667h2.986667c78.208 0 141.610667-62.464 141.610666-139.477333z m-273.066666-63.146667h123.989333c36.224 1.536 69.418667 31.786667 69.418667 64.768 0 33.024-33.194667 64.341333-69.418667 65.92H452.266667V332.245333z"  ></path></svg>