<?xml version="1.0" standalone="no"?><svg xmlns="http://www.w3.org/2000/svg" class="icon"  id="Xz-peopleCount" viewBox="0 0 1024 1024"><path d="M405.333333 597.333333c146.133333 0 353.621333 81.962667 362.368 176.64l0.298667 6.229334V810.666667a42.666667 42.666667 0 0 1-37.674667 42.368L725.333333 853.333333H85.333333a42.666667 42.666667 0 0 1-42.368-37.674666L42.666667 810.666667v-30.464C42.666667 682.922667 256 597.333333 405.333333 597.333333z m0 85.333334c-66.090667 0-137.344 18.261333-191.146666 38.4l-17.237334 6.826666c-35.84 14.72-61.269333 29.525333-67.797333 38.229334L128 768h554.666667c-4.48-9.045333-34.816-26.709333-77.952-43.648l-17.92-6.698667-19.072-6.485333C518.656 695.296 460.202667 682.666667 405.333333 682.666667zM938.666667 640a42.666667 42.666667 0 1 1 0 85.333333h-85.333334a42.666667 42.666667 0 1 1 0-85.333333h85.333334z m0-170.666667a42.666667 42.666667 0 1 1 0 85.333334h-149.333334a42.666667 42.666667 0 1 1 0-85.333334H938.666667zM405.333333 128C511.402667 128 597.333333 213.930667 597.333333 320S511.402667 512 405.333333 512A191.957333 191.957333 0 0 1 213.333333 320C213.333333 213.930667 299.264 128 405.333333 128z m0 85.333333A106.965333 106.965333 0 0 0 298.666667 320C298.666667 378.666667 346.666667 426.666667 405.333333 426.666667S512 378.666667 512 320 464 213.333333 405.333333 213.333333zM938.666667 298.666667a42.666667 42.666667 0 1 1 0 85.333333h-213.333334a42.666667 42.666667 0 1 1 0-85.333333h213.333334z"  ></path></svg>