<?xml version="1.0" standalone="no"?><svg xmlns="http://www.w3.org/2000/svg" class="icon"  id="Xz-pir" viewBox="0 0 1024 1024"><path d="M290.389333 217.216A42.666667 42.666667 0 1 0 221.610667 166.826667 577.706667 577.706667 0 0 0 225.28 855.04l17.92 23.893333a42.666667 42.666667 0 0 0 68.266667-51.2l-17.92-23.893333a492.373333 492.373333 0 0 1-3.157334-586.666667z m117.290667 3.285333a42.666667 42.666667 0 0 1 11.818667 59.178667 418.858667 418.858667 0 0 0 0 464.64 42.666667 42.666667 0 0 1-70.997334 47.36 504.192 504.192 0 0 1 0-559.36 42.666667 42.666667 0 0 1 59.178667-11.818667zM692.138667 362.666667c20.949333 0 37.930667-16.725333 37.930666-37.333334a37.632 37.632 0 0 0-37.930666-37.333333 37.632 37.632 0 0 0-37.930667 37.333333c0 20.608 16.981333 37.333333 37.973333 37.333334z m0 74.666666c-1.706667 0-3.328 0-4.992-0.085333a38.4 38.4 0 0 1-1.365334 2.133333c-10.837333 15.957333-24.618667 42.581333-30.592 68.693334-6.229333 27.221333-2.005333 43.434667 6.869334 52.181333 21.376 21.034667 26.794667 47.658667 24.533333 71.765333-2.133333 23.125333-11.392 45.994667-22.058667 65.877334-21.504 40.064-54.613333 78.506667-78.293333 101.845333a38.357333 38.357333 0 0 1-53.674667 0 36.906667 36.906667 0 0 1 0-52.821333c20.565333-20.224 48.128-52.693333 64.853334-83.882667 8.490667-15.744 12.8-28.586667 13.653333-37.888 0.768-8.234667-1.237333-10.709333-2.645333-12.074667-29.226667-28.8-34.432-66.005333-31.104-98.304l-90.453334 64.768a38.314667 38.314667 0 0 1-52.906666-8.234666 36.949333 36.949333 0 0 1 8.32-52.181334l165.589333-118.528a110.634667 110.634667 0 0 1-29.482667-75.264c0-61.866667 50.901333-112 113.749334-112 62.848 0 113.792 50.133333 113.792 112 0 36.650667-17.92 69.162667-45.525334 89.6l1.237334 1.706667c10.026667 14.805333 29.184 34.858667 51.882666 46.165333 21.077333 10.496 43.306667 12.928 67.712-1.493333a38.272 38.272 0 0 1 52.053334 12.8 36.992 36.992 0 0 1-13.056 51.2c-51.413333 30.421333-101.930667 23.509333-140.885334 4.138667-37.333333-18.56-65.578667-48.896-80.810666-71.424a36.693333 36.693333 0 0 1-6.4-20.693334z m-33.92 76.629334a38.186667 38.186667 0 0 1 50.901333-16.682667c49.493333 24.32 139.52 109.312 171.946667 268.714667a37.376 37.376 0 0 1-29.781334 43.946666 37.888 37.888 0 0 1-44.629333-29.269333c-28.288-139.264-105.088-203.648-131.456-216.618667a37.077333 37.077333 0 0 1-16.981333-50.090666z"  ></path><path d="M290.389333 217.216A42.666667 42.666667 0 1 0 221.610667 166.826667 577.706667 577.706667 0 0 0 225.28 855.04l17.92 23.893333a42.666667 42.666667 0 0 0 68.266667-51.2l-17.92-23.893333a492.373333 492.373333 0 0 1-3.157334-586.666667z"  ></path></svg>