<?xml version="1.0" standalone="no"?><svg xmlns="http://www.w3.org/2000/svg" class="icon"  id="Xz-pir2" viewBox="0 0 1024 1024"><path d="M512 896a384 384 0 1 1 0-768 384 384 0 0 1 0 768z m0 85.333333c259.2 0 469.333333-210.133333 469.333333-469.333333S771.2 42.666667 512 42.666667 42.666667 252.8 42.666667 512s210.133333 469.333333 469.333333 469.333333z m-280.661333-298.666666V403.413333h120.533333c20.736 0 38.869333 4.053333 54.4 12.245334 15.573333 8.192 27.648 19.669333 36.266667 34.517333 8.661333 14.805333 12.970667 32.128 12.970666 51.925333 0 20.053333-4.437333 37.333333-13.354666 51.968a87.808 87.808 0 0 1-37.248 33.834667c-15.872 7.893333-34.474667 11.861333-55.765334 11.861333H307.2V682.666667H231.338667z m102.528-141.824c8.96 0 16.512-1.536 22.784-4.608a33.877333 33.877333 0 0 0 14.592-13.525334 39.594667 39.594667 0 0 0 5.162666-20.565333 38.4 38.4 0 0 0-5.162666-20.48 32.512 32.512 0 0 0-14.592-13.098667 51.072 51.072 0 0 0-22.784-4.608H307.2v76.885334h26.709333zM559.146667 682.666667V403.413333h-75.818667V682.666667h75.818667z m35.925333-279.253334V682.666667h75.818667v-92.16h26.24L746.24 682.666667h82.346667l-56.746667-104.106667c14.506667-6.954667 25.856-16.853333 34.133333-29.653333 8.874667-13.738667 13.354667-30.592 13.354667-50.602667 0-19.84-4.352-36.821333-12.970667-50.986667a84.736 84.736 0 0 0-36.266666-32.597333c-15.573333-7.552-33.706667-11.306667-54.4-11.306667h-120.576z m75.818667 128.170667v-67.626667h26.752c8.917333 0 16.469333 1.194667 22.741333 3.669334 6.4 2.346667 11.264 6.101333 14.592 11.178666 3.456 4.992 5.205333 11.52 5.205333 19.498667 0 7.893333-1.706667 14.336-5.205333 19.2a28.8 28.8 0 0 1-14.592 10.794667 69.589333 69.589333 0 0 1-22.741333 3.285333h-26.752z"  ></path></svg>