<?xml version="1.0" standalone="no"?><svg xmlns="http://www.w3.org/2000/svg" class="icon"  id="Xz-powerFactor" viewBox="0 0 1024 1024"><path d="M796.458667 170.666667H227.541333C196.138667 170.666667 170.666667 196.138667 170.666667 227.541333v483.584C170.666667 742.528 196.138667 768 227.541333 768h568.917334c31.402667 0 56.874667-25.472 56.874666-56.874667V227.541333C853.333333 196.138667 827.861333 170.666667 796.458667 170.666667z m0-85.333334A142.250667 142.250667 0 0 1 938.666667 227.541333v483.584A142.250667 142.250667 0 0 1 796.458667 853.333333H725.333333v42.666667a42.666667 42.666667 0 0 1-42.666666 42.666667H341.333333a42.666667 42.666667 0 0 1-42.666666-42.666667v-42.666667H227.541333A142.250667 142.250667 0 0 1 85.333333 711.125333V227.541333A142.250667 142.250667 0 0 1 227.541333 85.333333h568.917334z m-395.008 358.954667H358.741333a28.928 28.928 0 0 0-2.432-9.6 22.144 22.144 0 0 0-13.397333-12.288 31.445333 31.445333 0 0 0-10.837333-1.706667 30.506667 30.506667 0 0 0-17.962667 5.12 31.786667 31.786667 0 0 0-11.093333 14.762667c-2.432 6.4-3.669333 14.122667-3.669334 23.125333 0 9.472 1.28 17.450667 3.754667 23.893334 2.56 6.314667 6.314667 11.093333 11.136 14.378666 4.864 3.157333 10.666667 4.736 17.493333 4.736a35.114667 35.114667 0 0 0 10.496-1.408 22.4 22.4 0 0 0 13.568-11.093333 27.093333 27.093333 0 0 0 2.944-8.96l42.709334 0.256c-0.512 6.570667-2.346667 13.269333-5.546667 20.053333a65.28 65.28 0 0 1-35.114667 32.597334 79.146667 79.146667 0 0 1-29.952 5.248 79.36 79.36 0 0 1-38.314666-9.173334 66.474667 66.474667 0 0 1-26.752-26.965333C259.242667 495.36 256 480.853333 256 463.701333c0-17.28 3.328-31.829333 9.984-43.648 6.698667-11.861333 15.658667-20.821333 26.965333-26.88 11.349333-6.101333 23.978667-9.173333 37.888-9.173333 9.813333 0 18.816 1.322667 27.050667 4.010667s15.445333 6.613333 21.674667 11.733333c6.229333 5.12 11.221333 11.392 15.018666 18.858667 3.754667 7.509333 6.058667 16.042667 6.869334 25.685333z m22.656 70.528a66.090667 66.090667 0 0 1-7.168-31.402667c0-11.946667 2.389333-22.4 7.168-31.402666 4.821333-9.002667 11.690667-16.042667 20.693333-21.034667 8.96-5.034667 19.797333-7.594667 32.426667-7.594667s23.466667 2.56 32.426666 7.594667c8.96 4.992 15.872 12.032 20.693334 21.034667 4.778667 9.002667 7.168 19.456 7.168 31.402666 0 11.904-2.389333 22.4-7.168 31.402667a51.626667 51.626667 0 0 1-20.693334 21.077333c-8.96 4.992-19.797333 7.509333-32.426666 7.509334s-23.466667-2.517333-32.426667-7.509334a51.626667 51.626667 0 0 1-20.693333-21.077333z m62.592-5.888a23.082667 23.082667 0 0 0 5.973333-10.154667c1.408-4.394667 2.133333-9.642667 2.133333-15.658666 0-6.144-0.725333-11.349333-2.133333-15.701334a23.125333 23.125333 0 0 0-5.973333-10.154666 13.056 13.056 0 0 0-9.173334-3.541334 13.994667 13.994667 0 0 0-9.6 3.541334 22.357333 22.357333 0 0 0-6.144 10.154666c-1.408 4.352-2.133333 9.557333-2.133333 15.658667s0.725333 11.306667 2.133333 15.701333a22.357333 22.357333 0 0 0 6.144 10.154667 13.994667 13.994667 0 0 0 9.6 3.541333 13.056 13.056 0 0 0 9.173334-3.541333z m174.165333-46.122667h-38.485333a10.581333 10.581333 0 0 0-2.517334-6.144 14.037333 14.037333 0 0 0-5.674666-3.925333 19.285333 19.285333 0 0 0-7.552-1.450667 20.138667 20.138667 0 0 0-9.258667 1.962667c-2.56 1.28-3.84 3.2-3.797333 5.589333a6.314667 6.314667 0 0 0 2.218666 4.778667c1.578667 1.450667 4.565333 2.602667 9.002667 3.413333l23.637333 4.266667c11.946667 2.133333 20.778667 5.802667 26.581334 10.965333a26.026667 26.026667 0 0 1 8.874666 20.522667 33.792 33.792 0 0 1-7.424 21.589333 46.933333 46.933333 0 0 1-19.925333 14.08c-8.362667 3.285333-17.92 4.949333-28.714667 4.949334-17.749333 0-31.701333-3.626667-41.728-10.922667a38.912 38.912 0 0 1-16.768-28.8h41.514667a11.946667 11.946667 0 0 0 5.461333 8.576c3.157333 1.962667 7.082667 2.986667 11.818667 2.986667 3.84 0 6.997333-0.682667 9.472-2.005334 2.56-1.28 3.84-3.157333 3.84-5.589333 0-2.218667-1.109333-4.010667-3.285333-5.290667a29.610667 29.610667 0 0 0-10.026667-3.2l-20.608-3.626666c-11.861333-2.090667-20.736-6.016-26.666667-11.818667a29.824 29.824 0 0 1-8.789333-22.442667 32.426667 32.426667 0 0 1 6.4-20.522666 39.936 39.936 0 0 1 18.56-12.885334c8.064-2.986667 17.621333-4.48 28.714667-4.48 16.810667 0 30.037333 3.498667 39.765333 10.453334 9.728 6.997333 14.848 16.64 15.36 28.970666z m74.794667 80.597334c-12.373333 0-23.125333-2.389333-32.085334-7.125334a49.877333 49.877333 0 0 1-20.693333-20.608 67.669333 67.669333 0 0 1-7.210667-32.256c0-12.032 2.432-22.528 7.253334-31.530666a52.053333 52.053333 0 0 1 20.565333-20.992c8.832-4.992 19.242667-7.509333 31.274667-7.509334 8.789333 0 16.725333 1.365333 23.893333 4.096 7.082667 2.730667 13.184 6.698667 18.218667 11.904 5.077333 5.12 8.96 11.434667 11.690666 18.773334 2.730667 7.381333 4.096 15.701333 4.096 24.96v9.685333h-75.776v1.792c0 3.754667 0.768 7.082667 2.346667 10.026667 1.578667 2.901333 3.84 5.205333 6.741333 6.869333 2.944 1.706667 6.485333 2.517333 10.624 2.517333 2.858667 0 5.504-0.426667 7.850667-1.237333a17.749333 17.749333 0 0 0 6.229333-3.456c1.706667-1.578667 2.986667-3.413333 3.797334-5.632h38.186666a43.52 43.52 0 0 1-9.344 21.077333 48.341333 48.341333 0 0 1-19.456 13.781334 75.093333 75.093333 0 0 1-28.16 4.864z m-16.128-82.517334a16.682667 16.682667 0 0 0-2.645334 8.874667h37.290667a16.426667 16.426667 0 0 0-9.173333-14.762667 19.328 19.328 0 0 0-9.344-2.218666 19.925333 19.925333 0 0 0-16.128 8.106666z"  ></path></svg>