<?xml version="1.0" standalone="no"?><svg xmlns="http://www.w3.org/2000/svg" class="icon"  id="Xz-pressure-TWO" viewBox="0 0 1024 1024"><path d="M738.133333 102.4a42.666667 42.666667 0 0 1-8.533333 59.733333c-29.141333 21.845333-68.778667 34.048-105.557333 41.088C586.24 210.474667 546.133333 213.333333 512 213.333333c-34.090667 0-74.197333-2.816-112.042667-10.112-36.778667-7.04-76.416-19.2-105.557333-41.088a42.666667 42.666667 0 1 1 51.2-68.266666c13.525333 10.154667 37.888 19.285333 70.442667 25.6C447.573333 125.44 482.133333 128 512 128c29.909333 0 64.469333-2.517333 95.957333-8.533333 32.554667-6.314667 56.917333-15.445333 70.4-25.6a42.666667 42.666667 0 0 1 59.733334 8.533333zM851.882667 298.666667a1.536 1.536 0 0 0-0.768 0.085333C772.821333 323.84 624.213333 366.506667 512 366.506667c-112.213333 0-260.821333-42.666667-339.114667-67.754667a1.493333 1.493333 0 0 0-0.768-0.042667 2.432 2.432 0 0 0-0.981333 0.426667c-0.298667 0.170667-0.426667 0.426667-0.426667 0.426667L170.666667 299.690667v432.426666s0.170667 0.256 0.469333 0.469334a2.474667 2.474667 0 0 0 0.981333 0.426666c0.170667 0 0.426667 0 0.768-0.085333 70.229333-22.485333 196.906667-59.093333 303.232-66.432a256.682667 256.682667 0 0 0-5.376 85.973333c-91.861333 8.149333-203.52 39.850667-271.786666 61.738667C144.085333 831.744 85.333333 791.594667 85.333333 732.032V299.690667c0-59.648 58.752-99.754667 113.578667-82.176C277.845333 242.773333 414.72 281.173333 512 281.173333c97.28 0 234.154667-38.4 313.088-63.658666C879.872 199.936 938.666667 240.042667 938.666667 299.690667v284.074666a257.28 257.28 0 0 0-85.333334-80.213333V299.605333s-0.170667-0.256-0.426666-0.426666a2.432 2.432 0 0 0-1.024-0.426667zM279.594667 857.856c68.906667-34.432 137.472-46.378667 204.330666-47.104 11.52 32.597333 29.44 62.122667 52.266667 87.168-15.658667-1.28-31.146667-1.877333-45.525333-1.877333-59.008 0-116.138667 9.813333-172.928 38.144a42.666667 42.666667 0 0 1-38.144-76.288zM725.333333 579.072a146.304 146.304 0 1 1 0 292.608 146.304 146.304 0 0 1 0-292.608zM944.768 725.333333a219.434667 219.434667 0 1 0-438.869333 0 219.434667 219.434667 0 0 0 438.869333 0z m-182.869333-74.368a36.565333 36.565333 0 0 0-73.130667 0v54.869334a36.565333 36.565333 0 1 0 73.130667 0v-54.869334zM725.333333 841.130667A36.565333 36.565333 0 1 0 725.333333 768a36.565333 36.565333 0 0 0 0 73.130667z"  ></path></svg>