<?xml version="1.0" standalone="no"?><svg xmlns="http://www.w3.org/2000/svg" class="icon"  id="Xz-pushButton" viewBox="0 0 1024 1024"><path d="M853.333333 227.541333C853.333333 196.138667 827.861333 170.666667 796.458667 170.666667H682.666667v682.666666h113.792c31.402667 0 56.874667-25.472 56.874666-56.874666V227.541333zM341.333333 853.333333V170.666667H227.541333C196.138667 170.666667 170.666667 196.138667 170.666667 227.541333v568.917334C170.666667 827.861333 196.138667 853.333333 227.541333 853.333333H341.333333zM341.333333 85.333333h455.125334A142.250667 142.250667 0 0 1 938.666667 227.541333v568.917334A142.250667 142.250667 0 0 1 796.458667 938.666667H227.541333A142.250667 142.250667 0 0 1 85.333333 796.458667V227.541333A142.250667 142.250667 0 0 1 227.541333 85.333333H341.333333z m85.333334 85.333334v170.666666h170.666666V170.666667h-170.666666z m170.666666 256h-170.666666v170.666666h170.666666v-170.666666z m0 256h-170.666666v170.666666h170.666666v-170.666666z"  ></path></svg>