<?xml version="1.0" standalone="no"?><svg xmlns="http://www.w3.org/2000/svg" class="icon"  id="Xz-par" viewBox="0 0 1024 1024"><path d="M639.274667 257.578667v393.130666l136.832-163.669333c-33.962667-78.08-87.765333-160.853333-136.832-229.461333z m-85.888-0.981334c-38.698667 53.632-72.661333 109.141333-104.746667 166.485334l104.746667 111.018666V256.597333z m85.888 590.677334a224.213333 224.213333 0 0 0 170.794666-222.890667c0-14.08-1.877333-27.306667-3.754666-40.448l-167.04 199.381333v64z m-38.698667 91.264a43.904 43.904 0 0 1-47.189333-38.570667v-242.688l-186.88-197.504a41.728 41.728 0 0 1-11.306667-32.896c0-6.613333 1.877333-13.226667 4.693333-19.754667a2009.002667 2009.002667 0 0 1 201.045334-302.890666c8.490667-11.264 21.717333-17.877333 34.901333-18.773334 13.226667-0.981333 26.453333 4.693333 34.944 15.018667 94.336 123.221333 265.173333 347.989333 265.173333 520.106667 2.816 169.344-127.402667 309.461333-295.381333 317.952zM254.208 342.186667c-11.306667 0-22.613333-4.693333-30.165333-12.245334L138.154667 244.394667a42.922667 42.922667 0 0 1 4.693333-60.202667 41.898667 41.898667 0 0 1 55.68 0l85.888 85.589333a42.752 42.752 0 0 1-0.938667 60.16 37.888 37.888 0 0 1-29.269333 12.288z m170.837333 383.744c-11.349333 0-22.613333-4.693333-30.208-12.245334L139.093333 457.898667a42.922667 42.922667 0 0 1 4.693334-60.16 41.898667 41.898667 0 0 1 55.722666 0l255.744 255.786666a42.752 42.752 0 0 1-0.938666 60.202667 41.472 41.472 0 0 1-29.269334 12.245333z m0 212.565333c-11.349333 0-22.613333-4.693333-30.208-12.245333L139.093333 670.464a42.922667 42.922667 0 0 1 4.693334-60.16 41.898667 41.898667 0 0 1 55.722666 0l255.744 255.786667a42.794667 42.794667 0 0 1-0.938666 60.202666 37.930667 37.930667 0 0 1-29.269334 12.245334z"  ></path></svg>