<?xml version="1.0" standalone="no"?><svg xmlns="http://www.w3.org/2000/svg" class="icon"  id="Xz-propane" viewBox="0 0 1024 1024"><path d="M745.002667 408.149333c20.053333 0 38.101333 3.2 54.186666 9.685334 16 6.528 28.757333 15.36 38.144 26.538666 9.386667 11.178667 14.08 23.68 14.08 37.589334 0 11.690667-2.773333 22.314667-8.362666 31.914666-5.674667 9.685333-13.653333 17.877333-23.338667 23.893334-8.021333 5.034667-17.066667 8.746667-27.306667 11.050666l-7.808 1.493334-0.853333 3.669333c15.573333 5.077333 27.818667 13.056 36.693333 24.064 8.789333 10.922667 13.226667 23.466667 13.226667 37.674667 0 16.512-5.333333 31.232-16.085333 44.117333-10.752 12.885333-25.557333 23.04-44.416 30.293333-18.816 7.338667-40.490667 10.965333-64.938667 10.965334-22.869333 0-43.093333-3.370667-60.672-10.112-17.664-6.656-31.445333-16-41.386667-27.946667a62.634667 62.634667 0 0 1-14.848-41.258667c0-13.397333 3.328-25.6 10.026667-36.565333 6.656-11.008 16.128-20.181333 28.288-27.605333 9.685333-5.973333 20.693333-10.325333 33.066667-13.141334l9.472-1.792 0.853333-3.498666a65.194667 65.194667 0 0 1-29.610667-20.821334 48.810667 48.810667 0 0 1-11.136-30.933333c0-15.232 4.864-28.842667 14.677334-40.832 9.728-11.946667 23.082667-21.333333 40.106666-28.202667a153.130667 153.130667 0 0 1 57.941334-10.282666z m-337.194667 7.381334l-23.978667 109.098666h114.090667l23.978667-109.098666h73.002666l-61.013333 278.101333h-73.173333l24.661333-112.170667H371.2l-24.661333 112.213334H273.792l61.013333-278.144h72.96z m308.224 158.293333c-9.130667 0-17.365333 1.834667-24.576 5.504-6.997333 3.413333-12.928 8.533333-17.237333 14.890667a37.248 37.248 0 0 0-6.357334 21.333333c0 10.581333 4.010667 19.114667 12.032 25.685333 8.106667 6.528 18.517333 9.813333 31.445334 9.813334 9.258667 0 17.536-1.792 24.789333-5.418667 7.04-3.328 13.013333-8.448 17.322667-14.762667 4.266667-6.272 6.442667-13.653333 6.357333-21.162666a31.701333 31.701333 0 0 0-5.589333-18.645334 38.144 38.144 0 0 0-15.445334-12.672 52.949333 52.949333 0 0 0-22.741333-4.565333z m-605.226667 26.069333a26.197333 26.197333 0 0 1 18.688 6.826667 24.704 24.704 0 0 1 7.850667 17.877333 24.021333 24.021333 0 0 1-7.850667 17.792 25.6 25.6 0 0 1-18.688 6.826667 25.813333 25.813333 0 0 1-17.28-7.552 24.32 24.32 0 0 1 0-34.133333 25.813333 25.813333 0 0 1 17.28-7.637334z m632.106667-142.933333a43.733333 43.733333 0 0 0-20.906667 5.034667 40.448 40.448 0 0 0-15.061333 13.653333 34.346667 34.346667 0 0 0-5.674667 19.2c0 9.088 3.413333 16.597333 10.24 22.528 6.826667 5.973333 15.573333 8.917333 26.197334 8.917333 7.168 0.042667 14.250667-1.664 20.565333-4.949333a42.24 42.24 0 0 0 15.616-13.909333 33.834667 33.834667 0 0 0 5.674667-18.858667 28.330667 28.330667 0 0 0-10.410667-22.613333 38.613333 38.613333 0 0 0-26.24-9.002667z m-543.104-29.738667c10.154667 0 19.84 3.882667 27.008 10.837334a36.437333 36.437333 0 0 1 11.178667 26.154666c0 9.813333-4.010667 19.2-11.178667 26.154667a38.784 38.784 0 0 1-27.008 10.837333 38.784 38.784 0 0 1-26.965333-10.837333 36.437333 36.437333 0 0 1-11.178667-26.154667c0-9.813333 4.010667-19.2 11.178667-26.154666a38.784 38.784 0 0 1 26.965333-10.837334z m700.672-83.882666a39.210667 39.210667 0 0 1 27.008 10.837333 37.034667 37.034667 0 0 1 11.178667 26.154667 36.010667 36.010667 0 0 1-11.178667 26.154666 38.272 38.272 0 0 1-27.008 10.837334 38.826667 38.826667 0 0 1-26.965333-10.837334 36.437333 36.437333 0 0 1-11.178667-26.154666c0-9.813333 4.010667-19.2 11.178667-26.154667a38.826667 38.826667 0 0 1 26.965333-10.837333zM325.76 128c19.754667 0 37.461333 3.84 53.333333 11.52 15.786667 7.68 28.330667 18.048 37.546667 31.232 9.173333 13.098667 13.781333 27.861333 13.781333 44.245333l-0.170666 4.778667-0.426667 4.949333h-61.44l0.128-3.114666a39.168 39.168 0 0 0-5.845333-21.333334 40.832 40.832 0 0 0-16.597334-15.104 52.181333 52.181333 0 0 0-23.978666-5.333333 57.301333 57.301333 0 0 0-28.458667 7.381333 73.088 73.088 0 0 0-22.954667 20.48 100.864 100.864 0 0 0-15.274666 31.104 131.328 131.328 0 0 0-5.461334 38.698667c0 11.392 1.877333 21.205333 5.717334 29.44 3.456 7.722667 9.173333 14.336 16.469333 18.986667 7.552 4.608 16.384 6.954667 25.301333 6.741333 8.234667 0 16.384-1.578667 23.936-4.693333 7.552-3.2 14.336-7.850667 19.968-13.653334 4.181333-4.309333 7.509333-9.216 9.941334-14.592l2.261333-5.504h61.866667c-2.986667 17.365333-10.624 33.664-22.016 47.36-11.349333 13.482667-25.6 24.021333-42.922667 31.530667-18.261333 7.68-38.058667 11.52-58.026667 11.264-21.76 0-40.704-4.266667-56.832-12.714667a90.538667 90.538667 0 0 1-37.376-35.925333c-8.832-15.488-13.312-33.706667-13.312-54.656 0-22.485333 3.541333-43.093333 10.453334-61.738667 6.912-18.730667 16.64-34.858667 29.184-48.512a130.986667 130.986667 0 0 1 44.672-31.658666c17.834667-7.594667 37.12-11.392 56.618666-11.178667h-0.042666z m239.786667 0c17.578667 0 33.109333 2.773333 46.634666 8.405333 13.482667 5.632 24.106667 13.354667 31.744 23.168 7.722667 9.813333 11.562667 21.162667 11.562667 33.92 0 10.24-2.645333 19.797333-7.893333 28.586667a67.712 67.712 0 0 1-43.776 30.805333l-8.234667 1.28-0.512 3.2c14.208 3.072 25.130667 9.002667 32.682667 17.792 7.68 8.789333 11.434667 19.84 11.434666 33.194667 0 14.592-4.437333 27.605333-13.312 39.082667-8.96 11.477333-21.12 20.48-36.522666 27.093333-16.725333 6.826667-34.730667 10.197333-52.906667 9.813333a135.466667 135.466667 0 0 1-51.797333-9.130666 80.896 80.896 0 0 1-34.602667-25.472 61.44 61.44 0 0 1-12.501333-38.058667l0.298666-5.333333 0.853334-6.656h59.349333a28.416 28.416 0 0 0 3.072 18.346666 31.744 31.744 0 0 0 13.781333 12.8c6.144 3.114667 13.354667 4.693333 21.589334 4.693334 7.168 0.128 14.293333-1.365333 20.736-4.394667a32.682667 32.682667 0 0 0 14.08-12.074667 31.274667 31.274667 0 0 0 5.034666-17.578666 23.509333 23.509333 0 0 0-9.813333-19.797334 37.674667 37.674667 0 0 0-19.626667-7.253333l-6.016-0.341333h-27.861333l9.301333-42.837334h31.872c8.490667 0 15.786667-1.28 21.888-3.669333a31.061333 31.061333 0 0 0 14.08-10.581333 27.050667 27.050667 0 0 0 4.906667-16.213334 22.954667 22.954667 0 0 0-4.394667-13.909333 28.586667 28.586667 0 0 0-12.16-9.301333 46.293333 46.293333 0 0 0-18.261333-3.328 41.301333 41.301333 0 0 0-23.765333 6.912 34.688 34.688 0 0 0-12.202667 14.122666l-1.834667 4.608H464.64c2.816-14.08 9.216-27.178667 18.56-38.229333 9.216-10.709333 20.906667-19.029333 34.986667-24.832 14.08-5.888 29.866667-8.832 47.402666-8.832z m216.533333 27.818667c13.482667 0 26.453333 5.205333 35.968 14.464 9.557333 9.258667 14.933333 21.76 14.933333 34.901333 0 13.056-5.376 25.6-14.933333 34.858667a51.712 51.712 0 0 1-35.968 14.506666c-13.482667 0-26.453333-5.248-35.968-14.506666a48.64 48.64 0 0 1-14.933333-34.858667c0-13.098667 5.376-25.642667 14.933333-34.901333 9.514667-9.258667 22.485333-14.464 35.968-14.464zM108.458667 790.144c131.328-54.613333 245.162667-56.661333 338.218666-3.669333l11.093334 6.613333c70.912 44.544 210.56 38.4 416.597333-23.893333a39.424 39.424 0 0 1 29.312 2.389333 37.888 37.888 0 0 1 18.858667 21.845333 36.010667 36.010667 0 0 1-2.730667 28.373334 38.570667 38.570667 0 0 1-22.741333 18.090666c-218.794667 66.133333-375.296 74.752-471.68 20.693334l-9.130667-5.418667c-71.381333-44.8-162.730667-44.8-277.76 2.986667a39.253333 39.253333 0 0 1-29.184 0.341333 37.632 37.632 0 0 1-20.906667-19.754667 35.968 35.968 0 0 1-0.341333-28.330666 37.546667 37.546667 0 0 1 20.394667-20.266667z"  ></path></svg>