<?xml version="1.0" standalone="no"?><svg xmlns="http://www.w3.org/2000/svg" class="icon"  id="Xz-pm10" viewBox="0 0 1024 1024"><path d="M284.373333 741.12c-54.741333 2.261333-113.792 16.981333-176.768 43.946667a38.826667 38.826667 0 0 0 30.592 71.253333c117.162667-50.005333 210.218667-50.005333 282.88-3.114667l9.258667 5.674667c98.176 56.704 257.621333 47.658667 480.469333-21.717333a38.912 38.912 0 0 0 27.690667-33.536 38.698667 38.698667 0 0 0-35.584-42.325334 38.954667 38.954667 0 0 0-15.189333 1.834667c-182.826667 56.874667-314.368 69.034667-392.96 40.405333-11.648-4.266667-22.144-9.386667-31.445334-15.36l-11.221333-6.997333h-0.128a290.730667 290.730667 0 0 0-124.928-39.210667 341.674667 341.674667 0 0 0-42.666667-0.853333z m125.781334-306.602667l-0.042667 0.085334H326.997333L256 481.962667v69.589333l67.072-44.288h3.968v210.176h83.114667v-282.965333zM259.669333 153.301333A29.952 29.952 0 0 0 308.48 120.746667a29.866667 29.866667 0 0 0-27.648-18.389334 29.952 29.952 0 0 0-29.909333 29.866667c0 7.893333 3.157333 15.445333 8.746666 21.077333zM149.888 239.786667a59.605333 59.605333 0 0 0 41.173333 101.248 59.946667 59.946667 0 0 0 56.832-36.437334 59.562667 59.562667 0 0 0-33.408-78.848 59.946667 59.946667 0 0 0-64.597333 14.037334z m58.752 34.986666a16.896 16.896 0 0 1-9.6 22.442667 17.28 17.28 0 0 1-18.56-4.053333 16.938667 16.938667 0 0 1 11.818667-28.8 17.28 17.28 0 0 1 16.341333 10.410666z m298.965333-76.032a55.765333 55.765333 0 0 0-14.08-13.141333l-0.170666-0.085333a62.890667 62.890667 0 0 0-4.693334-2.816 72.746667 72.746667 0 0 0-34.816-7.850667H376.490667v179.114667h45.653333V301.568h31.744l7.765333-0.341333a69.802667 69.802667 0 0 0 32-10.325334 56.704 56.704 0 0 0 17.962667-19.072c5.461333-9.472 8.106667-20.608 8.106667-33.28a66.56 66.56 0 0 0-8.106667-33.749333 57.429333 57.429333 0 0 0-4.010667-6.058667z m-39.125333 21.546667c3.413333 4.565333 5.12 10.581333 5.12 17.962667a33.066667 33.066667 0 0 1-2.773333 14.293333 22.954667 22.954667 0 0 1-12.202667 11.605333 30.933333 30.933333 0 0 1-6.144 1.962667c-2.986667 0.64-6.186667 0.938667-9.685333 0.938667l-20.693334 0.042666V209.92h20.693334v-0.085333a42.368 42.368 0 0 1 11.050666 1.28 27.946667 27.946667 0 0 1 11.648 5.973333c1.109333 0.981333 2.133333 2.090667 2.986667 3.242667z m81.792 133.674667h40.192v-113.92h2.474667l40.789333 113.92h26.154667l40.704-113.92h2.602666v113.92h40.149334V174.848H691.2L648.106667 296.234667h-2.261334l-43.52-121.386667h-52.010666v179.114667z m235.733333-152.832a59.818667 59.818667 0 0 1-38.058666-68.949334A59.605333 59.605333 0 0 1 806.4 85.333333 59.861333 59.861333 0 0 1 866.133333 145.024 59.605333 59.605333 0 0 1 806.4 204.714667c-6.997333 0-13.866667-1.28-20.352-3.584z m-40.448 295.168c8.533333 19.029333 13.44 41.216 14.677334 66.517333l0.341333 12.928c0 31.061333-4.949333 57.6-15.018667 79.872a116.48 116.48 0 0 1-42.965333 51.626667c-18.602667 12.074667-40.789333 18.090667-66.56 18.090666-25.728 0-47.957333-6.016-66.688-18.133333a116.906667 116.906667 0 0 1-43.093333-51.626667 182.442667 182.442667 0 0 1-14.805334-66.56l-0.341333-12.928c0-31.104 5.12-57.6 15.146667-79.786666a116.992 116.992 0 0 1 43.136-51.498667c18.688-12.117333 40.96-18.133333 66.688-18.133333s47.914667 6.016 66.56 18.133333c18.645333 12.074667 32.938667 29.269333 42.922666 51.498667z m-131.669333 3.029333c-5.973333 6.570667-10.581333 16.298667-13.738667 29.141333a183.893333 183.893333 0 0 0-4.48 36.352l-0.213333 10.922667c0 18.944 1.578667 34.645333 4.693333 47.488 3.157333 12.970667 7.722667 22.656 13.738667 29.397333 5.973333 6.613333 13.397333 9.941333 22.186667 9.941334a28.586667 28.586667 0 0 0 22.144-9.941334c5.973333-6.741333 10.538667-16.426667 13.653333-29.397333a184.32 184.32 0 0 0 4.394667-36.309333l0.213333-10.837334c0-17.066667-1.28-31.445333-3.712-43.477333a125.653333 125.653333 0 0 0-0.938667-4.138667c-3.072-12.842667-7.594667-22.570667-13.653333-29.141333a28.885333 28.885333 0 0 0-22.101333-9.941333m0 0.042666v-0.042666z m-0.853334 0h0.853334z m0 0a28.757333 28.757333 0 0 0-21.333333 9.898667m287.061333 304.341333zM818.517333 133.034667a17.194667 17.194667 0 0 0-29.312 11.946666 16.938667 16.938667 0 0 0 17.152 17.066667 17.194667 17.194667 0 0 0 17.152-17.066667 16.938667 16.938667 0 0 0-4.992-11.946666z"  ></path></svg>