<?xml version="1.0" standalone="no"?><svg xmlns="http://www.w3.org/2000/svg" class="icon"  id="Xz-pm2p5" viewBox="0 0 1024 1024"><path d="M452.053333 781.184l11.264 6.954667c72.234667 46.634667 214.528 40.277333 424.405334-25.002667a38.954667 38.954667 0 0 1 50.773333 40.533333 38.698667 38.698667 0 0 1-27.690667 33.493334c-222.848 69.376-382.293333 78.421333-480.426666 21.76l-9.301334-5.717334c-72.661333-46.933333-165.717333-46.933333-282.88 3.114667a38.954667 38.954667 0 0 1-49.706666-20.906667 38.698667 38.698667 0 0 1 19.114666-50.346666c133.717333-57.216 249.728-59.392 344.448-3.84v-0.042667z m384.597334-402.346667v58.154667H698.453333l-5.717333 76.032h3.84c5.802667-10.24 14.421333-18.645333 24.874667-24.149333 11.008-6.058667 23.808-9.088 38.357333-9.088 18.517333 0 34.986667 4.138667 49.237333 12.501333 14.293333 8.362667 25.472 19.712 33.706667 34.133333 6.741333 11.946667 10.752 25.429333 11.904 40.490667l0.298667 9.216c0 21.589333-4.949333 40.32-14.848 56.32-9.813333 16.128-23.68 28.629333-41.344 37.546667a135.253333 135.253333 0 0 1-61.568 13.312c-22.656 0-42.368-3.925333-59.093334-11.904a99.754667 99.754667 0 0 1-39.552-32.128 84.48 84.48 0 0 1-15.018666-37.248l-0.853334-8.277334-0.170666-3.242666h67.498666l0.426667 1.237333c1.664 6.144 4.608 11.733333 8.832 16.682667 4.394667 5.12 9.898667 9.173333 16.042667 11.904 6.485333 2.986667 13.781333 4.437333 21.888 4.437333 9.344 0 17.578667-1.962667 24.746666-5.973333 6.997333-3.84 12.8-9.6 16.725334-16.64 3.072-5.418667 4.992-11.392 5.674666-17.578667l0.384-6.613333a46.933333 46.933333 0 0 0-6.058666-24.448 43.733333 43.733333 0 0 0-16.853334-16.213334 50.133333 50.133333 0 0 0-24.618666-5.973333c-6.229333 0-11.946667 0.853333-17.109334 2.56-5.12 1.706667-9.941333 4.181333-14.208 7.466667a42.666667 42.666667 0 0 0-8.106666 7.253333l-3.328 4.138667-2.773334 4.437333h-64.426666l12.8-178.346667h196.608z m-306.432 222.506667c12.373333 0 22.314667 3.84 29.866666 11.392a39.338667 39.338667 0 0 1 11.306667 28.885333 39.509333 39.509333 0 0 1-11.306667 29.013334 39.978667 39.978667 0 0 1-29.866666 11.52 39.466667 39.466667 0 0 1-41.386667-40.533334 38.912 38.912 0 0 1 25.301333-37.546666 40.704 40.704 0 0 1 16.085334-2.688zM320.853333 370.858667c22.058667 0 41.344 3.669333 57.941334 11.008 16.512 7.296 29.44 17.578667 38.656 30.72 7.765333 10.922667 12.245333 23.466667 13.525333 37.376l0.426667 8.618666v1.024c0 11.093333-2.346667 22.144-7.04 33.109334-4.693333 10.965333-12.373333 22.613333-23.04 34.986666a379.306667 379.306667 0 0 1-32.938667 33.024l-10.538667 9.216-48 42.026667v4.650667h125.44v58.752H209.408v-50.346667l93.269333-86.698667c14.506667-13.312 25.813333-24.234667 33.877334-32.810666 8.021333-8.533333 13.568-15.872 16.64-21.973334a42.666667 42.666667 0 0 0 4.181333-12.16l0.512-5.973333v-0.853333a37.973333 37.973333 0 0 0-4.778667-19.328 31.872 31.872 0 0 0-13.781333-12.714667 47.445333 47.445333 0 0 0-21.376-4.522667 46.677333 46.677333 0 0 0-22.826667 5.333334 39.552 39.552 0 0 0-20.522666 30.293333l-0.341334 5.845333v1.706667l-69.162666-0.256v-1.237333c0-19.712 4.821333-36.949333 14.506666-51.754667a96.853333 96.853333 0 0 1 40.533334-34.645333c17.365333-8.277333 37.546667-12.416 60.629333-12.416h0.085333zM191.061333 221.696a59.946667 59.946667 0 0 1 56.832 36.437333 59.562667 59.562667 0 0 1-33.408 78.848 59.946667 59.946667 0 0 1-64.597333-14.08 59.605333 59.605333 0 0 1 41.173333-101.205333z m262.784-46.848c13.354667 0 24.96 2.56 34.816 7.850667 9.813333 5.290667 17.493333 12.629333 22.954667 22.101333 5.461333 9.514667 8.106667 20.693333 8.106667 33.706667 0 12.714667-2.645333 23.850667-8.106667 33.28-5.333333 9.429333-13.312 17.066667-22.954667 22.016a69.802667 69.802667 0 0 1-27.008 7.424l-7.765333 0.341333h-31.786667v52.394667H376.490667V174.848h77.354666z m148.437334 0l43.52 121.386667h2.261333L691.2 174.848h52.138667v179.114667h-40.149334v-113.92h-2.56l-40.746666 113.92h-26.154667l-40.746667-113.92h-2.56v113.92h-40.106666V174.848h52.053333-0.085333z m237.653333 94.592a20.992 20.992 0 0 1 20.309333 29.098667 20.864 20.864 0 0 1-34.389333 6.186666 20.906667 20.906667 0 0 1 14.08-35.285333z m-397.141333-59.562667h-20.693334V267.093333h20.693334c9.685333 0 17.28-2.474667 22.698666-7.381333 5.376-4.864 8.106667-11.904 8.106667-21.461333 0-9.301333-2.730667-16.384-8.106667-21.205334-5.418667-4.821333-13.013333-7.253333-22.698666-7.253333v0.085333z m-161.962667-107.52a29.952 29.952 0 0 1 29.866667 29.866667 29.781333 29.781333 0 0 1-29.866667 29.781333 29.952 29.952 0 0 1-29.909333-29.824 29.824 29.824 0 0 1 29.866666-29.866666zM806.357333 85.333333a59.861333 59.861333 0 0 1 59.818667 59.690667A59.605333 59.605333 0 0 1 806.4 204.714667a59.904 59.904 0 0 1-59.818667-59.733334A59.605333 59.605333 0 0 1 806.4 85.333333z"  ></path></svg>