<?xml version="1.0" standalone="no"?><svg xmlns="http://www.w3.org/2000/svg" class="icon"  id="Xz-pulseWaterMeter-TWO" viewBox="0 0 1024 1024"><path d="M327.210667 139.264a8.533333 8.533333 0 0 0-14.421334 0l-12.373333 19.370667-16.085333 25.173333-3.114667 4.906667-1.749333 2.858666a1593.130667 1593.130667 0 0 0-50.005334 86.144c-6.826667 12.714667-13.141333 24.96-18.901333 36.608C183.978667 368.469333 170.666667 407.893333 170.666667 438.272 170.666667 526.165333 237.568 597.333333 320 597.333333s149.333333-71.168 149.333333-159.061333c0-30.421333-13.312-69.802667-39.893333-123.946667-5.76-11.648-12.032-23.893333-18.901333-36.650666a1593.130667 1593.130667 0 0 0-54.869334-93.866667l-16.085333-25.173333-12.373333-19.370667zM312.874667 302.933333l7.082666-12.629333 7.168 12.629333 8.277334 15.146667c6.4 11.904 12.202667 23.168 17.450666 33.834667 21.973333 44.8 31.146667 72.874667 31.146667 86.314666C384 480.170667 354.090667 512 320 512c-34.133333 0-64-31.829333-64-73.728 0-13.44 9.173333-41.514667 31.146667-86.314667 5.248-10.666667 11.093333-21.930667 17.493333-33.834666l8.234667-15.146667z m398.293333-163.712a8.533333 8.533333 0 0 0-14.378667 0l-12.373333 19.370667-16.085333 25.173333a924.16 924.16 0 0 0-3.114667 4.906667l-1.749333 2.858667a1588.266667 1588.266667 0 0 0-50.005334 86.144c-6.826667 12.714667-13.184 24.96-18.901333 36.608C567.978667 368.469333 554.666667 407.893333 554.666667 438.272c0 29.141333 7.338667 56.448 20.181333 79.914667a255.146667 255.146667 0 0 1 76.501333-37.973334 80.768 80.768 0 0 1-11.349333-41.941333c0-13.44 9.173333-41.514667 31.146667-86.314667 5.248-10.666667 11.093333-21.930667 17.493333-33.834666l8.234667-15.146667 7.082666-12.629333 7.168 12.629333 8.277334 15.146667c6.4 11.904 12.202667 23.168 17.450666 33.834666 21.973333 44.8 31.146667 72.874667 31.146667 86.314667 0 12.202667-2.56 23.552-6.997333 33.536a254.293333 254.293333 0 0 1 81.578666 25.898667c6.912-18.346667 10.752-38.4 10.752-59.434667 0-30.421333-13.312-69.802667-39.893333-123.946667-5.76-11.648-12.032-23.893333-18.901333-36.650666a1588.266667 1588.266667 0 0 0-54.869334-93.866667l-16.085333-25.173333-12.373333-19.370667z m-189.013333 397.781334l11.733333 18.346666a255.061333 255.061333 0 0 0-62.762667 200.277334 42.24 42.24 0 0 0-1.792 10.197333c0 12.117333 3.882667 22.741333 10.026667 30.592 10.410667 36.138667 28.586667 68.992 52.608 96.64a115.413333 115.413333 0 0 1-25.770667 2.901333C438.741333 896 384 837.76 384 765.866667c0-24.917333 10.88-57.130667 32.64-101.418667 4.693333-9.557333 9.856-19.541333 15.445333-29.994667a1301.504 1301.504 0 0 1 40.96-70.442666l1.408-2.304 2.56-4.010667 13.141334-20.650667 8.832-13.781333a8.533333 8.533333 0 0 1 14.378666 0l8.832 13.781333z m203.178666 41.984a146.304 146.304 0 1 1 0 292.608 146.304 146.304 0 0 1 0-292.608zM944.768 725.333333a219.434667 219.434667 0 1 0-438.869333 0 219.434667 219.434667 0 0 0 438.869333 0z m-182.869333-74.368a36.565333 36.565333 0 0 0-73.130667 0v54.869334a36.565333 36.565333 0 1 0 73.130667 0v-54.869334zM725.333333 841.130667A36.565333 36.565333 0 1 0 725.333333 768a36.565333 36.565333 0 0 0 0 73.130667z"  ></path></svg>