<?xml version="1.0" standalone="no"?><svg xmlns="http://www.w3.org/2000/svg" class="icon"  id="Xz-peopleFlowCount" viewBox="0 0 1024 1024"><path d="M542.165333 328.832l85.333334-85.333333a42.666667 42.666667 0 0 0-60.330667-60.330667L554.666667 195.669333V85.333333a42.666667 42.666667 0 1 0-85.333334 0v110.336l-12.501333-12.501333a42.666667 42.666667 0 0 0-60.330667 60.330667l85.333334 85.333333a42.666667 42.666667 0 0 0 60.330666 0zM341.333333 128a42.666667 42.666667 0 0 0-42.666666-42.666667H170.666667a85.333333 85.333333 0 0 0-85.333334 85.333334v128a42.666667 42.666667 0 0 0 85.333334 0V192a21.333333 21.333333 0 0 1 21.333333-21.333333H298.666667a42.666667 42.666667 0 0 0 42.666666-42.666667z m0 768a42.666667 42.666667 0 0 1-42.666666 42.666667H170.666667a85.333333 85.333333 0 0 1-85.333334-85.333334v-128a42.666667 42.666667 0 1 1 85.333334 0v106.666667a21.333333 21.333333 0 0 0 21.333333 21.333333H298.666667a42.666667 42.666667 0 0 1 42.666666 42.666667z m384-810.666667a42.666667 42.666667 0 1 0 0 85.333334h106.666667a21.333333 21.333333 0 0 1 21.333333 21.333333V298.666667a42.666667 42.666667 0 1 0 85.333334 0V170.666667a85.333333 85.333333 0 0 0-85.333334-85.333334h-128z m-42.666666 642.517334c120.362667 0 248.533333 67.498667 255.744 145.493333l0.256 5.12v25.088c0 18.005333-13.568 32.853333-31.018667 34.858667l-4.096 0.256H461.781333a35.157333 35.157333 0 0 1-34.901333-31.018667L426.666667 903.552v-25.130667c0-78.421333 125.610667-147.584 248.064-150.485333L682.666667 727.893333z m-101.376 98.56c-6.698667 3.242667-13.866667 6.698667-21.76 10.368-19.157333 8.96-33.877333 18.005333-44.245334 25.386666l-8.234666 6.229334h354.005333l-0.341333-0.341334a260.693333 260.693333 0 0 0-169.685334-69.802666L682.666667 798.122667c-42.666667 0-64.853333 10.709333-101.376 28.330666zM243.498667 396.544l85.333333 85.333333a42.666667 42.666667 0 0 1 0 60.330667l-85.333333 85.333333a42.666667 42.666667 0 0 1-60.330667-60.330666L195.669333 554.666667H85.333333a42.666667 42.666667 0 1 1 0-85.333334h110.336l-12.501333-12.501333a42.666667 42.666667 0 0 1 60.330667-60.330667zM725.333333 554.666667a42.666667 42.666667 0 1 0-85.333333 0 42.666667 42.666667 0 0 0 85.333333 0z m85.333334 0a128 128 0 1 1-256 0 128 128 0 0 1 256 0z"  ></path></svg>