<?xml version="1.0" standalone="no"?><svg xmlns="http://www.w3.org/2000/svg" class="icon"  id="Xz-pir-400-TWO" viewBox="0 0 1024 1024"><path d="M853.333333 227.541333v568.917334c0 31.402667-25.472 56.874667-56.874666 56.874666H227.541333A56.917333 56.917333 0 0 1 170.666667 796.458667V227.541333C170.666667 196.138667 196.138667 170.666667 227.541333 170.666667h568.917334C827.861333 170.666667 853.333333 196.138667 853.333333 227.541333z m85.333334 0A142.250667 142.250667 0 0 0 796.458667 85.333333H227.541333A142.250667 142.250667 0 0 0 85.333333 227.541333v568.917334A142.250667 142.250667 0 0 0 227.541333 938.666667h568.917334A142.250667 142.250667 0 0 0 938.666667 796.458667V227.541333zM455.68 256C533.930667 256 597.333333 318.421333 597.333333 395.434667a138.794667 138.794667 0 0 1-63.872 116.608l1.365334-0.042667h167.68a29.866667 29.866667 0 0 1 27.946666 18.474667l37.546667 95.317333v128a14.592 14.592 0 0 1-14.933333 14.208h-14.933334a14.592 14.592 0 0 1-14.933333-14.208v-14.250667h-209.066667v14.250667a14.592 14.592 0 0 1-14.933333 14.208h-14.933333a14.592 14.592 0 0 1-14.933334-14.208v-128l37.546667-95.317333a27.392 27.392 0 0 1 3.413333-6.314667 143.189333 143.189333 0 0 1-57.557333 10.752c-2.901333 0-3.797333 0.042667-8.106667-0.426667H327.850667V768H256V256.768h64v-0.256h125.141333l0.768-0.042667c3.242667-0.256 6.485333-0.469333 9.813334-0.469333z m-7.424 76.245333H324.266667v130.730667h123.989333c36.224-1.578667 69.418667-32.938667 69.418667-65.92 0-32.981333-33.194667-63.232-69.418667-64.810667zM725.333333 625.792L697.514667 554.666667h-160.981334L512 625.792h213.333333z m-166.4 49.749333c0 11.776-10.026667 21.333333-22.4 21.333334a21.888 21.888 0 0 1-22.4-21.333334c0-11.776 10.026667-21.333333 22.4-21.333333 12.373333 0 22.4 9.557333 22.4 21.333333z m164.266667 0c0 11.776-10.026667 21.333333-22.4 21.333334a21.888 21.888 0 0 1-22.4-21.333334c0-11.776 10.026667-21.333333 22.4-21.333333 12.373333 0 22.4 9.557333 22.4 21.333333z"  ></path></svg>