<?xml version="1.0" standalone="no"?><svg xmlns="http://www.w3.org/2000/svg" class="icon"  id="Xz-PIRchufa" viewBox="0 0 1024 1024"><path d="M613.376 582.144c-12.288-19.968-17.408-62.976 30.208-157.184 6.656-12.8 3.072-28.672-7.68-38.4-0.512-0.512-1.024-0.512-1.536-1.024 1.024 0 2.56 0.512 3.584 0.512 86.528 0 157.184-70.656 157.184-157.184S724.48 71.68 637.952 71.68 480.768 142.848 480.768 229.376c0 74.752 52.736 137.216 122.88 153.088-2.56 1.024-4.608 2.048-6.656 3.584l-215.04 161.28c-14.336 10.24-17.408 29.696-7.68 44.032 10.24 14.336 29.696 17.408 44.032 7.68 0.512-0.512 1.024-0.512 1.536-1.024l128-96.768c-10.24 46.592-6.144 84.48 12.288 114.688 9.216 14.336 18.944 27.648 28.16 39.936 29.184 39.424 43.008 59.904 33.28 97.28-7.168 28.16-33.792 79.36-120.32 162.304-12.288 11.776-12.8 31.744-1.024 44.544s31.744 12.8 44.544 1.024c79.36-75.776 123.904-138.752 137.728-192.512 17.408-68.608-13.824-110.08-44.032-150.528-8.192-10.752-16.896-22.528-25.088-35.84z m-70.144-352.768c0-52.224 42.496-94.208 94.208-94.208S732.16 177.152 732.16 229.376s-42.496 94.208-94.208 94.208-94.72-41.984-94.72-94.208z" fill="#1094DD" ></path><path d="M291.84 517.12c0-64 25.088-125.952 70.656-171.008 12.288-12.288 12.288-32.256 0-44.544-12.288-12.288-32.256-12.288-44.544 0C260.608 358.912 229.376 435.712 229.376 517.12s31.744 158.208 89.088 215.552c12.288 12.288 32.256 12.288 44.544 0 12.288-12.288 12.288-32.256 0-44.544C317.44 643.072 291.84 581.12 291.84 517.12z" fill="#1094DD" ></path><path d="M134.656 520.192c0-113.152 44.032-219.648 124.416-300.032 12.288-12.288 12.288-32.256 0-44.544-12.288-12.288-32.256-12.288-44.544 0C122.88 266.752 71.68 391.168 72.192 520.192c0 130.048 50.688 252.416 142.848 344.576 12.288 12.288 32.256 12.288 44.544 0 12.288-12.288 12.288-32.256 0-44.544-80.384-79.36-124.928-187.392-124.928-300.032z m733.696 213.504c-31.232-71.68-81.408-123.904-150.016-155.648-15.872-7.168-34.304-0.512-41.472 15.36-7.168 15.872-0.512 34.304 15.36 41.472 54.784 25.088 93.184 65.536 118.784 123.392 27.648 64 49.152 130.048 63.488 198.144 3.584 16.896 20.48 27.648 37.376 24.064 16.896-3.584 27.648-20.48 24.064-37.376-15.36-71.68-38.4-141.824-67.584-209.408z m48.128-224.256c-40.96 7.68-78.336 5.12-113.664-9.216-33.792-13.824-58.368-35.328-74.752-65.536-8.192-15.36-27.136-20.992-42.496-12.8-15.36 8.192-20.992 27.136-12.8 42.496 23.04 43.008 58.88 74.752 106.496 94.208 30.208 12.288 61.952 18.432 94.208 17.92 17.92 0 36.352-2.048 54.784-5.632 16.896-4.096 27.648-20.992 23.552-37.888-3.584-15.872-18.944-26.112-35.328-23.552z" fill="#1094DD" ></path></svg>