<?xml version="1.0" standalone="no"?><svg xmlns="http://www.w3.org/2000/svg" class="icon"  id="Xz-powerConsumption" viewBox="0 0 1024 1024"><path d="M162.901333 512a349.098667 349.098667 0 1 0 698.197334 0 349.098667 349.098667 0 0 0-698.197334 0zM938.666667 512c0 235.648-191.018667 426.666667-426.666667 426.666667S85.333333 747.648 85.333333 512 276.352 85.333333 512 85.333333s426.666667 191.018667 426.666667 426.666667zM425.472 256c-14.506667 0-27.776 8.106667-34.56 21.077333l-130.389333 249.6a40.064 40.064 0 0 0 1.066666 38.997334c7.082667 11.904 19.797333 19.2 33.536 19.2h115.029334l-46.165334 176a39.808 39.808 0 0 0 18.858667 44.842666 38.741333 38.741333 0 0 0 47.530667-7.68l284.458666-308.992a40.021333 40.021333 0 0 0 7.253334-42.837333 39.082667 39.082667 0 0 0-35.84-23.808h-96.853334l80.042667-102.144c9.344-11.946667 11.093333-28.16 4.608-41.856A39.082667 39.082667 0 0 0 638.805333 256h-213.333333zM360.106667 505.6l88.96-170.368h108.8L477.866667 437.376a40.064 40.064 0 0 0-4.608 41.856c6.528 13.696 20.224 22.4 35.242666 22.4h87.808l-116.565333 126.634667 19.114667-72.874667a40.021333 40.021333 0 0 0-6.784-34.304 38.912 38.912 0 0 0-30.976-15.488H360.064z"  ></path></svg>