<?xml version="1.0" standalone="no"?><svg xmlns="http://www.w3.org/2000/svg" class="icon"  id="Xz-peopleOut" viewBox="0 0 1024 1024"><path d="M490.666667 85.333333C596.736 85.333333 682.666667 171.264 682.666667 277.333333S596.736 469.333333 490.666667 469.333333A191.957333 191.957333 0 0 1 298.666667 277.333333C298.666667 171.264 384.597333 85.333333 490.666667 85.333333z m0 85.333334A106.965333 106.965333 0 0 0 384 277.333333C384 336 432 384 490.666667 384S597.333333 336 597.333333 277.333333 549.333333 170.666667 490.666667 170.666667zM213.674667 765.354667c-0.298667 1.706667-0.341333 2.56-0.341334 2.645333a42.666667 42.666667 0 0 1-85.333333 0c0-21.802667 8.789333-48.298667 22.442667-73.6a307.84 307.84 0 0 1 66.56-82.773333C278.528 557.013333 374.101333 512 512 512c170.24 0 282.197333 69.077333 334.165333 146.986667a42.666667 42.666667 0 0 1-70.997333 47.36C741.802667 656.213333 659.029333 597.333333 512 597.333333c-118.101333 0-193.194667 37.973333-238.336 78.08a222.762667 222.762667 0 0 0-48.128 59.52c-4.821333 8.96-8.064 16.810667-9.984 23.04-0.938667 3.029333-1.536 5.546667-1.877333 7.381334zM469.333333 682.666667a42.666667 42.666667 0 0 1 42.666667 42.666666v85.333334h153.002667l-12.501334-12.501334a42.666667 42.666667 0 0 1 60.330667-60.330666l85.333333 85.333333a42.666667 42.666667 0 0 1 0 60.330667l-85.333333 85.333333a42.666667 42.666667 0 0 1-60.330667-60.330667l12.501334-12.501333H469.333333a42.666667 42.666667 0 0 1-42.666666-42.666667v-128a42.666667 42.666667 0 0 1 42.666666-42.666666z"  ></path></svg>