<?xml version="1.0" standalone="no"?><svg xmlns="http://www.w3.org/2000/svg" class="icon"  id="Xz-pressure" viewBox="0 0 1024 1024"><path d="M738.133333 102.4a42.666667 42.666667 0 0 1-8.533333 59.733333c-29.141333 21.845333-68.778667 34.048-105.557333 41.088C586.24 210.474667 546.133333 213.333333 512 213.333333c-34.090667 0-74.197333-2.816-112.042667-10.112-36.778667-7.04-76.416-19.2-105.557333-41.088a42.666667 42.666667 0 1 1 51.2-68.266666c13.525333 10.154667 37.888 19.285333 70.442667 25.6C447.573333 125.44 482.133333 128 512 128c29.909333 0 64.469333-2.517333 95.957333-8.533333 32.554667-6.314667 56.917333-15.445333 70.4-25.6a42.666667 42.666667 0 0 1 59.733334 8.533333zM851.882667 298.666667a1.536 1.536 0 0 0-0.768 0.085333C772.821333 323.84 624.213333 366.506667 512 366.506667c-112.213333 0-260.821333-42.666667-339.114667-67.754667a1.493333 1.493333 0 0 0-0.768-0.042667 2.432 2.432 0 0 0-0.981333 0.426667c-0.298667 0.170667-0.426667 0.426667-0.426667 0.426667L170.666667 299.690667v432.426666s0.170667 0.256 0.469333 0.469334a2.474667 2.474667 0 0 0 0.981333 0.426666c0.170667 0 0.426667 0 0.768-0.085333C251.178667 707.84 399.786667 665.173333 512 665.173333c112.213333 0 260.821333 42.666667 339.114667 67.754667a1.493333 1.493333 0 0 0 0.768 0.085333 2.432 2.432 0 0 0 0.981333-0.426666c0.298667-0.213333 0.426667-0.426667 0.426667-0.426667l0.042666-0.128V299.52s-0.170667-0.256-0.426666-0.426667a2.432 2.432 0 0 0-1.024-0.426666z m-26.794667-81.152C879.872 199.936 938.666667 240.042667 938.666667 299.690667v432.341333c0 59.605333-58.794667 99.712-113.578667 82.176-78.933333-25.301333-215.808-63.701333-313.088-63.701333-97.28 0-234.154667 38.4-313.088 63.701333C144.128 831.744 85.333333 791.594667 85.333333 732.032V299.690667c0-59.648 58.752-99.754667 113.578667-82.176C277.845333 242.773333 414.72 281.173333 512 281.173333c97.28 0 234.154667-38.4 313.088-63.658666zM657.066667 930.133333a42.666667 42.666667 0 1 0 51.2-68.266666c-29.141333-21.845333-68.778667-34.048-105.557334-41.088A611.072 611.072 0 0 0 490.666667 810.666667c-68.992 0-139.861333 11.52-211.072 47.146666a42.666667 42.666667 0 0 0 38.144 76.373334c56.746667-28.416 113.92-38.186667 172.928-38.186667 29.909333 0 64.469333 2.517333 95.957333 8.533333 32.554667 6.314667 56.917333 15.445333 70.4 25.6z"  ></path></svg>