<?xml version="1.0" standalone="no"?><svg xmlns="http://www.w3.org/2000/svg" class="icon"  id="Xz-peopleOutTotal" viewBox="0 0 1024 1024"><path d="M938.666667 597.333333a42.666667 42.666667 0 1 1 0 85.333334h-85.333334a42.666667 42.666667 0 1 1 0-85.333334h85.333334z m0-170.666666a42.666667 42.666667 0 1 1 0 85.333333h-149.333334a42.666667 42.666667 0 1 1 0-85.333333H938.666667zM405.333333 85.333333C511.402667 85.333333 597.333333 171.264 597.333333 277.333333S511.402667 469.333333 405.333333 469.333333A191.957333 191.957333 0 0 1 213.333333 277.333333C213.333333 171.264 299.264 85.333333 405.333333 85.333333z m0 85.333334A106.965333 106.965333 0 0 0 298.666667 277.333333C298.666667 336 346.666667 384 405.333333 384S512 336 512 277.333333 464 170.666667 405.333333 170.666667zM938.666667 256a42.666667 42.666667 0 1 1 0 85.333333h-213.333334a42.666667 42.666667 0 1 1 0-85.333333h213.333334zM128.341333 765.354667c-0.298667 1.706667-0.341333 2.56-0.341333 2.645333a42.666667 42.666667 0 1 1-85.333333 0c0-21.802667 8.789333-48.298667 22.442666-73.6a307.84 307.84 0 0 1 66.56-82.773333C193.194667 557.013333 288.768 512 426.666667 512c170.24 0 282.197333 69.077333 334.165333 146.986667a42.666667 42.666667 0 0 1-70.997333 47.36C656.469333 656.213333 573.696 597.333333 426.666667 597.333333c-118.101333 0-193.194667 37.973333-238.336 78.08a222.762667 222.762667 0 0 0-48.128 59.52c-4.821333 8.96-8.064 16.810667-9.984 23.04-0.938667 3.029333-1.536 5.546667-1.877334 7.381334zM384 682.666667a42.666667 42.666667 0 0 1 42.666667 42.666666v85.333334h153.002666l-12.501333-12.501334a42.666667 42.666667 0 0 1 60.330667-60.330666l85.333333 85.333333a42.666667 42.666667 0 0 1 0 60.330667l-85.333333 85.333333a42.666667 42.666667 0 0 1-60.330667-60.330667l12.501333-12.501333H384a42.666667 42.666667 0 0 1-42.666667-42.666667v-128a42.666667 42.666667 0 0 1 42.666667-42.666666z"  ></path></svg>