<?xml version="1.0" standalone="no"?><svg xmlns="http://www.w3.org/2000/svg" class="icon"  id="Xz-region" viewBox="0 0 1024 1024"><path d="M298.666667 85.333333a42.666667 42.666667 0 0 1 0 85.333334H192a21.333333 21.333333 0 0 0-21.333333 21.333333V298.666667a42.666667 42.666667 0 0 1-85.333334 0V170.666667a85.333333 85.333333 0 0 1 85.333334-85.333334h128z m0 853.333334a42.666667 42.666667 0 1 0 0-85.333334H192a21.333333 21.333333 0 0 1-21.333333-21.333333V725.333333a42.666667 42.666667 0 1 0-85.333334 0v128a85.333333 85.333333 0 0 0 85.333334 85.333334h128z m384-810.666667a42.666667 42.666667 0 0 1 42.666666-42.666667h128a85.333333 85.333333 0 0 1 85.333334 85.333334v128a42.666667 42.666667 0 1 1-85.333334 0V192a21.333333 21.333333 0 0 0-21.333333-21.333333H725.333333a42.666667 42.666667 0 0 1-42.666666-42.666667z m42.666666 810.666667a42.666667 42.666667 0 1 1 0-85.333334h106.666667a21.333333 21.333333 0 0 0 21.333333-21.333333V725.333333a42.666667 42.666667 0 1 1 85.333334 0v128a85.333333 85.333333 0 0 1-85.333334 85.333334h-128z m85.077334-193.322667c-7.210667-77.994667-178.048-145.493333-298.410667-145.493333l-7.936 0.085333C381.610667 602.88 213.333333 672.042667 213.333333 750.421333v25.088l0.256 4.138667c2.005333 17.493333 16.853333 31.018667 34.901334 31.018667h527.061333l4.096-0.256a35.157333 35.157333 0 0 0 31.018667-34.858667v-25.130667l-0.256-5.12z m-464.213334-36.565333c50.773333-23.637333 115.370667-38.656 165.802667-38.656l8.32 0.128c84.053333 2.602667 184.149333 43.434667 212.394667 69.802666l0.341333 0.341334H293.717333l8.234667-6.229334a280.746667 280.746667 0 0 1 44.288-25.386666zM682.666667 371.456c0-94.293333-76.373333-170.666667-170.666667-170.666667l-8.021333 0.170667A170.624 170.624 0 0 0 341.333333 371.456c0 94.293333 76.373333 170.666667 170.666667 170.666667l8.021333-0.213334A170.624 170.624 0 0 0 682.666667 371.456z m-256 0a85.290667 85.290667 0 1 1 170.666666 0 85.333333 85.333333 0 1 1-170.666666 0z"  ></path></svg>