<?xml version="1.0" standalone="no"?><svg xmlns="http://www.w3.org/2000/svg" class="icon"  id="Xz-regionPeopleCount" viewBox="0 0 1024 1024"><path d="M341.333333 128a42.666667 42.666667 0 0 0-42.666666-42.666667H170.666667a85.333333 85.333333 0 0 0-85.333334 85.333334v128a42.666667 42.666667 0 0 0 85.333334 0V192a21.333333 21.333333 0 0 1 21.333333-21.333333H298.666667a42.666667 42.666667 0 0 0 42.666666-42.666667z m0 768a42.666667 42.666667 0 0 1-42.666666 42.666667H170.666667a85.333333 85.333333 0 0 1-85.333334-85.333334v-128a42.666667 42.666667 0 1 1 85.333334 0v106.666667a21.333333 21.333333 0 0 0 21.333333 21.333333H298.666667a42.666667 42.666667 0 0 1 42.666666 42.666667z m384-810.666667a42.666667 42.666667 0 1 0 0 85.333334h106.666667a21.333333 21.333333 0 0 1 21.333333 21.333333V298.666667a42.666667 42.666667 0 1 0 85.333334 0V170.666667a85.333333 85.333333 0 0 0-85.333334-85.333334h-128z m-42.666666 810.666667a42.666667 42.666667 0 0 0 42.666666 42.666667h128a85.333333 85.333333 0 0 0 85.333334-85.333334v-128a42.666667 42.666667 0 1 0-85.333334 0v106.666667a21.333333 21.333333 0 0 1-21.333333 21.333333H725.333333a42.666667 42.666667 0 0 0-42.666666 42.666667z m-213.333334-426.666667a42.666667 42.666667 0 1 1 0-85.333333 42.666667 42.666667 0 0 1 0 85.333333z m0 85.333334a128 128 0 1 0 0-256 128 128 0 0 0 0 256z m255.744 190.677333c-7.210667-77.994667-135.381333-145.493333-255.744-145.493333l-7.936 0.085333C338.944 602.88 213.333333 672.042667 213.333333 750.421333v25.088l0.256 4.138667c2.005333 17.493333 16.853333 31.018667 34.901334 31.018667h441.728l4.096-0.256a35.157333 35.157333 0 0 0 31.018666-34.858667v-25.130667l-0.256-5.12z m-378.88-36.565333c7.893333-3.669333 15.061333-7.125333 21.76-10.325334 36.48-17.621333 58.752-28.330667 101.376-28.330666l8.32 0.128a260.693333 260.693333 0 0 1 169.728 69.802666l0.341334 0.341334H293.717333l8.234667-6.229334a280.746667 280.746667 0 0 1 44.288-25.386666zM682.666667 426.666667a42.666667 42.666667 0 1 0 0 85.333333h128a42.666667 42.666667 0 1 0 0-85.333333h-128z m0 170.666666a42.666667 42.666667 0 0 1 42.666666-42.666666h85.333334a42.666667 42.666667 0 1 1 0 85.333333h-85.333334a42.666667 42.666667 0 0 1-42.666666-42.666667z"  ></path></svg>