<?xml version="1.0" standalone="no"?><svg xmlns="http://www.w3.org/2000/svg" class="icon"  id="Xz-rainfall" viewBox="0 0 1137 1024"><path d="M772.778667 232.846222A406.072889 406.072889 0 0 0 405.959111 0C181.703111 0 0 182.727111 0 407.950222c0 129.877333 60.871111 249.742222 162.247111 326.257778a56.888889 56.888889 0 1 0 68.551111-90.737778A294.286222 294.286222 0 0 1 113.777778 407.893333C113.777778 245.418667 244.622222 113.777778 405.959111 113.777778a292.636444 292.636444 0 0 1 282.112 217.144889 56.888889 56.888889 0 0 0 80.782222 35.84 173.738667 173.738667 0 0 1 79.303111-18.944C945.208889 347.818667 1024 427.064889 1024 524.970667a177.208889 177.208889 0 0 1-105.642667 162.531555 56.888889 56.888889 0 1 0 45.795556 104.106667A290.986667 290.986667 0 0 0 1137.777778 525.027556c0-160.597333-129.592889-290.929778-289.564445-290.929778l-17.237333 0.512a288.312889 288.312889 0 0 0-50.517333 7.509333l-3.185778 0.796445-4.551111-10.012445zM398.222222 625.777778a56.888889 56.888889 0 1 0-113.777778 0v227.555555a56.888889 56.888889 0 1 0 113.777778 0v-227.555555z m170.666667 56.888889a56.888889 56.888889 0 0 1 56.888889 56.888889v227.555555a56.888889 56.888889 0 1 1-113.777778 0v-227.555555a56.888889 56.888889 0 0 1 56.888889-56.888889z m284.444444-56.888889a56.888889 56.888889 0 1 0-113.777777 0v227.555555a56.888889 56.888889 0 1 0 113.777777 0v-227.555555z" fill="#272E3B" ></path></svg>