<?xml version="1.0" standalone="no"?><svg xmlns="http://www.w3.org/2000/svg" class="icon"  id="Xz-soundLevel" viewBox="0 0 1024 1024"><path d="M810.666667 128a85.333333 85.333333 0 0 1 85.333333 85.333333v597.333334a85.333333 85.333333 0 0 1-85.333333 85.333333H213.333333a85.333333 85.333333 0 0 1-85.333333-85.333333V213.333333a85.333333 85.333333 0 0 1 85.333333-85.333333h597.333334z m0 85.333333H213.333333v597.333334h597.333334V213.333333z m-362.666667 64a38.4 38.4 0 0 1 38.4 38.4v392.533334a38.4 38.4 0 1 1-76.8 0V315.733333a38.4 38.4 0 0 1 38.4-38.4z m-128 85.333334a38.4 38.4 0 0 1 38.4 38.4v221.866666a38.4 38.4 0 0 1-76.8 0V401.066667a38.4 38.4 0 0 1 38.4-38.4z m256 0a38.4 38.4 0 0 1 38.4 38.4v221.866666a38.4 38.4 0 0 1-76.8 0V401.066667a38.4 38.4 0 0 1 38.4-38.4z m128 42.666666a38.4 38.4 0 0 1 38.4 38.4v136.533334a38.4 38.4 0 0 1-76.8 0v-136.533334a38.4 38.4 0 0 1 38.4-38.4z"  ></path></svg>