<?xml version="1.0" standalone="no"?><svg xmlns="http://www.w3.org/2000/svg" class="icon"  id="Xz-temperatureFluctuation" viewBox="0 0 1024 1024"><path d="M469.333333 85.333333a42.666667 42.666667 0 1 1 85.333334 0v87.296a333.397333 333.397333 0 0 1 170.453333 67.413334l81.877333-81.877334a42.666667 42.666667 0 1 1 60.330667 60.330667l-82.176 82.176a334.122667 334.122667 0 0 1 59.050667 126.976c2.986667-0.64 5.973333-0.981333 9.130666-0.981333h85.333334a42.666667 42.666667 0 1 1 0 85.333333h-85.333334v341.333333h42.666667a42.666667 42.666667 0 1 1 0 85.333334H128a42.666667 42.666667 0 1 1 0-85.333334h42.666667v-341.333333H85.333333a42.666667 42.666667 0 1 1 0-85.333333h85.333334c3.328 0 6.570667 0.384 9.685333 1.109333A331.776 331.776 0 0 1 241.493333 301.866667L161.834667 222.208a42.666667 42.666667 0 0 1 60.330666-60.373333L302.250667 241.92a347.776 347.776 0 0 1 167.210666-68.266667A43.946667 43.946667 0 0 1 469.333333 170.666667V85.333333zM256 853.333333h512v-344.618666c0-140.074667-101.546667-247.722667-241.493333-252.586667L516.693333 256C369.493333 256 256 367.701333 256 508.714667V853.333333z m246.357333-164.522666l-136.405333 125.909333a36.266667 36.266667 0 0 1-49.194667-53.290667l146.773334-135.552a36.266667 36.266667 0 0 1 24.618666-9.6h44.544l85.461334-163.84-40.746667 7.765334a34.133333 34.133333 0 1 1-12.8-67.072l111.658667-21.333334a34.133333 34.133333 0 0 1 38.613333 22.186667l37.632 106.666667a34.133333 34.133333 0 0 1-64.384 22.698666l-10.154667-28.8-91.136 174.762667a36.266667 36.266667 0 0 1-32.170666 19.498667h-52.309334z m-149.845333-193.706667a39.850667 39.850667 0 0 1-14.464-14.762667l-0.085333-0.170666a42.666667 42.666667 0 0 1-5.12-20.778667c0-7.04 1.408-14.122667 4.864-20.608l0.085333-0.170667a38.4 38.4 0 0 1 14.848-15.104 42.24 42.24 0 0 1 21.290667-5.376c7.253333 0 14.378667 1.621333 20.906666 5.333334 5.76 3.2 10.453333 7.68 13.909334 13.226666 5.546667-5.546667 12.032-9.856 19.328-12.970666 8.874667-3.882667 18.56-5.589333 28.714666-5.589334 6.613333 0 13.141333 0.682667 19.498667 2.133334 6.272 1.408 12.245333 3.456 17.749333 6.314666l14.762667 7.68-19.626667 43.093334-16.085333-7.637334a63.018667 63.018667 0 0 0-8.533333-3.2l-0.170667-0.042666a26.112 26.112 0 0 0-7.765333-1.066667 19.072 19.072 0 0 0-8.021334 1.536l-0.298666 0.128a12.245333 12.245333 0 0 0-4.821334 3.669333l-0.128 0.213334a22.101333 22.101333 0 0 0-3.925333 7.850666l-0.042667 0.085334c-1.066667 3.413333-1.706667 7.808-1.706666 13.269333 0 7.296 1.024 12.8 2.688 16.938667 1.578667 3.754667 3.498667 5.973333 5.589333 7.381333 1.92 1.28 5.12 2.432 10.496 2.432 3.626667 0 6.826667-0.298667 9.813333-0.853333 3.498667-0.725333 6.954667-1.621333 10.24-2.645334l22.826667-7.125333v47.914667l-11.178667 4.352c-5.077333 1.962667-10.325333 3.413333-15.701333 4.309333a106.581333 106.581333 0 0 1-17.92 1.322667c-13.226667 0-25.728-2.816-36.394667-9.685334a60.16 60.16 0 0 1-22.954666-27.562666l-0.042667-0.170667a91.050667 91.050667 0 0 1-6.528-30.677333 44.330667 44.330667 0 0 1-14.677333 2.432c-7.210667 0-14.336-1.536-20.906667-5.12l-0.128-0.042667-0.426667-0.256zM396.8 460.8a21.333333 21.333333 0 1 1-42.666667 0 21.333333 21.333333 0 0 1 42.666667 0z"  ></path></svg>