<?xml version="1.0" standalone="no"?><svg xmlns="http://www.w3.org/2000/svg" class="icon"  id="Xz-tvoc" viewBox="0 0 1024 1024"><path d="M725.461333 341.205333h-85.12a42.581333 42.581333 0 0 1 0-85.205333h85.12a42.581333 42.581333 0 0 1 0 85.205333z m-256 0.128H214.144a42.581333 42.581333 0 0 1 0-85.205333h255.317333a42.581333 42.581333 0 0 1 0 85.205333z m384 213.162667h-255.317333a42.581333 42.581333 0 0 1 0-85.205333h255.317333a42.581333 42.581333 0 0 1 0 85.205333z m-42.453333 213.077333h85.12a42.581333 42.581333 0 0 0 0-85.205333h-85.12a42.581333 42.581333 0 0 0 0 85.205333z m-565.077333 0h394.88a42.581333 42.581333 0 0 0 0-85.205333H245.930667a64.213333 64.213333 0 0 1-61.738667-29.653333 64.426667 64.426667 0 0 1 0-68.565334 64.213333 64.213333 0 0 1 61.738667-29.653333h139.605333a42.581333 42.581333 0 0 0 0-85.205333H245.930667a149.290667 149.290667 0 0 0-138.666667 71.125333 149.76 149.76 0 0 0 0 156.032 149.290667 149.290667 0 0 0 138.666667 71.125333z"  ></path></svg>