<?xml version="1.0" standalone="no"?><svg xmlns="http://www.w3.org/2000/svg" class="icon"  id="Xz-temperatureControlStatus-1" viewBox="0 0 1024 1024"><path d="M511.658667 938.666667c-200.277333 0-362.538667-164.565333-362.538667-367.232 0-87.466667 27.392-155.52 90.453333-255.829334 19.541333-30.848 46.08-63.573333 67.498667-78.08a45.738667 45.738667 0 0 1 60.330667 6.741334c7.68 8.405333 10.88 16.853333 13.056 27.306666 1.152 5.461333 1.792 10.368 2.346666 17.621334l2.773334-1.962667c10.410667-8.277333 18.602667-17.194667 24.96-27.562667l3.626666-6.4c16.426667-31.957333 23.552-73.216 23.552-114.773333 0-30.506667 21.632-51.626667 49.237334-53.12L492.544 85.333333l5.717333 0.512c15.872 2.133333 32 10.069333 49.194667 22.357334 30.976 22.058667 63.786667 57.6 87.893333 96.512 10.666667 17.28 18.133333 36.266667 23.082667 56.832l1.92 9.045333 0.170667-2.773333a42.666667 42.666667 0 0 1 53.76-36.181334l4.693333 1.621334c13.525333 5.546667 25.173333 15.104 37.973333 28.842666 5.248 5.674667 10.666667 12.032 16.213334 19.114667 6.485333 8.234667 10.794667 13.994667 20.266666 27.093333 17.066667 23.68 28.8 43.392 37.973334 66.090667l3.498666 8.448 2.901334 6.826667 3.413333 7.936 0.426667 1.194666c4.736 11.093333 8.96 22.485333 12.544 34.090667 13.653333 43.52 20.352 89.6 20.352 138.538667 0 202.666667-162.261333 367.232-362.709334 367.232h-0.170666z m62.122666-324.736c-5.461333 5.802667-10.496 11.946667-15.189333 18.346666-13.482667 19.285333-25.514667 39.594667-35.882667 60.714667l-1.408 2.986667c0.213333-0.512 0-0.64 0-3.797334l-0.042666-2.901333-0.256 4.693333a42.666667 42.666667 0 0 1-67.84 29.568l-4.522667-3.669333c-12.458667-10.666667-27.989333-29.738667-41.514667-51.328l-2.048-3.413333-0.725333 1.493333c-1.109333 2.56-2.133333 5.12-3.072 7.850667-7.338667 20.906667-9.173333 41.514667-8.576 68.266666l0.128 8.106667c0 53.12 56.746667 102.442667 118.997333 102.442667 60.501333 0 106.666667-42.496 106.666667-97.28 0-19.498667-2.901333-34.986667-8.533333-43.818667l-4.48-7.338667a255.488 255.488 0 0 1-31.061334-86.954666l-0.64-3.968zM519.253333 195.669333l-0.128 1.28c-4.736 33.578667-13.994667 66.048-29.098666 95.402667-24.618667 47.872-60.288 73.728-115.456 100.224-31.573333 15.189333-54.613333 0.256-65.834667-23.296l-0.853333-1.877333-4.522667 7.253333c-46.336 75.605333-66.602667 126.805333-68.693333 186.154667l-0.170667 10.624a283.306667 283.306667 0 0 0 73.472 191.146666l-0.213333-3.2-0.256-8.533333-0.128-6.144c-0.853333-36.224 1.834667-65.578667 13.354666-98.432 13.952-39.850667 38.912-72.661333 76.586667-94.506667a42.666667 42.666667 0 0 1 63.786667 31.658667l0.853333 4.266667c1.621333 5.973333 5.077333 13.653333 9.472 21.674666l2.432-3.925333c4.864-7.68 9.941333-15.232 15.061333-22.485333 22.869333-32.341333 69.461333-74.538667 113.834667-109.525334 35.242667-27.733333 83.968 10.666667 65.152 51.456-11.946667 25.770667-13.653333 55.04-7.04 86.101334 4.821333 22.485333 13.909333 44.074667 21.077333 55.296 16.298667 25.6 21.888 55.381333 21.888 89.728 0 6.698667-0.341333 13.312-1.066666 19.84a283.221333 283.221333 0 0 0 86.442666-204.416 375.466667 375.466667 0 0 0-16.384-113.066667 274.090667 274.090667 0 0 0-9.813333-26.538667 2092.8 2092.8 0 0 1-10.666667-25.386666c-6.314667-15.36-14.677333-29.525333-28.117333-48.128-1.28-1.877333-2.602667-3.712-3.968-5.546667l-0.725333-0.981333-2.56 4.949333c-20.992 39.338667-49.834667 77.013333-73.258667 86.314667l-4.608 1.493333c-39.424 9.386667-56.32-17.28-59.093333-47.36-0.853333-8.746667-0.725333-12.885333 0.170666-36.181333 1.28-32 0.853333-51.157333-2.986666-71.253334a116.48 116.48 0 0 0-14.506667-40.192 284.629333 284.629333 0 0 0-42.453333-52.906666l-0.981334-1.024v0.042666z"  ></path></svg>