<?xml version="1.0" standalone="no"?><svg xmlns="http://www.w3.org/2000/svg" class="icon"  id="Xz-temperatureControlStatus-0" viewBox="0 0 1024 1024"><path d="M492.714667 85.376l5.717333 0.512c15.872 2.133333 32 10.069333 49.194667 22.357333 30.976 22.058667 63.786667 57.6 87.850666 96.554667 12.8 20.693333 21.077333 43.904 25.813334 69.333333l-0.768-3.456 0.170666-2.816a42.666667 42.666667 0 0 1 53.76-36.181333l4.693334 1.621333c13.525333 5.504 25.173333 15.104 37.973333 28.842667 5.248 5.717333 10.624 12.074667 16.213333 19.114667 6.485333 8.234667 10.752 13.994667 20.224 27.093333 17.109333 23.68 28.8 43.392 37.973334 66.048 2.56 6.314667 11.093333 26.453333 10.24 24.405333 4.736 11.136 8.96 22.528 12.544 34.090667 13.696 43.52 20.352 89.6 20.352 138.538667C874.666667 774.101333 712.448 938.666667 512 938.666667s-362.666667-164.565333-362.666667-367.232c0-87.424 27.392-155.52 90.453334-255.744 19.498667-30.890667 46.08-63.616 67.456-78.165334a45.738667 45.738667 0 0 1 60.330666 6.784c7.68 8.405333 10.88 16.853333 13.056 27.306667 1.152 5.461333 1.792 10.368 2.346667 17.664l2.773333-2.005333c10.410667-8.277333 18.602667-17.194667 24.96-27.562667l3.626667-6.4c16.426667-31.957333 23.552-73.216 23.552-114.773333 0-34.56 27.776-57.088 60.586667-52.650667l-5.802667-0.512h0.042667z m26.709333 110.336l-0.128 1.237333c-4.736 33.578667-13.994667 66.048-29.098667 95.402667-24.618667 47.914667-60.288 73.728-115.456 100.181333-31.573333 15.189333-54.570667 0.256-65.834666-23.296l-0.810667-1.792-4.522667 7.253334c-46.336 75.52-66.602667 126.762667-68.693333 186.112l-0.213333 10.624C234.666667 727.253333 358.954667 853.333333 512 853.333333s277.333333-126.08 277.333333-281.898666c0-40.490667-5.418667-77.952-16.384-113.024a274.005333 274.005333 0 0 0-9.813333-26.581334 2031.914667 2031.914667 0 0 1-10.666667-25.386666c-6.272-15.36-14.634667-29.525333-28.074666-48.128l-3.968-5.504-0.725334-0.938667-2.56 4.906667c-20.992 39.296-49.834667 76.970667-73.258666 86.314666l-4.608 1.450667c-39.424 9.429333-56.32-17.28-59.093334-47.36-0.853333-8.704-0.725333-12.885333 0.170667-36.181333 1.28-31.914667 0.810667-51.072-2.986667-71.253334a116.48 116.48 0 0 0-14.506666-40.106666 284.629333 284.629333 0 0 0-42.453334-52.992l-0.981333-0.938667z"  ></path></svg>