<?xml version="1.0" standalone="no"?><svg xmlns="http://www.w3.org/2000/svg" class="icon"  id="Xz-temperature" viewBox="0 0 1024 1024"><path d="M671.573333 262.869333C671.573333 187.477333 608.853333 128 533.461333 128l-7.765333 0.213333c-56.32 3.072-104.448 39.296-122.666667 89.856h-98.986666c-17.152 0-33.024 8.32-41.6 22.528-8.533333 14.208-8.533333 32 0 45.013334 8.533333 14.250667 24.448 22.528 41.557333 22.528h91.306667l-0.042667 45.056H303.957333c-17.066667 0-32.981333 8.277333-41.557333 22.485333a44.586667 44.586667 0 0 0 41.557333 67.456h91.264v84.053333l-3.242666 2.218667c-59.562667 42.581333-95.018667 109.226667-95.018667 182.272 0 126.037333 106.410667 226.986667 235.52 226.986667 129.109333 0 235.52-100.949333 235.52-226.986667L768 701.866667c-1.962667-68.181333-36.437333-131.072-92.928-172.16l-3.413333-2.346667V262.826667z m-137.514666-49.493333l1.706666-0.085333-2.346666 0.042666h0.64z m0 0c29.269333 0.298667 52.224 22.698667 52.224 49.493333v286.805334a42.666667 42.666667 0 0 0 18.346666 35.072l18.346667 12.714666 3.413333 2.389334c34.133333 24.832 55.04 63.445333 56.277334 104.533333v7.808C682.666667 789.205333 615.808 853.333333 532.48 853.333333s-150.186667-64.128-150.186667-141.653333c0-44.8 21.546667-85.845333 59.306667-112.810667l1.877333-1.28 18.517334-12.714666a42.666667 42.666667 0 0 0 18.517333-35.2v-22.442667l0.042667-264.362667c0-25.941333 21.546667-47.914667 49.749333-49.450666L534.058667 213.333333z"  ></path></svg>