<?xml version="1.0" standalone="no"?><svg xmlns="http://www.w3.org/2000/svg" class="icon"  id="Xz-temperatureControlStatus-3" viewBox="0 0 1024 1024"><path d="M261.376 261.376c18.688 0 34.176 14.805333 34.176 33.621333v11.477334l2.474667-2.645334a30.506667 30.506667 0 0 1 38.656-5.248l4.053333 2.901334 2.474667 2.346666c5.973333 6.357333 9.301333 14.890667 9.301333 23.765334a34.688 34.688 0 0 1-9.301333 23.722666L295.552 401.749333v49.194667l30.122667-18.432 26.197333-82.944a33.194667 33.194667 0 0 1 13.866667-18.261333 30.677333 30.677333 0 0 1 21.888-4.266667l4.608 1.194667c8.021333 2.901333 14.634667 8.96 18.432 16.938666a35.242667 35.242667 0 0 1 1.706666 25.6l-3.413333 10.794667 11.306667-6.869333a30.506667 30.506667 0 0 1 21.973333-3.968 31.573333 31.573333 0 0 1 19.029333 12.202666l2.645334 4.138667c4.224 7.68 5.333333 16.853333 3.157333 25.429333a33.664 33.664 0 0 1-14.805333 20.437334l-16.768 10.24 15.061333 3.584c14.293333 3.328 24.32 16.384 24.874667 31.744l-0.170667 5.205333-0.426667 3.157333a34.218667 34.218667 0 0 1-7.594666 15.402667 31.914667 31.914667 0 0 1-13.866667 9.386667l-1.92 0.512 1.962667 0.512a32.853333 32.853333 0 0 1 20.181333 20.394666l1.152 4.394667a35.072 35.072 0 0 1-4.181333 25.301333 32.213333 32.213333 0 0 1-19.968 14.848l-14.848 3.413334 17.365333 10.624a33.493333 33.493333 0 0 1 14.08 18.048 35.328 35.328 0 0 1-0.426667 23.381333l-1.962666 4.48a32.938667 32.938667 0 0 1-8.192 9.898667 31.232 31.232 0 0 1-23.68 6.656 30.848 30.848 0 0 1-11.818667-4.224l-12.245333-7.509334 3.498666 11.178667a35.328 35.328 0 0 1-0.170666 21.76 33.578667 33.578667 0 0 1-12.8 17.066667l-4.266667 2.56-2.901333 1.152a30.421333 30.421333 0 0 1-24.405334-1.834667 32.085333 32.085333 0 0 1-9.813333-8.106667 33.877333 33.877333 0 0 1-6.144-11.392l-26.282667-83.370666-30.037333-18.346667v49.493333l47.658667 50.474667a34.986667 34.986667 0 0 1 3.328 43.349333l-3.328 4.138667a31.658667 31.658667 0 0 1-22.613334 9.898667 30.464 30.464 0 0 1-22.613333-9.898667l-2.432-2.56v11.392c0 17.322667-13.013333 31.146667-29.610667 33.365333l-4.565333 0.341334a33.877333 33.877333 0 0 1-34.133333-33.706667v-16.341333l-7.04 7.509333a30.506667 30.506667 0 0 1-38.656 5.248l-4.096-2.901333-2.474667-2.346667a34.688 34.688 0 0 1-9.258667-23.722667c0-8.917333 3.328-17.450667 9.258667-23.765333l52.224-55.424v-47.018667l-34.773333 21.248-26.112 82.986667a33.194667 33.194667 0 0 1-13.866667 18.261333 30.677333 30.677333 0 0 1-21.888 4.309334l-4.608-1.28a32.682667 32.682667 0 0 1-18.432-16.896 35.242667 35.242667 0 0 1-1.706667-25.6l3.370667-10.837334-11.264 6.912a30.506667 30.506667 0 0 1-21.973333 3.968 31.573333 31.573333 0 0 1-19.029334-12.16l-2.645333-4.181333a35.242667 35.242667 0 0 1-3.157333-25.429333 33.621333 33.621333 0 0 1 14.848-20.394667l16.682666-10.282667-15.018666-3.541333a31.829333 31.829333 0 0 1-17.621334-11.434667 34.56 34.56 0 0 1-7.253333-20.352l0.170667-5.205333 0.426666-3.157333a34.218667 34.218667 0 0 1 7.594667-15.36 32 32 0 0 1 13.866667-9.429334l1.92-0.469333-1.92-0.554667a31.829333 31.829333 0 0 1-12.373334-7.722666 33.749333 33.749333 0 0 1-7.808-12.672l-1.194666-4.394667a35.072 35.072 0 0 1 4.181333-25.258667 32.213333 32.213333 0 0 1 19.968-14.848l15.445333-3.626666-17.066666-10.453334a33.493333 33.493333 0 0 1-14.08-18.048 35.328 35.328 0 0 1 0.426666-23.338666l2.005334-4.522667a32.938667 32.938667 0 0 1 8.192-9.856 31.232 31.232 0 0 1 23.637333-6.698667 30.848 30.848 0 0 1 11.818667 4.266667l11.093333 6.741333-3.242667-10.496a35.328 35.328 0 0 1 0.213334-21.717333 33.578667 33.578667 0 0 1 12.8-17.066667l4.266666-2.56 2.858667-1.109333a30.464 30.464 0 0 1 24.405333 1.834667c3.754667 1.962667 7.125333 4.693333 9.813334 8.064 2.773333 3.328 4.864 7.210667 6.144 11.392l25.984 82.56 34.901333 21.333333V406.741333L174.976 351.274667a35.029333 35.029333 0 0 1-3.328-43.349334l3.328-4.138666a30.506667 30.506667 0 0 1 45.226667 0l6.997333 7.466666v-16.213333c0-17.365333 13.056-31.232 29.610667-33.493333l4.565333-0.213334z m-96.853333 231.466667l-81.92 19.328 81.493333 19.2 31.658667-19.413334-31.232-19.114666z m189.482666 0.085333l-31.146666 19.072 31.488 19.328 81.237333-19.2-81.578667-19.2z m-52.693333-349.44c-20.906667 24.32-7.68 63.744 23.168 71.424l107.008 26.624a37.76 37.76 0 0 0 31.018667-5.162667 40.490667 40.490667 0 0 0 11.52-11.733333 42.581333 42.581333 0 0 0 6.101333-15.530667 46.805333 46.805333 0 0 0-6.570667-32.469333 43.050667 43.050667 0 0 0-26.026666-18.944l-20.736-5.248 4.096-2.090667c75.648-37.12 169.173333-25.813333 240.085333 31.872l8.405333 7.168 5.632 5.162667c5.845333 5.546667 11.392 11.306667 16.64 17.322667 15.658667 17.749333 41.685333 19.754667 58.368 4.053333 16.725333-15.786667 17.237333-43.093333 1.536-60.928a347.349333 347.349333 0 0 0-22.485333-23.424C608.725333 8.618667 412.757333 13.738667 301.312 143.530667z m437.034667 654.549333l-108.16-20.650666a37.76 37.76 0 0 0-30.72 6.869333 40.704 40.704 0 0 0-10.88 12.373333 42.666667 42.666667 0 0 0-5.333334 15.786667c-1.28 11.392 1.706667 22.869333 8.192 32.085333 6.528 9.216 16.128 15.445333 26.88 17.493334l20.992 4.096-3.925333 2.261333c-73.728 41.258667-167.722667 35.114667-241.408-18.645333l-8.704-6.698667-5.888-4.821333a254.890667 254.890667 0 0 1-17.578667-16.384c-16.469333-16.853333-42.581333-17.450667-58.453333-0.853334-15.872 16.725333-15.018667 43.989333 1.536 60.970667 7.509333 7.722667 15.36 15.104 23.68 22.058667 136.277333 115.712 331.733333 99.84 436.522667-35.84 19.626667-25.472 4.48-64.128-26.752-70.101334z m38.058666-523.434666l-18.773333-11.690667c-28.928-18.218667-65.450667 4.992-63.914667 40.277333l0.981334 23.04c0.682667 8.533333-0.256 17.152-2.730667 25.344-5.973333 17.152-16.469333 32.170667-30.293333 43.349334a207.36 207.36 0 0 0-56.32 72.448 217.173333 217.173333 0 0 0-20.48 92.074666c0 55.253333 20.906667 108.245333 58.069333 147.370667a197.546667 197.546667 0 0 0 64.298667 45.098667 189.952 189.952 0 0 0 151.808 0.085333 197.12 197.12 0 0 0 64.256-45.226667 208.64 208.64 0 0 0 43.050666-67.541333A216.448 216.448 0 0 0 981.333333 559.488a216.277333 216.277333 0 0 0-16.469333-83.370667 207.744 207.744 0 0 0-47.018667-69.418666l-13.141333-12.842667-3.2-2.730667-4.650667-3.114666a41.642667 41.642667 0 0 0-29.781333-4.906667l-4.053333 1.109333-4.693334-11.434666a417.92 417.92 0 0 0-6.528-13.696 207.232 207.232 0 0 0-75.392-84.48z m-11.776 105.088l2.56-8.106667 5.76 7.808c3.84 5.546667 7.253333 11.434667 10.24 17.493333 14.634667 29.141333 21.205333 54.741333 19.968 75.776-0.384 6.613333 0.725333 13.269333 3.2 19.413334a43.477333 43.477333 0 0 0 25.386667 24.661333 40.533333 40.533333 0 0 0 43.264-12.032l4.693333-5.674667 5.461334-7.509333 4.352 7.893333c9.472 18.474667 14.421333 39.125333 14.336 60.074667a131.84 131.84 0 0 1-9.088 48.682667c-6.101333 15.445333-15.018667 29.44-26.282667 41.258666a119.722667 119.722667 0 0 1-39.125333 27.562667c-14.677333 6.4-30.378667 9.642667-46.250667 9.6-16.341333 0-32-3.328-46.890667-9.941333a124.544 124.544 0 0 1-64.384-67.669334 133.546667 133.546667 0 0 1 2.986667-105.728c8.106667-17.237333 19.882667-32.384 34.389333-44.245333A177.962667 177.962667 0 0 0 764.629333 379.733333z"  ></path></svg>