<?xml version="1.0" standalone="no"?><svg xmlns="http://www.w3.org/2000/svg" class="icon"  id="Xz-voltage" viewBox="0 0 1024 1024"><path d="M85.333333 512C85.333333 276.48 276.48 85.333333 512 85.333333s426.666667 191.146667 426.666667 426.666667-191.146667 426.666667-426.666667 426.666667S85.333333 747.52 85.333333 512z m85.333334 0c0 188.16 153.173333 341.333333 341.333333 341.333333s341.333333-153.173333 341.333333-341.333333-153.173333-341.333333-341.333333-341.333333-341.333333 153.173333-341.333333 341.333333z m474.624-149.546667c-21.077333-8.021333-45.568 0.554667-53.930667 20.394667l-98.133333 201.088-98.133334-198.4C386.986667 366.122667 362.453333 357.546667 341.333333 365.525333c-20.778667 7.936-29.994667 31.701333-21.333333 52.224l135.893333 271.146667c8.106667 15.488 20.906667 23.594667 37.418667 23.594667 17.322667 0 29.952-9.002667 37.632-27.264l135.424-270.122667c8.874667-20.992-0.341333-44.8-21.12-52.693333z"  ></path></svg>