<?xml version="1.0" standalone="no"?><svg xmlns="http://www.w3.org/2000/svg" class="icon"  id="Xz-windDirection" viewBox="0 0 1024 1024"><path d="M664.917333 302.634667A304.554667 304.554667 0 0 0 389.802667 128C221.610667 128 85.333333 265.045333 85.333333 433.962667a42.666667 42.666667 0 0 0 85.333334 0C170.666667 312.064 268.8 213.333333 389.802667 213.333333a219.477333 219.477333 0 0 1 211.584 162.858667 42.666667 42.666667 0 0 0 60.586666 26.88 130.304 130.304 0 0 1 59.477334-14.208c72.789333 0 131.882667 59.434667 131.882666 132.864l-0.298666 8.96a132.906667 132.906667 0 0 1-65.621334 106.154667s-6.4 3.114667-13.44 3.157333A35503.104 35503.104 0 0 1 341.333333 640H286.464C220.928 640 170.666667 698.624 170.666667 768s50.261333 128 115.797333 128H341.333333a42.666667 42.666667 0 1 0 0-85.333333H286.464C271.232 810.666667 256 792.917333 256 768c0-24.917333 15.232-42.666667 30.464-42.666667H783.104c11.946667 0 23.722667-2.56 34.517333-7.893333A218.282667 218.282667 0 0 0 938.666667 521.728c0-120.448-97.194667-218.197333-217.173334-218.197333l-12.928 0.384a216.234667 216.234667 0 0 0-37.888 5.632l-2.389333 0.597333-3.413333-7.509333zM469.333333 341.333333a42.666667 42.666667 0 1 1 0 85.333334H414.464C399.232 426.666667 384 444.416 384 469.333333c0 24.917333 15.232 42.666667 30.464 42.666667H682.666667a42.666667 42.666667 0 1 1 0 85.333333H414.464C348.928 597.333333 298.666667 538.709333 298.666667 469.333333s50.261333-128 115.797333-128H469.333333z"  ></path></svg>