<?xml version="1.0" standalone="no"?><svg xmlns="http://www.w3.org/2000/svg" class="icon"  id="Xz-waterFlowTimeoutAlarm-TWO" viewBox="0 0 1024 1024"><path d="M610.304 85.930667a4.138667 4.138667 0 0 1 1.28 1.152l6.186667 8.704 8.106666 11.306666a377.216 377.216 0 0 1 8.576 12.586667c6.698667 9.984 13.056 19.925333 18.816 29.525333 3.413333 5.717333 6.570667 11.221333 9.472 16.469334 13.269333 24.277333 19.925333 41.941333 19.925334 55.594666 0 39.424-33.450667 71.381333-74.666667 71.381334S533.333333 260.693333 533.333333 221.269333c0-13.653333 6.656-31.317333 19.925334-55.594666 2.901333-5.248 6.058667-10.752 9.472-16.469334a701.525333 701.525333 0 0 1 25.002666-38.613333l0.853334-1.28 1.578666-2.218667 8.064-11.306666 6.186667-8.704a4.565333 4.565333 0 0 1 5.888-1.152z m-2.346667 68.949333l-3.498666 5.674667-4.138667 6.826666c-3.2 5.333333-6.144 10.368-8.746667 15.146667-11.008 20.096-15.573333 32.725333-15.573333 38.741333 0 18.773333 14.933333 33.109333 32 33.109334s32-14.293333 32-33.109334c0-6.016-4.565333-18.645333-15.573333-38.741333a443.562667 443.562667 0 0 0-12.885334-21.973333l-3.584-5.674667z m194.346667-68.949333a4.138667 4.138667 0 0 1 1.28 1.152l6.186667 8.704 8.106666 11.306666a377.216 377.216 0 0 1 8.576 12.586667c6.698667 9.984 13.056 19.925333 18.816 29.525333 3.413333 5.717333 6.570667 11.221333 9.429334 16.469334 13.312 24.277333 19.968 41.941333 19.968 55.594666 0 39.424-33.450667 71.381333-74.666667 71.381334S725.333333 260.693333 725.333333 221.269333c0-13.653333 6.656-31.317333 19.968-55.594666 2.858667-5.248 5.973333-10.752 9.429334-16.469334a701.525333 701.525333 0 0 1 25.002666-38.613333l0.853334-1.28 1.578666-2.218667 8.064-11.306666 6.186667-8.704a4.565333 4.565333 0 0 1 5.888-1.152zM800 154.88l-3.541333 5.674667-4.138667 6.826666c-3.2 5.333333-6.144 10.368-8.746667 15.146667-11.008 20.096-15.573333 32.725333-15.573333 38.741333 0 18.773333 14.933333 33.109333 32 33.109334s32-14.293333 32-33.109334c0-6.016-4.565333-18.645333-15.573333-38.741333a443.562667 443.562667 0 0 0-12.885334-21.973333l-3.541333-5.674667z m-95.317333 104.533333a4.096 4.096 0 0 0-1.28-1.152 4.565333 4.565333 0 0 0-5.888 1.152l-4.437334 6.186667-6.570666 9.258667-1.28 1.792-0.725334 1.024a570.154667 570.154667 0 0 0-28.16 45.098666C645.418667 342.613333 640 357.12 640 368.213333c0 32.256 27.349333 58.410667 61.098667 58.410667 33.706667 0 61.098667-26.154667 61.098666-58.410667 0-11.136-5.461333-25.6-16.341333-45.482666a571.349333 571.349333 0 0 0-30.165333-47.914667l-6.613334-9.258667-4.394666-6.186666z m-5.546667 72.277334l1.962667-3.328 1.962666 3.328c1.578667 2.730667 3.114667 5.418667 4.48 7.978666 8.533333 15.530667 11.946667 25.002667 11.946667 28.586667 0 11.648-8.832 20.138667-18.389333 20.138667S682.666667 379.861333 682.666667 368.213333c0-3.584 3.413333-13.056 11.946666-28.586666 1.408-2.56 2.901333-5.248 4.522667-7.978667z m124.16 57.301333a40.746667 40.746667 0 0 0-0.768 28.117333c8.96 25.685333 14.72 52.266667 17.365333 79.232a256.981333 256.981333 0 0 1 82.346667 65.322667 421.333333 421.333333 0 0 0-22.4-170.965333 40.618667 40.618667 0 0 0-57.813333-22.656 40.789333 40.789333 0 0 0-18.773334 20.906666zM181.76 528.853333c0 182.4 146.858667 329.557333 326.058667 331.562667a257.408 257.408 0 0 0 73.514666 76.629333c-28.714667 4.906667-58.453333 6.826667-88.874666 5.376-208.298667-9.6-378.026667-177.322667-391.253334-386.304-13.781333-217.813333 141.781333-406.656 353.962667-435.882666a40.490667 40.490667 0 0 1 46.122667 40.192c0 20.181333-15.189333 38.485333-35.072 40.149333h0.128l-0.597334-4.266667 0.341334 4.266667h0.170666c-161.706667 22.4-284.501333 162.688-284.501333 328.277333z m306.474667-9.941333v109.696a256.853333 256.853333 0 0 1 86.101333-110.037333V512a42.581333 42.581333 0 0 0-5.76-21.461333 43.861333 43.861333 0 0 0-2.645333-8.533334l-60.586667-142.890666a43.093333 43.093333 0 0 0-79.36 33.621333l60.672 142.848a42.24 42.24 0 0 0 1.578667 3.328zM725.333333 579.072a146.304 146.304 0 1 1 0 292.565333 146.304 146.304 0 0 1 0-292.608zM944.768 725.333333a219.434667 219.434667 0 1 0-438.869333 0 219.434667 219.434667 0 0 0 438.869333 0z m-182.869333-74.368a36.565333 36.565333 0 0 0-73.130667 0v54.869334a36.565333 36.565333 0 1 0 73.130667 0v-54.869334zM725.333333 841.130667A36.565333 36.565333 0 1 0 725.333333 768a36.565333 36.565333 0 0 0 0 73.130667z"  ></path></svg>