<?xml version="1.0" standalone="no"?><svg xmlns="http://www.w3.org/2000/svg" class="icon"  id="Xz-waterwatcher" viewBox="0 0 1024 1024"><path d="M554.666667 174.592c93.994667 17.408 170.666667 91.178667 170.666666 188.074667v145.834666c0 30.677333-26.453333 46.165333-46.634666 46.165334H640v42.666666a42.666667 42.666667 0 1 1-85.333333 0v-42.666666h-85.333334v42.666666a42.666667 42.666667 0 1 1-85.333333 0v-42.666666h-38.698667C325.12 554.666667 298.666667 539.178667 298.666667 508.501333V362.666667c0-96.853333 76.672-170.666667 170.666666-188.074667V170.666667H362.666667a42.666667 42.666667 0 1 1 0-85.333334h117.333333c41.216 0 74.666667 33.408 74.666667 74.666667v14.592zM640 362.666667C640 308.906667 588.245333 256 512 256S384 308.906667 384 362.666667V469.333333H640V362.666667z m235.861333 478.037333a71.936 71.936 0 0 1-103.936 0 144 144 0 0 0-207.957333 0 71.936 71.936 0 0 1-103.936 0 144 144 0 0 0-207.957333 0l-3.328 1.962667c-33.877333 19.626667-74.368 13.525333-107.392-7.466667a35.797333 35.797333 0 0 0-45.226667 5.546667 38.656 38.656 0 0 0 0 53.546666 144 144 0 0 0 207.957333 0 71.936 71.936 0 0 1 103.936 0 144 144 0 0 0 207.957334 0 71.936 71.936 0 0 1 103.936 0 144 144 0 0 0 207.957333 0 38.656 38.656 0 0 0 0-53.589333 36.053333 36.053333 0 0 0-52.010667 0z m0-156.330667a71.936 71.936 0 0 1-103.936 0 144 144 0 0 0-207.957333 0 71.936 71.936 0 0 1-103.936 0 144 144 0 0 0-207.957333 0l-3.328 1.962667c-33.877333 19.626667-74.368 13.525333-107.392-7.466667a35.797333 35.797333 0 0 0-45.226667 5.546667 38.656 38.656 0 0 0 0 53.546667 144 144 0 0 0 207.957333 0 71.936 71.936 0 0 1 103.936 0 144 144 0 0 0 207.957334 0 71.936 71.936 0 0 1 103.936 0 144 144 0 0 0 207.957333 0 38.656 38.656 0 0 0 0-53.589334 36.053333 36.053333 0 0 0-52.010667 0zM576 352a42.666667 42.666667 0 0 1-42.666667 42.666667h-42.666666a42.666667 42.666667 0 1 1 0-85.333334h42.666666a42.666667 42.666667 0 0 1 42.666667 42.666667z"  ></path></svg>