<?xml version="1.0" standalone="no"?><svg xmlns="http://www.w3.org/2000/svg" class="icon"  id="Xz-waterFlowTimeoutAlarm" viewBox="0 0 1024 1024"><path d="M610.304 85.930667a4.138667 4.138667 0 0 1 1.28 1.152l6.186667 8.704 8.106666 11.306666a377.216 377.216 0 0 1 8.576 12.586667c6.698667 9.984 13.056 19.925333 18.816 29.525333 3.413333 5.717333 6.570667 11.221333 9.472 16.469334 13.269333 24.277333 19.925333 41.941333 19.925334 55.594666 0 39.424-33.450667 71.381333-74.666667 71.381334S533.333333 260.693333 533.333333 221.269333c0-13.653333 6.656-31.317333 19.925334-55.594666 2.901333-5.248 6.058667-10.752 9.472-16.469334a701.525333 701.525333 0 0 1 25.002666-38.613333l0.853334-1.28 1.578666-2.218667 8.064-11.306666 6.186667-8.704a4.565333 4.565333 0 0 1 5.888-1.152z m-2.346667 68.949333l-3.498666 5.674667-4.138667 6.826666c-3.2 5.333333-6.144 10.368-8.746667 15.146667-11.008 20.096-15.573333 32.725333-15.573333 38.741333 0 18.773333 14.933333 33.109333 32 33.109334s32-14.293333 32-33.109334c0-6.016-4.565333-18.645333-15.573333-38.741333a443.562667 443.562667 0 0 0-12.885334-21.973333l-3.584-5.674667z m194.346667-68.949333a4.138667 4.138667 0 0 1 1.28 1.152l6.186667 8.704 8.106666 11.306666a377.216 377.216 0 0 1 8.576 12.586667c6.698667 9.984 13.056 19.925333 18.816 29.525333 3.413333 5.717333 6.570667 11.221333 9.429334 16.469334 13.312 24.277333 19.968 41.941333 19.968 55.594666 0 39.424-33.450667 71.381333-74.666667 71.381334S725.333333 260.693333 725.333333 221.269333c0-13.653333 6.656-31.317333 19.968-55.594666 2.858667-5.248 5.973333-10.752 9.429334-16.469334a701.525333 701.525333 0 0 1 25.002666-38.613333l0.853334-1.28 1.578666-2.218667 8.064-11.306666 6.186667-8.704a4.565333 4.565333 0 0 1 5.888-1.152zM800 154.88l-3.541333 5.674667-4.138667 6.826666c-3.2 5.333333-6.144 10.368-8.746667 15.146667-11.008 20.096-15.573333 32.725333-15.573333 38.741333 0 18.773333 14.933333 33.109333 32 33.109334s32-14.293333 32-33.109334c0-6.016-4.565333-18.645333-15.573333-38.741333a443.562667 443.562667 0 0 0-12.885334-21.973333l-3.541333-5.674667z m-95.317333 104.533333a4.096 4.096 0 0 0-1.28-1.152 4.565333 4.565333 0 0 0-5.888 1.152l-4.437334 6.186667-6.570666 9.258667-1.28 1.792-0.725334 1.024a570.154667 570.154667 0 0 0-28.16 45.098666C645.418667 342.613333 640 357.12 640 368.213333c0 32.256 27.349333 58.410667 61.098667 58.410667 33.706667 0 61.098667-26.154667 61.098666-58.410667 0-11.136-5.461333-25.6-16.341333-45.482666a571.349333 571.349333 0 0 0-30.165333-47.914667l-6.613334-9.258667-4.394666-6.186666z m-5.546667 72.277334l1.962667-3.328 1.962666 3.328c1.578667 2.730667 3.114667 5.418667 4.48 7.978666 8.533333 15.530667 11.946667 25.002667 11.946667 28.586667 0 11.648-8.832 20.138667-18.389333 20.138667S682.666667 379.861333 682.666667 368.213333c0-3.584 3.413333-13.056 11.946666-28.586666 1.408-2.56 2.901333-5.248 4.522667-7.978667z m124.16 57.301333a40.746667 40.746667 0 0 0-0.768 28.117333 342.485333 342.485333 0 0 1 17.664 141.653334c-14.165333 161.664-145.962667 290.602667-307.2 300.970666-190.421333 12.288-351.232-140.032-351.232-330.88 0-165.546667 122.794667-305.92 284.501333-328.277333 19.84-1.664 35.029333-19.968 35.029334-40.106667a40.490667 40.490667 0 0 0-46.165334-40.234666c-212.138667 29.226667-367.701333 218.026667-353.92 435.882666 13.226667 208.981333 182.954667 376.704 391.253334 386.304 235.306667 11.008 430.933333-177.28 430.933333-412.970666a412.288 412.288 0 0 0-23.552-138.752 40.618667 40.618667 0 0 0-57.813333-22.656 40.789333 40.789333 0 0 0-18.773334 20.906666zM466.218667 200.533333h-0.170667l-0.341333-4.266666 0.597333 4.266666h-0.085333z m99.669333 281.386667l-60.586667-142.848a43.093333 43.093333 0 0 0-79.36 33.621333l60.672 142.848a42.24 42.24 0 0 0 1.578667 3.328v148.224a43.050667 43.050667 0 1 0 86.101333 0V512a42.581333 42.581333 0 0 0-5.76-21.461333 43.861333 43.861333 0 0 0-2.645333-8.533334z"  ></path></svg>