<?xml version="1.0" standalone="no"?><svg xmlns="http://www.w3.org/2000/svg" class="icon"  id="Xz-waterOutageTimeoutAlarm-TWO" viewBox="0 0 1024 1024"><path d="M822.528 417.109333a40.746667 40.746667 0 0 1 19.498667-49.066666 40.661333 40.661333 0 0 1 57.813333 22.656 421.333333 421.333333 0 0 1 22.357333 170.965333 256.981333 256.981333 0 0 0-82.346666-65.322667 342.442667 342.442667 0 0 0-17.322667-79.232z m-330.069333 525.312a413.184 413.184 0 0 0 88.874666-5.376 257.450667 257.450667 0 0 1-73.514666-76.629333c-179.2-2.005333-326.058667-149.162667-326.058667-331.52 0-165.632 122.794667-305.92 284.501333-328.32 19.84-1.664 35.029333-19.968 35.029334-40.106667a40.490667 40.490667 0 0 0-46.165334-40.234666c-212.138667 29.226667-367.701333 218.026667-353.92 435.882666 13.226667 208.981333 182.954667 376.704 391.253334 386.304z m-26.197334-741.845333h-0.170666l-0.341334-4.266667 0.597334 4.266667h-0.085334z m21.973334 318.293333v109.738667a256.853333 256.853333 0 0 1 86.101333-110.037333V512a42.581333 42.581333 0 0 0-5.76-21.461333 43.861333 43.861333 0 0 0-2.645333-8.533334l-60.586667-142.890666a43.093333 43.093333 0 0 0-79.36 33.621333l60.672 142.848c0.469333 1.152 1.024 2.261333 1.578667 3.328zM686.378667 81.066667h0.042666c19.072 0 36.778667 9.941333 47.573334 26.453333 72.618667 111.189333 73.088 150.144 73.088 163.84 0 70.613333-53.888 128.554667-120.661334 128.554667s-120.618667-57.941333-120.618666-128.554667v-2.645333c0.298667-16 4.906667-56.789333 73.130666-161.194667a56.917333 56.917333 0 0 1 47.445334-26.453333z m-2.474667 70.314666C642.986667 216.746667 628.266667 256 628.266667 270.08c0 35.029333 26.069333 63.573333 58.154666 63.573333s58.197333-28.544 58.197334-63.573333c0-14.037333-14.677333-53.333333-55.68-118.613333l-2.517334-4.010667-2.517333 3.968zM725.333333 579.029333a146.304 146.304 0 1 1 0 292.608 146.304 146.304 0 0 1 0-292.608zM944.768 725.333333a219.434667 219.434667 0 1 0-438.869333 0 219.434667 219.434667 0 0 0 438.869333 0z m-182.869333-74.368a36.565333 36.565333 0 0 0-73.130667 0v54.869334a36.565333 36.565333 0 1 0 73.130667 0v-54.869334zM725.333333 841.130667A36.565333 36.565333 0 1 0 725.333333 768a36.565333 36.565333 0 0 0 0 73.130667z"  ></path></svg>