<?xml version="1.0" standalone="no"?><svg xmlns="http://www.w3.org/2000/svg" class="icon"  id="Xz-windowStatus-TWO" viewBox="0 0 1024 1024"><path d="M810.666667 85.333333a128 128 0 0 1 128 128v597.333334a128 128 0 0 1-128 128H213.333333a128 128 0 0 1-128-128V213.333333a128 128 0 0 1 128-128h597.333334z m-213.333334 85.333334h-170.666666v348.970666a128.042667 128.042667 0 0 1-37.546667 90.581334L173.354667 825.6A42.666667 42.666667 0 0 0 213.333333 853.333333h597.333334a42.666667 42.666667 0 0 0 39.978666-27.733333l-215.765333-215.381333a127.957333 127.957333 0 0 1-37.546667-90.581334V170.666667z m213.333334 0h-128v348.970666a42.666667 42.666667 0 0 0 8.789333 25.941334l3.712 4.266666 158.165333 157.866667V213.333333a42.666667 42.666667 0 0 0-42.666666-42.666666zM341.333333 170.666667H213.333333a42.666667 42.666667 0 0 0-42.666666 42.666666v494.378667l158.165333-157.866667A42.666667 42.666667 0 0 0 341.333333 519.594667V170.666667zM256 384a42.666667 42.666667 0 1 1 0 85.333333 42.666667 42.666667 0 0 1 0-85.333333z m512 0a42.666667 42.666667 0 1 1 0 85.333333 42.666667 42.666667 0 0 1 0-85.333333z"  ></path></svg>