<?xml version="1.0" standalone="no"?><svg xmlns="http://www.w3.org/2000/svg" class="icon"  id="Xz-waterLevel" viewBox="0 0 1024 1024"><path d="M469.333333 128a42.666667 42.666667 0 1 1 85.333334 0v256c0 2.432-0.213333 4.778667-0.597334 7.082667A128.042667 128.042667 0 0 1 512 640a128 128 0 0 1-42.069333-248.917333A43.008 43.008 0 0 1 469.333333 384V128z m42.666667 426.666667a42.666667 42.666667 0 1 0 0-85.333334 42.666667 42.666667 0 0 0 0 85.333334z m128-256a42.666667 42.666667 0 1 0 0 85.333333h85.333333a42.666667 42.666667 0 1 0 0-85.333333h-85.333333z m-42.666667-85.333334a42.666667 42.666667 0 0 1 42.666667-42.666666h85.333333a42.666667 42.666667 0 1 1 0 85.333333h-85.333333a42.666667 42.666667 0 0 1-42.666667-42.666667z m174.592 627.370667c28.629333 29.610667 75.178667 29.610667 103.936 0a36.053333 36.053333 0 0 1 52.053334 0 38.656 38.656 0 0 1 0 53.589333 144 144 0 0 1-208 0 71.936 71.936 0 0 0-103.936 0 144 144 0 0 1-207.957334 0 71.936 71.936 0 0 0-103.936 0 144 144 0 0 1-207.957333 0 38.656 38.656 0 0 1 0-53.589333 35.797333 35.797333 0 0 1 45.226667-5.504c33.024 20.992 73.514667 27.093333 107.392 7.466667l3.328-1.962667a144 144 0 0 1 207.957333 0c28.629333 29.610667 75.178667 29.610667 103.936 0a144 144 0 0 1 207.957333 0z m0-156.330667c28.629333 29.610667 75.178667 29.610667 103.936 0a36.053333 36.053333 0 0 1 52.053334 0 38.656 38.656 0 0 1 0 53.589334 144 144 0 0 1-208 0 71.936 71.936 0 0 0-103.936 0 144 144 0 0 1-207.957334 0 71.936 71.936 0 0 0-103.936 0 144 144 0 0 1-207.957333 0 38.656 38.656 0 0 1 0-53.589334 35.797333 35.797333 0 0 1 45.226667-5.504c33.024 20.992 73.514667 27.093333 107.392 7.466667l3.328-1.962667a144 144 0 0 1 207.957333 0c28.629333 29.610667 75.178667 29.610667 103.936 0a144 144 0 0 1 207.957333 0z"  ></path></svg>