<?xml version="1.0" standalone="no"?><svg xmlns="http://www.w3.org/2000/svg" class="icon"  id="Xz-windowStatus" viewBox="0 0 1024 1024"><path d="M810.666667 85.333333a128 128 0 0 1 128 128v597.333334a128 128 0 0 1-128 128H213.333333a128 128 0 0 1-128-128V213.333333a128 128 0 0 1 128-128h597.333334z m-341.333334 85.333334H213.333333a42.666667 42.666667 0 0 0-42.666666 42.666666v597.333334a42.666667 42.666667 0 0 0 42.666666 42.666666h256V170.666667z m341.333334 0h-256v682.666666h256a42.666667 42.666667 0 0 0 42.666666-42.666666V213.333333a42.666667 42.666667 0 0 0-42.666666-42.666666zM384 469.333333a42.666667 42.666667 0 1 1 0 85.333334 42.666667 42.666667 0 0 1 0-85.333334z m256 0a42.666667 42.666667 0 1 1 0 85.333334 42.666667 42.666667 0 0 1 0-85.333334z"  ></path></svg>