<?xml version="1.0" standalone="no"?><svg xmlns="http://www.w3.org/2000/svg" class="icon"  id="Xz-waterLevel-TWO" viewBox="0 0 1024 1024"><path d="M469.333333 128a42.666667 42.666667 0 1 1 85.333334 0v256c0 2.432-0.213333 4.778667-0.597334 7.082667a128.213333 128.213333 0 0 1 83.072 93.866666 256.768 256.768 0 0 0-152.192 152.192 128.042667 128.042667 0 0 1-15.018666-246.058666A43.008 43.008 0 0 1 469.333333 384V128z m98.645334 799.274667a257.322667 257.322667 0 0 1-58.581334-64.426667 72.021333 72.021333 0 0 1-49.365333-22.144 144 144 0 0 0-207.957333 0l-3.328 1.962667c-33.877333 19.626667-74.368 13.525333-107.392-7.466667a35.797333 35.797333 0 0 0-45.226667 5.546667 38.656 38.656 0 0 0 0 53.546666 144 144 0 0 0 207.957333 0 71.936 71.936 0 0 1 103.936 0 143.872 143.872 0 0 0 160 32.981334zM469.333333 725.333333c0-10.666667 0.64-21.12 1.92-31.445333a73.856 73.856 0 0 1-11.221333-9.514667 144 144 0 0 0-207.957333 0l-3.328 1.962667c-33.877333 19.626667-74.368 13.525333-107.392-7.466667a35.797333 35.797333 0 0 0-45.226667 5.546667 38.656 38.656 0 0 0 0 53.546667 144 144 0 0 0 207.957333 0 71.936 71.936 0 0 1 103.936 0c19.114667 19.712 42.197333 32.853333 66.602667 39.424A257.152 257.152 0 0 1 469.333333 725.333333z m42.666667-170.666666a42.666667 42.666667 0 1 0 0-85.333334 42.666667 42.666667 0 0 0 0 85.333334z m128-256a42.666667 42.666667 0 1 0 0 85.333333h85.333333a42.666667 42.666667 0 1 0 0-85.333333h-85.333333z m-42.666667-85.333334a42.666667 42.666667 0 0 1 42.666667-42.666666h85.333333a42.666667 42.666667 0 1 1 0 85.333333h-85.333333a42.666667 42.666667 0 0 1-42.666667-42.666667z m128 365.696a146.304 146.304 0 1 1 0 292.608 146.304 146.304 0 0 1 0-292.608zM944.768 725.333333a219.434667 219.434667 0 1 0-438.869333 0 219.434667 219.434667 0 0 0 438.869333 0z m-182.869333-74.368a36.565333 36.565333 0 0 0-73.130667 0v54.869334a36.565333 36.565333 0 1 0 73.130667 0v-54.869334zM725.333333 841.130667A36.565333 36.565333 0 1 0 725.333333 768a36.565333 36.565333 0 0 0 0 73.130667z"  ></path></svg>