<?xml version="1.0" standalone="no"?><svg xmlns="http://www.w3.org/2000/svg" class="icon"  id="Xz-waterWatcher-TWO" viewBox="0 0 1024 1024"><path d="M554.666667 174.592c93.994667 17.408 170.666667 91.178667 170.666666 188.074667V469.333333a255.36 255.36 0 0 0-190.805333 85.333334H469.333333v42.666666a42.666667 42.666667 0 1 1-85.333333 0v-42.666666h-38.698667C325.12 554.666667 298.666667 539.178667 298.666667 508.501333V362.666667c0-96.853333 76.672-170.666667 170.666666-188.074667V170.666667H362.666667a42.666667 42.666667 0 1 1 0-85.333334h117.333333c41.216 0 74.666667 33.408 74.666667 74.666667v14.592z m13.312 752.682667a257.322667 257.322667 0 0 1-58.581334-64.426667 72.021333 72.021333 0 0 1-49.365333-22.144 144 144 0 0 0-207.957333 0l-3.328 1.962667c-33.877333 19.626667-74.368 13.525333-107.392-7.466667a35.797333 35.797333 0 0 0-45.226667 5.546667 38.656 38.656 0 0 0 0 53.546666 144 144 0 0 0 207.957333 0 71.936 71.936 0 0 1 103.936 0 143.872 143.872 0 0 0 160 32.981334zM469.333333 725.333333c0-10.666667 0.64-21.12 1.92-31.445333a73.856 73.856 0 0 1-11.221333-9.514667 144 144 0 0 0-207.957333 0l-3.328 1.962667c-33.877333 19.626667-74.368 13.525333-107.392-7.466667a35.797333 35.797333 0 0 0-45.226667 5.546667 38.656 38.656 0 0 0 0 53.546667 144 144 0 0 0 207.957333 0 71.936 71.936 0 0 1 103.936 0c19.114667 19.712 42.197333 32.853333 66.602667 39.424A257.152 257.152 0 0 1 469.333333 725.333333z m170.666667-362.666666C640 308.906667 588.245333 256 512 256S384 308.906667 384 362.666667V469.333333h256V362.666667z m-64-10.666667a42.666667 42.666667 0 0 1-42.666667 42.666667h-42.666666a42.666667 42.666667 0 1 1 0-85.333334h42.666666a42.666667 42.666667 0 0 1 42.666667 42.666667z m149.333333 227.029333a146.304 146.304 0 1 1 0 292.608 146.304 146.304 0 0 1 0-292.608zM944.768 725.333333a219.434667 219.434667 0 1 0-438.869333 0 219.434667 219.434667 0 0 0 438.869333 0z m-182.869333-74.368a36.565333 36.565333 0 0 0-73.130667 0v54.869334a36.565333 36.565333 0 1 0 73.130667 0v-54.869334zM725.333333 841.130667A36.565333 36.565333 0 1 0 725.333333 768a36.565333 36.565333 0 0 0 0 73.130667z"  ></path></svg>