<?xml version="1.0" standalone="no"?><svg xmlns="http://www.w3.org/2000/svg" class="icon"  id="Xz-waterOutageTimeoutAlarm" viewBox="0 0 1024 1024"><path d="M822.528 417.109333a40.746667 40.746667 0 0 1 19.498667-49.066666 40.661333 40.661333 0 0 1 57.813333 22.656 412.288 412.288 0 0 1 23.594667 138.752c0 235.690667-195.669333 423.978667-430.976 413.013333-208.298667-9.642667-378.026667-177.365333-391.253334-386.346667-13.781333-217.813333 141.781333-406.656 353.962667-435.882666a40.490667 40.490667 0 0 1 46.122667 40.192c0 20.181333-15.189333 38.485333-35.072 40.149333h0.128l-0.597334-4.266667 0.341334 4.266667h0.170666c-161.706667 22.4-284.501333 162.688-284.501333 328.32 0 190.805333 160.853333 343.125333 351.274667 330.837333 161.194667-10.368 292.992-139.306667 307.2-300.928a342.485333 342.485333 0 0 0-17.706667-141.696z m-317.312-77.952h0.085333l60.629334 142.805334c1.194667 2.816 2.090667 5.674667 2.645333 8.533333 3.669333 6.357333 5.76 13.696 5.76 21.504v155.136a43.050667 43.050667 0 1 1-86.101333 0v-148.224a43.093333 43.093333 0 0 1-1.578667-3.328m0 0L426.026667 372.736a43.093333 43.093333 0 0 1 79.274666-33.621333h-0.085333M686.378667 81.066667h0.042666c19.072 0 36.778667 9.941333 47.573334 26.453333 72.618667 111.189333 73.088 150.144 73.088 163.84 0 70.613333-53.888 128.554667-120.661334 128.554667s-120.618667-57.941333-120.618666-128.554667v-2.645333c0.298667-16 4.906667-56.789333 73.130666-161.194667a56.917333 56.917333 0 0 1 47.445334-26.453333z m-2.474667 70.314666C642.986667 216.746667 628.266667 256 628.266667 270.08c0 35.029333 26.069333 63.573333 58.154666 63.573333s58.197333-28.544 58.197334-63.573333c0-14.037333-14.677333-53.333333-55.68-118.613333a1112.746667 1112.746667 0 0 0-2.517334-4.010667l-2.517333 3.968z"  ></path></svg>