<?xml version="1.0" standalone="no"?><svg xmlns="http://www.w3.org/2000/svg" class="icon"  id="Xz-windVelocity" viewBox="0 0 1024 1024"><path d="M128.170667 426.88a42.666667 42.666667 0 1 1 0-85.333333h596.992a85.333333 85.333333 0 0 0 0-170.666667 42.666667 42.666667 0 1 1 0-85.333333 170.666667 170.666667 0 0 1 0 341.333333H128.128z m170.282666 128a42.666667 42.666667 0 1 1 0-85.333333h469.333334a42.666667 42.666667 0 0 1 0 85.333333h-469.333334z m-213.162666 85.333333a42.666667 42.666667 0 0 1 42.666666-42.666666h597.162667a170.666667 170.666667 0 0 1 0 341.333333 42.666667 42.666667 0 1 1 0-85.333333 85.333333 85.333333 0 0 0 0-170.666667H128a42.666667 42.666667 0 0 1-42.666667-42.666667z"  ></path></svg>