<?xml version="1.0" standalone="no"?><svg xmlns="http://www.w3.org/2000/svg" class="icon"  id="Xz-x-temperaturealarm" viewBox="0 0 1024 1024"><path d="M586.24 262.869333C586.24 187.477333 523.52 128 448.128 128l-7.765333 0.213333C384 131.285333 335.872 167.509333 317.653333 218.026667h-98.986666c-17.152 0-33.024 8.32-41.6 22.528-8.533333 14.208-8.533333 32 0 45.013333 8.533333 14.250667 24.448 22.528 41.557333 22.528h91.306667l-0.042667 45.056H218.624c-17.066667 0-32.981333 8.277333-41.557333 22.485333a44.586667 44.586667 0 0 0 41.557333 67.456h91.264v84.053334l-3.242667 2.218666c-59.562667 42.581333-95.018667 109.226667-95.018666 182.272 0 126.037333 106.410667 226.986667 235.52 226.986667 15.445333 0 30.549333-1.450667 45.184-4.181333a257.28 257.28 0 0 1-75.776-84.096c-68.522667-13.397333-119.594667-70.912-119.594667-138.709334 0-44.8 21.546667-85.845333 59.306667-112.810666l1.877333-1.28 18.517333-12.714667a42.666667 42.666667 0 0 0 18.517334-35.2v-22.442667l0.042666-264.362666c0-25.941333 21.546667-47.914667 49.749334-49.450667L448.725333 213.333333c29.269333 0.341333 52.224 22.741333 52.224 49.536v247.509334a254.464 254.464 0 0 1 85.333334-35.413334v-212.053333z m-137.514667-49.493333L448.085333 213.333333h2.304-1.664zM640 578.986667a146.304 146.304 0 1 1 0 292.608 146.304 146.304 0 0 1 0-292.608zM859.434667 725.333333a219.434667 219.434667 0 1 0-438.869334 0 219.434667 219.434667 0 0 0 438.869334 0z m-182.869334-74.368a36.565333 36.565333 0 0 0-73.130666 0v54.869334a36.565333 36.565333 0 1 0 73.130666 0v-54.869334zM640 841.130667A36.565333 36.565333 0 1 0 640 768a36.565333 36.565333 0 0 0 0 73.130667z"  ></path></svg>