<?xml version="1.0" standalone="no"?><svg xmlns="http://www.w3.org/2000/svg" class="icon"  id="Xz-x-distancealarm" viewBox="0 0 1024 1024"><path d="M426.666667 85.333333H213.333333a128 128 0 0 0-128 128v554.666667a128 128 0 0 0 128 128h213.333334c32.085333 0 61.44-11.818667 83.882666-31.317333A254.805333 254.805333 0 0 1 469.333333 725.333333c0-75.818667 32.981333-143.957333 85.333334-190.805333V213.333333a128 128 0 0 0-128-128z m42.666666 640v42.666667a42.666667 42.666667 0 0 1-42.666666 42.666667H213.333333a42.666667 42.666667 0 0 1-42.666666-42.666667v-42.666667h128a42.666667 42.666667 0 1 0 0-85.333333H170.666667v-85.333333h128a42.666667 42.666667 0 1 0 0-85.333334H170.666667V341.333333h128a42.666667 42.666667 0 0 0 0-85.333333H170.666667V213.333333a42.666667 42.666667 0 0 1 42.666666-42.666666h213.333334a42.666667 42.666667 0 0 1 42.666666 42.666666v512z m490.666667-256c0 41.642667-4.608 84.821333-13.226667 127.402667a257.365333 257.365333 0 0 0-74.24-80.853333c1.408-15.530667 2.133333-31.104 2.133334-46.549334 0-118.058667-41.898667-216.234667-94.165334-268.501333a42.666667 42.666667 0 1 1 60.330667-60.330667C916.608 216.234667 960 342.058667 960 469.333333z m-241.152-193.28c23.594667 37.76 50.901333 109.098667 53.418667 197.546667a257.450667 257.450667 0 0 0-85.461334-1.408c-2.645333-70.101333-24.064-124.928-40.32-150.912a42.666667 42.666667 0 1 1 72.362667-45.226667zM725.333333 579.029333a146.304 146.304 0 1 1 0 292.608 146.304 146.304 0 0 1 0-292.608zM944.768 725.333333a219.434667 219.434667 0 1 0-438.869333 0 219.434667 219.434667 0 0 0 438.869333 0z m-182.869333-74.368a36.565333 36.565333 0 0 0-73.130667 0v54.869334a36.565333 36.565333 0 1 0 73.130667 0v-54.869334zM725.333333 841.130667A36.565333 36.565333 0 1 0 725.333333 768a36.565333 36.565333 0 0 0 0 73.130667z"  ></path></svg>